<?xml version="1.0" encoding="utf-8"?>
<!-- Generator: Adobe Illustrator 22.0.0, SVG Export Plug-In . SVG Version: 6.00 Build 0)  -->
<svg version="1.1" id="Layer_1" xmlns="http://www.w3.org/2000/svg" xmlns:xlink="http://www.w3.org/1999/xlink" x="0px" y="0px"
	 viewBox="0 0 690.2 446.2" style="enable-background:new 0 0 690.2 446.2;" xml:space="preserve">
<style type="text/css">
	.st0{fill:none;stroke:#000000;stroke-miterlimit:10;}
</style>
<path class="st0" d="M14.5,364.5c0.4-22.3-12.2-8.2-2.5-28.5l-2-11.7c-2.1-11.8-2.5-23.9-1.3-35.8l7.1-69.8
	c0.8-7.8-1.3-15.7-5.9-22.1l-3-4.1l4.4-25.8c2,0.1,3.4,4.7,8.4,5.2c2.8,0.3,5.1-0.9,11.4-1.1c0.8,0,1.9,0,3.3,0.3
	c2.8,0.8,4.5,2.6,5,3.1c2.9,2.9,11,8.6,15.7,10.2c11.9,4.2,28.5-8.2,30.7-4.8c0.2,0.3,0.6,1.4,1.8,2.7c0.8,0.9,1.4,1.7,2.3,2.1
	c2.8,1.3,7.1-0.9,7.8-3.1c0.5-1.6,0.5-3,0.5-3c0-0.5-0.1-0.6,0-0.7c0.5-0.9,4.3,0.8,9,1.6c2.2,0.4,8.7,1.6,10.1-0.9
	c0.5-0.9,0.6-2.8-0.2-3.3c-0.2-0.1-0.3-0.1-0.5-0.1c-1-0.3-1.3-1.9-1.7-3.1c-0.3-1.2-0.8-2.4-1-3.7c-1.1-5.7-12-14.3-10.2-17.8
	c0.7-1.4,3.9-2.7,4.1-4c0.1-0.5,0-0.8,0-0.8c-0.1-0.6-0.5-0.8-0.7-1.3c0,0-0.2-0.5,0-1.3c0.3-1.1,3.5-3.3,9.5-3.5
	c7.1-0.2,10.3,2.7,12.3,0.8c1-0.9,0.1-1.4,1.3-6.4c0.6-2.6,1.4-4.7,0.7-6.6c-0.1-0.4-0.6-1.6-1.4-1.8c-0.2-0.1-0.8-0.1-1.3-0.2
	c-0.4,0-0.7,0-0.7,0c-1.3,0-5.4-10-8.2-15c-2.1-3.8-4.1-7.5-6.8-7.5c-0.5,0-1,0.1-6.4,5.6c-2.8,2.9-4.7,4.9-4.5,7.4
	c0,0.4,0,0.8,0.3,1.3c0.9,1.9,3.4,1.8,3.8,3.5c0,0.1,0.1,0.5,0,0.9c-0.2,0.7-1,1-1.4,1.1c-2.8,1.1-4,1.3-4,1.3
	c-2,0.3-3.8,0.6-4.3,0.7c-5.7,1.1-10.7,7.5-13,7.5c-0.1,0-0.6,0-1.4,0c-1.1,0-1.3,0.2-1.7,0.1c-0.9-0.2-1.3-1.1-1.7-1.5
	c-1.6-1.7-9.4,4.7-16.4,7c-9.3,3.1-19.1-0.4-19.1-1.5c0-0.5,2.3-0.8,2.2-1.5c0-0.6-1.6-1.3-2.4-0.8c-0.8,0.5-0.4,1.9-1.2,2.3
	c-0.5,0.2-1.3-0.1-1.7-0.5c-0.4-0.6-0.1-1.1-0.3-1.5c-0.7-1.2-7.1,1.4-12.4,2.6c-7.1,1.7-14.2,1.4-14.9-0.6
	c-0.4-1.1,1.2-2.6,0.6-3.1c-0.4-0.4-1.3,0.4-2,0.4c-4.1-0.3-5.8-29.7,0-31.4c0.7-0.2,2.4-0.3,4-1.6c0.3-0.3,1.3-1.1,1.5-2.5
	c0.1-0.7,0-1.2,0-1.4c-0.7-4.3,2.4-14,2.3-18.6c0-0.1,0-0.4,0.1-0.6c0.8-1,4.3,1.4,8.9,2.4c3.9,0.9,8.7,0.7,9.5-1
	c0.3-0.8-0.5-1.4-0.5-3.6c0-1.9,0.6-2.3,0.5-3.2c-0.4-2.4-5.1-4.1-9.1-4.3c-3.5-0.2-5.6,0.8-10,0.9c-0.3,0-1.5,0-3.2,0.1
	c-2.6,0.1-2.7,0.1-2.9,0.1c-4.4-0.4-7.6-50,0-51.2c2.1-0.3,3.1,3.5,8.7,5.1c4.7,1.4,6.8-0.4,11.1-0.3c9.9,0.2,10.3,9.9,21.8,12.3
	c6.5,1.4,14.8,0.1,19.1-1.4c0.7-0.2,3-1.1,6.2-1.8c2.3-0.5,4.9-1,6.8-0.9c5.1,0.3,5,5.1,12.7,9.9c5.8,3.7,12.5,5.1,17.3,5.1
	c0.4,0,0.4,0,0.7,0c5.2,0.2,6.8,4.5,12.4,8.4c0.9,0.6,7.4,5.1,15.6,5.2c0.5,0,0.4,0,0.7,0c6.6,0.3,7.3,8.1,13.1,9.3
	c2.7,0.5,6.4-0.4,8,0.9c0.8,0.7,1.3,1.5,1.3,1.5c0.5,0.9,0.5,1.5,0.7,1.9c0.8,1.7,5,1.9,8.1,1.2c3.8-0.9,6.3-3.1,6.2-3.2
	c0-0.1-1.2,0.8-2.7,0.6c-0.9-0.1-2.1-0.7-2.1-1.3c0-0.7,1.9-1.3,3.7-1.8c2.3-0.7,3.5-1.1,4.5-0.9c2.5,0.5,2.4,2.7,5.2,4.4
	c3.5,2,7.6,0.7,7.8,1.7c0.1,0.5-0.8,0.5-1.5,1.9c-0.5,1-0.5,1.9-1.2,2.2c-0.3,0.1-0.6,0-0.7,0c-1.8-0.5-20.6,2.4-24.8,2.9
	c-13.6,1.8-23.7-0.6-24.3,1.9c-0.2,0.7,0.6,0.8,0.7,2.2c0.3,2.4-1.7,4.1-2.1,7.4c0,0.3-0.1,0.7,0.1,1.1c0.6,1.4,3.2,1.7,3.3,1.6
	c0-0.1-1.9-1.2-2.5-0.6c0,0-0.2,0.2-0.2,0.6c0.1,2.1,19.1,2.3,23.1,8.5c0,0,1.2,1.9,2.3,7.2c0,0.1,0.1,0.4,0,0.7
	c-0.1,0.2-0.2,0.3-0.3,0.6c-0.2,0.4-0.3,0.7-0.4,0.8c-0.4,0.8-3.5,3-4.7,4c-2.2,1.9-2.6,4.3-2.8,4.2c-0.2-0.1,0.2-1.9,1.5-2.5
	c0.5-0.3,1.1-0.4,1.2-0.2c0.1,0.2-0.8,0.7-1.5,1.9c-0.5,1-0.5,1.8-1.2,2.2c-0.2,0.1-0.4,0.1-0.5,0.4c-0.2,0.3-0.1,0.6-0.2,1
	c-0.1,0.5-0.5,0.6-0.6,0.9c-0.2,1.1,4,2.5,4,2.5c9.5,3.2,13.5,9.1,17.6,7.1c2.1-1.1,1.5-2.9,4.2-4.4c2-1,3.6-0.8,7.9-0.6
	c6.4,0.2,6.6-0.3,8.5,0c7.9,1.1,6.9,9.4,15.5,12.9c5.6,2.3,13.9,1.8,22.7,1.4c0.1,0,0.4,0,0.7,0c2.4,0.1,3.4,1.6,5.2,2.4
	c2.8,1.3,5.7,0.3,5.7,0.3c0,0-0.9,0.1-1.3-0.4c-0.1-0.1-0.2-0.2-0.1-0.3c0.2-0.3,1.9,0.6,4.2,0.9c2.2,0.3,4,0,4.1,0.5
	c0,0.1-0.1,0.3-0.1,0.3c-0.3,0.5-1.3,0.4-1.3,0.4c0,0,2.4,0.3,7.4-0.2c2.5-0.2,4.3-0.5,7.6-0.5c0.7,0,1.2,0,1.4,0
	c10.1,0.1,20-0.6,20-0.6c10.3-0.8,15.5-1.2,18.2-2.8c3-1.7,4.7-3.8,8.4-4c4.2-0.2,8.1,2.1,8,2.6c0,0.1-0.4,0.1-1.1,0.5
	c-0.5,0.3-1,0.7-0.9,0.9c0,0.1,0.3,0,1.2-0.3c1.3-0.4,1.4-0.4,1.5-0.4c0.8,0.2,0.5,1.9,1.1,2.8c1.9,3.1,13.2-2.2,16,1.3
	c0.6,0.8,1.1,2.5,2.7,3.2c0.3,0.1,0.8,0.4,1.4,0.2c0.8-0.2,0.9-1,1.8-1.4c0.6-0.3,1.2-0.1,1.6,0c3.7,0.7,5.1-0.4,13,2
	c7.3,2.1,6.7,3.2,10.9,4.1c6.8,1.5,7.9-1.5,17.7-1.7c10.3-0.2,11.5,3.1,17.8,1c3.9-1.3,5.9-3.3,9.5-2.6c3,0.6,3.4,2.5,6.9,3.3
	c2.1,0.4,4.1,0.1,8.1-0.7c5.7-1.1,5.9-1.8,8.3-2c5.9-0.6,6.6,3.3,12.5,3.8c8.2,0.8,12.4-6.1,19.6-5.2c1.2,0.1,3.2,0.6,5.7-0.1
	c2.4-0.6,4-1.9,4.5-1.3c0.5,0.5-0.4,2.3-1,3.3c-0.4,0.7-0.7,0.9-0.9,1.6c-0.2,0.7-0.1,1.5,0,2c0.1,0.5,0.2,1,0.3,1.3
	c0.6,1.6,3.4,2.1,3.8,2.1c6.6,1.2,12.1,9.4,16.7,7.3c1.7-0.7,3.9-3.2,3.8-3.9c0-0.1,0-0.4,0.2-0.6c0.2-0.1,0.5-0.1,0.5-0.1
	c1,0.2,18.5-5,25.2-4.1c0.8,0.1,2.5,0.5,3.2,1.7c0.1,0.1,0.4,0.7,0.2,1c-0.2,0.3-0.8,0-1.3,0.4c-0.5,0.3-0.8,0.8-0.7,1
	c0.1,0.2,0.7,0.2,1.1,0c0.6-0.3,0.5-1,1.2-1.3c0.1,0,0.3-0.1,0.4-0.1c0.8,0.1,0.6,2.4,1.3,3.4c2.1,3.3,14.5-1.8,16.4,1.4
	c0.5,0.9,0.4,2.6,1.7,3.2c0.5,0.2,0.9,0.2,1,0.2c6.6-0.3,13.1,1.4,19.7,1.5c14.2,0.3,18.3,1.1,18.5,2.6c0.1,0.3-0.3,1.2-1,3.1
	c-0.8,2.1-1.1,2.4-1,3c0.2,1.3,1.5,1,2.9,2.9c1.1,1.4,1.3,2.7,2.6,3.2c0.3,0.1,0.5,0.2,0.8,0.1c1.1-0.2,1.2-2.2,1.9-2.2
	c0.3,0,0.7,0.4,0.7,0.7c0,1.2-6.5,2.1-10.9,2.7c0,0-29.2,4.1-29.3,3.4c0-0.1,1.6-0.3,1.9-1.4c0,0,0.1-0.3,0.1-0.6
	c-0.3-1.6-13.1-1.1-19.8-1c-14.4,0.2-17-1.5-19.1,1c-4.3,5.2,1.7,18.6,0.4,19c0,0,0,0,0,0c-5.2,0.6-10.8,1.2-11.6-0.7
	c-0.2-0.5,0-1.1,0.1-1.6c0.5-1.4,1.5-1.6,1.9-2.5c0.9-2.1-2.5-6.5-5.4-6.4c-1,0-1.9,0.5-2.1,0.3c-0.1-0.3,1-0.7,1.4-1.9
	c0.3-0.9-0.1-1.3,0.1-2.3c0.3-1.2,1.2-1.4,1.2-1.9c0-1.3-5.5-2.9-11.7-2.7c-4.3,0.2-10.5,1.3-10.8,3.4c-0.1,1.1,1.3,2.6,1.7,2.5
	c0.2-0.1,0.2-0.5,0.3-0.5c0.1,0,0.3,0.9,0,1c-0.5,0.3-1.9-2.7-3.4-2.4c-0.2,0-0.5,0.1-1.1,0.9c-1.8,2.5-1,5.8-1.6,5.9
	c-0.5,0.1-0.9-2.2-2.4-2.5c-0.9-0.1-1.7,0.6-1.7,0.5c0-0.1,0.8-0.5,1.6-1.4c0.5-0.5,1.3-1.4,1.1-2c-0.2-0.4-0.6-0.5-0.7-0.5
	c-1.1-0.2-1.7,1.2-2.7,0.9c-0.3-0.1-0.6-0.3-0.7-0.5c-0.2-0.2-0.6-0.6-0.6-0.9c0-0.6,0.8-0.7,1.2-1.6c0.1-0.2,0.3-0.7,0.1-0.9
	c-0.6-0.8-5.4,0.7-6.2,3.5c-0.4,1.6,0.7,2.9,0.1,3.3c-0.6,0.5-2.6-0.6-4-2c-1.7-1.8-1.7-3.4-2.8-3.5c-0.9-0.1-1.7,0.8-2.1,1.3
	c-0.9,1-0.6,1.5-1.3,2.1c-1.1,1-3.6,1-5.1,0c-0.9-0.6-1.5-1.5-2.4-1.4c-0.1,0-0.4,0.1-0.5,0.3c-0.2,0.4,0.4,0.9,0.5,1.1
	c0.1,1.6-22.4,6.2-23.9,2c-0.3-0.8,0.2-1.9,0.7-2.6c1.5-1.9,4.8-1.6,4.8-2.2c0-0.3-0.7-0.6-1-0.6c-0.8-0.2-1.5,0.2-1.7-0.1
	c-0.1-0.1,0.1-0.4,0.2-0.4c0.5-0.7,1.9-0.4,3.9-0.3c3.5,0.2,4.2-0.2,4.5-0.6c0.1-0.1,0.3-0.4,0.3-0.8c0-0.2-0.2-0.8-3.1-1.4
	c-1.9-0.4-2.1-0.2-3.7-0.6c-1.6-0.4-1.5-0.7-2.4-0.7c-1.5-0.1-2.9,0.5-3.1,0c-0.1-0.2,0-0.5-0.2-0.6c-0.2-0.1-0.4-0.1-0.5-0.1
	c-3.6,0.6-7.3,0-10.9,0c-0.6,0-0.5,0-1.4,0c-9.6,0-22.8,0.7-25.4,0.7c-0.4,0-0.7,0-1.4,0c-1.3,0-1.5,0.1-1.9,0
	c-0.9-0.3-0.9-1.2-1.5-1.4c-0.9-0.3-1.7,1.4-4.2,3.3c-2.6,1.9-4.5,2.1-5.3,2.2c-0.3,0-0.6,0-0.7,0c-5.9-0.2-10.6,2.4-14.3,0.2
	c-1.2-0.7-2.4-2-2.8-1.6c-0.2,0.2,0,0.6-0.1,1c-0.4,1.8-7.5,1.8-18.3,1.7c-0.7,0-1.1,0-1.4,0c-5.3,0.1-6.3,1.7-10.4,2.2
	c-2.3,0.3-1.8-0.2-11.4-0.2c0,0-0.3,0-0.7,0c-9.7,0-34.8,4.1-34.8,4.1c-22.3,3.6-22.7-3.7-39.6,1.4c-0.7,0.2,0.1,0-20.5,7.5
	c-27.9,10.2,4.1-1.6-21.1,5.5c-2.9,0.8-7.8,2.2-10.2,0c-0.4-0.3-2.9-2.7-4.3-3.1c-0.9-0.2-1.8-0.3-1.8-0.3s-0.3,0-0.7,0
	c-2,0.1-5.1,1.3-5.1,1.3c-2.1,0.8-6.3,2-7.2,0.7c-0.2-0.3,0-0.5-0.2-1.1c-0.5-1.5-2-1.4-2.5-2.6c-0.4-1,0.4-1.5,0-2.4
	c-0.5-1-2.2-1.2-4-1.3c-1.7-0.1-3.9-0.3-4.2,0.6c-0.4,1,1.7,2.2,1.2,3.9c-0.1,0.4-0.3,0.7-0.5,0.9c-1,1.2-5.8,4.4-12.5,3.1
	c-4-0.8-7.6-3-12.1-3.1c-0.4,0-0.7,0-0.7,0c-2.8,0.1-4.9,0.9-7.3,1.8c-6,2.4-7.3,3-8.4,2.3c-0.2-0.1-1.1-0.7-2-1.4
	c-1-0.8-1.4-1.1-2.1-1.3c-0.7-0.2-1,0-1.8,0c-1.5-0.1-2.6-1.1-3-1.4c-2.2-1.6-7.4,1.2-13.3,3.4c-7.8,2.8-11,2.3-12.1,4.9
	c-0.9,2.4,0.8,5.1,1,5.4c4.7,7.3,21.4,5.9,33.8,4.8c3.7-0.3,7.4-0.2,11.1-0.3c6.6-0.3,10.2-0.5,12.1,1.7c1,1.2,1.7,3.4,1.9,4.1
	c0.4,1.3,1,3.1,0.8,4.1c-1.1,5.1-25.5,0.9-27.9,7.4c-0.8,2.2,1,5.8,3.3,6.9c1.6,0.8,2.3-0.3,4.6,0.1c4.9,0.7,5.7,6,9.8,6.1
	c1.2,0,2.3-0.4,5.4-0.7c0.2,0,0.4,0,0.7-0.2c1.2-0.7,0.7-2.8,1.3-3.9c1.3-2.5,8.4-1.1,8.8-1.1c8.7,1.7,11.1,6.8,15.8,6.3
	c0.6-0.1,3.5-0.5,7.4-0.5c0.4,0,0.6,0,0.7,0c6.8,0,23.5-11.4,38.9-11.6c0.2,0,0.6,0,1.4,0c12.5,0,13.8,0.7,18.1,0.4
	c7.1-0.5,15.1-3,15.3-5.9c0.1-0.7-0.4-1.5-0.5-1.7c-1.4-2.4-5-2.1-5-2.4c-0.1-1.1,29.4-5.6,45-2.7c5.6,1.1,11.5,0.9,17.1,2
	c0.4,0.1,1.8,0.4,3.5,0.1c1.3-0.2,1.9-0.6,2.6-0.8c2.6-0.8,4.3,1.5,7.6,2.4c5,1.4,8.6-1.8,9.5-0.4c0.7,1.1-1,4-2.4,4.1
	c-0.8,0-1.5-0.9-1.7-0.7c-0.2,0.2,0,0.8,0.1,1.1c0.2,0.4,0.3,0.5,0.3,0.7c0,0.4-0.4,0.8-0.5,0.9c-0.8,0.7-1.6-0.3-2.9,0.2
	c-1,0.3-1.2,1-2.4,1.6c0,0-0.1,0.1-0.2,0.2c-0.2,0.5,0.4,1.5,1.2,1.9c1,0.5,1.7-0.3,2.2,0.1c0.6,0.5-0.2,1.5,0.1,3.1
	c0.3,1.8,1.4,1.8,2,3.8c0.4,1.5,0,2.2,0.5,2.7c0.8,0.7,1.9-0.1,3.5,0.1c2.8,0.4,4.1,3.6,4.7,3.3c0.6-0.4-1.9-4.1-0.4-6.8
	c0.5-0.9,1.4-1.6,1.8-1.5c0.5,0.2,0.4,1.9,0.2,4c-0.2,2.4-0.5,2.7-0.2,3.5c0.8,1.9,3.8,2.5,4.1,2c0.2-0.3-0.9-0.9-0.8-2.2
	c0-0.5,0.2-0.6,0.5-1.8c0.3-1.1,0.2-1.3,0.3-1.5c0.7-1,4.1-0.6,7,1c3.3,1.8,3.3,3.7,5.3,3.8c2.5,0.1,4.3-2.7,5.3-2
	c0.7,0.4,0.2,1.8,0.8,2c0.7,0.3,1.6-1.2,3.5-2.7c2.4-1.8,4.6-2.2,4.7-2.1c0,0.1-1.1,0.4-1.4,1.4c0,0-0.3,0.9,0,1.3
	c0.5,0.5,1.3-0.3,2.6-0.1c1.7,0.3,2.3,2.3,2.9,2.1c0.4-0.2,0.5-1.3,0.3-2.1c-0.8-3.7-7.7-5.6-7.8-5.4c-0.1,0.3,11.7,7.4,16,4.2
	c0.8-0.6,2.1-2.2,4.5-2.8c1.1-0.3,1.8-0.2,2.4,0c1.3,0.4,1.9,1.5,2.4,2c1.6,1.7,5.3,0.8,13.7-1.8c5.7-1.8,10-3.3,11.7-1.6
	c0.2,0.2,0.5,0.5,1.7,1.8c1.3,1.4,2.3,2.4,2.4,2.3c0.2-0.2-1.1-1.9-0.6-2.4c0.3-0.3,1.1,0.1,1.3-0.3c0.1-0.2,0-0.7-0.3-0.8
	c-0.5-0.2-1.3,0.9-1.6,0.7c-0.1-0.1-0.2-0.4-0.1-0.6c0.5-1.3,6.2-0.2,6.7-0.1c0.8,0.2,6.3,1.3,6.3,2.8c0,0.5-0.7,0.9-1,1
	c-2.6,1.4-6.1-1-6.5-0.3c-0.2,0.3,0.6,0.7,0.9,1.7c0.4,1.3-0.1,2.9-0.9,3.8c-1.6,1.9-4.9,1.7-6.4,1.5c-0.8-0.1-4.6-0.5-6.6-0.1
	c-0.2,0-0.6,0.1-0.7,0.4c-0.4,0.7,1,1.7,0.7,2.3c-0.5,1.3-7.6-0.1-7.8-1.8c0-0.1,0-0.6-0.4-0.9c-0.4-0.4-0.9-0.5-1.1-0.5
	c-1.7-0.2-3.8,2.4-3.7,2.5c0.1,0.1,1-0.4,1-1c0-0.7-1.3-1.5-2.4-1.7c-0.3,0-1.2-0.2-2,0.3c-1.7,0.9-1.3,3.2-2.8,3.8
	c-0.8,0.3-1.7,0-2.3-0.4c-1.9-1.3-1.1-4.7-2.5-5.1c-0.3-0.1-0.8,0-1,0.2c-1.3,1,0.9,4.6-0.4,5.9c-0.2,0.2-0.3,0.1-2.6,0.5
	c-2,0.3-2.8,0.4-2.9,0.2c-0.1-0.3,3.1-1.7,3.8-2.9c0.1-0.2,0.4-0.6,0.3-1.2c0,0,0-0.2-0.2-0.4c-0.4-0.8-2.7-1.2-3.9-0.3
	c-1.1,0.8-0.6,2-1.6,2.6c-1.2,0.7-2.6-0.6-3.2,0.1c-0.3,0.3-0.2,0.9-0.1,2.2c0.1,1,0.3,1.3,0.1,1.9c-0.2,0.5-0.5,0.9-0.7,1
	c-1.3,1.3-4.1,1.5-4.8,0.4c-0.2-0.3-0.3-0.8-0.1-1.1c0.6-0.7,2.7,0.4,3.3-0.4c0,0,0.2-0.3,0.1-0.5c-0.2-0.7-2.7-0.4-4.2-0.3
	c-3.4,0.3-4.9,1-5.4,0.3c-0.3-0.4-0.3-1.1,0-1.5c0.4-0.7,1.6-0.8,1.9-1.4c0.1-0.3,0.1-0.5,0.1-0.5s0-0.2-0.1-0.4
	c-0.3-0.5-1.8-1.5-2.6-1c-0.4,0.3-0.1,0.9-0.4,2.3c-0.2,0.9-0.3,1.9-1,2.5c-1.3,1.3-3.6,0.9-4.7,0.5c-0.5-0.2-0.7-0.4-0.8-0.5
	c-0.8-1-0.2-3.2,1.1-3.9c0.8-0.4,1.6-0.1,1.6-0.2c0-0.2-1.1-0.8-2.3-0.8c-0.5,0-1.9,0-2.5,0.8c-0.4,0.6-0.1,1.1,0.5,3.6
	c0.4,2,0.4,2.3,0.2,2.5c-0.7,0.7-3.2-0.2-3.3-1.2c-0.1-0.6,0.8-1.2,0.6-1.5c-0.1-0.2-0.8,0-1.1,0.1c-0.4,0.2-0.5,0.4-0.7,0.3
	c-0.4,0-0.5-0.5-0.9-0.5c-0.2,0-0.4,0.2-0.4,0.2c-0.4,0.6,0.5,1.6,0.4,1.8c-0.2,0.2-1.9-1.5-2.4-1.2c-0.4,0.3,0.1,1.8-0.3,1.9
	c-0.1,0-0.3-0.1-0.3-0.1c-0.6-0.5-0.1-1.6-0.4-1.9c-0.6-0.5-2.4,2.8-5.1,3c-1.7,0.2-4.6-0.7-5.8-0.3c-0.1,0-0.3,0.1-0.4,0.2
	c-0.4,0.5,0.5,1.3,0.4,1.8c-0.2,1.3-7.7,0.2-14.3,1.4c-4.4,0.8-4.1,1.7-8.2,2.7c-10.3,2.4-14.2-3.3-33.4-3.4c-0.1,0-0.3,0-0.7,0
	c-21.5,0.1-36.6,4.8-43.7,4.8c-0.1,0-0.3,0-0.7,0c-3.9,0-6.7,0.5-7.9,0.7c-4.6,0.7-5.2-0.5-8.5,0c-3.8,0.6-4.1,2.2-11.9,7.2
	c-6.8,4.3-10.5,5.6-10.6,8.5c0,1.1,0.5,1.9,0.8,2.5c2.4,3.8,7.6,4.5,15.6,5.7c16.7,2.6,15.7,3.3,18,2.7c5.1-1.3,12.7-5.4,15.4-4.1
	c1.2,0.6,2.6,1.4,2.6,1.4c1.2,0.7,1.9,1.1,2.2,1.3c2.4,1.4,5.2,0.6,8.4,0.8c2,0.1,3.7,0.7,7.3,1.9c7.3,2.5,6.6,4.1,11.1,5.3
	c6.6,1.7,12.5-0.7,14.3,2.3c0.3,0.6,0.4,1.1,1,1.6c1.7,1.1,4.3-0.8,5.8,0.4c0.3,0.2,0.4,0.5,0.5,0.7c0.6,0.4,1.3,0.7,2.1,1
	c2.2,0.7,4.2,0.6,5.4,0.4c-0.5,1.8-1.7,5.2,1.4,3.4c1.8,1.6-1.8,1.8,0,3.4c0.4,1.4,1.3,2.3,2.7,2.7c-3.2,7.9,8.2,7,8.2,13.6
	c-12.8,4.8-20.4,3.7-31.4-3.4c-2.3,6-13.4,2.9-17.6,0.1c-0.2,0-0.5-0.1-0.8-0.1c-3.5,1.2-13.2,2.2-18.4,4.1
	c-2.1-0.2-1.9-2.6-4.1-2.7c-2.4,0.4-3.3-0.8-4.8-1.4c0-0.2,0-0.5,0-0.7c-8.8,4.3-23.5,2.9-30,9.5c-2.9,16.2,31.9,3.7,38.9,10.2
	c9.1-4.5,16,2.5,25.4,1.4c1.5,1.7,2.3,4.1,4.8,4.8c-3,2.6-2.7,8.8-5.5,11.6c0.6,2.1,5.1,3.9,4.1,5.5c-1.1,1-6.3-1.1-8.2,0.7
	c-0.7,3,1.2,3.4,1.4,5.5c-3.5,2.2-9.3,2.1-8.2,8.3c1.5,2.5,6.4,4.2,8.3,2c0.3,0,0.4,0,0.7,0c2.1,2.2,3.4,5.2,7.5,5.5
	c1.1,0,2.3,0,3.4,0c3.7,0.1,2.4-4.9,5.5-5.5c0.8-0.6,1.8-0.9,3.4-0.7c0.6-0.5,1.5-0.7,2.7-0.7c0,0.7,0,1.4,0,2
	c-0.1,2.6,2.8,2.2,4.1,3.4c6.8,0.4,15.3,14.1,20.5,3.4c0-0.2,0-0.5,0-0.7c0.8,0.1,1.2-0.2,1.4-0.7c15.1,9.5,28.3-9.4,38.9,0.7
	c1-2.4,9-2,8.2-4.8c3.7-0.1,7.3-0.1,10.2,0.7c2.9-1.9,0-5.8-1.4-7.5c0-0.2,0-0.5,0-0.7c-1.5-2.8-4.6-4-7.5-5.5
	c-3.7-5.4-3.8-14.7-1.4-21.8c6.2,0.7,11.3-4.6,17.7-1.4c0.2,0,0.5,0,0.7,0c1.4,1.6,6.1,0.7,6.8-0.7c-2.4-8.4,3-10.2,2.7-15.7
	c4.1-2.3,7.6-5.2,9.5-9.6c12,2.5,25.7,1,27.3,15c0.2,1.1-0.6,1.2-0.7,2c-2.3,3-6.3,4.2-8.2,7.5c1.3,2.1,1-3,3.4-2
	c-0.8,1.5-2.3,2.3-2.7,4.1c-0.5,0.1-0.8,0.6-0.7,1.4c-2.1,1.7,2.4,2.6,3.4,3.4c6.8,0.8,15.9,14.5,21.1,2.7c8.1-0.7,18.2-3,21.8,4.8
	c7.8,1.8,13.9-1.3,19.1,1.4c0.2,0,0.5,0,0.7,0c0.2,1,1.5,0.8,2,1.4c6.7,10.1,26.6,13.5,37.5,8.2c0.2,0,0.5,0,0.7,0
	c5-0.1,10.2-5.4,14.3-2c3.2-4.6,18.4-7,18.4,2c4,3.3,10.8,1.3,17.1,1.4c0.8,1,0.8,2.8,2,3.4c2.1,0.3,2.8-0.9,3.4-2
	c9.1,0.2,16.4,4.7,24.6,6.1c9.7,1.7,19-5.8,28.6-0.7c-0.4,1.4-1.8,3-0.7,4.1c3.7,1,2.3-3.2,4.8-3.4c1.3,0.5,11.1-1.5,15.7-2
	c0.6,2.2-1.8,1.4-2,2.7c2.4,3.2,5.8-1.5,9.6,1.4c-0.1-2.1-1.3-4.7,1.4-5.5c-1.3,4.3,0.6,1.1,3.4,2.7c-2.7,2-0.2,6.5-4.8,7.5
	c1.1,3.1,3.4,1.3,4.1,4.1c-1.5,4.6-6.1,1.4-4.1,6.1c-0.2,1-2,0.2-2,1.4c-0.8-0.1-1.2,0.1-1.4,0.7c-0.5,0-0.9,0-1.4,0
	c-0.4-0.3-1-0.8-1.8-1.2c-4.8-2.6-9-0.9-13.9-1.3c-5.8-0.4-5.3-3.1-11.3-4.2c-8.6-1.6-9.2,3.9-19.1,3.4c0,0-15.6-0.9-18.4,0
	c-0.1,0-0.3,0.1-0.4,0.2c-0.4,0.5,0.5,1.3,0.4,1.8c-0.3,0.9-4.7-0.8-10-0.2c-2.4,0.2-4.3,0.8-8.4,0.9c-0.7,0-1.3,0-1.4,0
	c-5-0.1-13.1,1.9-17.1,2.7c-3.7,0.7-11.5,0.7-27.3,0.7c-0.6,0-0.5,0-0.7,0c-12,0-17.1,2-24.5,2.8c-10.5,1.1-21.2-0.7-27.3,1.3
	c-1.1,0.3-4.2,1.3-5.1,3.8c-0.3,0.9-0.1,1.2-0.4,1.7c-1.5,2.4-9.2,0.6-12.4-0.2c0,0-7.9-1.9-11.5-1.2c-0.4,0.1-1.5,0.3-1.9,1.1
	c-0.3,0.7,0,1.2-0.1,1.6c-0.3,1.7-11,3.9-25.5,0c0,0-14.6-4-22.2-2.7c-0.6,0.1-0.9,0.4-0.9,0.4c-0.7,0.7-0.3,1.7-0.5,2.3
	c-0.9,2.6-16.3-0.5-16.4,0c0,0.1,1.1,0.6,2.3,0.8c1.8,0.3,3.2-0.1,3.2-0.1c0,0.1-2.3,0.8-5.5,0.8c-2.7,0-5.5-0.5-5.4-0.8
	c0-0.1,0.3-0.1,0.3-0.2c0.1-0.6-13.8-2.5-17.4-2.5c0,0-0.2,0-4.1,0c0,0-0.7,0-0.7,0c-2.9,0-15.8-1.4-20.7-1.6
	c-11-0.4-21.2,3.6-21.6,2.3c0-0.1-0.1-0.5,0-0.9c0.3-0.8,1.4-1,1.4-1.1c-0.1-0.5-19.8-0.7-27.3,0c-0.7,0.1-3.1,0.3-3.8-0.9
	c-0.3-0.5-0.1-0.8-0.3-1.1c-0.9-1.7-8.8,3.4-15,1.8c-5.5-1.4-4.7-6.9-10.2-9.3c-3.4-1.5-4.4,0.3-21.3,4.7c0,0-9.9,2.6-22.4,3.5
	c-0.3,0-0.8,0.1-1.4,0c-1.9-0.2-2.1-0.8-3.4-0.8c-1.3,0-1.4,0.6-3.4,0.8c-0.8,0.1-1.5,0-2,0c-2.5-0.2-3.4-0.9-5.2-1.3
	c-3.6-0.8-5.6,1-6.4-0.1c-0.6-0.9,0.2-2.9,0.4-3.3c0.4-0.8,0.9-1.6,1-2.8c0-0.5-0.1-0.5,0-0.7c0.4-1.5,4.4-1.6,4.4-1.7
	c0-0.1-2.2,0.3-2.4-0.3c-0.1-0.2,0.1-0.4,0.2-0.4c0.5-0.7,1.8-0.4,3.9-0.3c3.5,0.2,4.2-0.2,4.5-0.6c0.1-0.1,0.3-0.4,0.3-0.8
	c0-0.2-0.2-0.8-3.1-1.4c-1.9-0.4-2.1-0.2-3.7-0.6c-1.6-0.4-1.5-0.7-2.4-0.7c-1.5-0.1-2.9,0.5-3.1,0c-0.1-0.2,0-0.5-0.2-0.6
	c-0.2-0.1-0.4-0.1-0.5-0.1c-3.6,0.6-7.3,0-10.9,0c-0.6,0-0.5,0-1.4,0c-9.6,0-22.8,0.7-25.4,0.7c-0.4,0-0.7,0-1.4,0
	c-1.2,0-1.5,0.1-1.9,0c-0.9-0.3-1.1-1.1-1.5-1.4c-1.5-1.4-6.4,4.4-13.1,6.3c-6.5,1.8-15.7,0.1-16.9,0.5c-0.1,0-0.5,0.2-0.7,0
	c-0.2-0.2-0.2-0.5-0.2-0.7c-0.4-1-4.4-0.2-4.6-0.7c-0.1-0.4,2.3-1,2.2-1.6c-0.1-0.5-2.3-1.1-3.3-0.2c-0.7,0.6-0.4,1.7-1,1.8
	c-0.4,0.1-0.9-0.4-1.1-0.8c-0.3-0.6-0.2-1-0.3-1.2c-0.5-1.1-7.1,1.5-11.4,2.6c-8.5,2.1-15.9-0.2-15.9-0.6c0-0.1,1.1-0.1,1.4-0.8
	c0.2-0.4,0.1-0.9,0-1.2c-0.9-1.4-5.9-0.5-6.1,1c-0.1,0.7,0.9,1.3,0.6,1.7c-0.3,0.6-2.1-0.3-4.5-0.1c-2.8,0.2-3.9,1.6-5.1,0.8
	c-0.7-0.4-1-1.2-1.3-1.8c-0.6-1.3-0.3-2.2-0.7-2.3c-0.7-0.3-2.3,1.6-2,2.3c0.2,0.5,1.3,0.4,1.3,0.4c0-0.1-4-1.2-7.6-1.7
	c-5.5-0.8-8,0.2-9.5-1.7c-0.9-1.2-0.5-2.3-1.7-3.1c-0.6-0.4-0.8-0.2-3.8-1c-0.6-0.2-0.8-0.2-1-0.1c-1.2,0.4-1.2,3.3-1.8,3.3
	c-0.2,0-0.2-0.2-0.6-0.5c-0.6-0.4-0.9-0.1-1.2-0.4c-0.5-0.5,0.6-1.6,0.1-2.5c-0.2-0.3-0.6-0.5-0.9-0.6c-0.4-0.1-1,0.2-1.2,0.6
	c-0.5,1,1.4,2.6,0.8,3.3c-0.1,0.1-0.3,0.2-0.3,0.2c-0.9,0.2-2-2-2.5-1.8c-0.4,0.2-0.2,1.8-0.2,1.8c0,0-0.4-3.8-1.5-4.6
	c-0.1-0.1-0.3-0.2-0.5-0.2c-0.5,0-0.9,0.5-1.1,0.6c-1.2,1.4-0.3,5.3-0.9,5.5c-0.4,0.1-1.4-1.1-1.5-2.4c-0.1-1.6,1.2-2.7,0.8-3.1
	c-0.2-0.2-0.9,0-1.2,0.1c-0.6,0.2-0.9,0.5-1.1,0.7c-0.9,0.8-2.6,1.1-3.2,0.6c-0.8-0.6,0.2-2.1-0.2-3.3c-1.3-4-15.4-3.7-15.5-2.8
	c0,0.3,1.6,1,2.1,0.5c0.8-0.7-1.5-3.8-0.7-4.6c0.5-0.5,1.3,0.5,2.4,0c1.3-0.5,1-2.3,2.3-2.7c0.9-0.3,1.8,0.4,2.1,0
	c0.3-0.3,0.1-1-0.2-1.4c-1-1.1-3.6,0-3.9-0.6c-0.1-0.3,0.3-0.5,1-1.7c0.5-0.8,0.9-1.6,1-1.7c0.9-2.1-4.3-6.5-4.4-6.5
	S14.2,377.8,14.5,364.5z"/>
</svg>
