<?xml version="1.0" encoding="utf-8"?>
<!-- Generator: Adobe Illustrator 22.0.0, SVG Export Plug-In . SVG Version: 6.00 Build 0)  -->
<svg version="1.1" id="Layer_1" xmlns="http://www.w3.org/2000/svg" xmlns:xlink="http://www.w3.org/1999/xlink" x="0px" y="0px"
	 viewBox="0 0 55.6 135.4" style="enable-background:new 0 0 55.6 135.4;" xml:space="preserve">
<style type="text/css">
	.st0{fill:none;stroke:#010101;stroke-miterlimit:10;}
</style>
<g>
	<path class="st0" d="M50.5,46.4c-0.7-2.7-1.8-3.6-4.5-3.6c-0.9,0-1.9-0.9-2.5-1.7c-0.2-0.3,0.4-1.5,0.9-2c1.6-1.7,1.8-3.3,0.6-5.4
		c-1.6-2.7-3.5-4.6-7-3.9c0-0.6-0.1-1,0.1-1.2c1.8-2.1,0.4-3.2-1.4-4.1c-3.4-1.7-7.9-0.3-9.8,3c-0.4,0.7-0.8,1.4-1.5,2.5
		c-0.5-3.9,1.9-6.7,5.5-7.2c2.3-0.3,5.6-3.6,5.6-5.8c0-1.9-0.3-3.7-2.7-4.2c-0.5-0.1-1.1-1.1-1.1-1.6c0.2-2.9-1.2-4.5-4-4.3
		c-2.5,0.2-4.4,1.5-5.8,3.5c-1.3,1.8-2.7,3-5,3.3c-3.6,0.5-5.7,5.1-4.3,8.5c0.2,0.5-0.1,1.8-0.5,2c-3,1.3-4.2,3.8-5.6,6.7
		C6,34.1,5.2,37.2,5,40.6c-0.3,4.4,2.8,7.9,7.2,8.2c2,0.1,3,0.8,2.8,2.9c-0.2,1.9,0.6,3.2,2.5,3.4c1.5,0.2,3.1,0,5.2,0
		c-0.4,0.7-0.6,1.2-0.7,1.5c-2.8,2.1-8.1,0.1-8.9-3.3c-0.2-0.9-0.8-2.2-1.3-2.3c-1.2-0.1-2.8,0.1-3.6,0.8c-1.7,1.5-2.3,3.7-1.7,6.1
		c0.3,1.1,0.3,2.4,0.1,3.5c-0.4,1.6,0.1,2.4,1.3,3.4c2.6,2.1,5.4,1.5,8.3,1.3c3.2-0.2,3.9,0.8,2.6,3.6c-0.9,2-0.5,3.3,1.4,4.1
		c1.3,0.6,2.7,1.3,4.1,1.6c2.3,0.5,3.4,2.2,3.6,4c0.2,1.2-1.2,2.6-1.9,3.9c-0.6,1.2-1.5,2.3-1.8,3.6c-0.5,2.5,1,4.3,2.6,6.1
		c1.1,1.4,2.7,3.5,2.3,4.7c-1.1,3.4,0.1,6.1,1,9.2c0.3,1.1-0.8,2.6-1.1,3.9c-0.1,0.5,0,1.1,0,1.7c0.6-0.3,1.6-0.4,1.8-0.8
		c0.4-0.9,0.8-2,0.6-2.9c-0.5-2.9,0.8-4.5,3-6c3.8-2.7,4.2-6.2,1.4-9.8c-1.2-1.5-1.1-2.8,0.3-3.9c1.5-1.3,3.2-2.3,4.8-3.5
		c1.9-1.4,2.1-2.9,0.4-4.5c-1.7-1.6-1.7-2.8-0.1-4.4c1.9-2,1.5-3.4-1-4.4C36.8,71,36.8,71,38,67.6c0.1-0.5,0.2-1,0.1-1.5
		c-0.3-1.8,0.5-2.2,2.2-2.7c1.7-0.6,3.2-2.2,4.7-3.4c0.8-0.7,1.4-1.8,2.3-2.5C52,53.7,52.2,52.2,50.5,46.4z"/>
	<path class="st0" d="M28.2,119c-1.6,1.8-1.8,3.5-0.6,7.3C31.3,123.5,32.5,122.1,28.2,119z"/>
</g>
</svg>
