<?xml version="1.0" encoding="utf-8"?>
<!-- Generator: Adobe Illustrator 22.0.0, SVG Export Plug-In . SVG Version: 6.00 Build 0)  -->
<svg version="1.1" id="Layer_1" xmlns="http://www.w3.org/2000/svg" xmlns:xlink="http://www.w3.org/1999/xlink" x="0px" y="0px"
	 viewBox="0 0 120.8 152.4" style="enable-background:new 0 0 120.8 152.4;" xml:space="preserve">
<style type="text/css">
	.st0{fill:#FFFFFF;stroke:#000000;stroke-miterlimit:10;}
</style>
<path class="st0" d="M65.2,102.9c-1.7,8.7,0.1,12.3,6.7,14.6c0-3.6-1.6-9,0.3-10.9c4.3-4.4,10-8,15.8-10.4c4.3-1.7,9.2,6.4,7.6,11.9
	c-0.3,1.1-0.8,2.6-1.6,3.1c-11.8,6.6-13.8,19.6-20,30c-5.4,9.1-7.9,9.1-18.3,7.3c-17.9-3-29.7-13-37.2-29
	c-4.4-9.3-8.6-18.6-13.1-27.8c-11.4-23.1-2.5-44.6,4.8-66.3c3.7-10.9,11-18.9,21.4-23.9c2.7-1.3,7-2.2,9.3-1
	c20.9,10.8,42,21.4,62.1,33.7c13.9,8.5,18.4,20.5,14.2,32.6c-1.7,4.8-5.2,10-9.3,12.9c-10.7,7.5-22.1,14-33.5,20.6
	C71.8,101.8,68.6,102,65.2,102.9z"/>
</svg>
