<?xml version="1.0" encoding="utf-8"?>
<!-- Generator: Adobe Illustrator 22.0.0, SVG Export Plug-In . SVG Version: 6.00 Build 0)  -->
<svg version="1.1" id="Layer_1" xmlns="http://www.w3.org/2000/svg" xmlns:xlink="http://www.w3.org/1999/xlink" x="0px" y="0px"
	 viewBox="0 0 205.8 223.1" style="enable-background:new 0 0 205.8 223.1;" xml:space="preserve">
<path d="M20.6,96.9c0.3,0.1,0.7-0.2,1.1-0.6c0.6-0.6,1.3-1,1.9-1.6c1.5-1.5,2.3-2.3,3.2-2.7c1.5-0.7,1.8-0.1,3.2-0.8
	c1.7-0.9,2.5-2.4,2.8-3.1c1.2-2.2,0.8-4,1.9-4.4c0.1,0,0.7-0.3,1.1,0c0.3,0.2,0.4,0.6,0.4,0.8c0.1,1-1,1.7-1.8,2.9
	c-1,1.4-0.7,2.5-1.1,3.6C33,92.3,31.3,94,26,95 M26,95c0-0.1-0.2-0.1-0.3-0.1c-0.4,0.1-3.9,2.6-4,3.1c-0.3,0.8-0.7,1.5-0.7,2.3
	c-0.1,1.8,0.1,3.6-0.7,5.3c-0.4,0.9-0.4,2.2,1.5,2c1-0.1,1.2,0.9,0.6,1.8c-0.3,0.4-0.7,0.8-0.7,1.2c0,0.5-1.2,0.7-0.4,1.4
	c0.5,0.5,1,1.2,1.8,0.4c0.6-0.5,0.9-0.3,0.8,0.3c-0.1,0.8-0.6,1.5-0.7,2.3c-0.1,0.7-0.2,1.6,1,1.4c1.8-0.2,1.5,1.3,1,1.9
	c-0.8,1.1-0.3,1.1,0.6,1.1c0.2,0,0.7-0.1,0.7,0c0.3,0.7,0.6,1.4,0.8,2.1c0.6-0.5,1.1-1,1.7-1.4c0.1-0.1,0.8,0.2,0.8,0.4
	c0.1,0.6,0,1.2,0.1,1.9c0,0.2,0.2,0.4,0.3,0.6c0.2-0.1,0.4-0.3,0.5-0.4c0.2-0.2,0.3-0.4,0.5-0.5c0.4-0.4,0.9-0.8,1.3-1.2
	c0.1,0.6,0.2,1.2,0.3,1.7c0.1,0.3,0.1,0.7,0.2,1c0.3-0.2,0.5-0.3,0.8-0.5c0.9-0.6,1.7-1.2,2.6-1.8c0.2-0.1,0.5-0.2,0.8-0.2
	c3.2,0.2,4.6-1.8,5.1-1.2c0.3,0.3,0.1,1-0.2,1.8c-0.4,1.2-1,1.8-2,3.1c-1.2,1.6-1.8,2.4-2,3.1c-0.3,1.4,0.1,3.1,1.1,3.7
	c0.4,0.2,0.7,0.1,1.3,0.5c0.8,0.6,1.1,0.9,1.1,0.9c0.1,0.2,0.3,0.3,0.5,0.3c0.3,0,0.5-0.2,0.6-0.3c0.5-0.4,1.1-0.9,1.6-0.9
	c0.5,0.1,1,0.9,1.2,1.4c0.1,0.2,0.2,0.5,0.4,0.5c0.2,0,0.4-0.1,0.5-0.2c0.5-0.3,1.3-0.5,1.7-0.3c0.4,0.3,0,0.8,0.5,1.6
	c0.1,0.2,0.4,0.6,0.7,0.6c0.2,0,0.4-0.2,0.7-0.6c1-1.2,0.9-1.6,1.3-1.7c0.5-0.1,1.3,0.2,1.6,0.4c0.1,0.1,0.3,0.2,0.6,0.2
	c0.3,0,0.4-0.3,0.5-0.5c0.4-0.5,1.1-0.9,1.5-0.8c0.3,0.1,0.6,0.5,1.2,1.3c0.5,0.7,0.6,0.9,0.8,0.9c0.2,0,0.3-0.2,0.7-1
	c0.5-1,0.7-1.4,0.7-1.6c0.1-0.8-0.2-1.2,0.1-1.6c0.2-0.2,0.4-0.3,0.5-0.3c0.6-0.1,0.9,0.3,1.7,0.3c0.4,0,0.6,0,0.7-0.1
	c0.4-0.3-0.1-1,0-2.2c0.1-0.4,0.1-0.7,0.3-0.9c0.5-0.6,1.1-0.3,1.6-0.8c0.2-0.2,0.3-0.4,0.3-3.3c0-0.4,0-0.9,0.3-1.1
	c0.3-0.2,0.6,0,0.9-0.2c0.3-0.2,0.2-0.7,0.3-0.9c0.5-1.2,6.4-0.9,6.7,0.6c0.2,0.9-1.7,2.2-2.2,1.9c-0.3-0.2,0.1-1-0.3-1.3
	c-0.4-0.4-1.4,0-2,0.3c-0.5,0.3-1.6,1-3.1,5.5c0,0-0.8,2.6-2.5,5.3c-0.1,0.2-0.4,0.6-0.7,0.6c-0.2,0-0.3-0.1-0.9-0.6
	c-0.6-0.5-0.7-0.6-0.8-0.6c-0.2,0.1-0.2,0.4-0.2,1c0,0.4,0,0.6,0,0.7c0,0.8-0.9,1.8-1.8,1.9c-0.9,0.1-1.8-0.5-2.2-0.8
	c-0.4-0.3-0.7-0.6-0.9-0.5c-0.2,0.1-0.1,0.5-0.5,1.1c-0.1,0.2-0.4,0.6-0.7,0.6c-0.4,0.1-0.6-0.5-1.4-0.8c-0.3-0.1-0.8-0.3-1.2-0.2
	c-0.8,0.3-1.1,1.7-1.9,2.6c-0.1,0.1-0.2,0.2-0.2,0.3c-0.4,0.4-0.6,0.6-0.8,0.7c-0.4,0-0.9-0.8-1-1.5c-0.1-0.4,0-0.4,0-1.1
	c-0.1-0.6-0.1-1-0.3-1c-0.1,0-0.4,0.2-0.8,0.6c-0.4,0.4-0.4,0.4-0.5,0.5c-0.1,0-0.7,0.5-1,0.3c-0.1-0.1-0.2-0.2-0.3-1
	c-0.2-0.8-0.1-1-0.3-1.2c-0.3-0.2-0.7-0.1-0.9-0.1c-1.2,0.3-3.5-0.5-4.8-2c-1.5-1.7-1.7-4.1-1.1-5.5c0.2-0.6,0.5-1.3,0.5-1.3
	c0.8-1.6,1.3-2,1.1-2.3c-0.3-0.5-2.1-0.3-3.4,0.4c-1.1,0.5-1.4,1.1-2.1,1c-0.8-0.1-0.9-1-1.9-1.2c-0.5-0.1-1,0-1.2,0.1
	c-0.7,0.2-1,0.6-1.2,0.4c-0.3-0.1,0-0.6-0.4-1.5c-0.1-0.3-0.3-0.6-0.5-0.7c-0.3-0.1-0.7,0.1-0.9,0.4c-0.3,0.4,0,0.7-0.3,1
	c0,0-0.1,0.1-0.8,0.1c-0.7,0-1.1,0-1.1-0.1c-0.1-0.2,0.2-0.3,0.5-0.9c0.2-0.4,0.2-0.8,0.2-1c0-0.4,0-0.8-0.2-0.9
	c-0.2-0.1-0.3,0.2-0.7,0.4c-0.2,0.1-0.8,0.4-1.4,0.2c-0.4-0.2-0.7-0.6-0.6-1c0-0.3,0.3-0.6,0.9-1.1c0.2-0.2,0.4-0.3,0.4-0.5
	c0-0.2-0.4-0.4-0.5-0.4c-0.2-0.1-2.2-0.9-2.4-1.9c-0.1-0.5,0.4-0.7,0.4-1.9c0-0.4-0.1-0.6-0.2-0.7c-0.4-0.4-1.1,0.1-1.4-0.2
	c-0.3-0.3-0.2-1.1-0.3-2.1c0,0,0-0.1,0-0.2c-0.1-0.3-0.2-0.5-0.2-0.5c-0.1-0.2-1.6-5.5,1.4-14.6"/>
<path d="M87.6,47c0.4,0.2,0.7,0.5,0.8,0.9c0.2,0.7,1.5,1.6,1,2.1c-0.1,0.1,0.1,0.4,0.2,0.5c0,0.1,0.3,0.1,0.4,0
	c1.2-0.6,2.4-1,3.3-2.1c0.1-0.2,0.6,0,1,0c0,0.4,0.2,1-0.1,1.3c-0.7,0.9-1.6,1.6-2.3,2.4c-0.1,0.1,0.1,0.7,0.1,0.7
	c1.5,0.2,1.3,0.8,0.5,1.7c-1.2,1.5-2.7,2.5-4.8,2.1c-0.2-0.3-0.3-0.6-0.6-0.7c-0.6-0.2-1.7,0.4-1.6-0.8c0.1-0.5,0.9-1,1.4-1.4
	c0.3-0.2,0.8,0.1,1.1,0c1.5-0.5,2.8-2,2.5-2c-0.9,0-1.7,0.3-2.6,0.5c-1,0.2-1.8,0.1-2.4,0c-1.3-0.2-0.4-0.6-0.2-1.1
	c0.1-0.3,0.1-0.9,0-1c-2.1-0.5-1.4-1.4-0.3-2.4c0.2-0.2,0.2-0.5,0.2-0.8c-0.2,0-0.6-0.2-0.7-0.1c-1.7,1.6-4.4,1.2-5.8,3.3
	c-0.5,0.7-0.7-0.2-1-0.2c-0.4,0-1.2,0.2-1.2,0.3c0.1,1.4-0.5,2.8-1.5,3.5c-1.2,0.7-1.6,1.9-2.5,2.7c-0.3,0.2-0.6,0.5-0.8,0.8
	c-0.2,0.3-0.5,0.8-0.4,0.9c1.6,2.5-0.2,3.1-2,3.8c-0.2,0.1-0.3,0.7-0.3,1c0.7,3.7-2.1,6.1-5.7,4.8c-0.4-0.1-0.6-0.9-0.8-1.4
	c-1.2,0.9-2.8-0.7-3.7,0.2c-1.1,1.1-1.4-1-2.1-0.2c-0.6,0.6-1.2,0.9-2,0.7c-0.5-0.1-0.9-0.2-1.4-0.3c0.2-0.5,0.4-1,0.6-1.5
	c0.3-0.6,0.6-1.3,1.1-1.8c0.9-1,0-0.8-0.5-0.9c-0.1,0-0.2-0.6-0.1-0.7c0.5-0.6,1.1-1.1,1.5-1.6c0.1-0.1-0.1-0.6-0.2-0.6
	c-1.5-0.2-1.3-0.8-0.5-1.7c0.5-0.5,1-1.1,1.6-1.6c1-0.7,0.7-1.3-0.1-1.9c-0.3-0.3-0.9-0.6,0-0.9c0.6-0.3,1.2-0.8,1.8-1.2
	c0.6-0.4,0.8-1,0-1.3c-3-1.2-3.1-4.1-3.8-6.6c0-0.1,0-0.3,0-0.4c-0.1-0.3-0.2-0.7-0.3-1c-0.3,0.2-0.5,0.5-0.8,0.7
	c-0.5,0.5-1.1,1.3-1.2-0.3c0,0-0.5-0.1-0.7-0.1c0,0.6,0.1,1.3-0.1,1.9c-0.2,0.5-0.7,1-1,1.5c-0.4-0.3-0.7-0.6-1.1-0.9
	c-0.2-0.2-0.4-0.4-0.5-0.5c-0.1,0.2-0.4,0.4-0.4,0.6c-0.1,1.6-0.1,3.1,1.4,4.3c1.9,1.5,2.2,1.6,0.5,4.1c-0.3,0.4-0.2,0.9-0.4,1.3
	c-0.2,0.4-0.5,0.8-0.8,0.9c-1.8,0.7-1.8,0.7-0.7,1.9c0.3,0.3,0.5,0.5,0.8,0.8c1,1.1,1,1.5-0.1,2.3c-0.8,0.6-2.3,0.7-0.7,2.1
	c0.2,0.1,0.1,0.7-0.1,1c-0.8,1.2-1.4,2.4-1.4,4c0.1,1-0.7,0.8-1,1.4c-0.4,1,0,1.4-0.5,2.1c-0.6,1-2.2,1.1-2.2,1.1
	c-0.9,0.1-1.4-0.3-2.1,0.1c-0.2,0.1-0.4,0.3-0.6,0.6c-0.7,1.2-1.4,2.5-1.1,4c0.2,1,0.1,2-1,2.6c-1.3,0.7-1.1,2.8-2.8,3.1
	c0.2-0.6,0.2-1.2,0.5-1.6c1.2-1.9,2-3.7,1.8-6.1c-0.1-0.6,0.5-1.3,0.9-1.8c0.6-0.8,1.5-1.2,1.4-2.5c0-0.5,0.8-1.4,1.3-1.4
	c3.3-0.4,3.7-3.4,5.1-5.5c0.1-0.1-0.3-0.5-0.3-0.8c-0.1-0.6-0.3-1.5,0-1.7c1.8-1.4,1.2-2.4-0.1-3.8c-0.5-0.5,0.2-1.5,0.7-2.3
	c0.6-1.1,2.5-0.5,2.4-2.4c-0.1-1.3-1-1.9-1.5-2.8c-1.5-2.4-1.1-6.3,1.4-8c1.7-1.2,2.5-2.6,3.3-4.3c0.2-0.3,0.5-0.5,0.8-0.8
	c0.1,0.4,0.4,0.9,0.4,1.3c0,0.4-0.4,0.8-0.6,1.2c0,0.1,0.2,0.4,0.3,0.4c0.2,0.1,0.6,0.1,0.7,0c0.4-0.7,0.7-1.5,1.1-2.2
	c0.3-0.5,0.6-1,1.1-1.4c0.2-0.2,0.7,0,1,0.1c0.1,0.1,0.3,0.5,0.2,0.6c-0.6,0.8-0.5,1.8-0.8,2.7c-0.7,1.8-0.1,3.5,0.2,5
	c0.4,1.7,1.7,3.5,3.6,4.2c1.2,0.4,0.8,1,0.3,1.6c-0.4,0.5-0.9,0.9-1.3,1.3c-1,1,0.1,0.7,0.5,0.9c0.1,0,0.2,0.6,0.1,0.7
	c-0.6,0.7-1.2,1.2-1.8,1.9c-0.2,0.3-0.4,0.7-0.5,1c0.4,0,0.7,0.1,1.1,0.1c1,0,1,0.4,0.3,1c-1,0.9-1.9,1.8-1.8,3.4
	c0,0.8-1.3,1.7-1.9,2.5c-0.2,0.2-0.1,0.7-0.2,1c0.3-0.1,0.5-0.1,0.8-0.2c0.9-0.1,1.6-1.4,2.7-0.3c0.1,0.1,1.1-0.7,1.7-1.1
	c0.5-0.3,1.2-2.3,1.6,0.1c0,0.1,0.6,0.2,1,0.3c0.4,0.1,0.4,0.1,1.3,1.3c0.6,0.9,1.8,1.3,2.6,0.8c0.8-0.5,1.2-1.2,1-2.2
	c-0.1-0.3-0.5-0.6-0.6-0.9c-0.5-1.5-0.1-2.6,1.4-2.7c1.7-0.1,1.8-1.2,1.3-1.9c-1.2-1.8-1-2.7,1-3.6c0.7-0.3,0.9-1.8,1.3-2.7
	c0.3-0.6,0.4-1.4,0.7-2c0.3-0.5,0.6-0.6,0.9,0.2c0.1,0.3,0.6,0.6,0.9,0.8c0.2-0.4,0.6-0.7,0.6-1.1c0-1,0.7-1.9,1.4-1.8
	c1.6,0.1,2.5-0.5,3.5-1.5c0.3-0.3,2-0.9,3.2-1.1c0.6-0.1,1.2,0,1.7,0.2L87.6,47z"/>
<path d="M150.2,44c-0.1,0.1,0,0.5,0.1,0.5c0.2,0.1,0.6,0.2,0.7,0c0.7-0.8,1.2-1.7,1.9-2.5c0.2-0.3,0.8-0.3,1.3-0.4
	c0,0.4,0.1,0.9,0,1.3c-0.1,0.4-0.4,0.9-0.5,1.3c0,0.3,0.2,0.7,0.3,1c0.2-0.1,0.4-0.2,0.5-0.4c0.9-0.9,1.7-1.8,2.7-2.6
	c0.4-0.4,1-0.6,1.6-0.6c0.9-0.1,1.1,0.2,0.4,0.9c-0.2,0.2,0.1,0.8,0.1,1.2c0.4-0.2,0.8-0.3,1.1-0.6c0.2-0.2,0.2-0.7,0.4-0.9
	c0.7-0.7,1.3-1.5,1.8-0.1c0.2,0.7,1,0.9,1.6,0.5c0.7-0.5,0.8-1.2,0.7-1.9c0-0.5-0.4-1.3,0.6-1.4c1.2-0.2,1-0.7,0.5-1.5
	c-0.3-0.5-0.6-1.2-0.4-1.7c0.2-0.5,0.4-1.9,1.7-0.8c0.3,0.3,0.9,0.2,1.4,0.2c0.2,0,0.4-0.2,0.6-0.4c-0.2-0.2-0.3-0.4-0.5-0.5
	c-0.3-0.2-0.6-0.5-0.9-0.6c-0.6-0.2-1.7,0.3-1.5-0.9c0.1-0.5,0.9-1,1.5-1.4c0.3-0.2,0.7,0,1.1-0.1c0.2,0,0.4-0.4,0.3-0.6
	c-0.1-0.3-0.2-0.6-0.5-0.8c-0.1-0.1-0.5,0.1-0.7,0c-0.4-0.2-0.7-0.4-1-0.7c-0.1-0.1,0.3-0.6,0.5-0.8c0.8-0.5,1.5-1.2,2.4-1.5
	c1.2-0.3,0.6-0.6,0.2-1.1c-0.3-0.3-0.7-0.5-0.7-0.8c0-0.4,0.1-1,0.4-1.1c0.4-0.2,1,0.1,1.5-0.1c0.9-0.3,2.2-0.6,2.4-1.2
	c0.4-1-0.6-1.6-1.7-1.9c-0.3-0.1-0.4-1-0.4-1.6c0-0.2,0.7-0.4,1.1-0.6c0.1,0,0.2,0,0.4,0c1.8,0.1,2-0.3,0.9-1.9
	c-0.7-0.9,0.1-2.6,1.2-2.5c2.2,0.1,1.7-1.2,1.7-2.4c-0.1-1.1,0.2-1.6,1.4-1.5c0.9,0.1,0.8-0.6,0.9-1.2c0.1-0.9-0.4-1.9,0.6-2.8
	c0.7-0.6,1.2-0.7,1.7,0.1c0.3,0.4,0.4,0.9,0.7,1.2c0.6,0.6,1.1,0.8,1.6-0.2c0.6-1.3,1.5-2.4,2.3-3.5c0.2-0.2,0.7-0.3,1-0.2
	c0.1,0,0.4,0.4,0.4,0.6c-0.1,1.1-0.3,2.1-0.4,3.2c-0.1,0.4-0.1,0.9-0.1,1.3c0.4-0.1,0.9,0,1.3-0.2c0.4-0.2,0.7-0.8,1.1-1
	c0.2-0.1,0.8-0.1,1,0.1c0.2,0.2,0.2,0.7,0.1,1c-0.5,1.1-1,2.1-1.6,3.1c-0.1,0.3-0.2,0.5-0.4,0.8c0.3,0,0.7,0.1,1,0
	c0.3-0.1,0.6-0.5,0.9-0.6c0.2-0.1,0.5,0,0.7,0.1c0.1,0,0,0.4-0.1,0.5c-0.6,0.9-1.2,1.7-1.8,2.6c-0.4,0.6-0.7,1.2-1.1,1.8
	c-0.1,0.2-0.2,0.5-0.3,0.8c0.3,0,0.7,0,1-0.1c0.6-0.2,1.1-0.4,1.6-0.6c0.2-0.1,0.4,0.1,0.7,0.2c-0.1,0.2-0.1,0.4-0.2,0.5
	c-0.8,0.8-1.6,1.6-2.4,2.4c-0.3,0.4-0.5,0.9-0.7,1.3c0.6,0,1.2,0,1.8-0.2c0.6-0.1,1.1-0.4,1.7-0.5c0.2,0,0.4,0.1,0.6,0.2
	c-0.1,0.2-0.1,0.4-0.3,0.5c-1.1,0.9-2.3,1.7-3.4,2.7c-0.2,0.2-0.4,0.8-0.3,1c0.8,1.5,0.9,1.5,0.1,2.1c-0.5,0.4-1.2,0.7-1.8,1.1
	c-0.4,0.3-0.6,0.7-0.9,1c0.5,0.1,0.9,0.2,1.4,0.3c0.5,0.1,1.1,0.1,0.4,0.7c-0.5,0.5-1,1.4-1.6,1.4c-1.7,0.2-0.6,0.8-0.2,1.2
	c0.4,0.4,0.9,0.8,0.1,1.3c-0.6,0.4-1.1,1-1.7,1.2c-0.9,0.3-0.9,0.8-0.4,1.3c0.4,0.4,0.6,0.7,0,1.1c-0.9,0.6-1.8,1.2-2.6,1.9
	c-0.3,0.3-0.4,0.8-0.6,1.2c0.4,0.2,0.8,0.4,1.2,0.5c0.4,0.1,0.8,0,1.1,0c0.2,0,0.4,0.2,0.6,0.3c-0.1,0.2-0.2,0.4-0.4,0.5
	c-1.1,0.7-2.1,1.4-3.2,2.2c-0.7,0.4-2.4,0.4-0.9,1.9c0,0-0.4,0.5-0.7,0.8c-2.1,2.4-2.1,2.5,1.2,3.4c0.3,0.1,0.7,0.2,1,0.3
	c-0.2,0.3-0.4,0.6-0.6,0.8c-0.4,0.2-0.9,0.3-1.3,0.6c-0.2,0.1-0.3,0.5-0.2,0.6c0.1,0.3,0.3,0.7,0.6,0.7c0.5,0.1,1,0,1.5,0.1
	c0.3,0,0.6,0.3,0.9,0.4c-0.2,0.1-0.4,0.2-0.6,0.3c-0.7,0.5-1.3,1-2,1.5c-0.1,0.1-0.1,0.3-0.2,0.5c0.2,0.1,0.5,0.2,0.7,0.2
	c1.2-0.2,2.3-0.5,3.4-0.7c0.3,0,0.6,0.2,0.9,0.4c-0.2,0.2-0.4,0.4-0.5,0.5c-0.4,0.4-0.9,0.9-1.3,1.3c-0.1,0.1-0.2,0.3-0.3,0.5
	c0.2,0.1,0.4,0.2,0.7,0.2c0.7,0,1.5,0.1,2.2,0c0.7-0.1,2-0.5,2.1-0.4c0.7,1.6-1.5,0.8-1.7,1.8c0,0.2-0.3,0.4-0.4,0.5
	c0.3,0.1,0.7,0.3,1,0.3c0.7,0,1.4,0,1.2,0.9c-0.3,1.2-0.6,2.5-1.2,3.6c-0.2,0.3-1.1,0.3-1,1.1c0.1,0.8-0.1,1.8,0.3,2.5
	c0.2,0.4,1.3,0.4,1.9,0.6c0.6,0.1,1.2,0.2,1.7,0.4c0.8,0.3,0.8,0.8,0.3,1.4c-1.3,1.5-3.1,1.7-5,1.6c0.2-0.3,0.3-0.6,0.6-0.7
	c0.6-0.2,1.7,0.4,1.6-0.8c0-0.3-0.8-0.7-1.3-0.9c-0.6-0.3-1.3-0.5-2-0.5c-1-0.1-1.5-0.1-0.5-1.1c0.2-0.2-0.1-1-0.3-1.2
	c-1.6-1.2-0.4-1.4,0.5-1.9c0.3-0.1,1.3-0.6,0-1.1c-1.2-0.5-1.1-1-0.1-1.8c0.3-0.2,0.5-0.5,0.8-0.8c-0.3-0.1-0.7-0.4-1-0.3
	c-1.5,0.6-0.9-1.5-1.9-1.6c-0.5,0-1.1-0.3-1.6-0.5c0.3-0.5,0.6-1,0.9-1.5c0.1-0.3,0.3-0.5,0.4-0.8c-0.3,0-0.7-0.2-1-0.1
	c-0.6,0.1-1.1,0.5-1.6,0.6c-0.3,0.1-0.8-0.2-0.9-0.4c-0.1-0.2,0.1-0.7,0.3-1c0.5-0.6,1.1-1.1,1.6-1.6c0.1-0.1,0.2-0.3,0.2-0.5
	c-0.2-0.1-0.4-0.2-0.7-0.2c-0.5,0-1,0-1.5,0c-0.2,0-0.4-0.2-0.6-0.3c0.1-0.2,0.2-0.4,0.4-0.5c0.3-0.3,0.5-0.5,0.8-0.8
	c0.9-0.8,1.6-1.3-0.4-1.5c-1.7-0.2-1.9-1.2-0.9-2.5c0.6-0.7,1.4-1.2,0.3-2.1c-0.1-0.1,0.1-0.6,0.3-0.8c0.6-0.5,1.1-1.2,2-1.4
	c1.2-0.3,1.2-1.6,0.1-2c-1.1-0.4-1.4-0.5-0.4-1.4c1.1-1.1,2.5-1.9,2.3-4c-0.2-1.5,1.6-1.9,2.5-2.1c1.6-0.4,0.8-0.8,0.4-1.5
	c-0.2-0.3-0.2-0.8,0-1.1c0.3-0.5,0.9-0.8,1.3-1.1c-0.4-0.4-1-0.8-1.3-1.3c-0.1-0.2,0-0.8,0.3-1c0.6-0.4,1.2-0.7,1.9-0.9
	c1.4-0.3,1.5-0.9,0.9-2.2c-0.5-1,0.3-1.8,1.2-2.3c0.3-0.2,0.6-0.3,0.9-0.4c-0.3-0.1-0.6-0.3-1-0.4c-1.5-0.4-1.6-0.7-0.7-1.7
	c0.4-0.5,0.9-0.9,1.3-1.3c0.2-0.3,0.4-0.8,0.3-0.9c-1.3-1.2-0.7-2.4,0-3.5c0.1-0.2,0.1-0.6,0-0.7c-1.3-1.4-0.2-2.5,0.4-3.7
	c0.1-0.2,0.1-0.6-0.1-0.7c-0.1-0.1-0.5,0-0.7,0c-1.5,0.4-1.5,0.3-1.3-1c0.1-0.7,0.2-1.4,0.2-2.2c0-0.2-0.2-0.4-0.3-0.6
	c-0.2,0.1-0.4,0.3-0.5,0.4c-0.4,0.6-0.6,1.3-1.1,1.8c-0.5,0.6-1.2,1.5-1.6,1.4c-2.2-0.5-2.4,1.3-3,2.5c-0.8,1.7-1.7,3.3-2.4,5
	c-0.4,0.8,1.7,1.3,0.5,2.2c-0.5,0.4-1.4,0.1-2.2,0.2c-0.1,0-0.3,0.5-0.2,0.6c0.3,0.5,0.9,0.9,1.2,1.4c0.4,0.8-0.2,1.7-1.1,1.7
	c-1.3-0.1-2.2,0.1-1.9,1.8c0.2,0.9-0.3,1.2-1.2,1.4c-0.8,0.2-1.4,0.8-2.1,1.3c-0.4,0.3-0.6,0.5,0.1,0.9c1.7,0.9,1.7,1.1,0.4,2.2
	c-1,0.9-1.1,1.4,0,2.2c0.8,0.6,0.5,1.3-0.2,1.8c-1.3,1-1.9,2.2-1.6,3.8c0.1,0.3-0.1,0.9-0.2,1c-2,0.6-1.9,2.7-3.1,4
	c-0.7,0.8-1.1,0.1-1.7,0.1c-1.8-0.1-3.8-0.7-5.1,1.3c-0.1,0.1-1.1-0.2-1.1-0.3c-0.2-1.4-0.7-1.3-1.7-0.6c-0.7,0.6-1.5,1.1-2.3,1.6
	c-0.3,0.2-0.7,0.2-1,0.1c-1.9-0.5-1.9-0.5-2.6-0.2c-0.4,0.1-0.9,0.2-1.3,0.1c-0.1,0-0.2-0.7-0.2-1c0.2-0.5,0.5-1,0.7-1.6
	c0.1-0.2,0-0.5-0.2-0.7c0-0.1-0.4,0-0.5,0.1c-0.6,0.5-1,1.3-1.6,1.5c-1,0.3-2,2.2-3.4,0.4c-0.1-0.1-0.8,0-1,0.3
	c-0.9,1-1.5,0.3-2.1-0.4c-1-1.1-1.4-1.3-1.7-0.2c-0.3,0.9-0.7,1.4-1.6,1.8c-1.1,0.5-2,1.2-2.3,2.6c-0.1,0.4-0.7,1.8-1.8,0.5
	c-0.2-0.2-1.4,0.1-1.9,0.4c-0.7,0.6-1.1,1.1-2,0.3c-0.1-0.1-0.9,0.3-1.2,0.6c-0.8,0.9-1.5,1.3-2.4,0.2c-0.1-0.1-1,0.3-1.1,0.5
	c-0.2,1.2-1.1,1.3-1.9,1.8c-1,0.6-1.2,0.7-1.1-0.5c-0.3,0-0.6-0.1-0.8,0.1c-1.3,1-2,2.9-4.2,2.7c-0.2,0-0.6,0.4-0.8,0.8
	c-0.9,2.4-3.2,3.7-4.8,5.5c-0.9,0.9-1.7,1.7-1.5,3.2c0.2,1.7-1.6,1.3-2.3,1.6c-0.9,0.4-1.5,0.3-1.4,1.5c0.2,1.8,0,3.3-2.4,3.2
	c-0.2,0-0.4,0.7-0.6,1.1c-0.2,0.6-0.1,1.2-0.3,1.7c-0.4,0.8-1,2.2-1.6,2.2c-1.5,0.2-1.2,1.1-1.1,1.8c0.1,1.3-0.8,1.8-1.5,2.4
	c-1,0.9-0.4,2.9-2.2,3.2c0,0,0,0.2,0,0.4c0.2,0.8,0.6,1.5,0.7,2.3c0.1,0.8-1,0.4-1.4,1c-0.1,0.2-0.1,0.4-0.1,0.6
	c0,0.5-0.1,1.3-0.7,2.3c-2,0.5-2.8,0.3-3.2-0.1c-0.1-0.1-0.1-0.1-0.3-0.2c-0.8-0.4-1.6,0.5-2,0.2c-0.5-0.3-0.7-1.1-0.6-2.1
	c0,0-1-0.3-1.2-0.1c-0.9,1-1.5,0.5-2.1-0.2c-0.7-0.8,0.5-0.9,0.6-1.3c0.1-0.4,0.4-0.9,0.5-1.3c-0.4-0.1-0.9-0.3-1.3-0.4
	c-0.4-0.1-0.8,0-1.1,0c-0.4-0.1-0.9-0.3-1.3-0.4c0.2-0.4,0.3-0.9,0.6-1.3c0.4-0.5,0.9-0.9,1.3-1.3c0.1-0.1,0.1-0.3,0.2-0.5
	c-0.2-0.1-0.4-0.2-0.7-0.2c-0.2,0-0.5,0-0.7,0c-0.7,0-1.4,1.6-2.1,0.3c-0.3-0.5,0.4-1.5,0.7-2.2c0.1-0.4,0.2-0.7,0.4-1.1
	c-0.3,0.1-0.7,0.1-1,0.2c-0.4,0.1-0.8,0.4-1.3,0.5c-0.8,0.2-1.1-0.1-1.1-1c0-1.7-0.6-1.4-1.7-0.7c-0.8,0.5-1.4,0.2-1.3-0.8
	c0.1-0.6,0.5-1.1,0.7-1.6c0.4-1.2-0.3-1.7-1.6-1.3c-0.2,0-0.4,0-0.5,0c0-0.3-0.1-0.8,0-1c0.5-0.4,1.2-0.7,1.8-1.1
	c0.7-0.5-1-1,0.1-1.6c0.6-0.3,1.2-0.9,1.5-1.6c0.2-0.3-0.2-1.2-0.5-1.5c-1.2-0.9-0.4-1.6,0.2-1.8c1.4-0.4,1.5-0.7,0.7-1.9
	c-0.7-1-0.3-1.5,1.3-2c0.8-0.3,1.7-0.5,2.2-1.1c3-3.3,3-3.4,6.1-3.4c-0.3,0.3-0.6,0.5-1,0.7c-0.6,0.3-1.8,0.7-1.8,1
	c0.1,2.4-1.7,2.9-3.4,3.6c-0.2,0.1-0.4,0.2-0.6,0.3c0.3,0.1,0.6,0.3,0.9,0.4c0.5,0.1,1.4-0.2,1.3,0.8c-0.1,0.5-0.6,1.2-1,1.4
	c-0.7,0.3-1.5,0.1-2.2,0.1c-0.1,0-0.2,0.3-0.4,0.4c0.2,0.1,0.4,0.2,0.6,0.3c1.2,0.3,0.9,0.9,0.4,1.5c-1,1.2-2.3,2.1-3,3.6
	c-0.5,1.1-0.7,1.4,0.7,1.6c0.6,0.1,0.5,0.9,0,1.5c-0.4,0.5-1.2,1.6-1,1.7c0.7,0.7,1.2-0.6,2-0.5c0.1,0,0.3-0.4,0.5-0.5
	c0.7-0.2,1.2,0,1.2,0.8c0,0.5-0.1,1-0.4,1.3c-0.5,0.7-0.1,0.7,0.5,0.8c0.4,0,0.8,0,1.1-0.1c0.5-0.1,1.4-0.7,1.5-0.6
	c0.6,0.7,0.6,1.5-0.1,2.3c-0.2,0.2,0,0.8,0,1.2c0.3,0,0.7,0,1-0.1c1-0.2,1.9,0.3,1.7,1.2c-0.1,0.3-0.5,0.5-0.7,0.9
	c-0.8,1.7-0.8,1.7,0.9,1.9c0.8,0.1,0.8,0.1,1.5,1.7c0.1,0.2,0.4,0.5,0.6,0.5c1-0.2,2,0.4,2.1,1.1c0.2,1.7,1.3,1,2.2,1.2
	c1.4,0.3,1-1.1,1.4-1.7c1-1.3,0-2.7-0.6-4c-0.3-0.7-1-1.1-0.2-1.8c0.7-0.7,1.3-1.1,2.1-0.2c0.2,0.2,0.6,0.1,1,0.1c0-0.4,0.2-1,0-1.3
	c-0.6-0.9-0.7-1.7,0.1-2.6c0.4-0.4,0.6-0.5,1.1-0.1c0.8,0.7,1.3,0.3,1.3-0.7c0-0.9,0-1.7,0.2-2.5c0.2-0.8,0.4-2.1,0.8-2.2
	c0.8-0.1,1.3,0.8,1.3,1.6c0,0.1,0.2,0.3,0.2,0.3c0.2-0.1,0.4-0.3,0.4-0.4c0-2.2,0.5-4.2,2.2-5.9c0.1-0.1-0.2-0.9-0.4-1.2
	c-0.5-0.7-0.1-1.1,0.3-1.6c0.6-0.8,0.9-0.2,1.4,0.1c0.4,0.3,0.9,0.3,1.3,0.6c0.7,0.5,1.1,0.1,1.6-0.3c0.5-0.5,0.9-0.9,0.3-1.6
	c-0.2-0.2-0.4-0.3-0.5-0.5c-0.3-0.7-0.9-1.9-0.6-2.2c0.7-0.9,1.7-0.5,2.5,0.3c0.1,0.1,0.6-0.1,1-0.2c-0.3-1,1.7-1.6,0.5-2.9
	c-0.2-0.2,0.3-1.2,0.4-1.8c0.4,0.1,0.8,0.1,1,0.4c1.3,1,1.3,1,2.1-0.5c0.4-0.8,0.9-1.6,1.4-2.4c0.3-0.5,0.7-1,1-1.4
	c0.2,0.5,0.3,1,0.5,1.5c0.1,0.2,0.5,0.4,0.6,0.4c0.8-0.9,1.7-1.8,2.4-2.7c0.8-1,0.9-1.1,1.5,0.1c0.5,1,0.9,0.9,1.5,0.2
	c0.5-0.6,1-1.3,1.4-2c0.3-0.5,0-1.3,0.9-1.2c1,0.1,0.6,0.9,0.7,1.4c0.1,0.5,0.1,1.1,0.7,0.4c0.6-0.7,1-1.6,1.6-2.3
	c0.5-0.6,1.2-0.6,1.4,0.2c0.2,0.7,0.1,1.1,1,0.5c0.7-0.5,0.2-2.3,1.4-1.7c1.4,0.7,1.3,0.4,1.5-0.9c0.1-0.9,0.9-2.2,2.3-1
	c0.1,0.1,0.6-0.1,0.8-0.3c1.4-1.2,2.5-2.6,2.9-4.4c0-0.1,0.4-0.3,0.6-0.3c0.3,0.1,0.7,0.3,0.7,0.5c0.1,1,0,2,0.1,3
	c0,0.3,0.2,0.6,0.4,0.9c0.3-0.3,0.6-0.5,0.8-0.8c0.2-0.3,0.1-0.8,0.3-1c0.5-0.5,1.3-1.2,1.7-1.1c1.1,0.4,0.5,1,0,1.7
	c-0.1,0.1,0.4,0.7,0.7,1c0.1,0.1,0.6-0.1,0.8-0.3l2-2.1c0.3-0.4,1-0.2,1.1,0.2L150.2,44z"/>
<path d="M114.6,217.3c0.1,0.3,0,0.8,0.3,1c0.3,0.2,0.4,0.2,1,0.2c0.3,0,0.9,0.4,1,0.7c0.3,1.2,0.9,1,1.5,0.4c1.1-1,2.2-1.8,3.7-1.8
	c-1.1,2.3-3.6,2.9-5.5,4.3c-0.2,0.2-1.2-0.1-1.2-0.2c0.1-1.6-1-1.1-1.8-1.1c-0.9,0-1.3-0.2-1.3-1.2c0-0.9-1.1-1.4-1.7-1.1
	c-0.3,0.2-0.5,0.5-0.8,0.7c-0.7,0.4-0.8,1.7-1.8,1.2c-1-0.5-1.9-1.4-2.9-2.1c0,0,0.1-0.3,0.2-0.5c0.1-1.4-0.4-2-1.5-1.4
	c-0.7,0.3-1,1.1-1.2-0.4c-0.1-1,1.1-2.7-1.2-2.8c0.1-0.3,0.3-0.5,0.2-0.8c0-1.1,2-1.9,0.4-3.1c0,0,0.3-0.5,0.5-0.8
	c0.9-1.1,1.7-2.3,1.6-3.8c1.6-0.7,1.2-2.5,2.1-3.6c0.4-0.5,0.3-1.4-0.6-1.2c-1,0.2-0.5-2.5-2-0.9c-1-0.6-1.1-1.5-1.1-2.6
	c0-0.1-0.4-0.2-0.6-0.3c-2-0.9-2-0.9-0.7-2.8c0.5-0.8,0.9-1.6,1.4-2.4c0.1-0.1-0.1-0.4-0.2-0.7c-0.2,0.1-0.3,0.1-0.5,0.2
	c-0.4,0.1-0.9,0.3-1.3,0.4c-0.3,0-0.8-0.2-0.9-0.4c-0.1-0.3,0.1-0.7,0.3-1c0.7-0.7,1.4-1.4,2.1-2.1c1.1-1.1,1.1-1.1-0.4-1.7
	c-0.9-0.4-0.3-0.7,0-0.9c1.3-1,2.7-1.9,4.1-2.8c0.3-0.2,0.6-0.6,0.6-0.7c-1-1.9,0.4-2.9,1.4-4.1c0.1-0.2-0.2-1.1-0.3-1.1
	c-1.4-0.2-1.3-0.7-0.6-1.7c0.5-0.6,0.8-1.4,1-2.2c0.2-0.7,0.3-1.6-1-1.5c-1.2,0.1-1.7-0.3-0.9-1.5c0.7-1.1,1.4-2.2,1.8-3.4
	c0.3-0.8,0.3-1.5-1-0.6c-0.5,0.3-1.1-1-0.6-1.5c0.8-0.7,0.9-2.2,2.3-2.4c-0.1-1.3,1.3-1.7,1.8-2.6c0.1-0.2,0.1-0.5,0.1-0.8
	c-0.2,0-0.5-0.1-0.7,0c-0.3,0.2-0.5,0.6-0.8,0.7c-0.3,0.1-0.8,0-1-0.3c-0.2-0.2-0.1-0.8,0.1-1c1.5-1.8,3-3.5,4.5-5.3
	c0.2-0.2,0.5-0.5,0.5-0.5c-0.2-0.3-0.4-0.6-0.7-0.8c-0.2-0.1-0.6-0.1-0.7,0c-0.5,0.6-0.8,1.5-1.4,2c-0.4,0.4-1.1,0.5-1.6,0.5
	c-1.1,0-1.5,0.2-2.2,1.1c-1,1.5-1.6,1.5-3.1,0c-0.2-0.2-1.1-0.2-1.2-0.1c-0.4,0.8-0.6,1.7-0.9,2.6c-0.2,0.7-1.4,1.2-1.9,0.8
	c-0.8-0.6-1.6-1.3-2.4-2c-0.2,1-0.6,1.8-1.7,2.1c-0.7,0.1-1.5,1.2-1.9-0.1c-0.2-0.6,0.4-1.6,0.1-2c-0.3-0.4-1.4-0.3-1.9-0.6
	c-0.4-0.3-0.4-1-0.7-1.5c-0.2-0.4-0.5-0.6-0.8-1c-0.4,0.4-1.2,0.9-1.2,1.3c0.1,3.7-0.2,4.2-3.3,5.4c-0.5,0.2-1.3,0.6-1.4,1.1
	c-0.3,1.4-1.4,2-2.2,2.8c-0.9,1-1.3,0.8-1.7-0.7c-0.1-0.3-0.2-0.6-0.4-0.9c-0.3,0.3-0.7,0.5-0.8,0.8c-0.6,1.7-2.1,2.7-3.2,3.9
	c-0.8,0.9-1.3,1-1.7-0.4c-0.3-1.1-1.5-0.5-2.3-0.5c-1,0-0.6,0.8-0.7,1.4c-0.4,3-1.2,3.8-4.4,4.6c-0.9,0.2-1.7,0.8-2.5,1.3
	c-1,0.6-2,1.1-3,1.7c-0.5,0.3-0.9,0.9-1.7,0.1c-0.5-0.4-1.9-0.5-2.7,0.3c-0.2,0.2-0.9,0.2-1.2,0c-0.9-0.6-1.6-0.5-2.6,0.1
	c-1.2,0.6-3,0.4-3.9,1.2c-0.8,0.7-0.3,2.4-1,3.6c-0.3,0.6,0.1,1.4-1.1,1.5c-0.4,0-0.9,1-1.2,1.6c-1,2.1-2.4,3.8-4.8,4.3
	c-0.4,0.1-0.8,0.5-1.2,0.7c0.5-1.8,1.6-3.2,3-3.7c1.6-0.6,1.8-2,2.3-3.3c0.1-0.4,0.4-1.1,0.5-1.1c2.1,0.3,1.7-1.1,1.7-2.3
	c0-0.5-0.1-1,0-1.5c0.2-0.7,0.4-1.4,0.8-1.9c0.7-0.9,1.2,0.2,1.8,0.3c1.8,0.4,3.4-0.5,5.1-1.2c0.6-0.3,1.2-0.7,1.8-0.8
	c0.5-0.1-0.2,2.3,1.3,0.7c0.5-0.6,1.3-1,2.1-1.3c0.5-0.2,1.2-0.2,1.8-0.2c0,0,0.2,0.4,0.1,0.5c-0.2,0.5-1.4-0.3-1,0.8
	c0.1,0.2,1.5,0.1,1.9-0.3c1-1,2.6-1.7,2.3-3.5c0-0.3,0.6-1.1,0.9-1c0.5,0.1,0.9,0.5,1.3,0.9c0.3,0.3,0.4,1,0.7,1
	c0.9,0.2,0.7-0.7,1-1.1c0.8-1.5,1.3-3,1.4-4.7c0.1-1.4,0.8-1.6,2-0.8c1.5,1,2.2,0.9,3-1.2c0.4-0.9,0.5-1.7,1.4-0.4
	c0.4,0.6,0.8,0.7,1.3,0.1c0.5-0.6,1-1.1,1.6-1.6c1.3-1.2,1.5-1.2,1.9,0.6c0.1,0.2,0.1,0.5,0.2,0.7c0.2-0.2,0.4-0.3,0.6-0.5
	c0.5-0.9,1-1.8,1.5-2.7c0.3-0.6,0.7-1.2,1.1-1.8c0.5-0.8,1-0.7,1.6-0.1c0.3-0.4,0.9-0.7,1-1.1c0.2-0.8,0.2-1.8,0-2.6
	c-0.2-0.9-0.8-1.3-1.7-1.6c-0.5-0.1-0.9-1-1.2-1.6c-0.1-0.3,0.1-0.7,0.1-1c0.3,0.1,0.6,0.2,0.8,0.4c1.9,1.9,3.8,3.3,6.7,2
	c0.6-0.3,1.6,0.9,1.4,1.5c-0.1,0.3-0.5,0.5-0.7,0.8c-0.2,0.3-0.3,0.7-0.5,1.1c0.4-0.1,0.8-0.3,1.3-0.3c0.7-0.1,1.9-0.2,1.9-0.1
	c0.5,1.9,0.7,1.5,1.2,0c0.2-0.5,1.6-0.8,2,0.4c0.5,1.5,1.2,0.9,1.7,0.2c0.7-1,1.2-2.3,1.9-3.3c0.2-0.3,0.8-0.4,1.2-0.5
	c0.1,0.3,0.2,0.6,0.4,1c0.2,0.4,0.3,0.8,0.5,1.3c0.5-0.3,1.1-0.5,1.5-0.9c0.6-0.7,1-1.6,1.6-2.3c0.7-0.8,1.4-1.2,1.7,0.4
	c0,0.1,0.4,0.2,0.6,0.3c0-0.1,0-0.3,0.1-0.3c0.7-0.8,0.3-2.7,2-2.3c1.2,0.2,1.2,1.7,1.9,2.6c0.8,1.1,0.6,1.6-0.2,2.4
	c-0.7,0.8-1.1,1.8-1.9,2.5c-1,0.9-1,1.3,0.3,1.7c0.5,0.2,0.9,0.6,0.4,1.6c-0.6,1.1-1.5,1.9-2.2,2.8c-0.6,0.7-0.6,0.7,0.2,2.1
	c0.1,0.2,0.1,0.6,0,0.8c-0.8,1.3-1.6,2.6-2.4,3.9c-0.2,0.3-0.1,0.7-0.1,1c0.4,0,0.9,0.1,1.3,0.1c0.2,0,0.4-0.5,0.5-0.5
	c0.3,0,0.7,0.1,1,0.3c0.1,0.1,0.2,0.5,0.1,0.7c-0.5,1.1-1,2.1-1.5,3.1c-0.8,1.7-0.8,1.7,1,1.9c0.4,0,0.7,0.1,1,0.2
	c-0.2,0.4-0.4,0.7-0.7,1.1c-0.4,0.5-0.9,0.9-1.3,1.3c-0.2,0.2-0.4,0.3-0.5,0.5c-0.3,0.9-1.1,1.8,0.7,2.2c0.8,0.2,0.8,0.9,0.2,1.4
	c-0.7,0.6-1.5,1.1-2.3,1.6c-0.3,0.2-1,0.2-1,0.3c0,2.7-2.5,3.5-3.7,5.2c-0.2,0.2,0,0.7,0,1c0.3-0.1,0.5-0.2,0.8-0.3
	c0.3-0.1,0.7-0.2,1-0.2c0.3,0,0.8,0.1,0.9,0.3c0.1,0.2,0,0.7-0.2,1c-0.8,1.1-1.6,2.1-2.4,3.2c-0.1,0.2-0.1,0.6,0,0.7
	c0.1,0.1,0.6,0.1,0.7,0c0.7-0.7,1.2-1,1.1,0.4c-0.1,0.5-0.5,1-0.7,1.6c-0.3,0.7,0.4,1.5,0.9,1c0.9-0.7,1.5-0.5,1.9,0.3
	c0.8,1.6,1.5,3.2,0.1,4.9c-1,1.2-0.8,2.8-2,4.1c-0.8,0.9-0.7,2.6-1.7,3.8c-0.4,0.5-0.1,1.2,0.8,1.2c0.9,0,2-0.1,0.6,1.2
	c-0.4,0.4-0.5,1-0.7,1.6c-0.1,0.2,0,0.5,0.1,0.7c0.3-0.1,0.6-0.1,0.8-0.2c0.3-0.2,0.5-0.6,0.8-0.8c0.6-0.4,1.2-0.5,1.3,0.5
	c0.1,0.6-0.1,1.3,0.1,1.9c0.2,0.7,0.5,1.5,1,1.8c0.4,0.2,0.9,0.3,1.3,0.2c0.2,0,0.4-0.1,1-0.7c0.3-0.3,0.6-0.6,1-1.1
	C113.9,216.3,114.5,216.9,114.6,217.3z"/>
<path d="M10.5,184.4c0.2,0.1,0.4,0.2,0.7,0.3c0,0,0.1,0,0.3,0.1c0.5,0.1,1,0,1.5,0c0.4,0.1,0.8,0.3,1.2,0.4
	c-0.3,0.3-0.6,0.5-0.8,0.8c-0.2,0.2-0.3,0.5-0.5,0.8c0.3,0,0.7,0.1,1,0c0.1,0,0.2-0.1,0.2-0.1c0.8-0.5,3.6-1.4,3.7-1.3
	c0,0,0,0-0.3,0.2c-0.2,0.2-0.3,0.2-0.3,0.3c0,0.1,0.1,0.1,0.3,0.2c0.1,0.1,0.2,0.1,0.3,0.2c0.4,0.2,1.1,0,1.1,0
	c0.6-0.1,1.7-0.2,1.8,0.1c0.1,0.3-0.6,0.7-0.4,1.1c0.1,0.2,0.2,0.2,0.6,0.3c1.2,0.3,2,0,2.2,0.2c0.1,0.2-0.3,0.5-0.2,1.1
	c0,0,0,0.1,0,0.2c0.2,0.7,2.8,1.7,5.6,1.1c1.2-0.3,2.3-0.5,2.8-1.3c0.1-0.2,0.3-0.5,0.5-0.5c0.5-0.1,0.7,0.7,1.4,0.9
	c0.5,0.1,0.8-0.2,2.9-1.7c0.4-0.3,0.9-0.6,1.2-0.4c0.2,0.2,0,0.8,0.2,0.9c0.1,0.1,0.3,0,0.8-0.2c0.8-0.3,1.2-0.4,1.4-0.3
	c0.3,0.2,0.1,1.1-0.3,1.5c-0.2,0.2-0.3,0.3-0.5,0.4c-1,0.5-1.8,0.9-2.7,0.8c-0.6-0.1-0.5-0.4-1.1-0.5c-0.6-0.1-1.2,0.2-2.2,0.8
	c-1,0.5-1.3,0.8-1.7,0.7c-0.4-0.1-0.4-0.5-0.8-0.6c-0.5-0.2-1,0.3-1.5,0.5c-1.3,0.9-3.1,1.1-4.2,0.8c-0.8-0.3-0.6-0.6-1.7-1.3
	c-2.2-1.3-4.7-0.5-5.3-1.7c-0.1-0.1-0.2-0.4-0.5-0.8c-0.2-0.3-0.6-0.8-1-0.7c-0.3,0-0.3,0.3-0.6,0.5c-0.5,0.2-0.9-0.3-1.8-0.5
	c-1-0.2-1.4,0.3-2.6,0c-0.3-0.1-0.5-0.1-0.6-0.3c-0.4-0.5,0.1-1.2-0.2-1.5c-0.4-0.4-1.5,0.7-2.3,0.3c-0.4-0.2-0.6-0.7-0.5-1.1
	c0.1-0.5,0.6-0.6,0.6-1c0-0.4-0.4-0.6-1.1-1.2c-0.9-0.7-1.6-1.5-2.5-2.3c-0.5-0.5-0.8-0.7-0.9-1.1c-0.2-0.7,0.3-1.4,0.6-1.7
	c0.7-1,1.7-1.3,1.7-1.3c0.4-0.1,0.7-0.2,0.7-0.4c0-0.2-0.2-0.3-0.5-0.7c-0.5-0.5-0.9-0.8-0.9-1.2c0-0.5,0.8-0.9,1.2-1.1
	c3.3-1.5,5.9-2.1,5.9-2.1c1.6-0.3,2.8-0.6,4.6-0.7c2.8-0.2,2.6,0.2,4.5-0.1c3.5-0.5,4.9-1.9,5.8-2.2c0,0,0.2,0,0.2-0.1
	c0-0.2-0.3-0.3-0.7-0.6c-0.3-0.3-0.6-0.9-0.4-1.2c0.1-0.1,0.2-0.2,0.3-0.2c1.1-0.3,2.8-0.9,3.4-0.9c0,0,0.1,0,0.1,0
	c0.2,0,0.5-0.1,0.5-0.2c0-0.1-0.3-0.2-0.7-0.5c-0.4-0.2-0.8-0.5-1.1-0.9c-0.2-0.2-0.4-0.5-0.3-0.9c0.1-0.2,0.2-0.3,0.6-0.5
	c0.9-0.4,1.2-0.4,1.9-0.7c0.7-0.3,0.6-0.5,1.1-0.6c0.7-0.2,1.3,0.1,1.8,0.2c0.7,0.3,3.2,1.2,4.7,0.3c0.1-0.1,0.9-0.5,1.1-1.4
	c0-0.2,0.1-0.4-0.1-0.6c-0.2-0.2-0.5,0-1.2-0.3c0,0-0.1-0.1-0.3-0.1c-0.3-0.2-0.7-0.3-0.7-0.6c0-0.3,0.5-0.6,1-0.7
	c0.4-0.1,0.7,0,0.7,0c0.8,0.1,3.1,0.2,4.6-0.8c0.3-0.2,0.8-0.6,1.1-1.2c0.3-0.7,0.1-1.3,0.5-1.6c0.3-0.2,0.7-0.1,0.9-0.1
	c1.5,0.4,3.1-0.8,7.6-1.7c1.2-0.2,2.7-0.5,4.3-1.4c0,0,1.2-0.7,1.1-1c-0.1-0.2-0.5-0.1-1.1-0.5c0,0-0.1-0.1-0.3-0.2
	c-0.7-0.4-0.7-0.5-0.8-0.5c-0.1-0.3,0.8-0.8,0.9-0.8c1.9-0.9,4.8-1.6,7.2-1.5c0.1,0,0.4,0,0.7,0c0.9-0.1,2.2-0.5,2.2-1
	c0-0.4-1-1-1.8-1.2c-0.5-0.1-0.9-0.1-0.9-0.3c0-0.1,0-0.3,0.6-0.9c0.9-0.7,2.1-1.2,4.1-1.9c0.6-0.2,0.9-0.3,1.1-0.6
	c0.5-0.7,0.4-2-0.1-2.2c-0.2-0.1-0.3,0-0.5,0.1c-1.6,0.6-1.9,1-2.6,1c-0.8,0.1-1.4-0.4-1.5-0.5c-0.2-0.1-0.4-0.3-0.4-0.5
	c0-0.2,0.3-0.3,0.8-0.7c0.2-0.2,0.5-0.5,0.4-0.7c0-0.2-0.1-0.2-0.5-0.6c-0.6-0.6-0.6-0.7-0.7-0.8c0-0.2,0.1-0.4,0.6-0.8
	c1-0.9,1.3-1.3,1.6-1.6c0.2-0.3,0.4-0.5,0.6-0.8c0.8-1.4,0.2-3.3-0.1-4.2c-0.4-1.3-0.8-1.4-0.7-2.1c0.2-1.4,2-2.3,2.2-2.1
	c0.2,0.2-0.3,0.8,0.1,1.2c0.2,0.2,0.4,0.3,0.5,0.3c0.4,0.1,0.6,0,0.7,0.1c0.1,0.1,0,0.4-0.1,0.6c-0.3,0.7-0.1,0.5-0.5,1.7
	c-0.4,1.2-0.7,1.5-0.5,1.8c0.1,0.2,0.3,0.3,0.5,0.3c0.5,0,0.6-0.7,1.3-0.8c0.3-0.1,0.8,0,0.9,0.3c0.2,0.3,0,0.7-0.2,1
	c-0.3,0.6-0.8,1-1.3,1.3c-1.5,1.1-2.2,1.7-2.3,2.2c0,0.5,0.3,0.8,0.1,1.4c-0.1,0.2-0.2,0.4-0.4,0.6c-0.3,0.3-1.3,1.6-1.1,1.8
	c0.1,0.1,0.6-0.1,2.3-0.7c1.1-0.4,1.3-0.4,1.6-0.3c0.2,0.1,0.2,0.3,0.6,1.6c0.3,1.1,0.3,1.1,0.4,1.3c0,0.3,0.1,1.1-0.3,1.8
	c-0.5,0.9-1.7,1.5-2.6,1.8c-0.3,0.1-0.7,0.1-0.8,0.4c-0.1,0.3,0.1,0.6,0.3,1c0.3,0.8,0.2,1.8-0.1,2.4c-0.4,0.7-1.4,0.8-2.4,0.9
	c-1.8,0.2-2.4-0.4-3.7,0c-0.6,0.2-0.9,0.4-1.5,0.8c-3,2.1-3.5,2.7-4.9,3.6c-0.7,0.4-2.8,1.8-5.1,2.3c-0.4,0.1-1.4,0.3-2.6,0.8
	c-0.6,0.2-1,0.4-1.6,0.7c-2.1,1-2,1.2-3.4,1.8c-1.6,0.7-2.1,0.7-2.5,1.4c-0.1,0.1,0,0.1-0.6,1.3c-0.3,0.8-0.4,0.9-0.6,1.1
	c-0.4,0.4-1,0.4-1.5,0.4c-2.7,0.1-3.2,1.3-4.6,0.7c-0.7-0.3-0.9-0.7-1.6-0.7c-0.4,0-1,0.3-1.1,0.8c-0.1,0.5,0.4,1,0.4,1
	c0.5,0.4,0.9,0.2,1.2,0.6c0.2,0.3,0.2,0.9-0.1,1.2c-0.5,0.5-1.5,0-1.8,0.5c-0.3,0.4,0.1,0.8-0.1,1.3c-0.2,0.3-0.6,0.4-1.1,0.6
	c-2.5,0.8-2.3,1.2-3.9,1.5c-0.4,0.1-0.7,0.1-0.9,0.3c-0.5,0.5-0.1,1.3-0.4,1.8c-0.5,0.7-2.1,0.3-2.8,0.1c-0.8-0.2-3.1-0.1-7.9,0
	c0,0-3.5,0.1-5.7,1.5c-0.1,0.1-0.4,0.3-0.4,0.4c0,0.2,0.5,0.3,0.6,0.3c0.2,0,0.3,0,0.4,0c0.4,0,1,0.2,1.2,0.6c0.2,0.4-0.5,1-0.7,1.2
	c-0.5,0.5-1,0.6-2.8,1.3c-0.8,0.3-1.2,0.5-1.5,0.9c0,0-0.3,0.5-0.2,1c0.2,1.1,1.7,1.3,3.1,2.4C9.1,182.1,9.9,183,10.5,184.4z"/>
<path d="M184.1,75.8c-0.7,0.7-1.2,1.5-1.9,1.7c-0.9,0.2-0.8,0.8-0.8,1.4c0.1,2.2,0.1,2.2-2,2.5c-0.3,0-0.7,0.2-1,0.3
	c0.2,0.3,0.5,0.5,0.7,0.8c0.4,0.4,1,0.8,1.3,1.3c0.2,0.3,0,1.2-0.1,1.2c-0.9,0.1-2,0.7-1.6,1.3c0.5,1,0.6,2.8,2.5,2.5
	c0.3,0,0.6,0.2,0.9,0.4c-0.3,0.3-0.5,0.7-0.8,0.8c-0.6,0.1-1.4,0.3-2,0.1c-2.8-0.8-2.8-0.8-4,2c-0.1,0.3-0.9,0.6-1.1,0.4
	c-0.7-0.5-1.3-1.1-1.1-2.1c0.1-1,0.8-0.7,1.3-0.8c0.7-0.2,1.3-0.4,1.9-0.7c0.7-0.4,0.7-0.9,0.2-1.4c-0.4-0.4-0.7-0.9-1.1-1.3
	c0.6-0.3,1.2-0.7,1.8-1c1.2-0.4,1.4-0.7,0.6-1.6c-0.3-0.4-0.7-0.7-1-1.1c-0.9-1-0.9-1.3,0.6-2.1c1.5-0.8,1.6-0.9,0.7-1.8
	c-0.7-0.8-0.5-0.8,0.4-1c0.8-0.1,1.6-0.4,2.3-0.7c0.8-0.4,0.8-0.9-0.1-1.5c-0.3-0.2-1,0.1-0.5-0.7c0.6-0.9,1.5-1,2.3-0.7
	C183.1,74.1,183.5,75,184.1,75.8z"/>
<path d="M145.5,121.6c0.4,1,0.6,1.7,0.7,2.3c0.1,0.3,0.1,0.8,0.3,0.8c0.2,0,0.3-0.2,0.6-0.5c0.5-0.5,1-1,1.4-0.9
	c0.2,0,0.2,0.1,1.2,0.9c0.3,0.3,0.5,0.4,0.5,0.4c0.2,0.1,1.6,1.2,2.4,0.7c0.3-0.2,0.4-0.5,0.6-0.5c0.2,0,0.3,0.2,0.3,0.3
	c0.1,0.4-0.1,0.7-0.3,0.9c-0.2,0.3-0.4,0.4-0.7,0.7c-0.5,0.4-0.8,0.5-0.9,0.8c0,0.1,0,0.2,0,0.4c0,0,0,0.3-0.1,0.4
	c0,0-0.1,0.3-1.1,0.8c0.1,0.1,0.2,0.3,0.2,0.6c0.1,0.4,0.2,0.7,0,1c-0.2,0.2-0.4,0-0.9,0.3c-0.4,0.2-0.7,0.5-0.8,0.5
	c0.1,0.2,0.3,0.5,0.2,0.6c-0.1,0.1-0.4-0.1-0.6,0c-0.3,0.2,0.2,1.1-0.2,1.8c-0.1,0.1-0.2,0.2-0.2,0.3c0,0.2,0.3,0.2,1,0.3
	c0.4,0.1,0.6,0.2,0.7,0.3c0.3,0.2,0.2,0.7,0.1,1.2c-0.4,1.9-2,2.7-2.4,4.7c0,0.1-0.2,0.9,0.1,1c0.2,0.1,0.3-0.2,0.8-0.4
	c0.3-0.1,0.9-0.2,1,0c0.1,0.2-0.1,0.4-0.3,0.8c0,0-0.6,1.1-1.3,2.8c-0.4,1.1-0.3,1.2-0.3,1.3c0.1,0.1,0.4-0.4,1.1-0.5
	c0.3-0.1,0.8-0.1,0.9,0.1c0.1,0.2-0.1,0.3-0.4,0.7c-0.1,0.2-0.4,0.8-0.3,1.4c0,0.2,0.1,0.5,0.3,0.6c0.4,0.3,0.9,0,1-0.1
	c0.5-0.3,0.9-0.9,1-1.5c0.1-0.6-0.2-1.2-0.6-2.3c-0.1-0.4-0.3-0.6-0.1-0.8c0.2-0.4,1.1-0.4,1.2-0.4c0.1,0,1.1,0.1,1.4,0.7
	c0.1,0.4-0.1,0.8-0.3,1.2c-0.3,0.4-0.6,0.7-0.7,0.8c-1.1,1-0.9,2.8-0.8,4.6c0,0.4,0.1,0.8,0.4,0.9c0.3,0.2,0.8-0.1,1-0.2
	c0.5-0.3,0.7-0.7,1.6-1.9c0.3-0.4,0.6-0.7,0.9-0.7c0.2,0,0.4,0.1,0.5,0.2c0.1,0.1,0.3,0.4,0,1.2c-0.3,1.1-0.7,1.2-0.7,2
	c0,0.2,0,0.7,0.3,0.9c0.4,0.2,0.9-0.1,1-0.2c0.2-0.1,0.3-0.3,0.5-0.5c0.2-0.2,0.9-0.9,1.3-0.7c0.3,0.1,0.5,0.8,0.6,1.4
	c0.1,0.4,0.1,0.6,0.2,0.7c0.1,0,0.4-0.2,0.5-0.4c0-0.1,0.1-0.1,0.1-0.1c0.2-0.6,1.8-1.6,1.7-2.4c0,0-0.1-0.2-0.3-0.6
	c-0.2-0.6-0.4-0.8-0.4-0.9c-0.4-1,0.1-2.2,0.6-3c0.1-0.3,0.3-0.5,0.4-0.5c0.2,0,0.3,0.4,0.3,0.6c0.4,1.5,0.5,1.2,0.7,2.3
	c0.3,1.4,0,2.1,0.3,2.1c0.3,0.1,0.8-0.8,1.6-2.1c0.7-1.1,1-1.7,1.2-2.1c0.1-0.4,0.3-0.9,0.4-0.8c0.1,0,0.1,0.5,0.3,1
	c0.2,0.5,0.8,1,1.2,1c0.6-0.1,0.9-1,1-1c0.1,0-0.1,1.4-0.9,2.6c-0.4,0.5-0.8,0.9-0.7,1.1c0.1,0.3,0.7,0.1,1.1,0.5
	c0.2,0.2,0.2,0.5,0.2,0.6c0.1,1-0.8,1.5-1.6,3.1c-0.3,0.7-0.3,1-0.2,1.2c0.2,0.4,0.9,0.2,1,0.5c0.2,0.3-0.4,0.9-0.7,1.2
	c-0.2,0.2-2.3,2.6-2.7,4.9c-0.1,0.6,0,1,0.1,1c0.1,0,0.2-0.2,0.6-0.3c0,0,0.1,0,0.2-0.1c0.3-0.1,0.9-0.1,1.2,0.1
	c0.3,0.3,0.3,0.8,0.2,1.4c-0.3,2.1-1.4,4.3-1.7,5.7c0,0.2-0.1,0.6,0.1,0.7c0.1,0.1,0.3,0,0.6-0.2c0.7-0.3,1-0.5,1.2-0.4
	c0.2,0.1,0.3,0.5,0.3,1.2c0.2,2.3,0.2,2.9,0,3c-0.1,0-0.1-0.1-0.2,0c-0.3,0.1-0.5,0.9-0.2,1.1c0.1,0.1,0.2,0.1,1-0.2
	c1-0.3,1.2-0.5,1.4-0.4c0.2,0.1,0.2,0.6,0.2,1.2c-0.1,2.7,0,2.9,0.2,2.9c0.4,0.2,1.7-1,2.1-1.7c0,0,0.1-0.2,0.3-0.2
	c0.4-0.2,1,0,1.2,0.4c0.1,0.3,0.1,0.5,0,0.7c-0.2,0.9,0.2,2.3,1,2.8c1,0.7,2.7-0.2,2.8-0.3c0.4-0.2,0.4-0.4,0.7-0.5
	c0.7-0.3,1.6,0,2.2,0.4c1,0.7,0.9,1.6,1.5,1.6c0.4,0,0.8-0.4,1.5-1.3c0.7-0.8,0.8-1.1,1.1-1.1c0.2,0,0.3,0.2,1.1,1
	c0.5,0.5,0.6,0.6,0.8,0.6c0.2,0,0.4-0.1,0.7-0.6c0.5-0.8,0.4-1.3,0.7-1.7c0.4-1,1.4-0.5,2.4-1.4c1.2-1.1,1.3-3.2,2.2-4.1
	c0,0,0.1-0.1,0.3-0.3c1.1-1.1,1.1-1.1,1.1-1.1c0.3-0.7-0.4-1.8-0.9-2.4c-0.1-0.2-0.4-0.6-0.3-0.9c0.1-0.2,0.1-0.2,0.5-0.5
	c0.4-0.4,0.6-0.5,0.6-0.7c0-0.3-0.4-0.7-0.6-0.9c-2.6-2-2.8-2.3-3.6-2.4c-0.3-0.1-0.7-0.1-1.2-0.1c-0.3,0-1.4,0.1-1.9,0
	c-0.1,0-0.1,0-0.2,0c-0.2-0.1-0.4-0.1-0.5-0.3c0-0.1,0.1-0.2,0.4-0.5c0.5-0.5,0.4-0.4,0.5-0.5c0.8-0.7,2-1.1,1.9-1.3
	c0-0.2-0.6-0.2-2.1-0.3c-2.3-0.2-2.7-0.3-3.4,0c-0.5,0.2-0.9,0.6-1.1,0.5c-0.1-0.1,0.1-0.7,0.2-1c0.1-0.1,0.1-0.1,0.1-0.3
	c0.2-0.6,0.4-0.9,0.3-1.1c-0.1-0.2-0.5-0.2-1.2-0.3c-0.4-0.1-0.5,0-0.7-0.2c-0.3-0.2-0.3-0.5-0.3-1c0-0.2-0.1-0.6,0-1
	c0.1-0.5,0.4-0.7,1.3-1.8c0.9-1,1-1.3,1-1.6c0-0.3-0.1-0.4-0.4-1.3c-0.4-1-0.6-1.6-0.4-2.1c0-0.1,0.1-0.4,0.5-0.9
	c1.1-1.4,2.3-1.3,2.4-1.9c0.2-0.9-2-1.4-2-2.8c0-0.7,0.5-1.5,1.1-2c0.5-0.3,1-0.3,1.1-0.6c0.1-0.2-0.2-0.4-0.6-1
	c-0.6-0.8-0.9-1.2-1-1.7c0-0.3,0.2-0.8,0.7-1.8c0.3-0.7,0.4-0.7,0.4-0.9c0.1-0.6-0.3-1.1-0.7-1.7c-0.3-0.5-1.1-1.7-1.3-2.9
	c-0.1-0.6,0.1-1.3,0.5-2.8c0.4-1.5,0.6-1.9,0.4-2.3c-0.2-0.4-0.8-0.9-1.5-1.3c-0.1-0.1-0.4-0.2-0.4-0.4c-0.1-0.3,0.2-0.5,0.4-1
	c0.1-0.4,0.1-0.9-0.1-1.1c-0.2-0.2-0.5-0.1-0.9,0.1c-1.7,0.6-2.3,1.5-2.7,1.3c-0.4-0.2,0-1.2-0.5-1.5c-0.4-0.2-0.7,0.2-1.1,0
	c-0.5-0.2-0.7-1.3-0.5-2.2c0.4-2,2.8-3.5,3.7-4.1c0.6-0.4,1.3-0.8,1.4-1.5c0-0.6-0.5-0.7-0.5-1.3c0-0.9,1.4-1.3,3.1-2.9
	c0.7-0.7,1.2-1.4,1.3-1.5c1.5-2,1-2.9,2.2-4c0.7-0.6,1.4-0.9,1.6-1.6c0-0.1,0.1-0.6-0.2-1c-0.4-0.6-1.2-0.4-1.4-0.8
	c-0.1-0.2,0.1-0.5,1.2-1.6c0.6-0.6,1.2-1.1,1.8-1.9c0.6-0.7,0.9-1.1,0.8-1.5c-0.1-0.1-0.2-0.3-0.3-0.3c-0.3,0-0.5,0.5-1,0.6
	c-0.2,0-0.5,0-0.6-0.2c-0.3-0.3-0.2-0.8-0.1-1c0.2-0.9,1-1,2-2.2c0.9-1,0.8-1.5,0.7-1.6c-0.1-0.4-0.4-0.4-0.5-0.8
	c-0.2-0.6,0.2-0.9,0.5-1.9c0,0,0.3-1.4-0.2-2.8c-0.1-0.3-0.2-0.5-0.5-0.6c-0.3-0.1-0.6,0.1-0.8,0.3c0,0-1.2,0.8-2.8,1.4
	c-0.5,0.2-0.8,0.2-1.2,0.6c-0.3,0.3-0.3,0.4-0.5,0.4c-0.5,0-0.9-0.9-1.3-0.7c-0.1,0-0.2,0.1-0.3,0.1c-0.2,0-0.3-0.3-0.3-0.5
	c-0.1-0.6,0.7-1.4,1.5-1.4c0.2,0,0.3,0,0.6,0.1c0.7,0.1,1,0.4,1.2,0.2c0,0,0.1,0,0.3-0.3c0.3-0.4,0.4-0.5,0.5-0.7
	c0.4-0.5,1.9-1.4,3.7-1.1c0.4,0.1,0.9,0.3,1.9,0.7c0.4,0.2,0.6,0.3,0.7,0.5c0.1,0.3-0.2,0.5-0.5,1.1c0,0.1-0.4,0.9-0.3,1.7
	c0.1,0.8,0.7,0.8,0.8,1.5c0.1,0.9-0.6,1.7-1.5,2.9c-0.6,0.8-1,1.1-0.9,1.5c0.1,0.4,0.9,0.2,1.2,0.7c0.4,0.5,0.2,1.6-0.1,2.2
	c-0.6,1.1-1.8,1.8-2.9,2.9c-0.1,0.1-0.3,0.3-0.2,0.5c0.1,0.2,0.4,0.1,0.7,0.2c0.3,0.1,0.6,0.4,0.7,0.6c0.1,0.1,0.2,0.5-0.3,1.4
	c-0.4,0.7-0.8,0.9-2.1,2.1c-1.1,1-1.4,1.3-1.4,1.8c0,0.1,0,0.2,0,1c0,0.4,0,0.7,0,0.7c0,0.8-1.1,1.3-1.8,1.9
	c-0.5,0.4-0.2,0.3-2.1,3.7c-0.6,1.1-0.9,1.7-1.7,2.2c-0.6,0.4-0.7,0.3-1.3,0.7c-1,0.7-0.7,1.3-1.9,2.5c-0.5,0.5-0.9,0.9-0.9,1.3
	c0,0.3,0.3,0.5,0.4,0.6c0.5,0.4,1,0.4,1.8,0.4c0.6,0,0.9-0.1,1.1-0.2c0.2-0.1,0.4-0.2,0.6-0.3c1.3-0.9,1.4-1,1.5-1
	c0.4,0.2-0.2,1.5,0.5,2.3c0,0,0.5,0.6,1.1,0.6c0.5,0,0.9-0.5,1.1-0.4c0.1,0,0,0.3-0.1,0.8c0,0.1,0,0.2-0.1,0.2
	c-0.4,1.7-1.9,4.9-1.2,7.3c0.4,1.5,1.9,3.3,2.1,3.6c0.4,0.5,1,1.2,0.8,1.7c-0.1,0.1-0.2,0.2-1.3,0.9c-0.7,0.4-0.9,0.6-1,0.8
	c0,0.3,0.2,0.5,0.6,1c0.5,0.6,0.8,0.7,1.3,1.3c0.3,0.4,0.4,0.6,0.4,0.8c0,0.3-0.2,0.5-0.5,0.8c-0.6,0.7-0.9,1-1,1.4
	c-0.1,0.5,0.1,0.6,0.6,2c0.3,0.8,0.4,1.3,0.3,1.5c-0.3,0.8-1.7,1.5-2.4,1.7c-0.2,0.1-0.6,0.2-0.7,0.5c-0.1,0.2-0.1,0.5,0,0.9
	c0.3,1.1,0.8,2,0.9,2.2c0.4,0.7,0.6,0.8,0.6,1.1c0,0.5-0.5,1.1-1,1.3c-0.3,0.1-0.3,0-0.7,0.1c-0.6,0.2-1.3,0.9-1.2,1.6
	c0,0.1,0,0.4,0.2,0.6c0.3,0.3,0.8,0,1.6,0.1c0.3,0,0.8,0.1,1.1,0.5c0.4,0.5-0.1,1,0.2,1.4c0.1,0.2,0.4,0.3,2.1,0.3
	c1.7-0.1,2.1-0.2,2.6,0.1c0.4,0.2,0.9,0.7,0.9,1.2c0,0.6-0.6,0.8-0.5,1.3c0,0.4,0.6,0.7,1.5,1.1c1.2,0.6,2.7,1.4,3.8,2.6
	c0.2,0.3,0.5,0.6,0.8,1.2c0.9,2.1-0.5,4.6-1.8,6.8c-1.5,2.6-2.7,3.6-3.4,5c-0.1,0.2-0.3,0.7-0.8,1.2c-0.4,0.4-0.6,0.4-1,0.7
	c-0.8,0.5-0.7,1-1.9,2.5c-0.7,0.9-0.9,1-1.2,1c-0.1,0-0.2-0.1-1-0.8c-0.6-0.6-0.7-0.7-0.8-0.7c-0.2,0-0.4,0.2-0.9,1
	c-0.5,0.8-0.8,1.2-1,1.3c-0.5,0.1-0.7-0.4-1.7-0.9c-1.1-0.5-1.3-0.1-3.1-0.6c-1-0.3-1.4-0.6-1.8-0.3c-0.2,0.1-0.4,0.5-0.7,1.3
	c-0.1,0.3-0.2,0.5-0.3,0.5c-0.3,0.1-0.9-0.3-1.1-0.6c-0.9-1-0.6-2.2-1.4-4.4c-0.1-0.3-0.3-0.8-0.6-0.8c-0.2,0-0.4,0.3-0.6,0.5
	c-1.4,1.9-1.7,2.3-2,2.3c-0.4,0-0.6-0.5-0.7-0.6c-0.4-0.8,0.1-1.3,0-2.6c0-0.3-0.1-1.1-0.5-1.2c-0.2,0-0.5,0.2-1,0.7
	c-0.6,0.6-0.8,0.8-0.9,0.8c-0.1,0-0.2-0.3-0.4-0.8c-0.1-0.2-0.1-0.3-0.1-0.3c-0.2-0.6-0.1-1.3,0-1.4c0.2-0.8,0.6-0.8,0.7-1.6
	c0.1-0.4,0.2-0.7,0-1c-0.2-0.3-0.5-0.4-1.4-0.7c-1.5-0.6-1.6-0.8-1.7-0.9c-0.1-0.4,0.2-0.8,0.5-1.3c2.2-3,2.4-4.9,2.3-5.4
	c0-0.1-0.1-0.5-0.3-0.8c-0.1-0.2-0.3-0.4-0.5-0.4c-0.2,0-0.4,0.2-0.5,0.3c-0.8,1-1.2,1.4-1.6,1.5c-0.5,0.1-1-0.1-1.5-0.4
	c-0.2-0.1-0.4-0.2-0.4-0.4c-0.1-0.3,0.3-0.6,0.4-0.7c1.5-1.3,2.3-3.3,3.5-4.9c0.1-0.1,0.3-0.4,0.2-0.7c0-0.1-0.1-0.2-0.3-0.4
	c-0.1-0.1-0.5-0.4-0.6-0.7c-0.2-0.4,0.2-0.9,0.4-1.2c1-1.5,1.5-2.5,1.7-3c0.4-0.9,0.7-1.5,0.4-2c-0.3-0.6-1.4-0.8-2.3-0.6
	c-1.5,0.3-2.2,1.6-5,4.2c-0.2,0.2-0.8,0.8-1.2,0.6c-0.3-0.1-0.1-0.7-0.5-1.1c-0.3-0.3-0.8-0.4-1.1-0.4c-0.9-0.1-1.2,0.4-1.6,0.1
	c-0.3-0.3-0.3-1-0.2-1.4c0,0,0.1-0.7,0-1.1c0-0.1,0-0.1,0-0.2c-0.1-0.3-0.1-0.4-0.2-0.5c-0.1-0.1-0.3,0.1-0.5,0.3
	c-0.4,0.4-0.6,0.6-0.8,0.8c-0.5,0.7-1.9,1.3-2.5,0.9c-0.6-0.4-0.6-1.8-0.2-2.7c0.2-0.4,0.4-0.6,0.3-0.8c-0.1-0.2-0.8-0.1-1.2,0.3
	c-0.6,0.5-0.3,1-0.9,1.5c-0.5,0.4-1.2,0.5-1.7,0.3c-0.1,0-0.4-0.1-0.5-0.4c-0.1-0.3,0-0.5,0.3-1.1c0.7-1.2,1.1-1.5,1.1-2.1
	c0-0.1,0-0.6-0.2-0.7c-0.2-0.1-0.4,0.1-0.5,0.2c-1.4,0.9-0.4,0.1-1.8,1.1c-0.8,0.6-0.9,0.7-1.1,0.6c-0.4-0.2-0.4-1.5,0.2-1.9
	c0.2-0.2,0.4-0.1,0.7-0.2c0.9-0.3,1.3-1.4,1.6-2.3c0.1-0.2,0.2-0.5,0.3-1c0.4-1.8-0.4-2.3,0-3.6c0.3-0.8,1-1.9,1.1-2.1
	c0.3-0.4,0.5-0.7,0.4-1c-0.1-0.2-0.4-0.2-1.2-0.5c-0.9-0.3-1.1-0.5-1.1-0.6c0-0.1,0-0.2,0.1-0.4c0.6-1.1,1.1-1.3,1-1.8
	c0-0.4-0.3-0.4-0.3-0.7c0-0.5,0.5-0.6,0.8-1.3c0.4-0.7,0-1,0.3-1.6c0.4-0.7,1.2-0.3,1.8-0.9c0.7-0.8,0.5-2.5-0.3-3.5
	c-0.2-0.2-0.8-0.9-1.5-0.9c-0.1,0-0.2,0-1.1,0.3c-0.5,0.2-0.8,0.2-0.9,0.2c-0.7,0-1.2-0.8-1.8-1.7c-0.3-0.4-0.4-0.7-0.6-0.6
	c-0.1,0-0.1,0.1-0.5,1c-0.1,0.2-0.1,0.2-0.1,0.3c-0.3,0.3-1.2-0.3-1.3-0.3c-1.3-0.8-1.9-2.5-2.2-3.2c-0.2-0.4-0.3-0.8-0.4-0.8
	c-0.2,0-0.3,0.9-0.3,1c-0.1,1.1,0.2,2.6,1.1,4c0.2,0.3,0.4,0.7,0.3,1.2c0,0.1-0.1,0.3-0.5,0.7c-0.7,0.7-1,0.8-1.3,1.3
	c-0.2,0.3-0.4,0.6-0.3,1c0.1,0.3,0.6,0.4,0.8,0.5c0.6,0.1,0.9-0.1,1.5,0c0.2,0.1,0.5,0.1,0.6,0.4c0.1,0.2,0,0.5-0.2,0.9
	c-0.6,1.1-1.4,1.2-2.4,2.4c-0.4,0.5-0.5,0.8-0.4,1c0,0.1,0.1,0.2,0.8,0.5c0.6,0.3,0.5,0.2,0.6,0.3c0.4,0.2,0.8,0.7,0.8,1.2
	c0,0.4-0.3,0.7-1,1.4c-0.8,0.8-1.2,0.9-1.2,1.2c0,0.3,0.3,0.3,1,1.1c0.4,0.4,0.5,0.6,0.5,0.8c0,0.1,0,0.3-0.4,0.7
	c-0.6,0.6-1,0.5-1.8,1.1c-0.5,0.4-0.6,0.6-0.6,0.7c-0.1,0.3,0.1,0.5,0.4,1c0.3,0.6,0.7,1.3,0.6,1.8c-0.1,0.4-0.5,0.4-0.8,0.7
	c-0.5,0.4-0.6,1-0.8,3.2c-0.2,2.2-0.3,3.3-0.3,3.5c0.1,0.9,0.2,1.5-0.2,2c-0.1,0.1-0.5,0.4-1.2,0.8c-0.6,0.3-0.5,0.3-0.6,0.3
	c-0.5,0.5-0.2,1.1-0.2,2.6c0,0.9,0,1.4-0.3,1.7c-0.4,0.5-1,0.3-1.9,1c-0.3,0.2-0.6,0.5-0.8,0.9c-0.3,0.7-0.1,1.4,0,1.9
	c0.3,1.3,1.1,1.8,0.8,2.5c-0.1,0.2-0.2,0.3-0.3,0.4c-0.7,0.8-1.6,0.5-3.3,1.1c-0.5,0.2-1,0.4-1,0.7c0,0.1,0,0.2,0.9,0.8
	c0.6,0.4,0.9,0.6,1.2,0.7c0.5,0.2,0.7,0.1,0.8,0.3c0,0.2-0.1,0.3-0.5,0.7c-0.6,0.7-0.9,1-0.9,1.3c0,0.4,0.5,0.5,0.6,1.1
	c0.1,0.5-0.2,0.9-0.4,1.2c-0.5,0.9-1.1,0.8-1.6,1.6c-0.1,0.2-0.3,0.7-0.1,1c0.1,0.1,0.2,0.2,0.6,0.3c1,0.2,1.4-0.2,2.2,0
	c0.2,0.1,0.7,0.2,0.8,0.5c0.1,0.2,0,0.4-0.3,0.9c-0.7,1-1.5,1.1-2.8,2.3c-0.4,0.3-0.7,0.6-0.6,0.9c0,0.1,0.1,0.2,0.6,0.5
	c0.6,0.4,0.8,0.4,0.9,0.6c0.1,0.2,0,0.3-0.3,0.9c-0.6,1-0.8,1.2-1.1,1.8c-0.1,0.3-0.3,0.8,0,1c0.1,0.1,0.2,0.1,0.7,0.2
	c0.8,0.1,0.8,0,1,0.1c0.5,0.2,0.8,0.6,0.9,0.7c0.2,0.3,0.4,0.6,0.3,0.9c-0.1,0.3-0.3,0.4-0.6,0.5c-0.5,0.3-0.9,0.3-0.9,0.4
	c0,0.1,0.4,0.3,0.6,0.4c1.3,0.5,2.6,1.1,3.9,1.5c0.3,0.1,0.7,0.2,0.7,0.4c0,0.2-0.3,0.5-0.6,0.7c-0.4,0.3-0.6,0.2-0.9,0.5
	c-0.2,0.1-0.7,0.5-0.7,0.9c0,0.2,0.2,0.4,0.6,0.6c1.2,0.8,1.8,0.6,2.5,1.2c0.2,0.2,0.7,0.6,0.7,1.1c0,0.7-0.7,0.8-0.7,1.4
	c0,0.4,0.5,0.9,1.5,1.8c0.3,0.3,0.6,0.5,0.6,0.8c0,0.1,0,0.3-0.6,0.8c-0.4,0.4-0.8,0.7-1.4,1c-0.4,0.2-0.7,0.3-0.8,0.5
	c-0.1,0.3,0,0.5,0.2,0.8c0.2,0.5,0.7,1.4,0.6,2.1c0,0.6-0.4,0.6-1,1.8c-0.3,0.6-0.2,0.6-0.6,1.6c-0.6,1.6-0.9,2.4-1.5,2.7
	c-0.4,0.2-0.6,0.1-1.1,0.3c-0.6,0.3-0.9,0.8-1,1c-0.8,1.3-3.2,2.8-5.3,2.6c-0.2,0-1.5-0.4-1.5-0.7c0-0.8,1.4-2.3,2.8-2.2
	c0,0,0.3,0,0.7,0.1c1.5,0.2,1.7,0.3,1.9,0.2c0.2-0.1,0.3-0.5,0.5-1.2c0.2-0.7,0.2-1,0.6-1.5c0.1-0.1,0.1-0.2,0.4-0.4
	c1.3-1.2,1.6-1.2,1.9-1.8c0.1-0.2,0-0.1,0.3-1.1c0.1-0.2,0.2-0.6,0.3-1c0.5-1.4,0.8-1.5,0.7-2c-0.1-0.5-0.5-1-1-1.4
	c-0.4-0.4-0.7-0.5-0.7-0.8c-0.1-0.5,0.4-1,0.5-1.1c0.6-0.6,1.3-0.5,1.4-0.8c0.1-0.2-0.2-0.4-0.8-1.4c-0.4-0.6-0.4-0.8-0.4-0.9
	c0-0.2,0.1-0.3,0.6-0.9c0.6-0.7,0.7-0.8,0.7-1c-0.1-0.2-0.4-0.2-1.1-0.4c-0.3-0.1-0.8-0.3-2-0.6c-1.7-0.6-1.8-0.8-1.9-0.9
	c-0.2-0.4,0.1-1,0.5-1.3c0.6-0.4,1.5,0.3,1.9,0c0.2-0.2,0.1-0.5,0-0.7c-0.2-0.4-0.6-0.5-1.6-0.7c-1.2-0.3-2-0.4-3.1-0.8
	c-0.4-0.2-0.8-0.4-0.9-0.7c0,0-0.1-0.4,0.1-0.6c0.2-0.3,0.6-0.1,1.2-0.2c0.4-0.1,1-0.4,0.9-0.8c0-0.3-0.6-0.6-1-0.7
	c-0.7-0.1-1,0.2-1.5-0.1c-0.1,0-0.4-0.2-0.5-0.4c-0.1-0.4,0.2-0.8,0.3-1c0.7-0.8,1.5-0.6,1.8-1.1c0.2-0.6-0.4-1.5-1.1-2
	c-0.5-0.4-1-0.4-1.1-0.6c0-0.2,0.2-0.4,0.9-0.8c1.1-0.7,2-1.2,2.9-2c0.5-0.4,0.6-0.6,0.6-0.8c-0.1-0.2-0.5-0.2-1-0.3
	c-1.4-0.1-2.6-0.2-3-0.9c-0.2-0.3-0.3-0.8-0.1-1.2c0.3-0.7,1.1-0.6,2.3-1.6c0.3-0.2,0.5-0.5,0.5-0.8c0-0.1,0-0.2-0.4-0.7
	c-0.4-0.6-0.4-0.6-0.4-0.7c0-0.3,0.2-0.5,0.6-1.1c0.3-0.5,0.5-0.8,0.4-1.2c-0.1-0.4-0.6-0.7-0.9-0.8c-0.3-0.1-0.4,0.1-0.7,0
	c-0.4-0.1-0.7-0.4-0.9-0.8c0-0.1-0.2-0.6,0-1c0.2-0.3,0.5-0.4,0.6-0.4c1.7-0.6,3.1-1.1,3.6-1.8c0.7-0.9,0.5-2.5,0.2-4.4
	c-0.1-0.6-0.2-1.3,0.2-1.7c0.2-0.2,0.3-0.1,1.4-0.4c0.5-0.1,0.8-0.2,0.8-0.3c0.9-0.6,0.4-2.7,0.3-3.3c-0.2-1.2-0.6-1.5-0.4-2.4
	c0.1-0.5,0.3-1.3,0.8-1.3c0.4-0.1,0.6,0.6,1.1,0.6c0.5,0,1-0.5,1-0.6c1-1.3,0.1-3.8,0-4.1c-0.1-0.3-0.4-1-0.1-1.8
	c0-0.1,0.1-0.2,0.2-0.4c0.4-1,0.6-1,0.6-1.3c0-0.3-0.3-0.7-1-1.4c-0.4-0.5-0.6-0.6-0.6-0.8c0-0.2,0.1-0.5,1-0.9
	c1.5-0.7,2.6-0.5,2.7-0.9c0.1-0.4-0.9-0.7-1.8-2.1c-0.2-0.3-0.4-0.6-0.3-0.9c0.1-0.3,0.4-0.3,1-0.5c1.1-0.4,1.7-0.6,1.8-0.9
	c0.2-0.4-0.1-1-0.5-1.3c-0.4-0.3-0.7,0.1-1.5,0c-0.6-0.1-1.4-0.5-1.5-1c0-0.3,0.3-0.6,0.9-1c0.8-0.6,1.2-0.7,2.1-1.4
	c0.7-0.5,0.6-0.7,0.6-0.8c-0.1-0.2-0.4-0.1-1-0.3c-0.4-0.1-1.2-0.3-1.5-0.8c-0.4-0.7,0.4-1.9,1-2.6c0.8-0.9,1.4-0.7,1.6-1.4
	c0.3-0.6-0.2-1.1-0.8-2.8c-0.6-1.6-0.9-2.5-0.7-3.6c0.1-0.9,0.5-1.6,0.7-2.1c0.3-0.5,0.8-1.4,1.2-1.3c0.4,0.1,0.2,1,0.9,1.7
	c0.6,0.6,1.2,0.3,1.5,0.8c0.5,0.7-0.4,1.9,0,2.2c0.1,0.1,0.2,0,1.2-0.1c0.9-0.1,1,0,1.2-0.2c0.3-0.2,0.3-0.5,0.6-1.2
	c0.1-0.4,0.6-1.8,1-1.8C144.8,119.2,145.1,119.4,145.5,121.6"/>
</svg>
