<?xml version="1.0" encoding="utf-8"?>
<!-- Generator: Adobe Illustrator 22.0.0, SVG Export Plug-In . SVG Version: 6.00 Build 0)  -->
<svg version="1.1" id="Layer_1" xmlns="http://www.w3.org/2000/svg" xmlns:xlink="http://www.w3.org/1999/xlink" x="0px" y="0px"
	 viewBox="0 0 184 328" style="enable-background:new 0 0 184 328;" xml:space="preserve">
<style type="text/css">
	.st0{fill:none;stroke:#000000;stroke-miterlimit:10;}
</style>
<path class="st0" d="M49.6,19.4c0.5-5.6,4.9-6.8,9.3-8c6-1.5,11.9-4,17.9-4.3c8.2-0.5,16.4,0.5,24.6,1.1c14,0.9,25.5,7.7,33.3,18.6
	c6.9,9.6,12.1,20.7,16.4,31.8c4.1,10.6,6,22.1,8.7,33.2c1.3,5.2,2.2,10.4,7.5,13.4c1.4,0.8,2.4,2.8,2.8,4.5c0.7,2.8,0.1,5.1-3.8,4.1
	c-6-1.4-10.9,0.6-15.5,4.7c-3.3,3-7.5,5-11.3,7.5c-0.4-0.4-0.8-0.7-1.2-1.1c0.1-1.6,0.3-3.3,0.5-5.5c-1.1,0.8-1.9,1.2-2.3,1.8
	c-3.8,5.3-8.7,5.3-14.2,3.5c-8.5-2.8-17-5.8-25.7-8.1c-3.9-1-8.3-0.7-12.4-0.7c-1.4,0-2.8,1-4.1,1.5c0.1,0.5,0.2,1,0.4,1.5
	c1.9-0.2,3.8-0.5,7.4-0.9c-14.4,11.1-19.6,23.8-11.9,39.7c2,4.1,4.5,8.3,11.2,9.6c-4-5.5-7.1-9.9-10.2-14.3c0.4-0.4,0.7-0.8,1.1-1.2
	c18.5,7.8,37,7.9,57,0.1c-2.8,3.6-4.5,6.2-6.6,8.4c-2,2.1-4.5,3.7-6.8,5.6c0.2,0.5,0.4,0.9,0.6,1.4c1.6-0.5,3.7-0.6,4.8-1.6
	c3.2-2.9,6.3-5.9,8.9-9.3c1.9-2.5,3.7-3.1,6.7-2.7c4.9,0.7,9.9,0.6,14.9,0.8c6.2,0.3,9.1,2.3,10,7c1.2,6.3-0.8,10.5-5.9,13.3
	c-6.4,3.5-13,3.1-19.3,0.6c-5.3-2.1-10-1.5-15,0.4c-13.2,4.9-26,10.5-36.7,19.8c-11,9.5-18.8,21.1-21.6,35.6
	c-3.3,16.8,4.7,29.8,23.4,38.3c12.1,5.6,15.6,6,35.5,4.5c0,16.4,0,32.7,0,50.4c-4.9-7.6-9.4-14.2-13.5-21.1
	c-3.6-6.1-6.6-12.7-10.2-18.9c-1.1-1.8-3-3.7-4.9-4.4c-14.8-5.2-29.7-9.8-44.4-15.1c-6.5-2.4-12.7-5.7-18.8-9.1
	c-1.4-0.8-2.8-4.2-2.2-5.5c5.2-11.5,5.9-23.8,6.8-36.1c0.3-5,0.3-10,0.2-15c-0.1-3.3,0.6-5.7,3.8-7.4c1.8-0.9,2.9-3,3.9-5.3
	c-7.8,3.9-15.3,9.2-23,1c-3.3-3.5-2.8-8.1-0.4-12.1c4.4-7.2,10.1-11.6,19.6-6.6c0-0.8,0.1-1.6,0.1-2.4c-2.3-1-4.6-2.5-7.1-2.8
	c-3.3-0.4-4.7-1.5-4.6-5c0.2-7.7,0.1-15.4,0.1-23.1c0.9-0.2,1.8-0.4,2.6-0.6c3.6,8,7.2,16,10.7,23.9c0.7-0.3,1.5-0.6,2.2-0.9
	c-3.8-8.5-4.4-18.3-10.6-25.9c-2.6-3.1-6.6-1.4-7.1,2.9c-0.8,6.6-1,13.2-2.5,20.1c-2.3-6.8-5-13.5-6.8-20.4
	c-3.3-12.5-7.2-25.1-8.8-37.9c-2.5-20.3-4.7-41,8-59.5c2.6-3.8,5-7.8,10.3-8.6c1-0.1,1.7-1.8,2.7-2.6c3.2-2.6,6.4-5.3,9.9-7.4
	C45,18.1,47.1,19.1,49.6,19.4z M32.7,173c0.5,2.4,1,4.4,1.4,6.5c1.8,0.7,3.9,1.4,6,2.1C40.6,176.5,37.8,173.2,32.7,173z M67.9,112.1
	c3.7-3.4,6.8-6.2,10.2-9.4C72.1,102.3,68.4,105.5,67.9,112.1z"/>
<path class="st0" d="M72.3,239.8c0.7-18.4,8.7-29.9,19.1-39.8c10.8-10.3,24.1-16.6,38.1-21.3c2.5-0.8,5.8-1.1,8.1-0.1
	c6.8,3,13.6,2.9,20.5,1.4c3.5-0.8,5.3,0,6.1,3.6c1,4.7,2.1,9.4,3.7,14c1.5,4.5,3.8,8.7,5.3,13.2c1.2,3.5,2.8,7.4,2.2,10.8
	c-2.5,12.9-9.2,23.4-19.9,31.2c-0.4,0.3-0.8,0.7-1.3,0.8c-8.6,1.8-13.8,8.9-20.8,13.2c-8.2,5.1-16.9,7.3-26.2,4.2
	c-9.9-3.3-20.1-6.4-27.5-14.5C74.6,250.7,72,244.3,72.3,239.8z M163.2,228.9c-6.3,0.1-14.7,7.6-15.3,12.9c-0.2,1.7,0.8,3.6,1.2,5.4
	c2-0.7,5-0.8,5.9-2.3C158,240.1,160.3,234.7,163.2,228.9z"/>
<path class="st0" d="M111.4,153.8c-12.7,0-23.1-0.5-32.4-6.5c-2.9-1.9-3.6-4-3.1-7.1c1.6-9.3,7.2-15.6,15.2-19.8
	c2.2-1.2,5.6-1.1,8.2-0.4c7,2,13.9,4.6,20.8,6.9c1.9,0.6,3.8,1.3,5.7,1.5c6.7,0.9,11.8,6.7,10.8,13.3c-0.3,1.9-2.1,4.1-3.8,5.3
	C125.7,151.7,118,154.4,111.4,153.8z"/>
<path class="st0" d="M135.3,128.1c8.5,0,14.4-4.4,20.3-9.5c5.3-4.6,13.9-2.3,18.1,4.2c0.5,0.8,1.1,1.7,1.4,2.6
	c4.5,16.4,0.4,20.6-14.8,21.9c-2.8,0.2-5.6-0.6-8.4-0.7c-6.9-0.3-12.4-1.8-12.6-10.5C139.2,133.7,136.9,131.3,135.3,128.1z"/>
<path class="st0" d="M171.9,149.6c-1.7,3-3.4,4.7-7.4,3.9c-5.3-1.1-10.8-1.3-16.3-2c-2.7-0.3-5.4-0.8-8-1.9
	C150.7,149.6,161.1,149.6,171.9,149.6z"/>
</svg>
