<?xml version="1.0" encoding="utf-8"?>
<!-- Generator: Adobe Illustrator 22.0.0, SVG Export Plug-In . SVG Version: 6.00 Build 0)  -->
<svg version="1.1" id="Layer_1" xmlns="http://www.w3.org/2000/svg" xmlns:xlink="http://www.w3.org/1999/xlink" x="0px" y="0px"
	 viewBox="0 0 311.6 309.6" style="enable-background:new 0 0 311.6 309.6;" xml:space="preserve">
<style type="text/css">
	.st0{fill:#F06012;}
</style>
<path class="st0" d="M230.8,27.3c2.2,0.3,2.8,2.3,4.4,3.3c0.9-0.3,1.8-0.5,3-0.9v6.6c0.6,0.4,1.2,0.9,1.2,0.9
	c0.6,1.7,0.9,2.8,1.3,3.9c2.1-0.3,3.7,0,5.1,0.9c0.1,1,0.2,1.9,0.4,2.8c1-0.4,1.7-0.7,2.6-1c0.1,1.2,0.1,2,0.2,3
	c2.5,2.1,6.3,3.7,3.5,8.3l2.4,0.4c0.1,1.2,0.1,2.4,0.2,3.4c1.2,0.2,2.1,0.3,3.4,0.5c-0.9,1.1-1.5,1.8-2,2.4c0.6,1.7,1,3.2,1.5,4.8
	h3.5c0.2,0.6,0.3,1,0.5,1.3c0.5,0.1,0.8,0.2,1,0.2c0.3,1.7,0.6,3.2,0.9,4.8c-0.4,0.5-1,1.1-1.7,1.9c0.7,1.1,1.3,2.1,2,3.2
	c-0.5,1-1,2-1.6,3.4v3.6c0.7,0.6,1.5,1.3,2.3,1.9v1.6c0.8,0.5,1.5,0.9,1.8,1.1c0.7,2.6,1.4,4.9,2,7.2c-1,0.8-1.9,1.5-3,2.4
	c-0.5,1.7-1.2,3.7-2,6.4c-0.3,0.3-1.2,1-2.3,1.9c0.7,1.3,1.3,2.3,2,3.5c-1.1,0.6-2.1,1.1-3.1,1.6v1.3c-1.4,1.7-2.7,3.3-4.3,5.2
	c-1.3-0.3-2.7-0.6-4.4-0.9c-1.3,1.8-2.3,4.1-5,4.5c-0.4-0.3-0.8-0.5-1.2-0.8c-2.1,1-4.2,2-6.3,2.8c-0.8,0.3-1.8,0-2.8-0.1
	c-0.7-0.1-1.3-0.3-2.1-0.5c0,2.2-2.9,2.6-2.4,5c0.7,0.7,1.6,1.6,2.4,2.4c-0.4,0.7-0.7,1.2-0.9,1.7c0.6,1.4,1.2,2.6,2.1,4.6
	c0.2,0.2,1,1,1.8,1.7c-0.1,0.1-0.3,0.2-0.4,0.3c0.7,1.5,1.3,2.9,2.3,5c0.5,0.4,1.5,1.4,2.4,2.3v4.4c0.3,0.2,1,0.5,1.5,0.8
	c-0.7,3.4-0.7,3.4-0.1,5.2c-1.2,1.3-0.5,2.8-0.7,4.1c0.7,0.2,1.1,0.4,1.5,0.5v3.9l-1,1l0.1,1.1l-0.8,8.2c0.7,0.3,1.4,0.6,1.9,0.8
	c-0.4,1.1-0.7,1.8-0.9,2.4c-0.2,0.8-0.3,1.5-0.5,2.4c1.2,0.3,2.3,1,1.9,2.9c1.7,0.8,2.2,2.8,3.8,3.9c1.5,1,2.4,3,3.9,4.9v3.1
	c3.7-1.3,6.7,0.9,10.2,1.5c0.5,0.5,1.2,1.2,2,2h2.9c0.5,0.8,0.8,1.6,1.3,1.9c1.1,0.5,2,1.1,2.4,2.4c0.1,0.4,0.7,0.8,1.1,0.9
	c2,0.6,2.1,2.3,2.4,3.9c0,0.2,0.2,0.4,0.1,0.1c1,0.7,1.6,1.1,2.3,1.5c0,1.1,0,2.2,0,3.3c0.5,0.1,0.8,0.2,1.2,0.3
	c0.4,2.3,0.8,4.7,1.2,7.4c0.6,0.4,1.5,0.9,2.4,1.5c0.5,0.3,1.1,0.9,1.1,1.4c0.1,2.2,1.6,3.4,2.9,4.8c0.1,0.1,0.1,0.5,0.2,0.8
	c-0.5,0.6-1.1,1.2-1.7,1.9c0.9,1.6,0.6,4,3.5,3.9c0.4,0,0.8,0.8,1.2,1.3c0.4,0.5,0.8,0.9,1.6,1.7v2.7c1.1,0.5,2,0.9,3.1,1.4v4
	c1.1,0.1,2,0.2,3.1,0.3c-0.5,0.9-0.8,1.6-1.1,2.2c0.8,1.2,1.6,2.4,2.3,3.5c-0.8,1.2-1,2.4-0.7,3.3c0.8,0.6,1.6,1.2,2.4,1.7l0.2-0.3
	c2.4-0.6,3.8-0.9,6.2-1.5l1,0.6v14.3c-1.2,0.8-1.6,1.9-1.5,2.4c-0.8,1.4-1.3,2.3-1.8,2.9c-1.8-0.4-3.3-0.6-4.5-0.9
	c-2.3,2-1.8,4.7-2.7,6.8c1.4,1.6,0.5,3-0.3,4.5c-0.6,0-1.2,0.1-2.1,0.1c0.4,1.2,0.6,2.2,1,3.4c-0.5,0.4-1.1,0.8-1.6,1.3v2.4
	c-1.1,0.8-2,1.3-3,2.1c-0.7-0.6-1.3-1.2-1.8-1.7c-0.9,0.8-1.6,1.5-2.7,2.4c0,0.1,0,0.7,0,1.3c-2.2,0.1-1.9,1.9-2.1,2.4
	c-2.1,1.2-3.6,2-4.7,2.6c-2.9,0.4-5.4,0.7-7.8,1c-0.4-1.9-0.4-1.9-1.9-3.2c-1.5,1.6-3.5,1.8-5.4,1.6c-0.6,0.6-1,1-1.4,1.4H260
	c-1.5-0.9-2.6-1.6-3.5-2.2c-2.7,1.6-5.5,0.4-7.7,0.9c-1.3,0.9-2.3,1.5-3.3,2.2h-7.9c-0.8-0.8-1.7-1.9-2.9-3.3
	c-1.2,0.6-2.5,1.2-4,1.9c-1.4-1.7-3.8-2.3-4.4-5c-0.3-1.2-1.3-2.7-2.3-3c-2.5-0.9-2.7-3.4-4.4-4.8c0.5-0.7,0.8-1.2,1-1.5
	c-0.8-0.9-1.4-1.7-1.9-2.3c-1.6,0-3.1,0.3-3.4-1.8c0.2-0.8,0.7-1.7,0.7-2.6c0-0.9-0.6-1.7-0.9-2.6l1.7-1.7v-2.9
	c-0.6-0.7-1.1-1.3-1.5-1.7c0.9-1.7,1.3-3.2,2.3-4.3c1.1-1.2,2.6-2.1,3.9-3.1c-0.4-1.1-0.7-2-1-2.8c0.3-0.4,0.6-0.8,1-1.3
	c-0.6-0.6-1.2-1-1.5-1.6c-0.3-0.6-0.3-1.3-0.4-1.8c-2.5-1.3-2.5,1.7-4.3,2.2v-5.2c-0.9-0.2-1.6-0.3-2.4-0.4v-1.7
	c-4-1.6-7.4-5-12-2.6l-2.8-1.6c-0.1-1-0.1-1.9-0.2-2.9c-0.5,0-0.7,0-1,0c-3,0.2-5.2-0.7-6.8-3.6c-1.1-2-1.8-4.6-4.1-5.7v-1.7
	c-0.8-0.6-1.6-1.2-2.4-1.8c0.7-0.9,1.3-1.6,1.9-2.4l-1.3-1.4h-4.7c-0.4-1.2-0.6-2.7-1.3-3.6c-0.8-0.9-2.1-1.3-3.2-1.9
	c-1.5,1.4-2.9,2.3-4,3.7c-1.1,1.3-2.8,2.2-4.4,3.3c-0.1,1.5-1.5,1.5-2.8,1.7c-0.7,3.4-2.6,5.4-4.5,5c-0.1-0.4-0.3-0.8-0.5-1.3
	c-0.3,0-0.7,0-1.1,0v3.9c-0.8,0.8-1.3,1.3-2.1,2.1H153c-2.5,0.8-1.2,2.4-1.7,3.2c-1.4,0.6-2.6,1-3.7,1.6c-1,0.6-1.4,1.9-3,1.9
	c-1.6,0-1.4,2.1-2.7,2.9h-2.2c-0.6,0.6-1,1-1.5,1.5c-2.4-0.3-5.3,0.9-6.8-2.3h-2.6c-0.3-0.4-0.7-1-1-1.5c-4.4,0.3-6.6,1.5-8.2,4.3
	c-3.2,1.3-6.3,2.7-8.4,5.4l-1.4,0.1c-0.7,0.9-1.3,1.7-1.7,2.3c-1.1-0.4-2-0.7-2.8-1c-0.6,0.9-1.1,1.5-1.5,2.3
	c-0.4,0.7-0.6,1.5-0.6,1.7c-1.1,0.9-1.7,1.5-2.5,2.2l1.6,1.8c-0.3,1.6-0.5,2.8-0.7,4.3c1.2,0.4,2,0.7,2.7,0.9c0.7,1,1.4,2,2.1,3
	c-0.5,1.1-1,2.1-1.5,3c-0.3,1.9-0.5,3.6-0.8,5.3c0.9,0.7,1.9,1.5,2.7,2.2v2.5c-0.5,0.5-0.9,1.1-1.4,1.4c-0.6,0.3-1.4,0.3-2,0.6
	c-0.5,0.3-0.8,0.8-1.2,1.3c0.4,0.6,0.7,1,1,1.4c-0.5,1.3-1,2.6-1.4,3.7c-1.8,0.3-3.3,0.5-5,0.8c-0.5-0.3-1.2-0.9-2-1.5
	c-1.1,1.4-1.9,2.9-3.1,3.7c-1.8,1.3-3.9,2-5.8,3.2c-1.9,1.3-4.2,1.3-5.7,2c-1.6-0.3-2.7-0.5-3.8-0.8c-0.2-0.4-0.3-0.9-0.5-1.6
	c-2.5,0.9-4.8,2.6-7.8,1.5c-0.3-0.5-0.7-1.2-1.2-2c-3,0.2-6.2-0.5-9.2,0.8c-1.3,0.6-2.5,0.7-3.8,0.7c-0.3-1.8,1.2-2.1,2.3-2.7
	c0-0.6-0.1-1.2-0.2-2.1c-2.1,0.8-4,1.5-5.8,2.2c0.2,0.4,0.4,0.8,0.7,1.2c-0.5,0.2-1.1,0.3-1.6,0.5c-0.5,0.3-0.9,0.7-1.4,1
	c0-0.5,0-1,0-1.5c0.1,0,0.3,0,0.4,0c0.1,0,0.3-0.2,0.3-0.2c-1.6-2-1-5.2-3.9-6.5c-0.6-0.3-0.5-1.8-1.2-2.4c-0.6-0.6-1.7-0.7-2.5-1.2
	c-0.4-0.2-0.5-0.8-0.6-1c-1.5,0.4-2.5,0.7-4,1.1c0.4-1.7,0.8-3,1.1-4.2c-0.6-0.7-1.1-1.3-1.9-2.1c1.7-2,3.3-3.8,4.7-5.6v-2.4
	c-0.6-0.3-1.7-0.1-1.4-1.3c-2.2-1.6-1.7-3.6-0.6-5.4c0.7-1.1,0.5-2,0.5-3.2c-0.7-0.4-1.4-0.8-2.1-1.2c1.1-1,0.7-2.1,0.5-3.2
	c-1-0.5-2-0.9-3-1.4c0.7-2.8,1.3-5.6,1.9-8.2c0.8-0.5,1.4-0.9,2.2-1.4v-2.5c1.6-0.3,2.4-1.3,3.1-2.7c-0.7-0.5-1.3-1-1.7-1.3v-3.1
	c1.2-1.5,2.3-2.9,3.5-4.5h5.4c0.2-2,0.5-3.6,2.6-4.4c1-0.4,1.6-1.5,2.4-2.2c0.2-0.2,0.2-0.4,0.3-0.6c0-0.6,0-1.3,0-2l1.5-1.3
	c0.8,0.7,1.4,1.1,2,1.7c0.2-0.7,0.4-1.1,0.6-1.7c0.7,0.4,1.4,0.7,1.9,0.9c1.8-1.2,3.5-2.4,5.3-3.6c-0.3-0.6-0.6-1.2-0.9-1.8
	c0.9-0.7,1.7-1.2,2.6-1.9c-0.7-1.1-1.3-2-1.9-2.9c1.3-2,2.4-3.9,3.6-5.8c0.9,0.4,1.5,0.7,2,1c1.2-1.8,2.3-3.4,3.6-5.5v-1.9
	c0.7-0.5,1.5-1,2.4-1.6c-0.2-0.7-0.4-1.4-0.7-2.2c2.3-0.2,2-2.8,3.5-4c1.5,1.3,3.4,0.7,5,0.8c0.4-0.6,0.8-0.9,1-1.4
	c0.2-0.5,0.1-1.1,0.2-1.8c1.3,0,2.4,0,3.3,0c0.4-0.4,0.8-0.6,0.9-1c0.1-0.5,0-1,0-1.6c1.9-1.5,3.9-3,6.2-4.7c1.9,1.2,4.1,0,6.4-0.2
	c0.4-0.4,0.9-0.9,1.3-1.3h2.9c1.3-1,2.5-1.9,3.6-2.8c-0.4-0.9-0.7-1.5-1-2.2c1.4-0.7,3.1,0.4,4-2c0-0.4,0-1.5,0-2.4
	c2.3-1.2,4.5-2.3,6.6-3.4c0.4-2.3,0.7-4.4,1-6.3c-0.7-0.7-1.2-1.2-1.8-1.8c0.6-0.4,1.2-0.8,1.5-1.1c-0.3-1-0.5-1.6-0.7-2.3
	c1.2-1.1,2.3-2.1,3.1-2.9v-4.2c-0.5-0.5-0.9-0.9-1.5-1.5V154c-0.5-0.2-1.1-0.6-1.8-0.9c0.5-1.3,0.8-2.1,1.1-3
	c-1.3-1.3-2.5-2.5-3.9-3.9v-3.9c-0.8-0.1-1.5-0.3-1.9-0.3l-0.7-1.4c-1.3,0.7-2.5,1.2-3.9,1.9c-0.1-1.2-0.2-2.1-0.3-3.2h-2.7
	c-0.4,0.6-0.9,1.4-1.5,2.2c-0.9-0.3-1.8-0.6-2.9-1c-0.5,0.6-0.9,1.2-1.4,1.8c-0.1,0.1-0.2,0-0.4,0c-1.7-0.8-1.7-0.8-4.9-0.7
	c-1.1,0.7-2.1,1.5-3.2,2.2c-0.2,0-0.5,0.1-0.7,0c-0.5-0.2-1-0.5-1.6-0.7c-1.8,0.8-5,1.2-6.7,0.4c-1.2-0.6-2.7-0.7-3.5-0.2
	c-1.2,0.7-2.4,0.4-3.5,0.6c-0.4,0-0.7,0-1,0.1c-0.8,0.8-1.5,1.5-2.2,2.2c-2.5-0.4-4.9,1.2-7.5,0.8c-0.3,0-0.7,0.6-1.1,0.9
	c-0.8-0.7-1.4-1.3-1.6-1.4c-3.5-1.5-5.7,1.6-8.5,1.1l-2.6-2.4c-1.7,1.2-3.1,2.2-4.7,3.3c-1.6-1.6-3.6-1.9-5.7-1.7
	c-0.7-2.1-2.9-2.7-4.1-4.5c0.3-1.1,0.6-2.2,0.9-3.3l-2.2-1.4c0.3-1.5,0.6-2.7,0.8-4.1c-0.6-0.1-0.9-0.2-1.5-0.3l-0.2-1.9l-3.7-3.2
	c-0.5-0.9-1-2-1.4-2.8c0.6-1.7,1.1-3.2,1.6-4.7c-0.6-0.7-1.3-1.4-1.9-2.1c0.4-1,0.7-1.7,1-2.5c-0.6-1.4-2.8-1.9-2.2-3.9
	c-0.9-0.9-1.8-1.8-2.8-2.8h-2.4c-0.2-1.4,0.1-2.4,0.5-3.6c0.3-0.9-0.4-2.2-0.6-3.4c-0.1-0.4,0.4-0.8,0.5-1.3
	c0.1-0.5,0.4-1.1,0.2-1.4c-1.2-1.6-0.5-3.3-0.7-4.6c0.9-1.3,1.5-2.2,2.1-3.1c0.5-1.4-0.5-2.9,0.8-3.9c0.2-0.1,0.2-0.9,0-1.1
	c-1.6-1.6,0-3.1,0.1-4.7c-1-1.3-2.1-2.5-2.4-4.2c-0.1-0.8-1.3-1.4-2.1-2.2c-0.5-1-1.1-2.1-1.5-2.9l1.6-4.8c-0.7-0.8-1.3-1.4-1.8-1.9
	c0.3-1.3,0.4-2.4,0.9-3.3c0.7-1.1,0.9-2.2,0.5-3.4c-0.4-0.2-0.9-0.3-1.5-0.5c0.3-1,0.6-2,0.9-3c-0.9-1.2-2.7-1.9-2.3-3.5l-2.5-2.9
	c-1-0.1-1.8-0.2-2.9-0.2c0.3-1.2,0.6-2.1,0.8-3c0.1-0.5,0.4-1.1,0.2-1.4c-1.5-1.7-0.4-3.4,0.2-5.3c-0.7-0.9-1.4-2.1-2.3-2.9
	c-1-0.8-1.4-2.1-2.4-2.9c0.4-1.8-1-2.2-1.8-2.6c-1.3-2.5-2.4-4.6-3.5-6.7c0.9-1.9,1.9-3.7,1.5-5.7l-1.4-0.5c0-1.2,0.6-2.4,1.7-3
	l3.7-2.2c1.1-0.7,2.4-1,3.7-0.9c1.1,0.1,2.4,0.2,3.3,0.4c1.8,0.3,5.5-0.2,5.5-0.2s-0.3-2.5-1.2-3.8c-0.8-1.3,4.3-0.7,5.2-0.7
	s19.7,4.3,23.8,4.3c4.2,0,4.3,0.5,5.7,0.7c1.3,0.2,7.5,2.3,13.3,1.5c1.5-0.2,2.7-0.5,3.3-0.7c0.7-0.2,20.7-2.5,22.2-2.5h7.7
	c0.1,0,0.2,0,0.3,0l12.7,2.6l5.4,4.1c1.2,1.3,2.3,2.5,3.4,3.7h1.5l1.1,1.8c1.7,0.5,3,0.8,4,1.1c0.7,1,1.1,1.7,1.4,2.2
	c2.4,0.2,4.5,0.5,6.1,2.2c0.4,0.4,1,0.7,1.5,0.9c1.6,0.6,3.3,1.1,4.5,1.5c0.8,2.2,1.4,4,2.1,6h3.2c0.8,0.8,1.5,1.5,2.2,2.2h2.5
	c0.4-0.4,0.8-1,1.3-1.7c3,0.7,5.9,1.5,8.2-1.3h2.6c0.5-0.7,1.3-1.5,1.8-2.2c1.5-0.3,2.8-0.7,4-0.8c1.5-0.1,3,0,3.9,0
	c2.9-1.9,5.5-3.5,6.2-6.7h6.5c1.9-2.7,3.9-5.5,5.9-8.3c1-1.4,2.6-2.4,4.4-2.6l12.4-1.5l6.5-0.8c0,0,5.4,1,6.2,1.5
	c0.5,0.3,2,1.2,3.2,1.8c0.8,0.5,1.5,1.2,1.8,2.1l1.4,3.5c0.2,0.6,0.3,1.2,0.2,1.9L230.8,27.3z M210.6,233.8c0.8,0.5,1.5,1,2.3,1.6
	c0.5-0.3,0.8-0.5,1.2-0.7c0.4,0.4,0.9,0.9,1.4,1.4c3.7-0.5,6.8,0.5,9.1,3.8c1.2-0.3,2.4-0.6,3.8-1c0,0.8,0,1.4,0,1.9
	c1.3,1.3,2.4,2.4,3.5,3.5c1.6,0,3.2,0,4.9,0c0.1,0.6-0.3,1.4,0.8,1.5c0.5,0.1,1,0.5,1.4,0.7c0,0.4,0,0.7,0,1.1
	c1.3,0.5,2.5,0.9,3.4,1.3c0.4,1.6,1.1,2.7,1,3.8c-0.2,1.6,2.2,1.3,1.7,3.1c-0.2,0.8,1.9,1.5,1.1,3.6c-0.1,0.1-0.7,0.6-1.3,1
	c0.4,3.1-0.6,6.2,0.7,8.7c-1.6,1.5-3.1,2.8-4.4,4c0,1.1,0,2.1,0,3.1c-1.3,0.9-2.5,1.9-3.8,2.8c1,0.7,1.9,1.3,3.1,2.1
	c0.6,0,1.7,0,2.7,0c-0.2,1.2-0.4,2.3-0.5,3.2c2.5,1.3,4.8,2.4,6.6,3.3c1.9-0.3,3.3-0.6,4.7-0.6c2.2-0.1,4.4,0.2,6.4-0.8
	c0.8-0.4,1.8-0.7,2.7-0.7s1.8,0.6,2.7,0.7c0.5,0.1,1-0.4,1.3-0.5c0.8,0.4,1.5,0.8,2.3,1.2c1.2-1.5,3-0.2,4.3-0.8
	c2.5-1.4,1.3-4.8,3.5-6.3c-0.3-0.9-0.6-1.8-0.9-2.6c1.1-1.3,2.8-2.3,1-4c0.6-1.2,1.2-2.3,1.8-3.4c0.4,0,0.7,0,1.1,0
	c0-0.8,0-1.5,0-2.3c-0.6-0.4-1.1-0.8-1.7-1.1c0.3-1.5,0.5-3,0.8-4.4c-0.6-1.1-1.1-2.3-1.6-3.1c-0.8-0.5-1.4-0.9-2.1-1.3
	c0-1.1,0-2.2,0-3.2c-1.2-1.2-2.1-2.6-3.4-3.2c-1.6-0.8-1.7-2.3-2.9-3.3c0.7-1.5,1.3-2.7,1.9-4c-0.6-0.2-1-0.4-1.8-0.6
	c-0.3-1.5-0.6-3.1-1-4.9c-0.2-0.2-0.8-0.6-1.1-1.1c-0.3-0.6-0.2-1.4-0.4-2.2c-2.1-0.5-3.1-1.8-3.5-3.7c0.2-0.4,0.5-0.8,0.8-1.3
	c-0.3-0.5-0.7-0.9-0.8-1.5c-0.1-0.7,0-1.4,0-2c-1.4-0.5-2.6-0.9-3.3-1.1c-1.2-1.9-1-3.9-2.7-4.9c0-0.9,0-1.6,0-2.3
	c-1.5-0.6-2.8-1.1-4.3-1.7c0-1,0-1.8,0-3c-0.5-0.3-1.1-0.7-1.6-1c-0.1-0.8-0.1-1.4-0.1-1.9c-0.6-0.1-0.9-0.2-1.3-0.3
	c-0.1-1-0.2-2-0.3-2.8c-1.9-0.1-3.7,0.4-5.1-0.8c-2.8,2.1-5.4-0.1-8,0c-0.2-0.5-0.3-0.9-0.5-1.3c-0.9-0.1-1.8-0.1-2.1-0.1
	c-2.2-2.5-4.1-4.8-5.6-6.6c0.3-1.3,0.4-2.1,0.6-2.9c-2.3-0.4-1.9-2.6-3-3.7c-0.3-0.3,0.2-1.5,0.4-2.4c-0.2-0.2-0.7-0.7-1-1
	c-0.2-1.1-0.5-2-0.6-2.9c-0.7-3.6-2.6-7-1.6-11c-0.6-0.5-1.2-0.9-2-1.5c1.8-3.3,1-6.8,1-10.2c0-3.5,0.8-7.1-0.4-10
	c0.3-1.6,0.5-2.6,0.6-3.5c-0.6-0.6-1.1-1.2-1.6-1.7c0-0.5,0.2-1.1,0-1.5c-0.7-1.7-1.5-3.4-2.3-5c1-2.9,1-2.9,0.1-5.3
	c0.3-0.6,0.6-1.1,0.7-1.4c-1.2-1-2.2-1.8-3.1-2.5c0-1.2,0-2.2,0-2.9c-0.6-0.8-1-1.4-1.4-2c0.5-0.1,1-0.2,1.8-0.3
	c-1.1-0.8-1.8-1.4-2.5-2c-0.8-0.6-1.5-1.3-2.4-1.9c0-1.1,0-2.1,0-3.1c-0.6-0.2-1-0.3-1.4-0.5c0-0.5,0-0.8,0-1.2
	c0.1-0.4,0.1-0.9,0.2-1.3c0.7-1.8,0.7-1.7-1-3.2c-0.4,0-0.8,0-1,0c-1-0.9-1.9-1.8-2.8-2.6c0-0.8,0-1.5,0-2.3
	c-0.4-0.4-0.7-0.7-1.1-1.1c-0.6,0-1.2-0.1-1.3-0.1c-1.5-2.4-2.9-4.5-4.4-6.8c0-0.9,0-2.1,0-3.5c-1.3-0.5-1.2-1.9-1.7-2.9
	c-0.5-0.9-1.8-1.4-2.9-2.2c0.1-0.9,0.3-1.7,0.4-2.5c0-0.2,0.2-0.4,0.3-0.4c-0.6-1.1-1.1-2.1-1.6-3.2c-2.3-0.5-2.4-2.8-3.9-4.5
	c2.4-0.3,4-1.6,6.1-1.7c0.9,0,2.3-0.6,2.4-1.1c0.2-1.4,1.5-1.4,2.1-2.1c1.4-1.5,3.3-2.6,4.1-4.7c0.3-0.8,1.3-1.4,1.7-1.8
	c1.6,0.4,2.7,0.6,3.5,0.8c2,1.5,3.8,2.8,6,4.4c0,0.6,0,1.7,0,2.9c1,0.7,2,1.4,2.9,2.1c0,0.5,0,0.9,0,1.4c-2.3,0.9-3.7,2.8-5.1,4.6
	c-0.7,0.9-0.7,2.4-1,3.4c0.7,0.7,1.1,1.1,1.8,1.8c-0.7,1.3,0.7,3-0.8,4.3c1.2,1.3,2.4,2.7,3.8,4.2c0.4,0,1.1,0,1.6,0
	c1,1.3,1.9,2.4,2.9,3.6c0,0.6,0,1.3,0,2.2c2.4,2,4.8,4.1,7.1,6.1c2-0.7,3.9-1.4,6.3-2.2c2.2,1.8,4.3,0.6,6.3-1.2
	c1.6-1.4,3.4-2.6,5.7-2.5c0.2,0,0.4-0.1,0.4-0.1c0.7-1,1.2-1.8,1.8-2.6c-0.5-0.2-1-0.3-1.4-0.5c0-1.3,0-2.3,0.9-3.5
	c1-1.2,2-2.4,3-3.6c0.6-0.8,1-1.8,1.6-2.9c-0.7-0.5-1.3-0.9-1.9-1.3c0.4-0.4,0.5-0.5,0.7-0.7c-1-1.4-2-2.8-3-4.2
	c2.2-2.3-0.6-4.1,0-5.9c-0.6-0.2-1-0.3-1.3-0.4c0.2-2.8-1.3-5.3-0.8-8c0.2-0.9,0-1.9,0-2.8c-1.3-0.9-2.4-1.7-3.8-2.6
	c-0.4,0-1.3,0-2,0c-0.4-0.4-0.7-0.7-0.9-0.9c0-0.8-0.1-1.7-0.2-3.1c-0.4-0.2-1.1-0.5-1.6-0.7c0.5-1.1,0.8-1.7,1.1-2.4
	c-0.6-0.2-1-0.4-1.6-0.6c0-0.8,0-1.6,0-2.5c-5-1.3-6.1-6.1-9.2-9.2c0.4-0.5,0.6-0.9,0.9-1.4c-0.7-0.4-1.4-0.9-2.2-1.3
	c-0.1-0.5-0.1-1.1-0.2-1.8c-1.1,0-2.2,0-2.9,0c-1.2-1.1-2.1-1.9-3-2.7c0.4-1.3-0.3-2-1.1-2.6c-0.8-0.7-1.4-1.4-1.3-1.8
	c-1.7-1.8-3.1-3.3-4.6-4.8c-1.5,1.2-3.6,0.2-4.9,0.6c-1.4,1.2-2.4,2.1-3.5,3c-1.7,0-3.5,0-5.3,0c-1.4,1.9-3.3,3-5.5,3.3
	c-0.6,0.9-1,2.3-1.7,2.4c-2.2,0.5-3.4,2.6-5.4,3.4c-0.7,0.3-1.3,1.3-2,1.4c-2,0.2-2.6,1.5-3.4,3.3c-2.1-1.4-3,1.2-4.7,1.6
	c-1.2,2.9-3.7,1.7-5.7,2c-0.6-0.6-1-1-1.4-1.4c-5.2-0.4-5.6-0.3-7.4,0.5c-0.7-0.2-1.3-0.5-1.8-0.6c-2.4-0.2-4,1.5-5.4,2.8
	c-1.8,1.8-3.7,3.5-6,4.6c-1.6,0-3.2,0-4.9,0c-1.4,1.8-2.8-0.2-4.2,0c-0.5,0.1-0.9,0.4-1.3,0.6c-0.8-1.2-1.6-2.3-2.5-3.6
	c0.2-0.9,0.5-2,0.8-3.5c-1.8-2-3.9-4.3-5.9-6.5c-0.3-0.3-0.5-0.8-0.8-1.2c0.2-0.1,0.5-0.2,1.5-0.8c-2.3,0-3.8,0-5.2,0
	c-1.4,0-2.7,0-4,0c-2.1-1.8-4.3-3.1-7.4-3.2c-1-1.1-2.3-2.3-3.5-3.5c-0.6,0.2-1.6,0.9-2.1,0.6c-1.4-0.7-2.5-0.6-4,0
	c-1.2,0.5-3,0.6-4,0c-2.3-1.4-4.6-0.1-7.2-0.8c-0.6,0.8-1.3,1.7-1.7,2.1c-2.4,0.4-4.3,0.7-5.5,1c-3.1-0.7-2-3.8-4.2-4.8
	c0-1.3,0-2.7,0-3.9c-5.6-3.3-5.6-4.3-15.2-3.9c-0.6-0.6-1.2-1.1-1.9-1.7c-3,1.4-6,2.3-7.9,4.7c-0.8,0.1-1.3,0.1-1.9,0.1
	c0,0.7,0,1.2,0,1.7c-0.9,0.9-1.8,1.8-2.9,2.9c-0.4,0-1,0-1.5,0c0,1.7-1.3,1.9-2.3,2.5c0.3,3.5-2.5,5-4.6,7.1c0.3,0.9,0.6,1.9,1,3.1
	c-0.7-0.4-1.1-0.5-1.5-0.8c-0.4,0.7-0.7,1.9-1.2,2.1c-1.3,0.3-1.8,1-2,2.2c-2-0.2-1.3,1.8-1.7,2.6c-0.6,1.3-1.5,2-2.2,2.3
	c-0.7,1.5-1.2,2.7-2,4.6c0.1,0.8,0.4,2.3,0.7,3.9c-0.4,0.4-0.9,0.9-1.4,1.4c0,0.8,0,1.5,0,2c0.7,1.1,1.3,2,1.9,2.9
	c0.4,0,0.9,0,1.6,0c0.6,1.6,2.3,2.3,3.3,3.5c-0.4,1.1-0.7,1.8-0.9,2.3c1.7,2.5,3.2,4.7,4.9,7c-1,1-1.9,1.9-2.9,2.9
	c0.7,0.8,1.3,1.4,1.7,1.8c0,1.5,0,2.9,0,4.1c-0.5,0.1-0.9,0.2-1.3,0.3c0,0.9,0,1.7,0,2.3c1.8,2.2,3.5,4.3,5.2,6.4
	c-0.3,0.5-0.6,1-0.8,1.5c-1.3,2.5-1.2,2.5-0.8,5.8c0.1,0.6,0,1.2-0.1,1.6c-0.6,0.1-0.9,0.2-1.2,0.2c-0.3,2.7-0.7,5.3-1,7.8
	c2.4,2.4,2.4,2.4,4.3,2.8c0.1,1.4,1.2,1.9,2.3,2.4c0.5,0.2,0.7,0.9,1.2,1.6c-1,0.8-1.9,1.4-2.5,1.9c1,1.1,1.8,2,2.5,2.8
	c0.8,0.3,1.7-0.4,1.9,0.8c0,0.5,0,0.9,0,1.3c1.6,0.4,2.6,0.2,3-1.3c3.4,0,6.7,0,10.3,0c0.4,0.5,0.8,1,1.2,1.5c1.5,0,2.7,0,3.8,0
	c0.9-0.5,1.5-1.1,2.3-1.3c1.5-0.4,3-0.7,4.5-0.9c2.8-0.3,5.5-1.4,8.3-1.6c0.8-0.1,1.5-1.1,2.7-2.1c1.7,0,4,0,6.3,0
	c0.2-0.5,0.4-1,0.4-1c1.9-1,3.5-1.9,5.2-2.8c0,0.7,0,1.4,0,2.3c0.7-0.1,1.1-0.2,1.5-0.3c0-0.5,0-0.9,0-1.3c0.8-0.3,1.7-0.9,2.3-0.7
	c2,0.7,3.8-0.5,5.6,0c0.6-0.6,1.1-1.1,1.4-1.4c1.2,0,2.3,0,3.4,0c0.4,0.5,0.8,1,1.3,1.5c0.8,0,1.7,0,2.5,0c0,0.4,0.1,0.6,0.1,0.9
	c0.9,0.4,2.4,0.7,2.7,1.4c0.9,2.1,2.8,3,3.5,3.9c0.7,1.7,1,2.5,1.4,3.5c3.7-0.6,6.9,0,9.7,2.8c0,0.7,0,1.8,0,3
	c1.9,0.5,2.5,2.3,3.8,3.7c-0.2,1-0.5,2.2-0.8,3.1c0.7,1.8,1.4,3.5,1.9,4.7c-0.3,1.9-0.5,3.3-0.8,5.2c-1.2,1.1-2.8,2.6-4.3,4
	c0.4,1.2-0.5,1.8-1.1,2.6c-1.5,2-3.6,3.9-1.9,6.9c0.2,0.4-0.3,1.2-0.5,1.9c0.4,0.4,0.8,0.8,1.3,1.3c-0.4,1.4,0.4,2.9-0.7,4.5
	c-0.8,1.2-0.7,2.9-1,4.5c-2.4,2.1-4.9,4.3-7,6.1c-0.5,1.8-0.9,3.1-1.3,4.5c-2.2,0.1-2.1,3.1-3.9,3.2c-0.6,1.9-1.1,3.5-1.6,4.9
	c0.2,0.5,0.4,0.9,0.5,1.4c-1.1,0.4-2.1,0.8-3,1.1c-0.1,1.2-0.2,2.1-0.2,2.7c-1.2,1.6-3.5,1.1-3.8,3.3c-0.9,0-1.7,0-2.5,0
	c-0.5-0.5-0.9-0.9-1.4-1.4c-1.7,0-3.5,0-5.5,0c-0.2,0.2-0.4,0.8-0.8,1c-3.1,1.2-5,3.7-7.3,5.8c-0.7,0.6-1.6,1-2.3,1.6
	c-0.7,0.7-1.6,1.5-1.6,2.3c-0.1,1.7-1.4,1.7-2.3,2.4c0,0.5,0,1,0,1.5c-0.9,0.9-1.8,1.7-2.8,2.8c-0.7,0-1.5,0-2.4,0
	c0,0.6,0,1.1,0,1.3c-2,2.6-3.8,5-5.7,7.5c-1.7,0.1-3,0.9-3.4,2.9c-0.1,0.5-0.4,1.2-0.9,1.5c-1.1,0.8-1.5,2.2-2.8,3
	c-1.2,0.8-2,2.3-3,3.6c-0.4,0.5-0.7,1-0.9,1.3c-1.2,0-1.9,0-2.8,0c-0.9,2.4-2.5,4.5-4.1,6.7c-0.8,0-1.7,0-3.2,0
	c-0.1,0.3-0.4,1.1-0.6,1.6c-1.1,0-1.8,0-2.4,0c-0.9,0.9-1.7,1.7-2.5,2.5c0,3.5,0.1,3.4,2,7.4c0.9,1.9,1.8,4.2,0.1,6.3
	c-0.6,0.7-0.9,1.6-1.1,1.9c0.3,1.9,0.5,3.3,0.7,4.5c-0.6,0.6-1.1,1.1-1.5,1.5c-1.1,4,2.4,5.9,3.9,8.8c0.3-0.3,0.6-0.6,1-0.9
	c0.8,1.9,2.4,3,3.5,4.2c1.5,0.5,3,0.7,4.1,1.5c2.4,1.8,4.5,1.4,6.1,0.2c1.5,0.1,2.7,0.6,3.3,0.2c1.6-1.2,3.4-0.4,5-0.7
	c1.6-0.3,3.3-0.6,5-1c1-0.8,2.1-1.7,3.4-2.8c-0.2-0.7-0.5-1.5-0.9-2.5c0.9-1.3,1.9-2.6,3-4.1c0-0.7,0-1.7,0-2.7
	c-0.5-0.5-1.1-1-1.6-1.6c-0.4-0.5-0.7-1.2-1.2-1.9c-1,0-2.1,0-3.2,0c-0.3-1.3-0.7-2.4-0.7-3.6c0-0.8,0.5-1.5,0.7-2.3
	c0.2-0.7,0-1.6,0.4-2.1c0.8-1-0.7-1.3-0.4-2.2c0.3-1.3,0.4-2.8,1.6-3.4c2.6-1.4,4.2-3.8,6.3-5.6c0.4-0.3,0.8-0.8,1.1-0.8
	c1.8,0,2.4-1.2,3.2-2.5c0.6-1.1,1.6-1.8,3.1-2.2c1.3-0.3,3.2-0.5,4-2.1c2,0.5,2.6-1.6,3.1-1.9c1.7-0.4,2.5-0.5,3.3-0.8
	c2.5-1.1,4.9-2.3,6.8-4.4c2-2.2,3.9-2.4,6.8-1.1c0.9-0.5,1.8-0.9,2.3-1.2c1.4,0.5,2.7,0.6,3.5,1.3c1.7,1.3,3.1,0.4,4.5-0.4
	c3.6-2.1,6.7-4.8,9.4-8c1.2-1.5,2.7-2.3,4.2-3.4c0.6-1.8,0.9-3.8,3.1-5c0.5,0,1.3,0,2.2,0c0-0.7,0-1.2,0-1.7c2.6-1,3.5-3.4,4.7-5.5
	c4.7-2,8.7-5.3,12.6-9.2c0-0.3,0-1.2,0-2c0.6-0.2,1-0.4,1.4-0.5c0-0.5,0-1,0-0.8c0.8-2.4,2.3-2.7,3.9-2.9c0.6-1.2,1.1-2.2,1.6-3.1
	c1-0.7,2-1.4,3.1-2.1c1.2,0.6,2.3,1.2,3.5,1.8c0,1.2,0,2.3,0,3.2c0.9,0.5,1.6,1,2.2,1.4c0,1.6,0,3.1,0,4.3c0.6,1.1,1.1,1.9,1.6,2.7
	c0.6,1.1,1.8,1,3,1.3c0,1.1,0,2.2,0,3.3c1.7,0.2,2.1,1.5,2.7,2.6c0.7,1.4,2.1,1.4,3.2,1.6c1.5,2.8,3.6,4.8,6.2,6.4
	c-0.2,0.7-0.5,1.5-0.6,1.9c1,0.8,1.9,1.6,2.8,2.3c-1.3,0.9-0.7,2.1-0.7,2.7c0.7,0.9,1.3,1.6,1.9,2.4c1.1,0,2.2,0,2.8,0
	c0.6,0.8,1.2,1.2,1.6,1.4c0.5,0.2,1.1,0.4,1.1,0.5C211.3,233.7,210.9,233.7,210.6,233.8z M237.7,205.4c0,0.2,0,0.4,0.1,0.7
	c0.7-0.1,1.3-0.2,2-0.3c0-0.1,0-0.3,0-0.4C239,205.4,238.3,205.4,237.7,205.4z"/>
</svg>
