<?xml version="1.0" encoding="utf-8"?>
<!-- Generator: Adobe Illustrator 22.0.0, SVG Export Plug-In . SVG Version: 6.00 Build 0)  -->
<svg version="1.1" id="Layer_1" xmlns="http://www.w3.org/2000/svg" xmlns:xlink="http://www.w3.org/1999/xlink" x="0px" y="0px"
	 viewBox="0 0 121.3 109.3" style="enable-background:new 0 0 121.3 109.3;" xml:space="preserve">
<style type="text/css">
	.st0{fill:none;stroke:#000000;stroke-miterlimit:10;}
</style>
<path class="st0" d="M116.9,57.5c-2.1-6.5-3.8-13.2-5.3-19.9c-0.1-0.6-0.3-1.1-0.4-1.7c-0.7-1.1-1.4-2.1-2.2-3.1
	c-1.2-1.4-2.5-2.5-3.9-3.4c-0.1,0-0.2-0.1-0.3-0.1c-3.3-0.6-6.5-1.8-9.8-2.7c-0.2,0-0.3,0-0.5-0.1c-1.8-0.7-3.6-1.4-5.4-2.1
	c-2.6-0.7-5.2-1.5-7.7-2.6c-3.9-1.7-7.4-4.5-10.9-6.9c-4-2.9-8.6-6-12.4-9.8c-0.3,0.1-0.6,0.1-0.9,0.1C55,5.3,52.9,5,50.8,4.6
	c-1.1-0.2-2.3-0.5-3.3-1c-2.1-0.9-4-0.5-6.2,0.3c-5.3,2-6.3,7.2-8.8,11.2c-3.3,5.2-6.3,10.5-9.4,15.8c0,1.1-0.4,2.2-1.3,3.3
	c-7.4,8.7-13.6,18-17.6,28.7c0,1.7-0.2,3.4-0.6,5c-0.9,3.6-0.4,6.6,1.4,9.8c0.5,0.9,1,1.7,1.5,2.6c4.4,3.4,7.7,7.6,11.9,11.3
	C22,94.7,26.5,96,31,97c0.2-0.2,0.4-0.3,0.6-0.3c3,0.3,6.1,0.4,8.5,2.6c0.5,0.2,1.1,0.4,1.6,0.6c0.3,0,0.6-0.1,0.8-0.1
	c1.7-0.5,2.6-0.1,3,1.6c1.1,0.5,2.2,0.9,3.3,1.4c0-0.4,0.1-0.9,0.2-1.4c0.7,0.1,1.4,0.2,2,0.5c2.4,1.1,4.7,2.3,7,3.6
	c0.1,0.1,0.3,0.2,0.5,0.3c2.6,0.4,5.2,0.6,7.8,0.5c0.4-0.2,0.9-0.3,1.6-0.3c1.8,0,3.6-1.1,5.2-2c1.8-1,2.8-0.9,3.3,0.4
	c0.7-0.5,1.5-0.9,2.2-1.3c0-0.2,0-0.4,0-0.6c0.1-2.1,2.8-3.2,4.7-2.1c2.7-3.2,4.3-7.1,6.8-10.5c2.2-3,4.8-5.4,7.9-6.9l0.1-0.1
	c2.8-2.5,5.5-5,8.1-7.7c3.2-3.4,6.1-6.9,9.2-10.3C117.5,62.7,117.9,60.6,116.9,57.5z M81.3,26c3.9,1.7,8,2.8,12.4,4.2
	c-6.9,2.6-20.9-5.5-23.6-10.3C74.1,22.1,77.5,24.3,81.3,26z M51.7,7.8c6.9,1.6,11.8,6.6,17.3,10.4c-0.1,0.2-0.3,0.5-0.4,0.7
	C62.8,15.6,57,12.2,51.2,8.8C51.4,8.5,51.5,8.2,51.7,7.8z M63.7,100c-0.8,2.1-1.7,3-3.8,2c-2.8-1.3-5.5-2.7-8.3-3.9
	c-3.2-1.2-6.3-2.9-9.4-3.1c-11.5-0.8-20.8-5.7-28.7-13.7c-2.1-2.2-5.1-3.6-5.9-6.8c-0.5-1.9-0.9-4.1-0.4-5.9c1.2-4.8,3-9.5,4.3-14.2
	c1.1-3.7,1.5-4.2,5.5-4.4c4.8-0.2,9.3-1.2,13.4-4c1.4-1,3.1-1.6,4.5-2.6c1-0.6,1.8-1.4,2.7-2.2c-0.2-0.3-0.3-0.6-0.5-0.9
	c-2.1,0.8-4.1,1.6-6.2,2.4c-4.1,1.7-8.2,3.4-12.4,4.9c-0.8,0.3-1.9-0.4-2.9-0.7c0.3-0.9,0.3-2,0.9-2.7c3.3-4.3,6.9-8.3,9.9-12.7
	c2.4-3.5,4-7.4,6-11.1c2-3.6,4-7.3,6.2-10.8c2.1-3.4,3.8-3.6,6.8-1s6.1,5.1,10.1,6.2c0.9,0.3,1.8,1.6,2,2.5c0.8,6,4.4,10.7,7.6,15.5
	c3.9,5.8,9,10.4,14.2,14.9c1.3,1.1,1.7,3.3,2.2,5.1c1,3.3,1.7,6.7,2.6,10.1c0.8,3,0.9,5.3-1.7,8c-3.1,3.4-4.9,8-7.4,12
	c-1.3,2.1-2.5,4.7-4.4,6.1C66.7,91.8,65.2,95.9,63.7,100z M104.9,72.2c-4.8,5.9-10.9,10.4-16.7,15.3c-2,1.7-3.3,4.3-5.1,6.3
	c-1.2,1.4-2.6,2.8-4.1,3.7c-3.1,1.8-6.3,3.3-9.6,4.7c-1,0.4-2.2,0.2-3.3,0.3c0.2-0.9,0.2-1.9,0.5-2.7c0.9-3.3,2.9-5.8,5.5-8.1
	c2.3-2,4-4.8,5.7-7.4c1.6-2.7,2.8-5.7,4.3-8.4c1.3-2.3,3.6-3.4,5.7-4.8c4.3-2.9,9.1-4.4,13.7-6.5c3.1-1.4,6.1-0.8,9.2-0.6l0.5,0.8
	C109.1,67.2,106.9,69.6,104.9,72.2z M106.3,59.3c-0.7,0-1.5-0.5-2.1-0.2c-4.5,1.8-8.9,3.7-13.3,5.7c-1.6,0.8-2.3,0.6-2.8-1.3
	c-0.6-2.2-1.5-4.4-2.3-6.6c-0.2-0.5-0.6-1.2-0.5-1.7c0.9-3.8-1.5-6.7-3-9.7c-0.3-0.6-0.7-1.2-1.3-1.4c-4.2-2-6.8-5.7-9.6-9.2
	c-3.5-4.3-6.6-8.9-9.9-13.3c-0.4-0.5-0.5-1.2-0.7-1.8c0.2-0.1,0.5-0.2,0.7-0.4c2.5,2.1,5.1,4.3,7.6,6.4c4.7,3.7,9.2,7.7,15.4,8.1
	c6.2,0.4,12.4,0.8,18.6,1c2.1,0.1,3.2,0.6,3.6,2.8c1.3,6.1,2.7,12.1,4.2,18.1c0.3,1.1,1.5,2,2.7,3.5
	C110.9,59.3,108.6,59.3,106.3,59.3z"/>
<path d="M740-312.8c-0.7,0.3-1.3,0.8-2,1c-0.8,0.3-1.6,0.4-2.5,0.6c0.4-0.8,0.7-1.7,1.4-2.3c0.5-0.5,1.5-0.4,2.3-0.6
	C739.5-313.6,739.8-313.2,740-312.8z"/>
<path d="M748.8-351.5c0.5-0.6,0.7-1,1-1.2c0.8-0.4,1.7-0.7,2.6-1.1c0.1,0.3,0.4,0.8,0.3,0.8c-0.8,0.6-1.6,1.2-2.5,1.7
	C750-351.2,749.6-351.4,748.8-351.5z"/>
<path d="M744.8-346.5c-1.2,0.8-1.7,1.3-2.4,1.6c-0.3,0.1-0.8-0.4-1.3-0.7c0.5-0.5,1-1.1,1.7-1.5
	C743.1-347.3,743.7-346.9,744.8-346.5z"/>
</svg>
