<?xml version="1.0" encoding="utf-8"?>
<!-- Generator: Adobe Illustrator 22.0.0, SVG Export Plug-In . SVG Version: 6.00 Build 0)  -->
<svg version="1.1" id="Layer_1" xmlns="http://www.w3.org/2000/svg" xmlns:xlink="http://www.w3.org/1999/xlink" x="0px" y="0px"
	 viewBox="0 0 123.8 243.3" style="enable-background:new 0 0 123.8 243.3;" xml:space="preserve">
<style type="text/css">
	.st0{fill:none;stroke:#000000;stroke-miterlimit:10;}
</style>
<g>
	<path class="st0" d="M120.9,22.2c-2.4-8.1-11.7,0.7-13-10c-3.5-2.9-4.6-8.1-9-10c-1.5,5.5,2.7,5.3,2,10c0.3,0,0.7,0,1,0
		c1,0,0.8-1.2,1-2c1.3,5,3,9.7,7,12c0,2.4-1.7,2.9-1,6c-3.2-0.6-4.7,0.7-7,1c-2-3.7-7.1-4.2-9-8c-1.8,3.7-2.9,1.9-8,2
		c-1.5,3.8,4.5,0.2,3,4c-1.7,0-3.3,0-5,0c0.9-4.9-5.3-2.7-4-8c-0.5-0.8-1-1.6-1-3c2.7-0.7,2,2,4,2c0.3-2.3-0.2-3.8-2-4
		c-1.6-0.3-1.7,0.9-3,1c0,7.2,5.1,12.9,3,19c4.5-0.8,7.7-3,9-7c2.7-0.7-0.7,4.7,2,4c0,0.3,0,0.7,0,1c5.8,1.5,11.3,3.4,15,7
		c1.1,3.1-1.8,2.4-2,4c1,1.7,3.3,2,4,4c2.7-4,4.4-8.9,7-13c1.2,0.2,1.1,1.6,1,3c1.9-0.1,0.6-3.4,2-4c-3,0.7-0.9-9.1,2-9
		c0,0.7,0,1.3,0,2C120.8,25.9,122.6,21.8,120.9,22.2z"/>
	<path class="st0" d="M108.9,51.2c-6.9,3.5-15.3-4.5-22-1c1.2,1.5,4.2,1.2,4,4c-1.8-1.9-2.5,0.8-6,0c0.9,1.7,3.7,2.8,4,0
		c3.1,5.1-9.9,2.8-8,10c-5.1,0.8-7.9-0.8-10-3c-0.8,0.2-1,1-2,1c-0.7,0-1.3,0-2,0c-1.3,0-2.7,0-4,0c0,0.7,0,1.3,0,2
		c0.3,2.3-0.2,3.8-1,5c0.2,0.8,0.8,1.2,2,1c0.6-2.9,1.6,1.5,3,1c0-1.3,1.8-0.9,2-2c-0.8-0.2-2,0-2-1c0.7,0,1.3,0,2,0
		c2.7-0.7,2,2,4,2c1.3,0,2.7,0,4,0c1.3,0.1,1.4,1.3,3,1c0.1-5.6,7.7-3.6,10-7c1.8,2.9,6.4,2.9,7,7c0.3,0,0.7,0,1,0
		c5.8-6.2,10.1-13.9,13-23c-1,0-1.2,0.8-2,1C108.9,49.9,108.9,50.6,108.9,51.2z"/>
	<path class="st0" d="M46.9,127.2c-1,0-0.8-1.2-1-2c-1.2,0.4-2.1,1.3-2,3c-3.4-3.1,2.3-5.6,1-10c-0.2-2.5,1.6-3.1,2-5
		c-0.1-1.3-1.3-1.4-1-3c-2.8,1.2-2.8-3.2,0-2c-1.6-3.4-2.8-3-4,0c0,2.4-1.7,2.9-1,6c2.2,0.2,3.2-0.8,3-3c3.8,5.2-5.2,6.1-4,12
		c-3.2,1.2-0.8-3.2-4-2c0,0.7,0,1.3,0,2c1.9,1.8-3.1,6.4-6,4c0.4,1.2,1.3,2.1,3,2c-0.3,1.4-2.5,0.8-4,1c-3.3-9.1-4.2-14.9-8-24
		c0.4-1.7-0.8-1.9-2-2c-2.9,3.1,2.3,9.5,2,16c1.8,8.2-8.9,3.8-8,11c-2.6-1.5-6.4,1-9-2c-2.1-0.5-1.9,1.4-2,3c4.5-0.4,3.7,3.7,3,6
		c1,0,0.8-1.2,1-2c1.4,0.3,0.8,2.5,1,4c2.7-0.7,1.9,2.1,3,3c0,2.7-3.2,2.2-3,5c1.3,1,3.7,0.9,4,3c3.9,1.1,7.8,8.3,4,11c-1,0-2,0-3,0
		c-0.3,0-0.7,0-1,0c-1,0-2,0-3,0c-0.3,8.7,11.1,5.8,10,15c-3.1,0.9-6.5,1.5-8,4c1.9,2.1,3.8,4.2,7,5c-0.7,1.9-3,0.7-1,3
		c0,0.3,0,0.7,0,1c4,1.7,8.7,2.6,9,8c1.2-0.2,1.8,0.2,2,1c-0.9-6,0.8-18.5-4-26c3.1-3.9,3.1-7.7,2-12c-1.2-1.5-4.4-1-3-5
		c-1.7-0.4-1.9,0.8-2,2c-2.7-2.5,1.1-6.9,1-10c1.2,0.2,0.8,1.8,1,3c1.6,0.3,1.7-0.9,3-1c-1.3-7-1.1-6.9,0-9c1-1.6,2.7-2.3,4-1
		c0.1-4.1,1.9-5.9,8-6c1,2.9-1,12.4-1,16C39.4,142.3,42.2,133.8,46.9,127.2z"/>
	<path class="st0" d="M88.9,157.2c-3.2-4.6-1.5-9.3,1-15c0.3,0,0.7,0,1,0c0-0.7,0-1.3,0-2c-0.8,0.3-0.9-0.4-1-1
		c-2.4,2.2-4.5,4.9-7,7c-0.9-0.7-1.5-1.8-2-3c-2.9,0.4-2.4,4.3-5,5c0,0.3,0,0.7,0,1c0,5.6-2.8,8.5-8,9c1.9,3.2-0.3,4.2,1,8
		c-1.5-1.9-4.2,1.7-5-2c-1.4,0.5,1.2,6.3-2,2c-2,3.3-0.5,10.1-1,15c-1.3,4.4,2.6,9.4-1,10c0.4,2.4-1.8,2.2-1,5c1.5-1.2,2.5-1.2,4,0
		c-1.3-1.3-1.3-3.7,0-5c-0.1-3.1,0.5-5.5,2-7c-0.3,1.2,0.2,6.2,1,3c1.8-7.3-3.4-16.5,1-20c-2.7,2.7,0.8,2.6,2,4
		c-1,4.9-0.1,13.6,4,11c-0.7,3.7-0.5,2.6-1,7c-2.7,0.1-2-1.7-4,0c0.2,1.5-0.4,3.7,1,4c0-6.8,2.1-2.1,2,1c-1,0-1.2-0.7-2-1
		c1.1,3.1,0.1,2.3,0,6c0.2,2.6-1.7,5.1-1,7c-1.1-0.2-1.6-1.1-2-2c-0.4-1.3-7.4,3-3,4c-3.7-1.1-3.2,2.1-5,3c0.8-5.2,4.5-7.5,4-14
		c-3.2,2.1,0.5,5.2-3,6c-0.2-0.8,0-2-1-2c-1.7,2.6-2.3,6.4-4,9c-2.2,3.8-5.7,6.3-9,9c-3.6,0.4-5.5,2.5-7,5c0.2,2.6,1.7-1.4,4,0
		c4.5,4.9-0.7,10.1-1,16c0.7,0,1.3,0,2,0c0.7-4.3,5.7-4.3,7-8c0.3,4.9,0.6-1.9,4,0c0.3,0,0.7,0,1,0c0.3,0,0.7,0,1,0
		c1.8-4.9-1.4-2.7-1-8c6.8,0.3,8.4-0.5,11,4c0.3,0,0.7,0,1,0c3-0.7-1-2.1,0-4c-0.3,0-0.7,0-1,0c-13.4-10.1,10.9-17,15-6
		c0.2-3.2-2.7-3.3-2-7c3.6-0.4,4.8-1.5,8,0c0.2-0.8,0-2,1-2c3.7-3.4-1.9-6-2-9c-1.1-3.5-5.4-3.9-7-7c1.1-1.9,1.2-4.8,5-4
		c0,0.3,0,0.7,0,1c0.3,0,0.7,0,1,0c4.3-1.2,1.8-3.3,0-6c-1.6-0.1-0.8-2.6-3-2c-0.1,0.6-0.1,1.2-1,1c-2,0-1.3-2.7-4-2
		c-0.2-3.2,0-6,2-7c0-0.7,0-1.3,0-2c0.1-2.6,3.4-2,6-2c5.3-4.6,3.7-10.6,10-13C93.7,154.2,91.5,158.3,88.9,157.2z M72.9,160.2
		c2.4,2.2,2.5,6.9,4,10C74.1,168.1,73.1,164.7,72.9,160.2z"/>
	<path class="st0" d="M83.9,45.2c0.4,1.5,0.9-0.1,2,0c0.3,0.2,0.7-3.4,1.1-5.9C84.5,39.8,85.4,43.8,83.9,45.2z"/>
	<path class="st0" d="M87.9,39.2c-0.3-0.7-0.5-1.1-0.7-1.5c-0.1,0.4-0.2,1-0.3,1.6C87.2,39.2,87.5,39.2,87.9,39.2z"/>
	<path class="st0" d="M88.9,46.2c0.6-0.6,2.3-4.7,0-5c-0.1-2.6,6.9,3.8,5,0c1-3.1,2.7,1.1,4,1c-0.4,1.9-2.9,1.8-2,5
		c-0.8,3,6.5,5,5,0c2.5-0.2,3.1,1.6,5,2c0.1-2.7-2.4-2.9-5-3c-0.3-3.3-0.1-6.2,2-7c-2.9-2.7-9.2-2.1-12-5c-0.1,2.2-2.5-1.3-5,0
		c0.5,2.3,0.6,2,1.3,3.5C87.7,35.6,88.2,36.2,88.9,46.2z"/>
</g>
</svg>
