<?xml version="1.0" encoding="utf-8"?>
<!-- Generator: Adobe Illustrator 22.0.0, SVG Export Plug-In . SVG Version: 6.00 Build 0)  -->
<svg version="1.1" id="Layer_1" xmlns="http://www.w3.org/2000/svg" xmlns:xlink="http://www.w3.org/1999/xlink" x="0px" y="0px"
	 viewBox="0 0 485.8 605.6" style="enable-background:new 0 0 485.8 605.6;" xml:space="preserve">
<style type="text/css">
	.st0{fill:none;stroke:#000000;stroke-miterlimit:10;}
</style>
<path class="st0" d="M479.6,589.4c-2.7-1.3-6-2.2-9.2-2.9c-15.7-3.1-31.9-4.2-45.5-13.3c-3.2-2.2-8.5-2-12.9-2.4
	c-9.7-0.7-19.2-1.3-28.9-2c-0.7,0-1.2-0.7-2-0.9l0.5-1.6c3.7,0.9,7.5,1.8,11.2,2.2c4,0.4,8,0.2,11.9-1.1
	c-23.6-13.7-49.5-18.2-76.9-17.3c15.2-2.7,29.9-7.5,45-0.7c2.7,1.3,6.5,1.3,9.7,2c-1.2-3.1-1.5-6.6-3.5-9.3
	c-5.5-7.5-18.7-10.6-28.9-8c-6.7,1.8-13.4,2.9-20.7,4.2c0.2-0.9,0.2-1.6,0.5-1.8c10.9-5.1,21.6-10.6,34.6-6c10.9,4,21.2,2.4,31.6-2
	c5.2-2.2,11.9-1.1,17.9-1.3c0.5,0,1,1.8,1.5,2.7c8.7-4.4,9.2-8.2,3.7-15.5c-6.5-8.6-15.9-9.3-26.6-9.7c0.7,1.6,1.2,2.4,2,3.5
	c-1.5,0.2-2.7,0.7-4,0.4c-13.9-1.8-26.6,3.8-39.8,6c-7.2,1.3-12.9-0.7-19.7-2c2.2-0.2,4.5-0.7,6.7-1.1c11.4-1.8,22.9-4,34.6-5.5
	c10.9-1.3,21.6-2.9,32.6-3.3c8.2-0.4,14.7,4.2,19.2,10c3.2,4,6,3.8,10.7,2c0.5-0.2,1-0.4,1.4-0.5c-0.1-0.2-0.3-0.5-0.4-0.7
	c-1.4-2.4-2.8-4.8-4.2-7.2c-1.8-3-3.5-6-5.3-9c-2.1-3.6-4.2-7.1-6.3-10.7c-2.6,0.2-5.3,0.6-7.8,0.7c-1.5,0-3.5,0-4.7-0.7
	c-6.7-4.7-14.2-3.1-21.4-2c-6.5,1.1-13.2,2.2-20.4-2.2c8-0.4,14.9-1.1,21.6-1.3c4.7-0.2,7.5-2,7.2-6.2c4.5,8,13.7,7.1,21.2,8.2
	c0.8,0.1,1.7,0.2,2.5,0.4c-0.4-0.7-0.8-1.4-1.3-2.1c-0.3-0.4-0.5-0.9-0.8-1.3c-0.6-1-1.2-2-1.8-3c-0.3-0.6-0.7-1.1-1-1.7
	c-0.5-0.8-1-1.7-1.5-2.5c-3.7-0.2-7.5-0.3-11.2-0.4c-1.5-0.2-3.5,1.1-5.2,2c-2.7-2-5.7-3.8-4.5-7.3c6.2,0.6,12.4,1.1,18.6,1.7
	c0-0.1-0.1-0.2-0.1-0.2c-0.6-1.1-1.3-2.1-1.9-3.2c-0.9-1.4-1.7-2.9-2.6-4.3c-0.1-0.2-0.3-0.5-0.4-0.7c-0.3-0.6-0.7-1.1-1-1.7
	c-10-17-20-34.1-30.1-51.1c-1-1.6-1.9-3.3-2.9-4.9c-4.1-6.9-8.2-13.9-12.3-20.8c-3.5-6-7.1-12-10.6-18c-0.8-1.4-1.7-2.8-2.5-4.2
	c-0.9-1.6-1.9-3.2-2.8-4.7c-3.3,0-6.6,0-9.9,0c1.8-1.5,4.5-2.7,7.8-3.6c-0.7-1.3-1.5-2.5-2.2-3.8c-6.1-10.3-12.2-20.7-18.3-31
	c-1,0.5-2.3,0.4-3.6,0.3c-2.2,65.1-6.8,78.7-20.6,46.5c-2.6-6.3-5.1-12.7-7.5-17.8c-1.1-4.9-2.2-11-3.3-17.1
	c-5.8,5.8-5.3,13.3-7.4,20.3c-1.2,4.7-4.7,8.6-7.7,12.8c-7.7,11.1-17.2,21.3-23.4,33c-3,5.3-1.7,13.7,0.5,19.9
	c3.7,9.7,3.7,19.3,2.7,28.8c-0.2,2.2-2.7,4.4-4.7,6.2c-4.5,4.4-4.5,5.5,0.5,9.3c0.7,0.4,1.5,0.9,1.7,1.6
	c7.7,11.3,20.7,13.5,33.6,13.5c14.4-0.2,22.9,6.2,29.1,16.4c3.7,6,7.2,12,10.7,17.9c-0.5,0.2-1,0.7-1.2,0.9
	c-3.2-3.5-6.5-7.3-9.7-10.6c-5.7-6-10.7-12.6-17.2-17.7c-8.7-6.9-19.9-3.3-29.9-3.5c-3,0-4.5-0.4-6.7-2.4
	c-5.7-5.8-11.7-11.3-17.7-16.6c-5.2-4.9-5.2-6,0.7-10.2c1.5-1.1,3-2,5.5-3.8c-7-3.5-13.2-6.6-19.7-9.7c-3.2-1.8-6.2-3.1-9.5-4.4
	c7.2,2.2,14.9,4.2,21.9,7.1c6,2.7,8.2,2.2,8-3.8c0-4.2-0.7-8.4-1.7-12.4c-1.5-6.4-6.2-12.2-3.7-19c0.5-1.3-1.5-3.8-2.7-5.1
	c-2.7-2.4-6-4.4-9-6.6c5.7,0.7,9.2-0.9,10.5-6.6c0.7-3.3,3.2-6,8.7-4.9c2,0.4,7-2.9,7.2-4.9c0.7-7.1,6.7-10.2,11.7-14.2
	c4.2-3.3,6.5-7.1,7-12.4c0.9-8.2,2.4-16.4,11.1-21.8c-0.9-4.9-1.9-10.7-2.8-16.5c-1.3-8.9-2.4-16.5-3.7-25.4
	c-0.8-7.6-1.7-14-2.6-21.6l-0.4-1.3c-1.6-9.7-3.3-19.5-5.1-29.2c-4.8-8.1-9.6-16.2-14.3-24.3c-7.1-12-14.2-23.9-21.2-35.9
	c0-0.1-0.1-0.1-0.1-0.2c-7.8,0.1-15.6-2.6-18.8-7.3c5.3,4,11.2,5,17.6,5.2c-0.8-1.4-1.7-2.8-2.5-4.2c-1.8-3.1-3.6-6.1-5.5-9.2
	c-0.9-1.5-1.8-3-2.7-4.5c-0.2-0.4-0.5-0.8-0.7-1.2c-0.3-0.5-0.6-1-0.9-1.5c-6.2-10.4-12.4-20.9-18.5-31.3c-0.2-0.4-0.4-0.7-0.6-1.1
	c-3.9,0-7.7,0-11.6,0c0-0.2,0-0.7,0-0.9c3.7,0,7.4,0,11,0c-0.4-0.6-0.7-1.2-1.1-1.8c-0.8-1.3-1.6-2.6-2.3-4
	c-2.4-4.1-4.9-8.3-7.3-12.4c-2.8-4.7-5.6-9.5-8.4-14.2c-0.3-0.4-0.5-0.9-0.8-1.3c-0.4-0.6-0.8-1.3-1.2-1.9c-0.5-0.9-1.1-1.8-1.6-2.8
	c0,0,0-0.1-0.1-0.1c-2.6-4.4-5.2-8.8-7.8-13.2c0-0.1-0.1-0.1-0.1-0.2c-0.3-0.5-0.6-1-0.9-1.4c-1.3-2.3-2.7-4.5-4-6.8
	c-0.3-0.6-0.7-1.2-1-1.8c-0.3-0.5-0.6-1.1-0.9-1.6c-0.1-0.2-0.3-0.4-0.4-0.7c-3.5-0.4-6.9-0.8-10.4-1c-2.7,0-5.5,0.7-8.2,0.9
	c0.5,2.2,0,4.9,1.2,6.4c3.5,5.1,7.7,10,11.4,15.1c1.2,1.8,2,4,3,5.8c-0.5,0.4-1,0.9-1.7,1.1c-2.2-2.2-4.7-4.2-6.7-6.6
	c-9.5-12.2-17.4-25.5-19.4-40.1c-1.7-12.4-11.2-20.4-18.2-29.9c-0.4-0.6-0.9-1.2-1.3-1.8H84.8H32.2c6,4.3,10.7,9.5,14,16
	c1.5,2.9,2,6.2,2.5,9.5c1,6.6,2.2,12.4,7.2,18.6c10.9,13.5,25.6,25.7,27.9,43.2c1,8.4,6.5,14.4,8.2,21.9c1.2,5.3,2.7,10.6,3.7,16.2
	c1,4.9-0.2,9.3-4.2,12.6c-9,7.5-11.7,17.1-13.2,27.7c-0.5,4-4.5,7.5-7.2,11.3c-8,10.9-17.2,21.3-23.4,33c-3,5.5-1.5,14,0.7,20.4
	c3.5,9.7,3.5,19.3,2.5,29c-0.2,2.2-3.2,4.4-5.5,6.4c-3.2,3.1-3.5,5.8,0.7,8.2c0.7,0.4,2,0.9,2.5,1.8c7.7,11.3,20.7,13.7,33.6,13.5
	c14.4-0.2,22.9,6.2,29.1,16.4c3.5,5.5,6.7,11.1,10,16.8c-0.5,0.4-1.2,0.7-1.7,1.1c-3-3.3-5.7-6.9-9-10c-5.5-6-10.5-12.4-16.9-17.5
	c-8.7-6.9-19.9-3.3-29.9-3.5c-3,0-4.5-0.2-6.7-2.2c-5.7-5.8-11.7-11.3-17.7-16.8c-5.2-4.9-5.2-6,0.7-10.2c1.5-1.1,3-2,5.5-3.8
	c-7-3.5-13.2-6.6-19.7-9.7c-3-1.6-6.2-2.9-9.2-4.2c7,2.2,14.2,4.4,21.2,6.6c2.2,0.7,4.5,1.3,6.7,1.8c0.7-2,1.7-4,1.7-6
	c-0.2-3.8-1-7.5-1.7-11.3c-1.5-6.4-5.7-12.2-3.7-19.7c1.2-4.9-9.7-10.4-16.7-10c-3.2,0-6.6-1.1-9.8-1.5c0,0.1-0.1,0.1-0.1,0.2
	C8.6,206.1,4,204,0,201.1v76.2c0.5,2,1,4,1.6,5.9c0.7,1.5,1.7,3.5,3.5,4.6c7,4.9,11.9,10.9,14.4,18.6c0.7,2.2,3.7,4.4,6.2,5.8
	c10.5,5.3,17.9,12.6,21.9,22.6c2,5.1,1.5,10.9,3,16.2c0.7,3.1,3.5,5.8,5.5,8.6c7,9.5,14.9,18.8,21.4,28.8c5.5,8.4,1.2,21.5-5.5,29
	c-9.2,10.4-17.9,21.3-24.4,33c-3,5.5-2,14,0.2,19.9c3.7,9.5,4,19,3,28.8c-0.2,2.4-3,4.9-5,6.6c-3.7,3.3-4.2,6.2,0.5,9.1
	c0.7,0.4,1.7,1.1,2.2,1.8c8,11.3,20.9,13.5,33.8,13.3c15.2-0.2,22.9,7.5,29.9,17.5c5.5,7.8,10.9,15.7,17.7,22.6
	c4.5,4.4,4.7,9.3,6.2,14.4c1,3.5,2,7.3,2.7,10.9c0.5,3.3,2.7,3.8,6.2,3.8c9.5,0,18.7,0.4,27.9,0.9c5.3,0.3,8.9,2.9,12.1,5.9h42.3
	h11.9c-5.3-2.4-11.8-2.8-17.5-4.6c-12.2-4.2-24.1-8.4-36.1-12.6c0,2.3,0,4.6,0,6.9c-0.5,0-0.7,0-1.2,0.2c-2-4.4-4-8.6-6-13.1
	c2-0.2,4.1-0.4,7-0.9c0,2.4,0,4,0,5.8c5,1.6,10,3.1,15.2,4.4c14.9,4.2,29.9,8.4,44.8,12.6c1.1,0.4,2,0.8,3.1,1.2h18.1
	c-1.3-1.8-2.5-3.5-3.8-5.2c3.7,1.6,7.7,2.9,10.9,4.9c0.1,0.1,0.2,0.2,0.2,0.4h7.8c0.3-7.5-2.6-14.7-5.8-21.8c-2.7-6-6-11.7-9.5-18.4
	c-1.2,1.8-2,2.9-2.7,4c-4.2-4.4-4.7-11.3-11.9-13.7c-0.7-0.2-1.7-2-1.5-2.7c2.5-5.5-2.5-8.9-4.5-13.1c-3.2-6.9-7.7-13.5-9.5-20.8
	c-2-7.5-7.5-11.5-13.4-15.7c-9.2-6.2-18.2-12.6-27.6-18.6c-4.7-3.1-10-5.1-15.4-6.9c-1-0.4-3.5,2.7-5.2,4
	c-9.2-10.4-13.7-12.2-26.4-8c4.7,0.2,9.5,0.7,14.7,0.9c-8.7,3.5-21.6,1.3-26.9-5.1c2.7,0,5,0.4,7,0c10.2-1.8,20.4-2.7,30.6-1.1
	c0.5,0,1.2-0.2,1.7,0c7.2,4,14.4,7.8,21.4,12c5.5,3.3,10.7,7.1,16.2,10.6c0.5-0.4,1.2-1.1,1.7-1.6c-1.7-2.2-3.2-5.1-5.7-6.2
	c-8-3.8-11.9-10.2-16.4-16.6c-0.5-0.9-0.2-2.4,0-3.8c1-9.3-0.2-11.3-9.2-16.2c-6.2-3.5-12.2-7.8-18.2-11.5c-0.5-0.4-1.2-0.9-1.2-1.3
	c-1-8.2-8.7-10.9-14.9-15.1c-2.7-2-4.2-5.3-6.7-7.8c-1.7-1.8-4.5-3.1-6.7-4.7c-1-1.1-2-3.5-1.2-4.4c2.2-3.1,5.2-6,8-9.1
	c-0.2,2.2-0.7,5.1-0.7,7.8c0.2,2.7,0.5,5.5,1.7,7.8c2,2.9,4.5,5.8,7.5,8c1.7,1.1,4.5,1.1,6.7,1.6c0.2-1.8,0.7-3.5,0.7-5.3
	c-0.2-4.9-1.7-10.2-0.2-14.6c3.7-12.2-0.2-23.5-4.5-34.6c-4.5-12-9.5-23.7-14.2-35.4c-1.7-4.4,0-6.4,5-6.4c4.2,0,8.5,0,12.7,1.3
	c-2,0.2-4,0.4-6,0.4c-6.2,0.2-7.2,1.6-5.2,6.9c1.5,4,3,8.2,5.5,11.7c1,1.6,4.5,2.4,6.5,2.2c4.2-0.9,7.2,0,10,2.9
	c3.5,3.3,7.5,6.2,10.9,9.7c1.7,1.8,2.5,4,3.7,6.2c-5.7-4.7-11.7-9.1-17.2-14c-2.5-2.2-5.2-2.9-7.5-0.9c-1.2,1.1-1.5,4-1,5.8
	c2.7,10.6,5.5,21,8.2,31.7c0.5,2,1,4.4,0,6c-6.2,11.7,1.2,21.9,4.5,32.6c0.5,2.2,4.5,3.5,7.2,5.5c-1.2,0.9-3,2-5.7,3.8
	c6,3.5,11.2,7.3,16.9,10.2c3.7,2,7.2,3.3,8,7.8c0.5,3.1,2.5,6,2.5,9.1c0,9.3,9.2,13.1,13.9,19.7c1,1.6,3,3.1,3.2,4.7
	c1.2,8.2,8.7,11.3,14.9,15.7c10.2,6.9,16.9,15.7,17.2,27.9c0.2,5.5,2.5,10.6,7,15.7c13.9,15.9,27.1,32.3,32.1,52.5
	c0.7,2.9,1,5.9,0.8,8.8h25.3h14.3h49.5c8.8-0.5,17.6-1.3,26.3-2.8c0-0.9,0-2,0-2.9c-19.9-0.2-40.1-0.2-60-0.4c0-0.7,0-1.6,0-2.2
	c2,0,4.2,0,6.2,0c29.1,0,58,0.4,87.1,0.2c13.9-0.2,27.9-1.6,41.8-2.7c1.7-0.2,3.2-1.3,4.7-2c0,0,0,0,0-0.1
	C481.6,591.8,481.1,590.1,479.6,589.4z M376.9,443.7c2.7,2.2,5.2,4.7,8,6.9c-0.9,0.5-1.3,0.9-1.8,1.6c-2.5-2.2-5.2-4.7-7.7-6.9
	C375.9,444.9,376.4,444.2,376.9,443.7z M346.2,490.9c5.5,0,10.7,0,16.2,0c0,0.7,0,1.3,0,2c-5.5,0-10.7,0-16.2,0
	C346.2,492.3,346.2,491.6,346.2,490.9z M313,394.4c-3.2-0.7-6.5-1.1-9.5-2c-4.7-1.6-8.2-2-9.2,4c-3.1-3.4-5.6-5.8-7.5-8
	c9.2-2.7,17.4,1.8,26.4,4.4C313.2,393.2,313,393.7,313,394.4z M263.1,310.2c-1.5-3.5-2.9-6.7-4.4-10.2c4.2,1.8,10.5,0.7,12.7,6.9
	c-2.8,1.1-5.5,2.2-8.3,3.5c-1.3,3.6-2.5,7.1-3.7,10.9c10.8,3.4,1.3,9.9,3,14.5c-3.9-8.7-8-17.1-11.9-25.6
	C255.4,310.4,259.2,310.4,263.1,310.2z M258.1,349c2.3,4.8-3.9,11.9-9.7,11.5C251.6,356.5,254.9,352.7,258.1,349z M2.1,245.9
	c0-0.4,0-1.1,0-1.6c5-0.4,10.2-2,14.9,1.6h-0.1C12,245.9,7,245.9,2.1,245.9z M66,313c-0.7-2.2-1.5-4.4-2.2-6.6c0.5,0,1-0.2,1.7-0.2
	c2,0.9,4,1.8,7,3.3C70,310.8,68,311.9,66,313z M93.9,357.4c0.5,0,1.2,0,1.7-0.2c0.2,3.3,1,6.4,0.7,9.7c-0.7,6.9,1.5,12.2,7.5,16.4
	c-8.7-0.9-9.9-2.2-9.9-10.2C93.9,367.8,93.9,362.5,93.9,357.4z M94.6,452.6c-2.7-2.9-5-5.3-7.2-7.8c7.5-1.1,15.2-1.1,21.9,5.1
	C104.1,450.8,97.6,442.6,94.6,452.6z M114.8,393.2c-6.2-1.5-9.7-4.6-10.9-9.7c3.2,0.2,6.5,0.2,11.2,0.4c-2.5,1.3-3.7,2-5.5,2.9
	C111.3,389,113.1,391.2,114.8,393.2z M249.6,582.8c4,0.9,7.7,1.6,11.7,2.4c0,1.1-0.2,2-0.5,2.9c-3.7-1.3-7.4-2.4-11.4-3.7
	C249.4,584,249.6,583.3,249.6,582.8z M248.4,594.1c5.8,0.3,10.2,3.1,14.7,6.3c-5.2-1.4-10.5-2.8-15.7-4.1
	C247.6,595.6,247.9,594.7,248.4,594.1z M203.4,518.2c-4,0.2-7.5,0.4-11.7,0.9c-1-2.7-1.5-4.7-2.5-6.9
	C194.2,514.2,198.4,516,203.4,518.2z M190.8,569.6c1-9.5,2-19.9,2.7-30.3c0.5-5.8,1.5-12.2-8-14.6c0.5-0.4,1-0.9,1.5-1.3
	c8,1.3,15.7,2.7,23.6,3.8c-0.2,0.9-0.2,1.6-0.5,2.4c-2-0.4-4-1.1-6.2-1.6c-5.7-1.3-8.5,0.2-8.5,5.5c-0.2,7.8,0.2,15.5,0,23.3
	c0,3.8-1,7.5-2,11.3c-1.2,4.7,1.5,5.5,6,6c13.9,2,27.6,4.2,41.3,6.6c0.7,0.2,1.2,0.7,1.7,1.8c-8.5-1.1-16.9-2-25.1-3.1
	c-7.2-0.9-14.2-2.2-21.4-3.3c-7.2-0.9-13.1,1.8-17.6,6.5c-1-0.9-2.6-1.9-2.6-2.6c0.2-2.9,1-5.5,1.7-8.4
	C181.4,570.9,185.4,570.3,190.8,569.6z M163.8,567.8c5.2-1.1,9.5,1.1,13.4,3.8c-4.7-0.7-9.1-1.4-13.9-2
	C163.5,568.9,163.5,568.5,163.8,567.8z M163.3,576.2c0,0.9,0,1.6-0.2,2.4c-6.5-1.1-12.9-2-19.4-3.1c0-0.7,0.2-1.3,0.2-2
	C150.4,574.4,156.8,575.3,163.3,576.2z M143.4,560.9c4.7,1.6,9.5,2.9,14.2,4.4c-0.2,0.7-0.5,1.6-0.7,2.2c-4.8-1.5-9.5-2.8-14.2-4.4
	C142.9,562.4,143.2,561.5,143.4,560.9z M178.8,450.1c4.7,0.2,8.2,2.9,10.7,6.9c-4-1.7-7.8-3.5-11.7-5.3
	C178,451.3,178.3,450.6,178.8,450.1z M162.3,442.9c-4.5,0.4-10.5,3.8-12.2-4.4C154.6,440.2,158.6,441.5,162.3,442.9z M184,461.7
	c-14.2,0.9-23.9-8.4-35.6-12.8C161.8,449.5,171.3,458.8,184,461.7z M150.1,462.6c-6.7,1.3-9.2-2.2-11.4-5.3
	C141.9,458.9,145.4,460.4,150.1,462.6z M213.1,389.9c3.7-2,7.7-3.8,11.9-6c0.7,1.6,2,3.8,3.2,6C223.3,390.6,218.3,394.6,213.1,389.9
	z M236,377.1c0.7,0.4,1.5,0.6,2.5,1.1c-1.7,2.7-3.7,5.5-5.5,8.2c-1-0.4-1.7-0.7-2.7-1.1C232.3,382.6,234,379.8,236,377.1z
	 M225.3,345.4c0.5,0.2,1,0.2,1.2,0.4c2.2,4.2,4.5,8.4,6.7,12.8c-2.2,0.8-6.2,0.3-7.7-3.2C224.3,352.5,225.3,348.8,225.3,345.4z
	 M195.7,352.7c-0.5-0.2-1-0.7-1.7-0.9c1.4-4.4,3.7-8.4,9.4-10.5C200.9,345,198.2,349,195.7,352.7z M209.4,333.7
	c1.7,7.1,1.5,7.3-6,7.8C205.1,339,207.1,336.8,209.4,333.7z M219.3,357.8c-6.7,3.3-12.4,6.4-18.4,9.5
	C205.1,358.9,210.1,356.7,219.3,357.8z M214.6,322.1c-0.7,2-1.5,3.8-1.7,4.7c-2.3-3.8-4.5-8-7-12c7,0.7,11.9,4.4,17.2,10.4
	C219.4,323.9,217.4,323.2,214.6,322.1z M221.5,302.2c-15.6-8.4-35.5-7.1-50.5-17.7c13.7,3.5,27.4,6.6,40.8,10.6
	C215.5,296.2,218.8,299.1,221.5,302.2z M180.3,198.5c2.2,10.4,2,10.4,14.7,10.4c3.7,0,7.7,0.2,11.4,1.8c-5.7,0-11.7,0-17.4,0
	c-11.4,0-12.9,2-8.5,11.3c1.5,3.1,2,7.1,3,10.6c6.7,0.9,13.4,1.8,20.2,2.4c3.7,0.5,7.2,1,10.9,1.2c0,0.4,0,0.9,0,1.3
	c-3.7-0.2-7.2-0.4-11.9-0.4c1,3.8,2,6.9,2.7,10.2c-0.5,0.4-1,0.7-1.2,1.1c-3.2-7.5-10.2-10-17.7-12c-1.5,0-2-2.4-3-3.8
	c-2.7-1.6-5.2-3.3-8-4.9c2-3.8,0.2-13.7-2.7-15.5c-1.2-0.7-3.5-0.2-5.2-0.2c-3.2,0-6.7,0-10.2-1.1c9-2.7,20.7-0.7,21.4-13.3
	C179.5,198,180,198.3,180.3,198.5z M176.3,175.8c1,4.1,1.7,8.3,2.7,12.6C171.8,183.7,170.8,179.8,176.3,175.8z M122.9,89.4
	c2.5,9.5,3.5,19.3,6.2,28.6c2.7,9.5,10.7,15.9,19.4,21.5c0.7,0.4,2,0.9,2.7,1.6c5.5,4.9,10.9,9.5,19.4,8.6c-3,1.3-6,2.7-7.7,3.5
	c-6.7-2-12.9-3.5-19.7-5.5c2.2-0.7,4.2-1.3,7.2-2.2c-1.7-1.6-2.7-2.7-4.2-3.3c-10.7-5.5-18-13.2-20.4-24.3
	c-2.2-10.2-4.2-20.6-7-30.8c-1-3.3-4-6.2-6-9.1c-1.4-1.5-2.7-3-4-4.5c3.5,2.2,6.5,3.9,8.9,6.2C120.2,82.4,121.9,85.9,122.9,89.4z
	 M135.7,147.3c0,0.7-0.2,1.3-0.2,1.8c-12.7-3.5-25.2-6.8-37.9-10.4c0-0.7,0-1.1,0-1.8c1.2-0.2,3-1.1,4-0.9
	C113,139.5,124.5,143.5,135.7,147.3z M114.7,68.4c-2.4,1.3-3.6,1.9-7.2,3.7c0.3,0.3,0.6,0.7,0.9,1.1c-0.4-0.3-0.9-0.6-1.4-0.9
	c0.2-0.1,0.3-0.2,0.5-0.2c-1.2-1.5-2.5-2.9-3.7-4.4C107,67.9,110.3,68.1,114.7,68.4z M93.9,57.7c0-5.3,0-10.6,0-15.9
	c0.7,0,1.2,0,2-0.2c0.2,3.3,1,6.9,0.7,10.2c-1,6.9,1.5,12,7.5,15.9C95.1,66.7,93.9,65.4,93.9,57.7z M112,240.4
	c3.5-2,5.7-3.1,8.2-4.7c5.8,9.1,19.5,5.1,28.4,12C135.9,245,124.2,242.8,112,240.4z M112,210.6c-2.5-0.2-5-0.9-7.2-1.6
	c-4.5-1.6-8.7-3.1-10.2,3.5c-2.7-2.9-5-5.1-8.2-8.4c5.8,0.6,11,0.9,16.2,1.8c4.7,0.7,9.2,2.7,13.7,2.9c14.2,0.2,26.9,4.9,39.6,10
	c1.2,0.4,2.2,1.3,3.2,2.2c-0.2-0.2-0.5,0.2-0.5,0.7c-2-0.7-4-0.9-6-1.8C139.9,213.9,126.2,211.5,112,210.6z M156.4,305.1
	c9.4-2,18.4-1.3,27.1,2.9c7.9,1.5,16.5,0.5,22.4,6.6c-7.4-2.2-14.8-4.4-22.4-6.6C174.5,307.1,165.3,306.2,156.4,305.1z M183.5,363.3
	c6.2,6,12.4,12,19.2,18.6c3.2-3.1,6.7-6.6,10.5-10c0.5,0.4,1,0.7,1.7,1.1c-2,3.3-4.2,6.6-6.2,10c0.5,0.2,1,0.7,1.5,0.9
	c3.5-3.1,7.2-6,10.7-9.1c0.5,0.4,1.2,0.9,1.7,1.3c-3,4.4-6.2,9.1-9.2,13.5C199.7,387.5,185.2,374.4,183.5,363.3z M208.4,440.6
	c-3.7-1.3-7.2-2.7-10.9-4c0.2-0.7,0.7-1.3,1-2c3.4,1.6,6.9,3.2,10.6,4.7C208.9,439.5,208.6,440,208.4,440.6z M200.3,430.3
	c0-0.4,0-1.1,0.2-1.6c4.7-0.4,10-2,14.7,1.6h-0.1c0,0,0,0-0.1,0h0C210.1,430.3,205.2,430.3,200.3,430.3z M265.3,497.2
	c-0.9-2.5-1.9-4.7-2.7-7.2c0.2-0.2,1-0.4,1.5-0.4c2,1.1,4.2,2.2,7.2,3.8C269.1,494.7,267.1,495.8,265.3,497.2z M367.1,568.9
	c-4.7,0.9-9.7,1.6-14.4,2.4c0-0.7-0.2-1.1-0.2-1.8C356.7,566.2,361.9,567.3,367.1,568.9z M371.3,591.5c-9.7-0.7-19.4-1.6-28.9-2.9
	c11.3-3.5,22.5,1.8,33.9,0.7C374.6,590.2,373.1,591.7,371.3,591.5z M376.4,589.5c5.4-9.8,7.9-10,25.1-2.9
	C392.8,585.7,383.8,583.9,376.4,589.5z M423.6,589c-0.2-0.7-0.5-1.3-0.5-1.8c3.2-0.9,6.5-1.8,9.7-2.7c0.5,0.8,0.8,1.7,0.8,2.3
	C430.4,587.5,426.9,588.4,423.6,589z"/>
</svg>
