<?xml version="1.0" encoding="utf-8"?>
<!-- Generator: Adobe Illustrator 22.0.0, SVG Export Plug-In . SVG Version: 6.00 Build 0)  -->
<svg version="1.1" id="Layer_1" xmlns="http://www.w3.org/2000/svg" xmlns:xlink="http://www.w3.org/1999/xlink" x="0px" y="0px"
	 viewBox="0 0 305.3 215.8" style="enable-background:new 0 0 305.3 215.8;" xml:space="preserve">
<style type="text/css">
	.st0{fill:none;stroke:#000000;stroke-miterlimit:10;}
</style>
<path class="st0" d="M54.4,60.9c1.3-1.4,2.6-2.7,3.8-4.2c1.3-1.6,2.4-3.1,4.9-1.4c0.6,0.4,3-0.6,3.8-1.6c1.2-1.5,1.6-3.6,2.4-5.5
	c2.6-6.5,9-10.1,16.1-8.9c1.7,0.3,3.5,0.7,5,1c0.6-0.7,0.9-1,0.9-1.2c0.7-20,24.2-34.2,43.2-26c7,3,13.1,7,17.4,14.7
	c-4,0.5-7.3,1-10.5,1.4c0,0.5,0.1,1,0.1,1.5c1.9,0,3.7,0,5.6,0c7.4,0.1,14.3,1.9,19.9,6.9c2.2,1.9,4.1,4.5,5.1,7.2
	c2.4,6.2,1.5,7.5-4.6,9.9c-2.3,0.9-4.6,2-6.8,3.1c-6,3.1-11.5,2.2-16.7-1.8c-9.2-7.3-25.8-5.3-32.2,4.4c8.9-5.5,17.9-10.4,28.8-2.3
	c-5.5,3.1-9.9,5.6-14.4,8.1c0.2,0.5,0.4,1,0.6,1.4c9.1-4.3,18-10.4,28.7-2.9c10.1-7.6,21.5-12.4,33.6-4c11.2,7.8,12.5,19.3,8.5,32.4
	c5-5.5,7.8-1.8,10.4,1.6c6.4,8.3,5.7,18.7-1.6,26.4c-3.9,4.1-6.1,3.8-7.4-1.6c-6.6-27.1-42-43.2-69.6-26.9c-1.2,0.7-2.3,1.7-4.1,3
	c6.4-2.4,11.8-4.9,17.5-6.4c31.6-8,60.8,19.3,55.7,51.6c-1.7,10.6-15.7,13.7-23.7,9.9c-0.6-0.3-1-3.2-0.5-3.6c2.5-2,5.2-3.7,8-5.2
	s5.7-2.6,8.3-4.9c-4.5,1.1-8.1,6.3-13.3,1.4c-4.4,10-11.6,15.4-22.1,14.4c-19.1-2-23-17-25.8-33.5c-1.9,2-2.9,3.3-4,4.3
	c-1.4,1.4-2.8,2.9-4.5,3.9c-8.6,5.1-13,2.7-13.1-7.7c-0.6,1.3-1.1,2-1.2,2.7c-0.9,6.7-3.8,7.8-10.6,3.1c-1.5-1-2.9-2.2-4.2-3.6
	c-1.2-1.3-2.1-2.9-3.1-4.3c-0.5,0.3-0.9,0.6-1.4,1c0.4,2.4,1,4.7,1.1,7.1c0.3,4.5-1.3,7.4-6.4,8.3c-11.6,2-23.2,4.5-34.8,6.9
	c-5.4,1.1-10.7,2.7-16,3.8c-5.8,1.2-7-0.3-5.4-6c0.3-1.2,0-2.8-0.6-3.8c-1.7-3.1-3.6-6.1-5.8-8.9c-1.1-1.5-2.8-2.6-4.2-3.8
	c-0.2,2-0.9,4.1-0.4,5.9c0.8,2.8,2.6,5.4,3.8,8.1c0.2,0.5,0,1.3,0,1.9c-4.6,0.1-8.9-3-9.5-8.2c-0.6-5.4-2.7-11.2,2.4-16
	c0.5-0.5-0.8-3.9-2.1-5.1c-7.9-7.5-7.5-24.6,0.9-31.5c0.3-0.3,0.9-0.2,2-0.5c0.8,2.8,1.3,5.8,2.6,8.3c1.2,2.5,3.3,4.7,5,7
	c0.5-0.2,1.1-0.5,1.6-0.7c-0.2-1.6-0.2-3.3-0.8-4.7c-3.3-7.6-3.3-15.8-0.4-22.9c2.4-5.8,7.9-10.5,12.5-15.1c1.8-1.8,4.5-0.5,5.4,2.4
	c0.5,1.5,0.8,3,1.3,4.5c0.6,0.1,1.1,0.2,1.7,0.3c0.9-2.1,2.2-4.1,2.7-6.3c1.2-6.3,5-10.8,9.6-14.7c3.5-3,7.6-4.2,12-1.6
	c2.6,1.5,3.9,0.3,5.3-1.7c3.5-4.8,7.8-8.7,14.1-9.4c4.5-0.5,5.3,1,3.7,5.1c-1.8,4.6-4.2,7.9-9.8,8.3c-2.8,0.2-5.7,2-8,3.8
	C66,43.2,61.3,47.2,57,51.6c-2.1,2.1-3.1,5.3-4.5,8.1C53,60,53.7,60.5,54.4,60.9z"/>
<path class="st0" d="M232.6,43.9c4.4,0.9,8.9,1.7,13.3,2.6c0,0.6-0.1,1.2-0.1,1.7c-1.7,0.9-3.3,1.8-5,2.7c0,0.4,0.1,0.7,0.1,1.1
	c2.2-0.3,4.4-0.5,6.6-1c14.7-3.5,28,7.1,28,22.2c0,5.7-1,6.9-6.6,6.7c-12.1-0.5-23.7,0.5-33.6,8.5c-10.9,8.8-18.4,19.2-17.8,34
	c0.1,1.7-0.4,3.8-1.3,5.1c-0.6,0.8-2.9,1.1-3.9,0.6s-2-2.4-1.9-3.5c0.2-2.1,1.2-4.1,2.1-6.1c5.8-12.1,3.4-21.5-7.3-29.9
	c-2-1.6-3.6-4.8-3.7-7.4c-0.8-15.4-4.7-21-18.8-26.7c-2-0.8-4.1-3.4-4.7-5.6c-2.7-8.8-8.3-14.7-16.6-18.2
	c-8.1-3.4-10.1-13.6-3.3-19.4c6.1-5.3,13.4-7.5,21.4-5.9c1.7,0.3,2.9,2.6,4.1,4.8c12.6-4.4,24.9-4.2,36.1,4.4
	c2.5,1.9,4.5,4.5,6.7,6.8c-0.3,0.4-0.7,0.8-1,1.3c-1.1-0.4-2.3-0.8-3.4-1.2c-2.1-0.6-4.2-1.9-6.2-1.7c-9.1,1-18.1,0.4-27.2-0.6
	c-1.1-0.1-2.4,0.6-3.5,1.8c3.2,0.3,6.9-0.4,9.4,1.1c5.4,3.1,9.8,2.7,15.3-0.2c4.3-2.3,9.3-0.6,12.6,3.3c1.9,2.2,3.5,2.1,6.1,1.4
	c12.3-3.8,22.9-0.1,32.4,7.8c1.6,1.3,2.8,3.4,3.6,5.3c2.8,7.2,0.9,9.7-6.5,8.3c-3.8-0.7-7.6-2.1-11.2-3.6
	C242.2,42.3,237.5,42.4,232.6,43.9z"/>
<path class="st0" d="M261.3,94.2c10.8,9.5,11.2,20.7,0.8,31.2c2.5,5.8,1.4,9.6-4.1,13.2c-7.7,5.1-15.8,5.1-23.6,0.7
	c-2-1.1-2.8-4.6-4.5-7.7c1.1,0.1,0.6-0.1,0.4,0c-7.2,4.6-11.2,1.8-10.3-7.8c1.2-13.8,4.9-26.2,17.3-34.3c9.2-6,19.1-9.3,30.2-8.1
	c1.7,0.2,3.2,1.3,4.8,2c-0.8,1.7-1.1,4-2.4,5.1C267.3,90.7,264.1,92.4,261.3,94.2z"/>
<path class="st0" d="M85.6,136c-0.5,2.5-0.8,4.2-1.2,5.9c3.5-4.9,7.7-8.2,14-8.9c3.7-0.4,4.9,0.9,5.8,4.2c1.7,6.2,3.8,12.3,6.3,18.2
	c1.4,3.4,1,5.5-1.4,7.9c-7.5,7.3-22.2,8.8-31.1,2.9c-2.9-1.9-5.6-4.1-9.2-6.7c1.5,6.1-2.3,7.3-6.1,8c-13.3,2.3-24.6-1.9-32.5-12.7
	c-2.6-3.5-2-6.2,2.2-7.9c4.5-1.8,9.1-3.2,13.8-4.2c11.7-2.5,23.5-4.6,35.2-6.9C82.7,135.8,83.8,136,85.6,136z"/>
<path class="st0" d="M77.9,150.3c-7.5,3.5-14,6.6-20.4,9.6C65.1,159.6,72,157.5,77.9,150.3z"/>
<path class="st0" d="M87,173.2c9.5-0.8,17.4-3.6,24.4-9.2c0.9-0.7,3.5-0.3,4.7,0.5c5.1,3.4,10,7.1,14.8,10.9
	c0.9,0.7,1.1,2.4,1.9,4.6c6.2,2.5,7.6,10,1.6,16.7c-2.3,2.5-4,4.5-3.7,8.5c0.1,2-3.3,5.1-5.8,6.2c-3,1.3-6-0.2-7.8-3.5
	c-0.9-1.7-2.5-3.6-4.2-4.2c-7.1-2.6-9.2-8.6-9.8-14.9c-0.3-3.3-1.3-4.6-3.9-5.8C94.7,180.7,89.3,179.6,87,173.2z"/>
<path class="st0" d="M155.2,156.7c-3.3,1.8-7.2,2.9-9.5,5.5c-2.4,2.7-2.7,7.1-5,10c-1.2,1.5-5.3,2.5-6.9,1.5
	c-5.4-3-10.8-6.5-15.2-10.8c-4.1-4-1.9-8.6,3.6-10.6c3.8-1.4,7.2-3.7,10.9-5.3c1.2-0.5,2.9-0.8,4-0.2
	C142.9,149.7,148.6,153,155.2,156.7z"/>
<path class="st0" d="M149.4,171.4c0.2-8.8,12.1-17.7,21.4-16c3.3,0.6,6.5,1.2,9.8,1.6c4.9,0.7,6.2,2.9,2.8,6.6
	c-3.5,3.9-7.7,7.4-12.3,9.8c-4.5,2.3-9.8,3.3-14.8,4.2C150.4,178.7,149.3,177.4,149.4,171.4z"/>
<path class="st0" d="M120,152c-10.4-1.4-14.3-6.3-11.6-16.1c0.4-1.4,2.6-2.6,4.2-3.3c3.5-1.4,7.4-2,10.7-3.7c3-1.5,4.2-0.8,5.3,2
	c1.2,3.1,3,6,3.6,9.2c0.4,2.1-0.1,5.4-1.4,6.4C127.5,149,123.6,150.3,120,152z"/>
<path class="st0" d="M281.3,113.8c-3.3,0.5-4.9-0.7-5.5-4.1c-0.4-2.4-2.2-4.7-2.1-7.1c0.1-3.4,0.5-7.2,2.1-10.1
	c1.8-3.3,5.1-3.8,8.5-1c2.9,2.4,6.6,4.2,9,7c1.9,2.2,3.4,5.6,3.5,8.5c0.1,3.6-3.2,5.1-6.6,5.6C287.2,113.1,284.2,113.4,281.3,113.8z
	"/>
<path class="st0" d="M282.3,126.8c-1.7,0-3.4,0.3-5-0.1c-1.7-0.4-3.3-1.5-5-2.3c1.2-1.5,2-3.7,3.5-4.4c3.1-1.4,6.6-2,10-2.7
	c2.4-0.5,5-0.5,7.3-1.2c4-1.2,6.7,0.9,8.4,3.8c2.1,3.4-1.4,4.6-3.5,5c-5.2,1.1-10.5,1.6-15.7,2.3C282.4,127.1,282.4,127,282.3,126.8
	z"/>
<path class="st0" d="M219.8,143c-4.9,0-8.7-1.2-9.9-5.4c-0.5-1.8,0.3-5.1,1.7-6.2c2.2-1.8,5-1.7,7.2,1.5c1,1.5,3.5,2.1,5.4,3.1
	c1.4,0.8,2.9,1.5,4.3,2.3c-1.2,1.2-2.3,2.7-3.7,3.4C223,142.5,221,142.7,219.8,143z"/>
</svg>
