<?xml version="1.0" encoding="utf-8"?>
<!-- Generator: Adobe Illustrator 22.0.0, SVG Export Plug-In . SVG Version: 6.00 Build 0)  -->
<svg version="1.1" id="Layer_1" xmlns="http://www.w3.org/2000/svg" xmlns:xlink="http://www.w3.org/1999/xlink" x="0px" y="0px"
	 viewBox="0 0 148.5 373.3" style="enable-background:new 0 0 148.5 373.3;" xml:space="preserve">
<style type="text/css">
	.st0{fill:none;stroke:#000000;stroke-miterlimit:10;}
</style>
<path class="st0" d="M141.4,287.8c8.1-9.9,6.3-14.7,1.7-24.3c4-6.4,3.8-12.9-1.1-19.1c0.8-2.7,1.1-5.3,1.3-7.8
	c0.4-2.2,0.7-4.4,1.1-6.5c-0.2-0.4-0.4-0.7-0.6-1.1c-0.3-1.7-1.2-3.2-2.7-5.2c2.7-9.8,2.7-9.8,1.8-14.9c-2.4-3.4-4.6-6.6-6.9-10
	c4.2-8,1.8-14.9-3.5-21c3.1-8.9,1-15.7-6.7-20.3c0.3-1.1,0.5-2.1,0.6-3.2c0.9-7.4-1.6-14.5-4.3-21.5c3.4-9.5,2.5-16.6-2.8-20.8
	c-0.8-0.6-1.6-1.2-2.5-1.6c0.4-3.4,2.9-6.9,2-10.6c0-1.2-0.2-2.5-0.6-3.9c-1.2-4.4-2.7-6-7.1-9.5c1.1-2.8,1.5-5.5,1.6-8.2
	c0-0.1,0-0.1,0-0.2s0-0.1,0-0.2c0-1.2,0-2.3-0.2-3.3C111.7,67,108,60,106,52.7c-0.1-1.2-0.2-2.5-0.5-3.8c0.5-14.8-1.3-9.1-6-12.5
	c-0.5-0.3-0.6-1.1-0.9-1.8c-0.2-5.7-1.6-8.6-4.3-9.7c-0.3-0.7-0.6-1.4-0.9-2.1c-0.9-3-3.2-5.6-6.9-6.4c-0.8-4-2.6-6.5-6.2-8.1
	C78.1,7.2,75,6.8,70,6.5c-1.9-0.1-3.9-0.9-5.5-1.8c-8.4-4.7-14.1-4-21.7,2.5c-0.9,0.8-2.4,1.6-3.5,1.4c-5.1-0.8-9.4,1.5-13.4,3.9
	c-2.7,1.7-4.4,5.2-6.7,8.1C9.7,24,8,26.3,7.3,37.1c-0.1,1.4-0.3,3.4-1.2,4.1C2.2,44.4,2.5,48.8,2,53.7l4.5,7.7
	c0.4,0.6,0.7,1.2,1.1,1.9c-3.3,9.6-0.4,17.8,8.7,23.6c-2.2,6.9-3.3,13.5,0.9,19.7c1.9,2.8,1.9,5.5,0.8,8.5c-1.2,3.3-0.7,6.4,1.1,9.5
	c3,5.1,5.6,10.4,8.3,15.5c-3.9,9-1.7,16.1,5.7,22c-3.2,9-1.8,17.6,2.9,25.6c-3.9,8.9-0.5,15.7,6,21.8c-2.5,7.4-3,14.7,2.8,20.2
	c1,7.4-0.5,14.6,3.7,20.3c-3.6,7.9-3.2,15,1.6,22.1c-3.3,7.2-3.8,14.8,0.2,21.9c-2.5,6.2-3.6,12.1-0.3,18.1c0.7,1.2,0.2,3.3-0.3,4.8
	c-1.7,4.4-2,9-0.2,13.2s1.6,8.3,1.6,12.6c0,2.9,1.3,5.7,2.1,8.6c0.7,2.5,1.8,4.9,2.1,7.5c0.8,6.3,5.8,12.5,11.8,13.9
	c2.3-6,3.8-12.1,3.7-18.4c-0.5,0.2-0.9,0.4-1.4,0.6c-2.6-2.5-5.2-5-8.3-8c1.1-3.1,2.1-6.1,3.1-9.1c2.8,0.3,4.7,0.4,6.6,0.6
	c0.7-1.4,1.4-2.9,2.1-4.3c-0.9-5.2-2.3-10.9-0.5-15.3c2-4.7,2.8-8.8,1.5-12.9c4.8-2.2,9.3-4.2,15.7-7.1c3.7-0.3,10.1,1.6,14.5-2.6
	c3.3,1,5.9,2.2,8.6,2.6c2.9,0.4,5.9,0.1,8.4,0.1c2.4,2.3,4.3,4.1,6,5.8c1.7,0.3,3.2,0.5,5.5,0.8c0.4,3.8,0.7,7.5,1.1,11.2
	c-0.3,0.1-0.7,0.1-1,0.2c1.2,1.3,2.4,2.7,3.8,4.3c1.3-0.1,2.7-0.1,4-0.2c1.2-5.5,3.2-10.6,0.7-15.9c-0.3-0.7-0.1-2.1,0.4-2.9
	C144.6,297.3,143.3,292.5,141.4,287.8z"/>
</svg>
