<?xml version="1.0" encoding="utf-8"?>
<!-- Generator: Adobe Illustrator 22.0.0, SVG Export Plug-In . SVG Version: 6.00 Build 0)  -->
<svg version="1.1" id="Layer_1" xmlns="http://www.w3.org/2000/svg" xmlns:xlink="http://www.w3.org/1999/xlink" x="0px" y="0px"
	 viewBox="0 0 154.1 162.9" style="enable-background:new 0 0 154.1 162.9;" xml:space="preserve">
<style type="text/css">
	.st0{fill:none;stroke:#000000;stroke-miterlimit:10;}
</style>
<path class="st0" d="M96.8,41.1c1.5-1.5,3.1-3.1,4.6-4.6c0.3-0.3,0.5-0.5,0.8-0.8c3.1-3,6.3-6,9.6-8.8c0.2-0.1,0.3-0.3,0.5-0.5
	c0.3-0.3,1-0.1,1.9,0.2c1.3,0.5,2.9,1.4,4,2c6.8,3.4,10.2,3,13.7-2.6c-26.1,0-52.3,0-78.8,0c-1.5,2.7-2.9,5.4-4.4,8.1
	c-1,3-1.9,6.1-2.9,9.1c-0.1,1-0.2,2-0.2,2.9c-0.3,0.6-0.6,1.3-1,1.9c0.5-0.4,1-0.7,1.4-1.1c-4.1,7.8-6.4,16.8-15,21.7
	c-2.2,1.2-3.7,3.8-5.4,5.8c0.2-0.8,0.5-1.5,0.7-2.3c-0.4,0.5-0.8,1-1.2,1.5c-0.3,1.7-0.1,3.8-1,5.1c-3.5,5.2-7.8,9.9-2.5,16.5
	c0.6,0.7-0.9,3.1-1.5,4.7c-2.5,6.2-5.8,12.6-7.9,19.2c0,0.1,0,0.1-0.1,0.2c17.6,9.2,35,18.3,52.1,27.2c4.2-10.2,8.6-20.3,13.5-30.2
	C84.6,102.4,93,89.2,101.2,76c0.2-0.4,0.5-0.8,0.7-1.2c2.4-3.9,4.8-7.8,7.2-11.7c3.6-5.9,7.7-11.5,11-17.5c1.1-2,1.1-4.6,1.5-7
	c-4.2-1.3-8.2-5.9-12.6-0.8c-6.3,7.3-12.6,14.5-18.4,22.2c-3,4-5.7,6.7-12.8,5c0.2-0.3,0.5-0.5,0.7-0.8c-0.7-0.1-1.4-0.2-2.2-0.4
	c5.6-6.2,10.6-11.5,15.4-17C93.8,45.3,95,42.9,96.8,41.1z M38.5,90.1c-0.4,1-3.1,2.1-4.3,1.7c-1.1-0.4-2.4-3.1-2-4
	c2.8-6.6,6-13.1,9.1-20.2c1.4,0.6,2.9,1.2,4.3,1.8C43.2,76.6,41.1,83.5,38.5,90.1z M74.3,49.5c-0.9,2.3-0.7,5-1.3,7.4
	c-0.3,1.7-1,3.3-1.6,5c-1.8-0.6-4.9-1.1-5.1-2c-0.3-1.8-0.6-3.8-0.6-5.7c-0.1-1.8,0.1-3.6,0.7-5.1c2-5.3,4.9-10.2,8-15
	c1-1.6,2.8-2.8,4.4-4c0.6-0.4,1.1-0.8,1.6-1.3c0.3,0.3,0.5,0.7,0.8,1.1s0.5,0.8,0.8,1.3c0,0.1,0,0.1-0.1,0.2l0.1,0.1
	C79.5,37.4,76.7,43.4,74.3,49.5z"/>
</svg>
