<?xml version="1.0" encoding="utf-8"?>
<!-- Generator: Adobe Illustrator 22.0.0, SVG Export Plug-In . SVG Version: 6.00 Build 0)  -->
<svg version="1.1" id="Layer_1" xmlns="http://www.w3.org/2000/svg" xmlns:xlink="http://www.w3.org/1999/xlink" x="0px" y="0px"
	 viewBox="0 0 309.7 270.1" style="enable-background:new 0 0 309.7 270.1;" xml:space="preserve">
<style type="text/css">
	.st0{fill:none;stroke:#000000;stroke-miterlimit:10;}
</style>
<path class="st0" d="M152.1,231.9c1.7,0.2,3.7,0.5,5,1.5c7.6,5.7,16,8.6,24.9,10.8c3.1,0.8,5.2,2.8,6.2,5.5c0.6,1.1,1,2.3,1.2,3.6
	c2.9-1.9,5.2-2.7,8.5-0.2c0.1,0.1,0.2,0.1,0.3,0.2c0-13.1,0-26.3,0-39.4c-17.5,0-35.4,0-53.7,0c0,5.7,0,11.6,0,17.7
	C146.9,231.5,149.5,231.5,152.1,231.9z"/>
<path class="st0" d="M211,257.7c8,1.1,16.1,1.5,25.2,2.3c-0.6-3-1.1-5.2-1.2-6c2.4-4.8,4.1-7.8,6.4-11c1.8-2.5,4.3-4.3,6.3-6.6
	c1.2-1.5,2-3.3,3-4.9c0-0.1,0.1-0.1,0.1-0.2l0,0c-0.1,0-0.2,0-0.3,0c-0.4,0-0.8-0.1-1.1-0.1c-3.8-0.7-5.1-4.3-5.7-7.2
	c-0.7-3.2-1-6.6-1.2-9.9c-13.2,0-26.7,0-40.3,0c0,13.3,0.1,27.3,0.1,41.9C204.9,257,208.1,257.3,211,257.7z"/>
<path class="st0" d="M6.3,169.3c-0.5,0.1-0.9,0.2-1.3,0.3c-0.7,0.2-1.3,0.5-1.8,0.8c0,5,0,9.9,0,14.9c1.2,4.7,2.3,9.5,3.8,14.1
	c0.3,0.7,0.5,1.4,0.7,2.2c0.6,1.2,1.8,2.3,3.2,3.2c13.4,0,22.8,0,28.3,0c-2.2-1.6-3.8-3.7-4.7-6.2c0-0.1-0.1-0.2-0.1-0.4
	c-0.2-0.4-0.4-0.8-0.5-1.3c-0.1-0.3-0.2-0.7-0.3-1c-0.3-1.1-0.5-2.2-0.5-3.4c0-1.1,0-0.8,0-1.2c0.1-9.5-0.1-19,0.2-28.5
	c0.1-2.3,1.5-4.7,2.4-7.3c-1.1-0.8-2.2-1.7-3.2-2.6c-4.9-4.4-9.9-5.5-16.1-2.2c-3.3,1.8-4.8,4.4-5.4,7.2c-0.2,1.2-0.2,2.5-0.3,3.7
	c0,1.2-0.2,2.2-0.4,3C10.2,167.5,9.3,168.9,6.3,169.3z"/>
<path class="st0" d="M112.5,149.1c-1.3-0.4-2.5-1-3.7-1.9c-0.4-0.3-0.8-0.5-1.2-0.7c-0.1,0-0.2,0-0.2-0.1c-0.1,0-0.1,0-0.2,0
	c-0.6-0.1-1.2-0.2-1.9-0.2s-1.5,0-2.2,0.1c-4.7,0.6-9.7,3.5-10.6,7.4c-0.7,3-0.4,6.3-1.4,9.1c-0.2,0.6-0.6,1.2-1.2,1.7
	c-1,1-2.4,1.9-3.6,2.3c-0.8,0.2-1.4,0.4-2,0.7c-3.3,1.4-4.7,3.9-5.7,6.8c-0.7,2.2-1.2,4.6-2,6.8c-0.2,0.4-0.3,0.9-0.3,1.3
	c-0.7,3.8,2.5,5.7,5.1,7.9c1.1,0.9,1.9,2.1,2.8,3.4c0.1,0.1,0.2,0.3,0.3,0.4c-0.1,0-0.2,0-0.3,0c-1.7,0.1-3.8,0.7-4.8-0.2
	c0,0,0,0,0-0.1c-0.5,0-0.9-0.1-1.2-0.4s-0.6-0.5-0.9-0.8c-2.1-1.9-3.7-4.3-5.6-6.4c0,0.1,0,0.2,0,0.2c-1.3-3.4-2.6-6.7-3.9-10.1
	c0.6,0.3,1.1,0.7,1.6,1.1c-0.1-0.1-0.1-0.3-0.2-0.4c-0.4-0.3-0.9-0.6-1.4-0.9c0-0.3,0-0.6-0.2-0.9l0,0c0-0.1,0-0.1,0-0.2
	c-0.8-0.7-0.7-1.3-1.1-2.8c-0.8-2.3-2.2-4.7-2.4-7h-0.4c-0.9-0.8-1.7-1.6-2.6-2.3c-0.4-0.4-0.9-0.9-1.3-1.3
	c-0.4-0.4-0.7-0.8-1.1-1.1c-0.6-0.5-1.2-1-1.8-1.4c-2.7-1.9-5.6-3.1-8.9-2.9c-0.1,0-0.1,0-0.2,0c-1.1,0.1-2.2,0.3-3.3,0.7
	c-2,0.7-4.2,0.9-6.2,1.2c-3.5,5.1-4.5,10.6-4.5,16.1c0,2.7,0.2,5.4,0.5,8.2c0.3,3.1,0.7,6.2,0.9,9.3c0.3,1.3,1,2.6,1.9,3.8
	c2,2.2,4.6,4.4,5.9,6.7c0.1,0.2,0.2,0.4,0.4,0.6c0.1,0.1,0.2,0.2,0.3,0.4c0.2,0.2,0.3,0.5,0.5,0.7c0.2,0.4,0.4,0.7,0.5,1
	c0.1,0,0.2,0,0.2,0c0.3,0.1,0.5,0.2,0.8,0.4c0.1,0.1,0.3,0.1,0.4,0.2l0,0c0.4,0.6,0.8,1.1,1.3,1.7c2.6,1.5,5.1,3,7.7,4.6
	c22.3,0,44.9,0,67.6,0.1c0-21,0-42.1,0-63.2C119.7,150.2,116.3,150.8,112.5,149.1z"/>
<path class="st0" d="M144.3,231.8c0-5.9,0-11.8,0-17.7c-6.4,0-12.9,0-19.5,0c0,7.5,0,15.3,0,23.6C131,234.8,137.4,232.4,144.3,231.8
	z"/>
<path class="st0" d="M309.9,112c-0.3-0.2-0.5-0.5-0.8-0.7c-0.1-0.1-0.2-0.1-0.3-0.2c-0.4-0.4-0.9-0.7-1.4-0.9
	c-6.7-3.9-14.9,0.3-21.8-2.6c-1,0.7-2,1.5-3,2.2c0,0-0.1,0.1-0.3,0.1c-0.1,0.1-0.2,0.1-0.2,0.1c-1.5,0.7-3,1.3-4.5,2l0,0
	c-0.2,0.1-0.5,0.1-0.7,0.2c-0.6,0.1-1.2,0.2-1.8,0.4c-2.1,2.5-4.9,4.7-4.9,8.1c-0.1,0.8,0,1.6,0.2,2.5c0.2,0.8-1.9,2.1-2.4,3.1
	c-0.2-0.2-0.4-0.4-0.6-0.6c-0.2,0.2-0.3,0.4-0.4,0.6c-1-1.1-2.9-2.4-2.7-3.3c0.6-3.6,1.9-7.1,2.9-10.6c0.4-0.2,0.8-0.4,1.1-0.5
	c0.7-4,2.8-6.1,7.3-7.1c4.4-1,8.4-3.8,13.1-6.1c0.3,1.7,0.5,3,0.7,4.2c0.2,0.2,0.5,0.3,0.8,0.2c4.9-1.4,6.3-5.1,6.8-9.4
	c0-0.2,0.1-0.5,0.1-0.7l-0.3-0.2c-0.3-0.6-0.6-1.3-1-2c-0.9-1.6-1.9-3.2-1.7-4.7c0-0.1,0-0.2,0.1-0.2c-11.8,0-22.9,0-33.3-0.1
	c-0.4,1.2-0.4,2.7-0.1,4.3c0.1,0.5-0.5,1.1-1.2,1.7c-0.4,0.4-0.8,0.7-1.1,1c-0.2-0.2-0.4-0.4-0.7-0.6c-0.2,0.2-0.4,0.4-0.6,0.6
	c-1-1.1-3-2.3-2.8-3.2c0.4-0.9,0.6-1.8,0.9-2.7c0.1-0.4,0.2-0.8,0.3-1.2c-20.7,0-38.7-0.1-54.2-0.1c0,0.4,0,0.7,0,1.1
	c0.5,0.1,1,0.2,1.5,0.4v0.1c0.4,0.1,0.8,0.2,1.3,0.4c-0.7,1.1-1,2.2-1.7,2.9c-0.3,0.2-0.7,0.4-1,0.6c0.2,29.9,0.3,70.6,0.5,120.7
	c13.4,0,26.8,0,40.3,0c0-1.6-0.1-3.3-0.1-4.9c0-1.9,1.5-4.9,3.1-5.6c7.9-3.5,8.1-3.4,3.4-9.4c1.6-3.6,2.6-7.1,4.5-10.1
	c0.9-1.5,3.4-2.1,5.3-2.9c5.5-2.2,11.1-4.4,16.7-6.5c1.2-0.4,2.7-0.1,4-0.2l0,0c0,0,0,0.1-0.1,0.1c0.1,0,0.2,0,0.3,0
	c0.4,0,0.7-0.1,1-0.3l0,0c0-0.2,0-0.5,0.2-0.6c5.4-4,9.3-9.2,12.8-14.9c0.8-1.3,4.1-1,7-1.2c0.3,0,0.6,0,0.9-0.1
	c5.3-1.5,7.9-4,7.9-7c-0.1-1-0.6-2-1.4-3.1c-3.4-4.4-4.6-11.3-3.7-17.5c-23.9-0.6-23.8-1.1,0.3-1.7c0.6-2.9,1.6-5.7,3.2-7.9
	C308.7,116.4,309.1,114,309.9,112z"/>
<path class="st0" d="M148,33.2c0.1,0.1,0.2,0.2,0.3,0.3c1.2,1.3,2.5,2.5,3.8,3.7c0.7,0.7,1.5,1.4,2.2,2c0.8,0.8,1.7,1.6,2.5,2.4
	c2.5,2.5,5.4,6.4,5.1,9.3c-0.8,6.6,1.7,8.1,7.4,7.2c2.8,0.1,5.5,0.2,8.3,0.3c0-0.1-0.1-0.3-0.1-0.4c0.2,0.1,0.3,0.3,0.4,0.4
	c0.3,0,0.5,0,0.8,0c4.2,3.9,5.6,8.4,4.4,13.2c4.7,0,9.7,0,15,0c0-14.9,0-29.8,0-44.7c-0.3-0.4-0.6-0.8-0.9-1.2v-0.1
	c-1.2-0.7-3.2-1.5-3.1-1.8c3.2-11.3-5.8-14.5-12.5-19.2c-0.9-0.6-1.7-1.4-2.6-2.2c-0.5,0-1.1,0-1.6,0c-1.3,0-2.7,0-4,0l0,0
	c-1,0-3.2,0-4.8,0c-2.1,0-4.1-0.1-6.2-0.1c-2.3,1.2-4.6,2.3-6.7,3.6c-0.3,0.2-0.7,0.4-1,0.7c-2.4,1.8-4.4,4-6.5,6
	c-0.3,0.3-0.6,0.6-0.9,0.9c0.4,0.4,0.7,0.8,0.9,1.1c0.8,1.2,0.8,2.1,0,2.8c-0.1,0.1-0.1,0.1-0.2,0.2c-0.2,0.1-0.4,0.2-0.6,0.3
	c-0.5,0.2-1.1,0.4-1.9,0.6c-1.8,0.4-3.6,1-5.4,1.6v0.1c0.9,3.4,2.5,6.2,4.4,8.7C145.5,30.5,146.7,31.9,148,33.2z"/>
<path class="st0" d="M198,93.4c-1.2,1-2.4,2.1-3.4,3.2c-4.1,4.6-6.8,10.3-8.6,16.2c-0.2,0.7-0.5,1.4-0.7,2.1
	c-2.3,6.4-5.7,11.7-10.4,16.7c-2.6,2.6-4.2,7.1-4.8,11.1c0,0.2-0.1,0.4-0.1,0.5c-0.1,0.6-0.1,1.1-0.1,1.7c-0.2,4.9,1.3,7.7,4.5,9.1
	c1.4,0.4,3.1,0.5,5,0.5c2.4,0,4.6,0.4,6.6,1.2c2.7,0.9,5,2.6,6.8,5.3c0.7,1,0.1,2.8,0.1,4.3c-1.1-0.4-2.5-0.6-3.4-1.3
	c-0.6-0.2-1.1-0.5-1.5-0.7c-0.8-0.7-2-1.4-3.6-2.1c-5.9-2.1-14.6-3.1-17.2-0.6c-2.7,2.6-3.5,7.1-5.3,10.7c-0.5,0.9-0.9,1.8-1.4,2.7
	c-1.2,2.2-2.4,4.5-3.6,6.7c-0.4-0.2-0.8-0.4-1.2-0.5c0,0,0,0,0,0.1c-0.8-0.4-1.7-0.8-2.5-1.1c1.4-3.6,2.9-7.2,4.4-10.8v-0.1
	c-0.4,0-0.7,0.1-1.1,0.1c-0.4-2.2-1.3-4.5-1-6.7c0.4-4.1-4.5-13-9.9-15.6c-0.3-0.1-0.6-0.2-0.9-0.3l0,0c0,18.8,0,40.8,0,65.9
	c17.9,0,35.8,0,53.7,0.1C198.1,172.5,198,133.1,198,93.4z"/>
<path class="st0" d="M144.3,145.7c-6.5-1.8-13-2.8-19.5,1.2c0,15.6,0,37.3,0,64.7c6.5,0,13,0,19.5,0
	C144.3,189.7,144.3,167.8,144.3,145.7z"/>
<path class="st0" d="M66,214.1c0.6,0.4,1.1,0.9,1.6,1.3c1.9,1.5,3.5,3.4,4.9,5.4c0.9,1.3,1.8,2.6,2.7,3.8c0,0,0,0,0,0.1
	c1.9,2.3,2.9,5.3,4.2,8l0.1,0.1c1.3,1.5,2.6,3,3.9,4.4c0.2,0.2,0.5,0.3,0.7,0.5c3.3,2.5,4.6,5.4,4.4,8.7c-0.1,2-0.7,4.1-1.8,6.3
	c-0.2-3.1-1.1-5.5-2.7-7.5c-1.5-1.9-3.5-3.5-5.9-5c-1-0.7-2-1.4-3-2.1c-1-0.8-1.9-1.6-2.7-2.5c-4.4-4.6-7-10.4-7.6-17.3
	c-1.6-0.4-3.3-0.9-4.9-1.3c-0.4-0.1-0.8-0.2-1.3-0.3c-0.2,0.1-0.4,0.2-0.6,0.3c0,7,0,14.1,0,21.1c5.5,1.9,9.6,5.8,11.6,10.8
	c1.2,2.5,1.8,5.3,1.8,8.4c0,1.7-0.3,3.7,0,5.2c0.6,1,1.9,1.6,4.2,1.6c-0.7,0.3-1.3,0.5-2,0.8c0.6,0.2,1.4,0.3,2.4,0.3
	c8.9-4.6,17.7-9.2,26.6-13.9c0.9-0.5,1.9-1,2.8-1.5c0.5-0.3,1-0.5,1.5-0.8c0.1,0,0.1-0.1,0.2-0.1c2.5-1.3,4.9-2.6,7.4-3.9
	c0.1-0.4,0.2-1,0.3-1.4c-0.3,0.1-0.5,0.2-0.8,0.3c0-0.6,0-1.4,0.4-1.6c2.6-1.2,5.2-2.5,7.8-3.7c0-8.2,0-16.4,0-24.6
	C104.1,214.1,85.3,214.1,66,214.1z"/>
<path class="st0" d="M200.9,31.1c0.2-0.2,0.4,13.8,0.6,40.6c17.1,0,37.6,0,61.1,0c0.6-0.2,1.3-0.3,2.1-0.4c2.6-0.4,5-2.2,7.5-3.4
	c1.2-0.5,2.3-1.1,3.4-1.1c1.8-0.6,3.5-0.1,4.7,2.5c0.6,0.2,1.3,0.3,1.9,0.5c1.6-1.8,4.8-4.1,4.5-5.4c-1.4-5.6-3.9-10.2-6.1-16.3
	c-0.1-0.3-0.3-0.6-0.5-0.8c-0.5-0.8-1.2-1.5-1.8-2.2l-0.1-0.1l0,0l0,0c-0.3-0.1-0.5-0.1-0.8-0.2s-0.5-0.1-0.8-0.2
	c0.1,0.1,0.2,0.3,0.3,0.4l0,0c-1.8-0.5-3.6-1-5.4-1.6c-0.6-0.1-1.2-0.4-1.8-0.6c-2.1-0.8-4.3-1.2-6.4-1.3c0,0,0,0-0.1,0
	c-1.1,0-2.3,0.1-3.4,0.3c-1.2,0.2-2.3,0.5-3.5,0.8l0,0c-2.5,2.3-5,4.8-7.6,6.8c-0.2-0.3-0.3-0.5-0.4-0.8c-0.3,0.3-0.6,0.5-0.9,0.8
	c-3.4-5.8,2.1-12.4,11.2-13.6l0,0c0,0.1,0.1,0.1,0.1,0.2c0.4-0.1,0.8-0.1,1.2-0.2c0.5-0.1,1.1-0.3,1.6-0.4c0.5-0.4,1.1-0.9,1.7-1.3
	c0.1-0.1,0.3-0.2,0.4-0.3c0.4-0.4,0.7-0.9,0.9-1.3c1.7-2.8,1.6-6,0-8.8c-0.4-0.6-0.8-1.2-1.3-1.8c-0.5-0.5-1-1-1.6-1.5
	c-0.7-0.5-1.4-1-2.2-1.4c-6-3.1-12-6-18-9c-0.9-0.3-1.9-0.6-2.8-1c-0.4,0-0.8,0-1.3,0h-0.1c-0.3,0-0.4,0-0.9,0
	c-3.7,2.4-7.2,4.9-11.3,6.4c-1.3,0.5-2.7,1-4.1,1.2c-1.3,0.2-2.6,0.4-3.9,0.3c-1.8-0.1-3.2,0-4.3,0.2c-2.7,0.9-3.4,3.1-3.9,7.6
	c-0.2,2.3-1.1,4.6-2.2,6.6c0,0.1-0.1,0.1-0.2,0.1c-0.2,0-0.4,0-0.7,0c0,0.1-0.1,0.2-0.1,0.3c0,0.1-0.1,0.1-0.2,0.1
	c-0.6,0.1-2.7-0.5-4-0.7"/>
</svg>
