<?xml version="1.0" encoding="utf-8"?>
<!-- Generator: Adobe Illustrator 22.0.0, SVG Export Plug-In . SVG Version: 6.00 Build 0)  -->
<svg version="1.1" id="Layer_1" xmlns="http://www.w3.org/2000/svg" xmlns:xlink="http://www.w3.org/1999/xlink" x="0px" y="0px"
	 viewBox="0 0 248.7 94.3" style="enable-background:new 0 0 248.7 94.3;" xml:space="preserve">
<style type="text/css">
	.st0{fill:none;stroke:#000000;stroke-miterlimit:10;}
</style>
<path class="st0" d="M183.9,52.4c-2.8,0.8-5.5,2-8.2,2.9c-0.3,0.7-0.5,1.5-1,2.1c-5.7,8.8-5.7,8.8-3.3,19.5
	c-1.4-1.1-3.4-1.8-4.2-3.2c-0.2-0.4-0.5-0.8-0.6-1.3c-0.3-0.3-0.6-0.6-0.8-1c-3.7-6.2-1-15.1,6.1-20.8l0,0c0.7,0.4,1.3,1.2,2,2
	c2.2-1,4.3-1.9,6.5-2.9c1.2-0.5,2.4-1.1,3.6-1.6c0-5.5,0-11.1,0-16.7c-1.2-2-2.9-3.7-5.4-5.2c-1.2-0.7-1.5-2.7-2.4-4
	c-1-1.4-1.9-3.5-3.2-4c-7.3-2.6-14.7-5.9-22.4-4.6c-3,0.5-6,1.6-9.1,3.7c0-0.1-0.1-0.2-0.1-0.3c-0.5-1.6-1.1-2.9-1.3-4.3
	c-0.7-3.8-3.3-7.2-6.5-8.9c-2.1-1.1-4.4-1.6-6.8-0.9c-3.4,1.2-7.4,0.4-10.8,1c-2.1,0.4-4,1.3-5.4,3.5c-0.2,0.2-0.6,0.3-1.1,0.3
	c-0.2,0-0.4,0-0.6,0.1h-0.1C94.8,11,89.1,26.9,98.1,38c0.9,1.2,1.7,2.5,3,4.6c-2.2,0.4-4.4,0.7-6.5,1.1c-2,0.4-4,0.9-5.7,1.6
	c0,6.4,0,12.8,0,19.3c1.2,2,2,4.3,2.5,6.6c-0.8-0.6-1.6-1.1-2.5-1.7c0,6.5,0,13,0,19.5c31.7,0,63.4,0,95.2,0
	C183.9,77.1,183.9,64.9,183.9,52.4z"/>
<path class="st0" d="M187.8,51.6c-1.2,0.1-2.3,0.4-3.5,0.7c0,12.3,0,24.6,0,36.7c19.1,0,38.2,0,57.4,0c0.8-1.1,1.5-2.3,2.2-3.5
	c2.7-5,2.3-12.4-2.1-14.4c-7.9-3.2-10-12-18-15.5c-1.1-0.5-2.2-0.9-3.3-1.4c-6.4-2.5-12.1-3.3-18,0.7c-2.5,1.7-4.1,2-6.4,0.2
	c-0.2-0.2-0.5-0.4-0.7-0.6c-1.5-1.4-3.8-2.6-5.9-2.9C189,51.6,188.4,51.5,187.8,51.6z"/>
<path class="st0" d="M12.1,81.1c-2.1,2.4-4.7,5.2-6.3,8c4.5,0,9.1,0,13.6,0c0-5.2,0-10.3,0-15.4C16.8,76,14.3,78.4,12.1,81.1z"/>
<path class="st0" d="M19.4,54.2c0-2.4,0-4.7,0-7.1C18.5,49.8,18.5,52.1,19.4,54.2z"/>
<path class="st0" d="M18.3,40.2c0.4,0.4,0.8,0.8,1.1,1.3c0-7.3,0-14.4,0-21.4c-1.8,2.2-3.7,4.4-5.5,6.6C12.8,32,14.2,36.3,18.3,40.2
	z"/>
<path class="st0" d="M64.8,64c-10.9,6.9-10.1,7.4-9.5,16.3c-0.4-0.4-0.7-0.7-1.1-1c-0.4-0.3-0.7-0.7-1.1-1c-1.9-1.8-3.3-3.1-4.8-4.5
	c-3.7,1.7-7.5,3.1-11.1,5c-1.2,0.6-2.4,1.3-3.5,2c-1.8,1.2-2,4.7-3.4,8.3c19.2,0,38.4,0,57.6,0c0-6.7,0-13.4,0-20.1
	C80.9,63.7,74,58.2,64.8,64z"/>
<path class="st0" d="M26.7,85.2c1.1-3.2,2-7.1,4.4-9.1c3.3-2.8,7.8-4.3,11.7-6.3c0.1,0.1,0.2,0.1,0.3,0.2c0.1-0.1,0.3-0.1,0.4-0.2
	c0.6-0.2,1.1-0.4,1.6-0.4c2.3-1.1,4.5-2.2,6.8-3.4c-2.3-1.8-4.4-4.2-7-5.4c-2.1-0.9-4.9-0.4-7.6-1.7c4.3-2,9.3-3.3,12.9-6.2
	c5-4,1.4-9.4,0.4-14.2c-0.1-0.2-0.2-0.4-0.4-0.6c-3.4-6.4-8.2-11.1-14.3-13.8c-1.1-0.5-2.1-1-3.3-1.4c-0.1,0-0.3-0.1-0.4-0.1
	c-1-0.3-2-0.7-3.1-0.9c-2-0.4-4.1-1.1-6.1-1.6c-0.6,0-1.2-0.1-1.7-0.1c0,12.5,0,25,0,37.3c0.9,1,2,2,3.4,2.9c3.2,2,4,4.7,0.7,7.9
	c-1.4,1.2-2.7,2.5-4.1,3.7c0,5.8,0,11.5,0,17.2c2.8,0,5.5,0,8.3,0C28.3,87.5,25.8,86,26.7,85.2z"/>
</svg>
