<?xml version="1.0" encoding="utf-8"?>
<!-- Generator: Adobe Illustrator 22.0.0, SVG Export Plug-In . SVG Version: 6.00 Build 0)  -->
<svg version="1.1" id="Layer_1" xmlns="http://www.w3.org/2000/svg" xmlns:xlink="http://www.w3.org/1999/xlink" x="0px" y="0px"
	 viewBox="0 0 321.8 266.1" style="enable-background:new 0 0 321.8 266.1;" xml:space="preserve">
<style type="text/css">
	.st0{fill:none;stroke:#000000;stroke-miterlimit:10;}
</style>
<g>
	<path class="st0" d="M173.5,207.6c-3.1-2.5-5.5-4.8-7.2-7.2c-6.1-8-4.6-15.9,0.7-26.5c1.2-2.4,2.5-4.9,3.4-7.5
		c0.3-0.8,0.6-1.6,1-2.4c-39.1,0-78.1,0-117,0c-0.9,1.1-1.8,2.2-2.6,2.1c-5.9-0.2-8.6,3.1-10.6,7.9c-1.2,2.8-1.6,5.5-0.5,7.9
		c0.6,1.1,1.5,2.2,2.8,3.1c-0.1,0.1-0.1,0.2-0.2,0.3c0.2,0.2,0.4,0.3,0.6,0.5c-3.2,4.9-7.1,5.3-11.7,2.8c-6.7-3.2-11.2-1.7-15.9,3
		c-2.6,2.6-6.7,3.6-10.3,5.2c0,2.6,0,5.3,0,8c2.9,1.8,5.5,4.3,7.5,7.4c7.8-0.3,15.2-0.7,22.5-0.7c0.4,0,0.7,0.1,1.1,0.1
		c0.2,0,0.4,0.1,0.7,0.1c1.3,0.4,2.6,1.2,3.9,1.6c4.3,1.8,9.3,2.8,10.4,8.2c0.1,0.4,0.1,0.7,0.2,1.1c0.2,1.9,0.9,5.1,0.2,5.5
		c-0.2,0.1-0.4,0.2-0.6,0.3c-1.8,0.9-4.2,1.5-6.1,1.2c-0.1,0-0.3,0-0.4-0.1c-3.2-0.9-5.2-1.5-6.6-1.5c-2.4,0.1-3.3,1.8-6.3,6.2
		c-0.4,0.6-0.9,1.1-1.5,1.6c-2.6,2.1-6.5,3.2-9.6,4.9c-5.1-1-10.1-1.9-15.2-2.9c0,7.6,0,15.3,0,23.1c13.7,0,27.2-0.1,40.5-0.1
		c0.8-0.9,1.6-1.7,2.5-2.4c5.3-4.6,12-4.9,20.4-1.1c0.8,0.3,2.1,0.1,3.2-0.3c0.7-0.3,1.3-0.8,1.6-1.2c0-5.5,0-11,0-16.5
		c-1.9-1.8-3.7-3.5-5.4-5.2c-0.4,0.4-0.5,0.5-0.5,0.6l-0.1-0.1c-0.9-0.1-1.8-0.2-2.7-0.3c0-0.1-0.1-0.2-0.1-0.2
		c-0.3,0-0.7-0.1-1-0.1c-1.9-1.4-4.7-3-6-4.8c-0.5-0.9-0.9-1.2-1.1-1.9c-0.1-0.3-0.3-0.6-0.4-1c-0.2-0.3-0.4-0.7-0.6-1
		c-0.2-0.3-0.4-0.7-0.6-1c-1.1-1.8-1.8-3.7,0.3-5.8c-1.3-3.9,0.5-5.8,2.8-7.4c0.4-0.3,0.8-0.6,1.3-0.9c0.6-0.4,1.3-0.9,1.9-1.3
		c5.7-6.8,16.3-9,22.8-4.8c0.1,0,0.3-0.1,0.4-0.1c0,0.1,0.1,0.3,0.1,0.4c3.1,1.9,6.1,3.7,9.4,5.8c1.1,0.7,2.3,1.4,3.5,2.2
		c5.5-6.7,14.4-9.6,24.4-10.5c6-0.6,12-2.4,18-2.1c8.1,0.3,14.3,3.8,18.8,9.9c1.4,1.9,2.7,4.1,3.7,6.5c4-2,7.7-3.9,11.9-6.1
		c0-0.1-0.1-0.2-0.1-0.3C174.5,208.9,174.1,208.1,173.5,207.6z"/>
	<path class="st0" d="M316.1,123.4c-0.7-0.7-1.5-1.4-2.2-2.1c-0.7-0.1-1.5-0.2-2.2-0.2c1.1,1.1,2.2,2.2,3.3,2.9
		c-4.2-0.8-9-0.5-12.4-2.6c-1.6-1-3.2-2.3-4.8-2.4c-3.2-1.2-6.5-1.8-9.7-1.8c-3.4,0-7,0.7-10.7,1.8c-2,2.9-3.8,5.8-5.9,8.6
		c-0.7,1-1.4,1.9-2.2,2.9c-1.2,1.4-3.9,2.9-5.3,2.5c-1.4-0.4-2.1-3.2-2.4-3.6c0.3-0.3,0.6-0.5,0.8-0.8c-0.2-0.4-0.3-0.8-0.4-0.9
		c3.7-3.5,6.8-6.4,9.7-9.3c-0.6-8.6-4.7-13.6-13.3-16.2c-1.6-0.5-3.1-1.6-4.6-2.6c-5.1-4.2-10.1-3.6-14.1,1.1l-0.1,0.1
		c-0.6,1.7-0.1,3.3,1.9,5.6c2.7,3.1,5,8,4.6,11.9c-0.2,2.5-1.2,4.7-2.7,6.6c-1.7,3.5-5,6.2-9.1,7.6c-1.2,0.4-3-0.9-4.6-1.4
		c1.1-0.7,1.5-1.5,1.9-2.1c-0.2-0.1-0.3-0.1-0.5-0.2c0.9-1,1.7-2.4,2.8-3c2.1-1.1,3.7-2.3,4.9-3.6c1.4-3,0.7-6.2-2.5-9
		c-1.3-1.2-3.5-1.4-5.2-2.1c-1.8-0.7-3.6-1.4-6.3-2.5c1-0.8,1.8-1.4,2.5-1.9c-0.3-0.1-0.7-0.3-1-0.4c2.2-1.9,3.4-2.9,4.9-3.9
		c1.4-1.1,2.4-2.3,3.2-3.5c0.6-2.1,0.3-4.5-0.7-6.9c-1.8-4.4-7.8-6.2-12.9-5.3c-2.3,0.4-6.3-0.2-7-1.7c-1-2.1-0.4-3.2,1-3.9
		c-0.2-2.2,2.5-2.9,4.9-3.5c0.1,0,0.2-0.1,0.3-0.1c0.1-0.2,0.2-0.5,0.4-0.7c0.1,0,0.1,0.1,0.2,0.1c0,0,0,0,0.1-0.1
		c-0.2-0.1-0.3-0.1-0.5-0.2c-0.4,0-0.7-0.1-1.1-0.1v0.1c-1.1-0.4-2.4-0.7-3.3-1.2c-0.3-0.2-0.6-0.4-0.8-0.6
		c-6.2-6.9-14.6-9.7-23-12.8c-2.6-1-4.9-3.2-7.1-5.1c-0.9-0.2,1.3-2.5,2-3.8c0,0,0.1,0,0.1,0.1c0-0.1,0.1-0.2,0.1-0.2
		c-0.2-0.1-0.3-0.2-0.5-0.2c5.5-6.9,11.1-13.7,16.5-20.7c0.2-0.3,0.5-0.7,0.6-1c-8.2-2.7-16.1-5.3-23.7-7.8
		c-0.4,0.1-0.8,0.1-1.2,0.2c-1.1,0.8-2,1.7-2.9,2.7c-0.5,0.6-0.9,1.3-1.3,1.9c-0.5,0.1-1,1.2-1.5,1.8c-0.6,0.7-1.3,1.4-2,2.1
		c0,0.1-0.1,0.1-0.1,0.2c-0.9,1-1.8,2-2.8,2.8c-1.5,1.3-3.9,2.9-5.3,2.5c-1.4-0.4-2.1-3.2-2.4-3.6c0.8-0.7,1.5-1.3,2.3-1.9
		c-0.1-0.2-0.1-0.3-0.1-0.3c3.6-3.5,6.6-6.3,9.9-9.1c-0.1-0.6-0.1-1.2-0.2-1.8c-15.7-5.2-30.1-9.9-43.1-14.2c-3.8,1-7.7,1.9-11.6,2
		c-0.6,0-1.2-0.1-1.8-0.2c-1.2-0.2-2.4-0.4-3.7-0.8c-1.9-0.6-4.3,0.5-6.5,0.4C96,7.7,87.8,8.4,78.8,5.2C69,1.8,60.2,5,53.7,13.4
		c-0.6,1-1.3,2-1.8,3.1c-1,1.8-2,3.6-3.3,5c-2.1,3.5-4.7,6.2-9.1,7c-0.3,0-0.7,0-1,0c-5.8,4.2-10.7,9-20.2,5.7
		c-3.8-1.3-8.1-2.2-12.5-2c0,38.5,0,82,0,130.5c0.4-0.2,0.9-0.4,1.3-0.6c2-1.1,4.7-0.8,7.1-1.2c0,0.3,0.1,0.6,0.1,0.8
		c0.1,0,0.2,0,0.3,0c0.1,0.6,0.1,1.1,0.2,1.6c8.7,0,17.4,0,26,0c2.5-2.1,6.1-3.3,9.3-4.3c1.2-0.4,3.3,1.7,4.9,2.7
		c-0.1,0.1-0.2,0.2-0.4,0.3c0.3,0.2,0.5,0.4,0.8,0.5c-0.2,0.2-0.5,0.5-0.7,0.8c40.8,0,79.8,0,116.8,0c3.4-6,9.5-8.7,17.5-7.8
		c1.3,0.1,3.5-1.5,4.3-3c6.3-11.2,13.9-14.9,26.3-12.7c5.1,0.9,10.3,1.4,15.4,2.4c1.8,0.4,4.1,1.3,4.9,2.7c0.2,0.2,0.4,0.4,0.5,0.7
		c0.6,1.3,1.2,2.4,2,3.5c3.6,4.8,8.8,7.8,13.1,11.8c1.1,1,3.1,2.2,4.2,1.8c3.9-1.3,8.3-0.9,12.6,0.7c15.4,0,30.4,0,45,0
		c0-13.3,0-26.7,0-40.3C316.9,123.2,316.5,123.3,316.1,123.4z"/>
</g>
</svg>
