<?xml version="1.0" encoding="utf-8"?>
<!-- Generator: Adobe Illustrator 22.0.0, SVG Export Plug-In . SVG Version: 6.00 Build 0)  -->
<svg version="1.1" id="Layer_1" xmlns="http://www.w3.org/2000/svg" xmlns:xlink="http://www.w3.org/1999/xlink" x="0px" y="0px"
	 viewBox="0 0 142.9 62.4" style="enable-background:new 0 0 142.9 62.4;" xml:space="preserve">
<style type="text/css">
	.st0{fill:none;stroke:#000000;stroke-miterlimit:10;}
</style>
<path class="st0" d="M122.9,24.6c-5.2-2.8-10.7-5.9-16.4-6.8c-14.2-2.4-28.7-3.5-42.6-5.1c-12.4,1.4-24.1,2.4-35.6,4.4
	c-4,0.6-7.9,2.8-11.2,5.2c-4.6,3.2-7,8.1-6.6,13.8s4.6,8.1,9.6,10.1c8.8,3.5,17.7,2.7,26.6,1.8c16.3-1.7,32.5-1.9,48.8,0.3
	c7.2,0.9,14.5,1.4,21.8,1.2c7.2-0.3,9.3-6.2,10.8-12C129.5,32,127.8,27.3,122.9,24.6z"/>
<path class="st0" d="M14.5,37.9c-1.8-4.9,1.2-11.4,7.3-14.7c0.7,6.4,1.3,12.3,2,18.7C19.5,42.5,16.1,42.3,14.5,37.9z"/>
<path class="st0" d="M43.5,40.5c-0.1,1.4-1.8,2.9-3,4c-0.6,0.5-1.9,0.4-2.9,0.5c-9.2,1-10.6-0.2-11.4-9.5c-0.2-3.5-0.6-6.9-1-10.4
	c-0.3-2.9,1-4.4,3.7-4.9c0.9-0.1,1.7-0.2,2.5-0.3C43,18.5,43,18.5,42.9,30.1C43.2,33.6,43.7,37.1,43.5,40.5z"/>
<path class="st0" d="M67.9,30c0,0-0.1,0-0.2,0c-0.1,1.2-0.2,2.3-0.4,3.4c-0.4,9.2-0.4,9.2-10,9.7C46.2,43.7,46.4,46.3,46,32.4
	c0-0.3,0-0.7,0-1c0.4-4.3,0.8-8.7,1.2-13c6.1-0.4,12.2-0.9,18.3-1c0.8,0,2.2,2,2.3,3.1C68.1,23.7,67.9,26.8,67.9,30z"/>
<path class="st0" d="M91.4,33.7c0,0.3-0.1,0.7-0.1,1c-1.2,8.6,0.9,9.7-10.5,8.4c-10.4-0.9-10.4-0.9-10.3-11.5c0.1-2.3,0.1-4.7,0.1-7
	c0-7.7,0-7.7,7.8-7C93.4,18.9,93.4,18.9,91.4,33.7z"/>
<path class="st0" d="M113.1,46.8c-5.7-0.7-11.4-1.3-17.1-2.2c-1-0.2-2.3-2.4-2.2-3.6c0.4-6,1.1-11.9,2.1-17.8c0.2-1.2,2.4-3,3.5-2.9
	c4.9,0.6,9.8,1.6,14.5,3.1c1.4,0.5,3,3.3,2.8,4.8C115.9,34.2,114.5,40.2,113.1,46.8z"/>
<path class="st0" d="M125.8,37.9c-1,4.3-3.4,7.5-9.2,7.9c1.2-6.4,2.3-12.3,3.5-18.6C125.1,29.9,127,33.3,125.8,37.9z"/>
</svg>
