<?xml version="1.0" encoding="utf-8"?>
<!-- Generator: Adobe Illustrator 22.0.0, SVG Export Plug-In . SVG Version: 6.00 Build 0)  -->
<svg version="1.1" id="Layer_1" xmlns="http://www.w3.org/2000/svg" xmlns:xlink="http://www.w3.org/1999/xlink" x="0px" y="0px"
	 viewBox="0 0 447.9 378.2" style="enable-background:new 0 0 447.9 378.2;" xml:space="preserve">
<style type="text/css">
	.st0{fill:none;stroke:#000000;stroke-miterlimit:10;}
</style>
<g>
	<path class="st0" d="M26.1,257.2c-0.2,0.2-0.4,0.5-0.5,0.7c-0.3,1.7-0.5,3.2-0.8,4.8c0.3-0.4,0.6-0.7,0.9-1.1
		c0.1-0.8,0.3-1.5,0.4-2.3C26.1,258.6,26.1,257.8,26.1,257.2z"/>
	<path class="st0" d="M125.4,161.6c-1.6,0-3.3,0-5,0c0,7.9,0,16.2,0,25c1.3-4.8,3-9.5,3.8-14.3C124.8,168.8,125.1,165.2,125.4,161.6
		z"/>
	<path class="st0" d="M32.2,244.8c-0.1,1.4-0.7,2.8-1.1,4.2c-0.7,2.8-1.3,5.7-2.2,8.5c-0.5,1.7-1.3,3.4-2.7,5c0,9.4-0.1,23-0.1,40.3
		c2.5,0,5.1,0,7.7,0.1c-0.1-15.5-0.2-32.4-0.3-50.8c-0.4-3.4-0.8-6.7-1.2-10C32.2,243,32.2,243.9,32.2,244.8z"/>
	<path class="st0" d="M126.2,168.7c0.3,0.1,0.6,0.2,1,0.2c1.5-2.3,1.7-4.8,1.7-7.4c-0.5,0-1,0-1.5,0
		C127,163.9,126.6,166.3,126.2,168.7z"/>
	<path class="st0" d="M21,270.9L21,270.9c0.3-3,1-5.9,2.3-8.8c0-0.6,0-1.2,0-1.9c-1,2-1.8,4.1-2.3,6.2C21,267.9,21,269.4,21,270.9z"
		/>
	<path class="st0" d="M23.9,256c-0.2,0.5-0.4,0.9-0.7,1.3c0,1,0,1.9,0,2.9c0.4-0.9,0.9-1.7,1.5-2.5c0.1-1.2,0-2.4,0-3.6
		C24.5,254.7,24.2,255.4,23.9,256z"/>
	<path class="st0" d="M122.4,187.6c-0.6,1.7-1.3,3.3-1.9,5c0,4.6,0,9.2,0,14c3.4,0,6.9,0,10.5,0c0-13.3,0-27.4,0-42.3
		c-0.5,2.9-1.9,5.9-3,8.6C126.2,177.8,124.2,182.7,122.4,187.6z"/>
	<path class="st0" d="M14.7,153.1c0,2.7,0,5.4,0,8.1c1.4,0,2.8,0,4.3,0c-3.5-4-3.5-4.7,0.3-8.8c0.6-0.6,0.8-1.7,1-2.6
		c0.3-1.3,0.7-2.5,1.3-3.6c0-3,0.1-5.8,0.1-8.5c-2.1,0.3-4.3,0.4-6.1-0.3c-2.1-0.7-1.9-1.5-1.8-6.8c-1.5,0.4-3,0.7-4.6,1.1
		c0.3,4.6,0.7,9.3,1,13.8c0.4,0.1,0.6,0.1,0.9,0.2c3.7,0.6,2.6,4.5,4.4,7.1C15.2,152.9,15,153,14.7,153.1z"/>
	<path class="st0" d="M75.9,301.4c0.1,0,0.2,0,0.2,0c0.8-2,1.7-4,2.6-5.9c-0.1,0-0.2,0-0.2,0C77.7,297.5,76.7,299.4,75.9,301.4z"/>
	<path class="st0" d="M90.5,171.2c0-1,0-1.9,0-2.9c-0.1,0.4-0.2,0.8-0.4,1.2c-2.2,4.4-2.2,4.5-2.3,10.7c0.8-3,1.6-6,2.5-9
		C90.4,171.2,90.4,171.2,90.5,171.2z"/>
	<path class="st0" d="M23.8,161.5c0.2,14,0.3,29.3,0.5,44.9c4.4,0,9,0,13.6,0c0.2-0.8,0.3-1.5,0.5-2.3c1.8-10.1,3.7-20.2,5.6-30.6
		c0.2-1.1-0.2-2.2-0.2-3.5c-0.1-2.8-0.7-5.9-0.2-8.5"/>
	<path class="st0" d="M24.5,236.7c0-0.4,0-0.8,0-1.2c-1.2,1.9-2.2,3.9-3.3,5.9c0.2,0.1,0.4,0.2,0.6,0.3
		C22.7,240.1,23.6,238.4,24.5,236.7z"/>
	<path class="st0" d="M26.2,249.7c0-1.5,0-2.2,0-2.3c2.3-6,5.3-11.9,5.6-18.8c-3.3,2-5.4,5-7.3,8.1c0.1,5.9,0.1,11.7,0.2,17.3
		C25.2,252.6,25.7,251.2,26.2,249.7z"/>
	<path class="st0" d="M52,303.5c-4.5,9.6-9,19.2-13.6,28.8c0,10.9-0.1,21.1-0.1,30.6c0.7-1.1,1.3-2.2,2-3.2l-0.1-0.1
		c3.7-5.6,7.4-11.1,11.3-16.9c0.2,0,0.4,0.1,0.6,0.1c0,0,0-0.1,0.1-0.1c1.8,0.5,3.5,0.9,5.3,1.4c2.8-6.5,5.9-12.9,8.9-19.3
		c0-0.4,0-0.7,0-1.1c0.1,0.1,0.2,0.3,0.3,0.4c0.1-0.1,0.1-0.2,0.2-0.4c0-0.1,0.1-0.1,0.1-0.2c-0.1-0.1-0.1-0.2-0.2-0.2
		c0.6-1.3,1.2-2.7,1.8-4c-0.1,0.1-0.2,0.2-0.3,0.2c1.8-5.2,3.6-10.5,5.4-15.8C66.2,303.6,58.9,303.6,52,303.5z"/>
	<path class="st0" d="M110.7,247c0,0.1,0,0.1,0,0.2c1.6,4.1,1.4,11.5,0,17.9c0,0.7,0,1.3,0,2C112.7,260,113,251.2,110.7,247z"/>
	<path class="st0" d="M21.6,163.8c-1.7,3.4-3.5,6.8-5.1,10.2c-0.5,0.9-1.1,1.7-1.7,2.5c0,6.9,0,13.7,0,20.5c0.1,1.2,0.2,2.5,0.3,3.7
		c0.2,1.9,0.3,3.8,0.4,5.7c1.9,0,3.8,0,5.8,0C21.4,190.1,21.5,176,21.6,163.8z"/>
	<path class="st0" d="M164.8,238.1c-0.2-0.4-0.4-0.8-0.5-1.1c-0.8-1.9-0.9-3-0.1-3.9c0.3-0.4,0.9-0.8,1.6-1.1c4-0.3,5.9-1.9,6.1-6.6
		c0-0.5,0.1-1.1,0.1-1.6c-4.9,0-9.9,0-15,0c-0.1,0.5,0,1.1,0.2,1.6c2.6,5.3,0.2,9.8-1.2,14.6c-0.6,2-1.1,4.2-1.8,6.5
		c0.5,0.8,1.5,1.5,2.9,3.1c2.5-4,4.9-7.3,7.2-10.8C164.5,238.6,164.6,238.3,164.8,238.1z"/>
	<path class="st0" d="M120.4,267.3l-0.1,0.1c-0.5-0.5-1-0.9-1.5-1.4c0,0,0,0.1-0.1,0.1c0.5,0.5,1,1,1.5,1.4c-3.1,4.6-6.4,9-9.5,13.5
		c0,4.8,0,9.7,0,14.5h9.7C120.4,285.8,120.4,276.4,120.4,267.3z"/>
	<path class="st0" d="M110.6,76.5L110.6,76.5c2.5-1.8,2.6-2.6,2.9-5c-0.1,0.1-0.3,0.2-0.4,0.3C112.8,74,112.7,74.8,110.6,76.5z"/>
	<path class="st0" d="M120.4,260c0.7,0.2,1.4,0.3,2,0.6c1.9-4.9,4.7-8.9,8.5-12.3c0-7.9,0-16.1,0-24.8c-3.4,0-6.9,0-10.5,0
		C120.4,235.1,120.4,247.3,120.4,260z"/>
	<path class="st0" d="M110.6,65c-0.1,0-0.2,0-0.3,0.1c-0.3,0.3-0.6,0.9-0.8,1.2c-1.7,4.1-3.4,7.4-5.3,11.4c1.3-0.1,2.5-0.5,3.4-1.1
		c1.1-0.7,2-1.7,3-2.6C110.6,71,110.6,68,110.6,65z"/>
	<path class="st0" d="M120.4,295.5l-0.1,5.6c3.4,0,7,0,10.6-0.1C130.9,299.2,120.4,297.4,120.4,295.5z"/>
	<path class="st0" d="M130.9,149.2c0-2.7,0-5.4,0-8.2c-1.1,6.8-2.3,13.6-3.4,20.4c0.4,0,0.9,0,1.4,0c0-2.5-0.2-4.9,0.5-7.3
		C129.9,152.5,130.4,150.8,130.9,149.2z"/>
	<path class="st0" d="M108,273.7c0.8,1.1,1.5,2.2,2.7,3.9c0-3.5,0-7,0-10.5C110,269.6,109.1,271.9,108,273.7z"/>
	<path class="st0" d="M110.8,277.7l-0.1-0.1C110.7,277.7,110.7,277.8,110.8,277.7C110.7,277.8,110.7,277.7,110.8,277.7z"/>
	<path class="st0" d="M92,161.5c0,3-0.1,6.5-0.1,10.1c-1.1,4-2.1,8.1-3.3,12.1c-0.6,2.2-1.5,4.5-2.3,6.5c-0.3,0.8-0.4,1.9-1,2.2
		c-5.1,2.3-3.6,7.9-4.9,12c0.3,0.1,0.6,0.2,0.9,0.3c0.9-3.2,1.7-6.4,2.7-9.9c0.1,0.1,0.1,0.2,0.1,0.4c0-0.1,0.1-0.2,0.1-0.4
		c1.5,3.3,0.4,8.2-2.1,11.6c9.1,0,18.6,0,28.5,0c0-15,0-29.9,0-44.9c0.1,0,0.2,0,0.3,0c0-17.4,0-34.9,0-52.3
		c-1.7,1.9-3.6,3.3-5.5,3.6c-1.1,4-4.1,7.9-7.7,9.3c-0.5,0.2-1,0.4-1.5,0.5c4.4-6.2,8.2-12,8.4-19.9c0-1.1,0-2.3-0.1-3.5
		c2.7,1.2,4.6,2,6.4,3.2c0-6.6,0-13.2,0-19.9c3.5,0,6.8,0,9.9,0c0,18.1-0.1,44.6-0.1,79c1.7,0,3.3,0,5,0c0.3-2.9,0.5-5.9,1-8.8
		c1.2-7.4,2.9-15.3,4.4-22.9c0-0.1,0-0.2,0.1-0.3c0-16.5,0-33.9,0-52.4c-0.6,0.8-1.4,1.5-2.1,2.2c-0.5,0.6-1,1.1-1.4,1.8
		c-0.5-0.2-1-0.4-1.5-0.6c1.4-2.4,2.7-4.7,4.2-7.3c0.3-0.4,0.5-0.9,0.8-1.4c0-8.1,0-16.3,0-24.7c-0.3-0.1-0.6-0.2-1-0.4
		c-4.2-1.7-8-1.2-12,0c-2,0.6-3.7,0.5-4.9-0.5c-1.2-0.4-2.2-1.3-2.8-3c-1-2.6-1.9-5.3-3-7.9c-0.7-1.7-1.3-2.9-2.1-3.5
		c-1.2-0.2-2.7,0.4-4.7,1.9c-1.3,1-3,1.4-4.3,2c-0.5-0.4-0.8-0.5-1-0.8c0,0,0,0-0.1-0.1c-0.1,0-0.2,0.1-0.2,0.1
		c-0.5-0.4-0.8-0.5-1-0.8c-0.8-1-1.6-2.1-2.5-2.9c-0.8-0.3-1.8-0.3-3,0.3c-3.3,1.4-3.3,4.3-3.1,7.2c0.3,6.3,0.8,11.8,0.9,17.6
		c0,1.9-0.9,3.8-1.6,5.7c1.1,0,2.2,0,3.3,0c1.1-8,2.1-15.7,3.1-23.5c0.3,0.1,0.9,0.1,1.3,0.2c0,0.3-0.1,0.5-0.1,0.8
		c0.3,0,0.7,0.1,0.9,0.1c-0.5,4.9-1,9.8-1.5,14.8c0.1,0,0.2,0,0.3,0c0.4-2.5,1-4.9,1.7-7.5c0.8-2.6,1.8-5.2,2.8-7.3
		c0.3,0.1,0.7,0.1,1,0.2c0,0.2,0,0.5,0,0.8c0.3,0.1,0.5,0.1,0.8,0.2c-0.1,1,0,2-0.2,2.9c-0.8,3-1.5,6.1-2.6,9
		c-1,2.7-2.6,5.2-3.9,7.8c-0.3,0.6-0.8,1.1-1,1.7c-1.3,4.1-2.7,8.3-4,12.6c3.2-0.6,4.7-4.2,7.2-6.6c0,0.6,0,1.3-0.1,1.9
		c0.3-0.3,0.6-0.7,0.9-1c0.3,6-6.6,10.9-10.7,9c-0.4,0.4-0.9,0.7-1.3,1.1c-0.6,0-1.3,0-1.9,0c-1.3,1-2.5,2.1-3.7,3
		c0.6,0,1.3,0,1.9,0c-1.2,1-2.3,1.9-3.5,2.9c0,0.7,0,1.7,0,3.4c-0.3-0.3-0.5-0.5-0.8-0.7c-0.1-0.1-0.1-0.1-0.2-0.1
		c-1.5-1.1-2.8-0.9-4.2,0.8c-1.1,1.3-3.2,1.8-4.7,2.8c-0.7,0.7-1.7,1.2-1.9,1.9c-0.6,2-1.3,4.2-1.2,6.3c0.3,5.6-1.2,10.5-4.9,14.6
		c-0.3,0.3-0.4,0.7-0.5,1.3c4.1-0.9,6.1-4.6,8.9-7.1c0,0.6-0.1,1.2-0.3,1.8c0.3-0.4,0.7-0.8,1.1-1.1c-0.3,6.3-6.6,10.7-11.5,8.6
		c-0.7,1-1.4,1.9-2.1,2.9c-0.3-0.1-0.6-0.2-0.9-0.3c0-0.1,0-0.2,0.1-0.4c-0.3-0.1-0.6-0.2-0.9-0.3c0.4-2.3,0.8-4.6,1.3-7v-0.1
		c0.1-0.1,0.1-0.1,0.2-0.2c-0.1,0.1-0.2,0.1-0.2,0.2c-0.4-1.5-0.8-3-1.1-4.1c-3.5,0.1-6.8,0.9-9-0.3c-0.3-0.2-0.5-0.4-0.7-0.6
		c0,0,0,0-0.1,0c-1.9-1-2.8-3.9-4-6.5c-0.9,0.6-2,1.4-3.2,2c-1.5,0.6-3.1,0.8-3.8,1c-0.2-0.2-0.4-0.4-0.6-0.7c-0.1,0-0.1,0-0.2,0
		c-2.3-2.5-4-4.6-5.9-6.4c-3.2-3-2.6-6.9-2.4-10.5c0-0.9,0.4-1.8,0.8-2.7c-0.2,0-0.4,0-0.6,0c0.7-1,1.2-2,1.6-3
		c0.3-0.4,0.5-0.8,0.8-1.2c-0.1,0-0.2,0-0.3,0c-0.3,0.4-0.5,0.8-0.8,1.2c-0.9-0.3-1.8-0.5-2.7-0.9c-1.2,0.8-2.4,1.6-4.1,2.7
		c-0.7-1.3-1.7-2.5-1.9-3.8c-0.8-4.7-1.5-9.4-2.1-14.2c-0.2-1.6-0.9-3-2.1-4c-1.8-1.2-4.3-1.8-7.2-1.4c0.6,6.2,1.2,12.4,1.7,18.6
		c0.1,2,0.3,4.1,0.4,6.1c0.2,0,0.4,0,0.7,0c-0.4,1.3-0.3,2.4-0.3,3.5c0.4,2.6,0.8,5.2,1,7.9c0.6,6.7,0.3,13.4,0.8,20.1
		c0.3,5.1,1.2,10.1,1.9,15.1c0.5-3.2-0.8-6.4,1.7-9.5c2.6-3.3,4.7-6.7,9.6-5.7c0.5-2.3,1-4.4,1.4-6.5c0.3-12.3,0.5-11.1,0.8-1.2
		c3.1,1.4,4.1,3.9,2.8,6.3c-1.4,2.5-1.1,4.5-0.7,7c0.4,2.8-0.2,5.7-0.2,8.6c0,1,0.5,2.1,0.9,3.1c1.2,2.7,0.4,4.4-2.2,5.1
		c0,2,0.1,4.1,0.1,6.2c1.3-1.3,2.9-2.4,4.8-3.1c0.7-2.2,1.5-4.5,2.2-6.7c-1.7-4.5-1.5-5.5,2.5-7.5c3.7-1.8,7.5-3.5,11.3-4.8
		c1.3-0.4,2.1-0.4,2.6-0.2c1.6,0,1.5,1.4,0.1,3.4c0,1,0,2.1,0,2.4c-1.7,0.2-3.3,0-4.4,0.6c-2.8,1.6-3.6,5.9-8,5.6
		c-0.9,0-1.8,2.9-2.1,4.3c-2.1,7.6-5.3,14.8-8.8,21.8c0,0.6,0,1.4,0,2"/>
	<path class="st0" d="M104.8,161.5c-1.2,1.4-3.1,2.7-4.5,4.3c0.1-1.6,0.7-3.1,1.2-4.3"/>
	<path class="st0" d="M101.5,161.5c1.2-2.6,3.1-4.5,4.5-6.7c0.3,1,0.5,2,0.5,2.8c0,1.6-0.7,2.8-1.7,3.9"/>
	<path class="st0" d="M43.6,161.5c0-0.2,0.2-0.5,0.2-0.6c1.2-4.2-0.9-7.4-3.5-9c-2.8-1.8-3.1-4.2-4.2-6.2c0.3,0.2,0.6,0.4,0.9,0.5
		c-0.1-0.1-0.1-0.3-0.2-0.4c6.2,3.3,8.6,9.8,13.7,15.2c-0.9,0.1-1.6,0.3-2.2,0.5c-0.2,0-0.4,0-0.6,0c-1.9,0.8-2.6,2.1-2.1,3.8
		c2.2,8.9-1.9,16.9-2.9,25.4c-0.5,3.8-1.1,7.6-1.6,11.4c0.1,0,0.2,0,0.3,0.1c2.2-8,4.3-16,6.5-23.9c0.2,0.1,0.4,0.1,0.7,0.2
		c0,0,0,0,0-0.1c0.5,0.1,1,0.3,1.5,0.4c-1.1,4.5-1.9,8.7-3.4,12.9c-1.7,4.9-3.5,9.9-5.2,14.8c11.5,0,23.7,0,36.8,0.1
		c0.4-4,0.6-7.9,2.4-10.8c3.6-6,2.8-12.5,4.4-18.6c1.3-4.9,2.9-9.7,4.4-14.6c0.1,0,0.1,0,0.2,0.1c0,0,0,0,0-0.1
		c0.3,0.1,0.5,0.2,0.8,0.2c0-0.4,0-0.9,0-1.3c0.1,0,0.1,0,0.2,0c0.3-29.7,0.8-29.7,1.3,0"/>
	<path class="st0" d="M12.4,111.8c-1.3-1.2-2-2.1-2-3.1c-0.1-1.6,1.6-3.2,5.5-6.3C19,107.8,12.7,108.4,12.4,111.8z"/>
	<path class="st0" d="M17.4,83.1c-0.1-0.2-0.2-0.5-0.3-0.7c0.4,0,0.9,0,1.3,0C18.1,82.6,17.7,82.8,17.4,83.1z"/>
	<path class="st0" d="M79,151.5c-1-3.3-0.7-3.8,4.9-10.4C85.7,146.5,81.1,148.2,79,151.5z"/>
	<path class="st0" d="M120.7,79.5c-3.3,0-6.6,0-9.9,0c0-0.9,0-1.8,0-2.7c-0.9,0.7-2.1,1.6-3.7,2.7c-0.5,0.4-1.1,0.8-1.8,1.3
		c-1.1-0.7-2.4-1.5-3.8-2.2c-0.2,0.3-0.3,0.6-0.5,1c-0.1,0-0.2,0-0.2,0c-0.5,1.1-1,2.1-1.4,3.1c0.1,0,0.2,0,0.3,0
		c-0.1,0.3-0.2,0.6-0.3,0.9c-1.9,8.3-7.7,14-13,20.1c-0.2,0.2-0.5,0.4-0.7,0.5c-0.7,0.5-1.6,0.7-2.4,1.1c-0.4,0.2-0.8,0.4-1.1,0.6
		c-0.1,0.1-0.2,0.2-0.2,0.3c-1.8,3.8-3.6,7.6-4.7,12.2c0.3-0.2,0.5-0.4,0.8-0.6c2-1.6,4.1-3.2,6.3-4.8c0.3-0.2,0.6-0.4,0.8-0.7
		c0.1-0.1,0.3-0.2,0.4-0.3c-0.7,2.8-2.3,5-4.2,6.2c-2.4,1.7-5.3,1.8-7.8-0.1c-0.9,1.8-2,3.6-2.3,5.4c-1.8,8.4-7.8,14-13,20.1
		c-0.4,0.5-1.1,1.2-1.5,1.4c-0.3,0.2-0.5,0.4-0.7,0.3c-0.9-0.3-1.5-0.3-1.9-0.1c-0.7,0.6-0.9,1.8-1.3,2.7c-1,2.4-1.9,4.8-3.2,7.3
		c0-0.2,0-0.3-0.1-0.5c-0.1,0.3-0.2,0.5-0.3,0.8c-1.2-5.3,0.8-10.1,4.4-13c0.9-0.8,1.9-1.4,3-1.9c0.7-0.3,1.4-0.7,2-1.1
		c0.7-0.5,1.4-1.1,1.8-1.8c2.9-4.9,5.3-10.1,8-15.2c1.3-2.5,2.1-5.5,4-7.4c0.3-0.3,0.6-0.5,0.9-0.8c0.8-0.9,1.6-1.8,2.2-2.7
		c1.2-1.8,2.2-3.7,3-5.8c0.4-1,1-1.9,1.7-2.7c0.9-1.2,2.3-2.2,4-2.4c1.1-0.4,2.5-1.3,3.6-2.4c0.2-0.3,0.4-0.5,0.5-0.8
		c2.9-5.1,5.4-10.5,8.1-15.3c0.7-1.3,1.5-2.6,2.2-3.8c2.8-4.2,6.4-7.3,8.3-12.7c0.6-1.6,3-2.7,4.5-4c3.1-2.6,5.3-4.9,9.3-7.9
		C120.8,53.9,120.7,62.6,120.7,79.5z"/>
	<path class="st0" d="M30.6,133.9c0.2-0.2,0.4-0.4,0.5-0.6C30.9,133.5,30.7,133.7,30.6,133.9z"/>
	<path class="st0" d="M281.7,299.1c1.5-0.5,3.1-1,4.6-1.5c0,0,0.1,0,0.1,0.1c2.7,0.4,5.4,0.7,8.1,1.1c1.9-1,3.9-2,5.8-3
		c-5.7,0-11.4,0-17.2,0C282.6,296.9,282.2,298,281.7,299.1z"/>
	<path class="st0" d="M282.6,295.8c0.2,0,0.3,0,0.5,0C283,295.8,282.9,295.7,282.6,295.8z"/>
	<path class="st0" d="M152.2,230.3c0.2-1.2,1.3-2.4,1.6-3.5c0.2-1,0.3-2.1,0.6-3.1c-5.5,0-11.2,0-17,0v16.8c0.5-0.3,1.1-0.5,1.6-0.7
		c1.3,1.9,2.5,3.7,4,5.9C146.8,240.5,151.1,236.4,152.2,230.3z"/>
	<path class="st0" d="M154.4,295.5c-5.7,0-11.4,0-17.1,0v5.4c6,0,12.3-0.1,18.8-0.1c-0.5-0.2-1.2-0.4-1.7-0.7
		C154.4,298.5,154.4,297,154.4,295.5z"/>
	<path class="st0" d="M21.2,241.4c0,0,0,0.1-0.1,0.1c-0.4-0.2-0.8-0.5-1.2-0.8c0.5-0.9,0.9-1.8,1.3-2.7c0-5,0-9.9,0.1-14.7
		c-1.4,0-2.9,0-4.4,0c0.8,10,1.5,20,2.4,30c0.1,2.1,0.3,4.1,0.5,6c0.1,0.8,0.2,1.5,0.3,2.3c0.3-0.6,0.7-1.1,1-1.7
		C21.1,253.5,21.2,247.4,21.2,241.4z"/>
	<path class="st0" d="M38.5,294.3c0,2.9,0,5.7,0,8.5c3,0,6.1,0.1,9.3,0.1c0-0.1,0-0.1,0.1-0.2c0.6-1.5,0.7-3.2,1.2-4.8
		c1.5-4.9,2-9.8,4.8-14.4c2.5-4.1,3.1-9.3,4.5-14c1.7-5.8,3.6-11.6,5.1-17.5c1.5-5.9,1.9-12.1,3.9-17.8c1.2-3.8,2.9-7.4,4.7-10.8
		c-11.8,0-24.1,0-37,0c-0.8,1.9-1.1,3.8,0.4,5.9c0.5,0.9,0.2,2.4-0.4,3.2c-0.5,0.7-0.9,1.4-1.2,2.1c0.2,0.9,0.4,1.9,0.6,2.9
		c1.9-0.8,3.3-1.4,5.1-2c0.5-0.1,1.2,0.7,1.8,1.1c-2.5,2.5-4,5-3,8.9c0.5,1.8-0.1,4,1.6,5.6c0.1,0.1-0.3,0.9-0.5,1.3
		c3.3,3.5,7,5.4,11.9,3.2c1.1,0.5,2.2,1,3.4,1.6c-4.1,4.3-8.1,8.4-12.1,12.6c-3.2-1.3-4.8-0.8-5.5,2.5c-0.4,1.7-0.6,3.6-0.2,5.3
		c0.3,3.6,0.9,7.2,1.4,10.8C38.4,290.4,38.5,292.3,38.5,294.3z"/>
	<path class="st0" d="M25.5,230.5c2.2-2.2,4-4.6,5.6-7.1c-2.2,0-4.4,0-6.7,0c0,2.8,0.1,5.5,0.1,8.2
		C24.8,231.3,25.1,230.9,25.5,230.5z"/>
	<path class="st0" d="M16.5,168.9c0.9-2.3,1.7-4.9,2.6-7.3c-1.4,0-2.9,0-4.4,0c0,3.2,0,6.5,0,9.7C15.6,170.8,16.1,169.9,16.5,168.9z
		"/>
	<path class="st0" d="M116,357.7c0.6,0.3,1.1,0.5,1.6,0.7c0.9,0,1.8,0,2.6,0c0-4.8,0-9.6,0-14.3c-1.4-0.2-2.8-0.5-4.2-0.6
		C116,348.2,116,353,116,357.7z"/>
	<path class="st0" d="M25.9,303.2c0,8,0,16.7-0.1,26.1c0,0,0,0,0,0.1c0.3,1.2,0.3,2.4,0.3,3.5c0.4,1.9,0.8,3.8,1.1,5.6
		c0.5,1.4,0.7,2.7,1,4.1c0.6,10.4,1.2,20.8,2,31.2v0.1c0.8-0.4,1.6-0.7,2-1.3c0.7-1,1.3-2,1.9-3c-0.2-18.7-0.3-40.6-0.5-66.3
		C31,303.3,28.4,303.2,25.9,303.2z"/>
	<path class="st0" d="M38.4,327.7c3.1-8.1,6.4-16.1,9.2-24.2c-3.1,0-6.1-0.1-9.1-0.1C38.5,311.9,38.5,320,38.4,327.7z"/>
	<path class="st0" d="M110.8,301.1l-0.1-5.6c-1.6,1.8-14.7,3.8-16,5.8c2.5,0,5.1,0,7.8-0.1c0.7-0.9,1.6-1.6,2.7-2.2
		c0,0.1-0.1,0.2-0.1,0.3c-0.1,0.3-0.2,1-0.3,1.9C106.8,301.2,108.7,301.2,110.8,301.1c-0.1,0.9-0.1,1.6-0.1,2.4
		c3.2-0.4,6.4-1.1,9.6-1.6c0-0.3,0-0.5,0-0.8V301L110.8,301.1z"/>
	<path class="st0" d="M107.5,254.7c0.1,0.3,0.2,0.5,0.3,0.8c0.1-0.2,0.1-0.4,0.2-0.6c-0.1-0.2-0.1-0.3-0.2-0.5
		c0.7-2.6,1.4-5.2,2.3-8.4c0.1,0.2,0.2,0.4,0.4,0.6c0.1,0.2,0.2,0.4,0.4,0.6c0-6.9,0-13.8,0-20.7c-0.1-0.7-0.2-1.7-0.3-2.7
		c-0.5,0-0.9,0-1.4,0c-0.7,2.9-1.4,5.8-2.1,8.6c-0.8-0.1-0.7-0.1-1.1-0.2c0-0.1,0-0.1,0-0.2c-0.1,0-0.2,0-0.3,0
		c-0.8-2.8-0.1-5.5,0.7-8.2c-10.1,0-20.6,0-31.6,0c-0.8,1.7-1.7,3.5-3.8,4.8c-0.8,0.5-1.4,1.9-1.6,2.9c-0.4,2.2-0.4,4.5,0,7
		c0.9-3.1,1.8-6.3,2.7-9.4c0,0.1,0.1,0.2,0.1,0.4c0.1-0.2,0.1-0.4,0.2-0.5c1.4,4.9-0.2,9.2-2.1,13.2c-4,8.7-7.6,17.4-9.3,26.9
		c-0.7,3.8-2.5,7.5-3.7,11.2c-0.4,1-0.4,2-0.2,3.2c1.1-1.9,2.3-3.9,3.4-6c0,0,0.1,0,0.1,0.1c0-0.1,0.1-0.2,0.1-0.2
		c0.3,0.2,0.6,0.4,1,0.5c-2.2,4.5-2.4,10.2-7.5,12.9c-0.3,0.2-0.7,0.4-1.1,0.6c0,0,0,0-0.1,0.1c0,0.1-0.1,0.3-0.2,0.5
		c0,0.1,0,0.3,0,0.4c-0.6,3-1.2,6.1-1.8,9.1c-0.1,0.3,0,0.3,0.1,0.4c1.2-2.2,2.4-4.5,3.6-6.5c0.3,0.2,0.6,0.5,1,0.5
		c-1.1,2.4-2.3,4.8-3.4,7.3c7,0.1,14.2,0.1,21.7,0.2c2.2-6.4,4.4-12.7,6.6-19.1c0.4-1,1.5-1.7,2.3-2.6c-0.1,0.3-0.2,0.6-0.2,0.8
		c0.1-0.1,0.2-0.2,0.4-0.3c0.1-0.3,0.2-0.6,0.3-0.9c1.7-2.3,3.5-4.9,5.1-7.4c0,0,0,0-0.1,0c0.9-1.9,1.7-3.8,2.9-6.5
		c0.1,0.1,0.2,0.3,0.4,0.4c0.1-0.1,0.1-0.2,0.2-0.3c2.2,2.3,3.5,3.8,5.1,5.5C101.5,267.5,105.6,261.7,107.5,254.7z"/>
	<path class="st0" d="M223.5,300.6c6.5,0,13.1,0,19.8-0.1c1.4-0.6,3-0.7,4.7-1c0,0.4,0,0.7,0,1c7.9,0,15.9-0.1,24.1-0.1
		c0-1.6,0.1-3.2,0.1-4.7c-16.6,0-33.5,0-50.7-0.1C222.1,297.2,222.8,298.9,223.5,300.6z"/>
	<path class="st0" d="M157.1,295.7c0.3,0.9,0.6,1.9,1.1,2.7c0.5,0.7,1,1.6,1.5,2.5c2,0,4,0,6,0c3.4,0,6.9,0,10.5,0h0.1
		c0.8-1.9,1.8-3.6,3.3-5.2c-4.6,0-9.2,0-13.9,0C162.8,295.7,160,295.7,157.1,295.7z"/>
	<path class="st0" d="M104,301.2c0.3-0.6,0.7-1.3,1-1.9C104.6,299.9,104.3,300.5,104,301.2z"/>
	<path class="st0" d="M408.6,28.4c0.6-1.4,1.3-2.9,1.9-4.3c-7.5,0-14.8-0.1-22.1-0.1c0,3.3,0,6.6,0,9.9c4.9-0.8,9.9-1.5,14.9-2.1
		C405.9,31.5,407.5,30.8,408.6,28.4z"/>
	<path class="st0" d="M211.5,173.4c0.1,0.2,0.2,0.3,0.3,0.4C211.7,173.7,211.6,173.5,211.5,173.4z"/>
	<path class="st0" d="M225.8,136.6c0.3-2.4,1.5-4.8-0.6-7c-0.2-0.3-0.2-1,0-1.4c1.3-3.6,2.8-7.2,4.3-10.9c0.6-0.9,1.2-2,0.9-2.7
		c-2.2-5.2,2.8-9.7,1.1-14.8c1.6-4.1,3.2-8.1,4.9-12.2c0.6-1.3,1.4-2.6,2.2-3.8c0.5-2.2,0.4-4.7,1.5-6.6c1.4-2.3,3.4-3.8,1.1-6.9
		c-0.7-0.9,0-4.2,1-4.9c3-2.1,2.1-5,2.4-7.6c0.7-0.9,1.5-1.8,2.1-2.7c2.3-3.4,2.7-5.2-0.8-8c-0.8-0.6-1.5-1.5-2.1-2.5
		c-4.7-2-9.3-3.9-14-5.9c-0.3,0-0.5,0-0.8,0c-0.6,0.4-1.1,0.5-1.5,0.3c-1.1,0-2.2,0-3.2,0c-1.7,0.7-3.4,1.4-5.1,2.2
		c0.9,1.8,1.7,3.2,2.7,5c-3.5,0.5-3-6.5-7.2-3c0.6,1.6,1.2,3.2,1.8,4.8c0.5-0.1,0.5-0.2,0.7-0.3c-0.5,1.8-1,3.9-1.7,6.4
		c-0.4-0.2-1.1-0.5-2.1-1c-1.6,4.1-3.4,8.1-4.7,12.1c-0.4,1.2-1.3,2.5-2.5,3.7c0,10.4,0,20.7-0.1,30.8c1.8-2,4-3.7,5.3-5.9
		c0,0,0,0,0-0.1c0.4,0.2,0.7,0.4,1.1,0.5v0.1c-0.7,1.6-1.4,3-2.1,4.6c-0.6,1.4-1.1,2.7-1.8,4.1c4.3,0.7,5.5-4.4,10.1-5
		c-4.5,6-6.3,8.1-8.7,8.1c-1.1,0-2.3-0.4-3.8-1.1c0,3.9,0,7.7,0,11.6c0,0,0,0,0.1,0c0,0,0,0,0-0.1c0.4,0.1,0.9,0.3,1.3,0.4
		c-0.5,1.7-1,3.5-1.4,5.2c0,1.9,0,3.8,0,5.7c0.8-0.7,1.5-1.3,2.5-2l0.1,0.1l0.1-0.1c0.3,0.2,0.7,0.4,1,0.6c-1.2,2.4-2.5,4.9-3.7,7.3
		c0,17.8-0.1,35.4-0.1,52.6c1.5-2.3,3-4.5,4.4-6.7c-0.4-0.9-0.7-1.6-0.8-2.2c-0.6-2-0.1-3,1.8-4c4-0.3,5.9-1.9,6.1-6.6
		c0.4-9.4,5-17.2,9-25.3C226.2,139.8,225.6,138.1,225.8,136.6z"/>
	<path class="st0" d="M302,23.5c-4.2,0-8.3-0.1-12.4-0.1v13.2c2.7,0,5.4,0,8.1,0C299.4,32.2,300.9,27.9,302,23.5z"/>
	<path class="st0" d="M285.1,23.4c-1.9,0-3.7,0-5.5,0c-2.1,4.4-4,8.8-6,13.3c3.3,0,6.6,0,10,0C284.1,31.5,284.6,27.1,285.1,23.4z"/>
	<path class="st0" d="M239.1,31.2c0.2,1.8,0.7,3.7,1.2,5.5c9.5,0,19,0,28.4,0c-1.4-2.4-1.9-5.3-3.9-7.2c-4.8,3.4-5.5-1.1-7.2-4
		c-0.3-0.7-0.4-1.5-0.6-2.3c-0.2,0-0.3,0-0.5,0c0.2,0.9,0.3,1.8,0.6,2.5c-0.4-0.2-0.8-0.1-1.2,0c-0.4-0.8-0.8-1.7-1.2-2.5
		c-3.8,0-7.5-0.1-11.1-0.1c-1,1.7-2.2,3.2-3.8,4.6C239.1,28.3,238.9,30,239.1,31.2z"/>
	<path class="st0" d="M311.3,36.6c0.7,0,1.3,0,2,0c0.6-1.3,1-2.7,1.5-4.1c-0.4-0.1-0.7-0.3-1.1-0.4
		C312.9,33.6,312.1,35.1,311.3,36.6z"/>
	<path class="st0" d="M300.4,35.7c-0.1,0.3-0.2,0.6-0.4,0.9c0.8,0,1.6,0,2.4,0c0.4-1.1,0.7-2.3,1.1-3.4c0.2,1.4,0.8,2,1,2.5
		c0.2-1,0.5-2,0.7-3.1l0,0C302.3,31.5,301.3,33.3,300.4,35.7z"/>
	<path class="st0" d="M305.2,32.6C305.2,32.6,305.3,32.6,305.2,32.6"/>
	<path class="st0" d="M194.7,25.5c0.6-1,1.3-1.9,1.9-2.9c-0.1,0-0.3,0-0.4,0c-3.3,0-6.5-0.1-9.5-0.1c1.3,0.7,2.7,1.4,4.2,1.6
		c0.5,1.2,0.9,2.3,1.3,3.6c0,0,0,0,0,0.1c0.5-0.8,1.5-1.5,2-2.3c0.4,4.4,3.6,7.1,6.7,9.4c1.1,0.8,2.3,1.1,3.5,1c-1,0-2-0.2-3-1
		C198.4,32.7,195.2,29.9,194.7,25.5z"/>
	<path class="st0" d="M192.7,58.2c-0.6,1-0.6,2.1-0.9,3.6c-1-0.8-1.6-1.2-2.2-1.7c-0.1,0.2-0.2,0.3-0.2,0.5
		c-0.6,4.1-2.5,7.2-7.1,9.2c0.1-0.1,0.1-0.3,0.2-0.4c-0.1,0.1-0.3,0.1-0.4,0.2c1.8-4.4,3.3-8.2,4.9-12.3c1.2-4.2,1.7-8.7,2.5-13
		c0.5,0,0.7-0.1,1-0.1c0,0.1,0.1,0.2,0.1,0.3h0.1c0.3,0.9,0.7,1.8,1,2.6c0.6-0.3,1.2-0.6,1.8-0.9c0.2-1.7,0.5-3.4,0.7-5.4
		c-0.9-0.1-1.6-0.4-2.2-0.3c-3.7,0.7-6.6,0.4-8.8-0.9c-5.2,0-10.4,0.1-15.9,0.1c-0.4,1.7-0.8,3.4-1.4,5c-0.8,1.9-3.2,3.2-4.8,4.8
		c-0.3-0.2-0.6-0.4-0.9-0.5c0,0,0,0,0-0.1c-0.1,0-0.2-0.1-0.2-0.1c1.3-2.6,2.2-5.5,4-7.7c0.3-0.4,0.6-0.9,0.9-1.3
		c-7.3,0-14.9,0.1-22.8,0.1c0,0.3-0.1,0.5-0.1,0.8c-1,4.1-2.2,6.5-4.3,7.5l-0.2,113.7c8.9,0,17.8,0,26.7,0c0.4-1.6,0.6-3.3,0.8-5
		c0.4-4.6,0.4-9.4,3.1-13.8c0.3-0.5,0.6-1,1-1.5c-1,7.7-1.8,14.1-2.7,20.5c-0.7,1.6-1.4,3.3-2.1,4.9c0.2,0.2,0.4,0.3,0.6,0.5
		c0.9-0.7,1.7-1.4,2.6-2.1c0.3,0.2,0.5,0.3,0.8,0.5c-1.1,2.8-2.3,5.6-3.7,9v-0.1c0,0.1-0.1,0.2-0.1,0.3c-0.1-2-0.2-3.6-0.3-4.9
		c-0.2,0-0.4,0-0.5-0.1c-2.3,7.1-4.6,14.2-7.2,22.2c0.3-0.4,0.6-0.8,0.9-1.1c1.9-2.4,3.3-4.4,4.8-6.3c0,0,0-0.1,0.1-0.1l0.1-0.1
		c0.3,0.2,0.9,0.5,1.3,0.7c-2.3,4.6-4.6,9.2-6.9,13.6v-0.1c0,0.1-0.1,0.1-0.1,0.2c-0.2-1.1-0.4-3-0.7-4.9c-0.2,0-0.5,0-0.7-0.1
		c-0.9,3.3-1.8,6.5-2.7,9.8h-0.1c0,0.1,0,0.1,0,0.2c-0.5-0.2-1.1-0.4-1.4-0.5c0.4-2.8,0.1-6,1.3-8.5c4.6-9.4,6.4-19.7,9.7-29.5v-0.1
		c0.1-0.3,0.3-0.7,0.5-1c0.4-0.7,0.9-1.4,1.4-2.1c0,0,0-0.1,0.1-0.1c-3.9,0-12.8,0-26.7,0l-0.1,45c12.9-0.7,26.2-0.7,40.2-0.6
		c1.1-2.3,2.3-4.5,3.4-6.8c-0.2-1.1-0.4-2.4-0.7-3.2c-1.8-2.8-1.4-5.2,0.5-7.5c0-0.2-0.1-0.5-0.1-0.7c1.3-1.5,2.7-2.9,4.3-4.7
		c0.1,0.1,0.3,0.2,0.4,0.4c0.1,0.1,0.2,0.2,0.3,0.3c0.9,0.7,1.7,1.4,2.3,2.2c0.1,0.1,0.2,0.2,0.3,0.3c1.2-1.2,2.8-2.3,3.6-4
		c2.5-4.7,4.7-9.6,7.1-14.4c0.1,0.3,0.2,0.6,0.2,0.9c0.1-0.2,0.2-0.4,0.3-0.5c0.5-2.8,0.6-5.8,3.8-8.3c-0.2,3-1.2,5.8-0.4,7.5
		c0.3,0.7,0.6,1.4,0.8,2c0-10.4,0-20.8,0-31.4c-0.3,0.6-0.7,1.3-1,1.9c0-0.1,0-0.2-0.1-0.3c-0.1,0.1-0.1,0.2-0.2,0.3
		c-0.2-0.8-0.4-2.1-0.7-3.4c-0.2,0-0.5-0.1-0.7-0.1c-0.8,2.7-1.7,5.4-2.5,8.2c-0.1,0-0.2,0-0.2,0c-0.1-0.1-0.4-0.1-0.7-0.2
		c0-2.4-0.6-5,0.1-7.1c1.9-5.2,4-10.2,6-15.3c0-5,0-10,0-15.1c-0.2-1.1-0.2-2.1,0-3.1c0-11,0-22.2,0-33.4c-1.1,0.7-2.3,1.1-3.3,1.2
		c1.2-1.7,2.3-3.2,3.3-4.6c0-4.2,0-8.4,0-12.7c-1.1-0.9-2.4-1.6-4-1.9C197.6,52.8,193.7,55.6,192.7,58.2z"/>
	<path class="st0" d="M163.4,79.4c0-0.5,0.1-0.9,0.2-1.4c0.4-1.8,1.1-3.3,2.5-4.6c0.4-0.3,0.8-0.7,1.2-1c1.8-1.2,2.9-3.8,4.3-5.1
		c0.3,0.1,0.7,0.3,1,0.4c-1.3,3.1-2.6,6.2-4,9.3c0.2,0.2,0.4,0.5,0.5,0.8c2.7-1.9,5.4-3.8,8.3-5.9c-1.9,6.5-6.9,9.5-11.2,7.5
		c-1.2,1.5-2,2.2-2.8,3.1C163.4,81.4,163.3,80.4,163.4,79.4z"/>
	<path class="st0" d="M171.8,100.1c-2.7,2-5,4.3-7.4,6.6c0,0.9,0,1.9,0,3.3c0,0-0.1,0-0.1-0.1c0,0,0,0,0,0.1c-0.8-0.6-1.4-1-2-1.1
		c-2.5-0.4-3.4,3.5-5.4,3.6c-4.5,0.3-4.1,4.1-5.9,6.7c0-0.1,0-0.1,0-0.1l-0.1,0.1c-0.9-6.3,0-7.7,5-9.6c1-0.4,2.2-1,2.7-1.9
		c0.6-1,1.1-1.6,1.8-1.9c0.5-0.3,1.1-0.3,1.7-0.2c0.6,0.1,1.4,0.4,2.3,1.1c0.1-0.9,0-1.8,0.4-2.4c1.8-2.5,3.8-4.8,5.6-7.3
		s3.4-5.1,5.5-7.5C175.3,93.3,175.8,97.4,171.8,100.1z"/>
	<path class="st0" d="M173.1,138.7c0.9-9.3,6.2-17.1,9.5-25.7C181.5,122.3,176.7,130.3,173.1,138.7z"/>
	<path class="st0" d="M197.8,176.8c-0.1,0.2-0.2,0.5-0.4,0.7c0,8.3,0,18.1,0,29.1c0.1,0,0.2,0,0.4,0c0-5.6,0-11.2,0-16.9
		c-0.1-0.3-0.2-0.8-0.2-1.2c0-0.6,0.1-1.2,0.2-1.8C197.8,183.4,197.8,180.1,197.8,176.8z"/>
	<path class="st0" d="M197.5,34.7c-0.6-0.6-1.8-0.7-2.7-1c-0.3,1.1-0.3,2.6-1,3c-0.1,0-0.1,0.1-0.2,0.1c1.9,0,3.8,0,5.7,0
		C198.6,36.3,198,35.6,197.5,34.7z"/>
	<path class="st0" d="M166.1,36.8c-2.7,0-5.3,0-7.8,0c-4.7,0-9.4,0-14.1,0c-0.2,0.3-1.2,0.1-1.8,0.2c-0.1,0.5-0.1,1-0.1,1.6
		c7.8,0,15.6,0,23.1,0C165.7,38,165.9,37.4,166.1,36.8z"/>
	<path class="st0" d="M157.8,22.1c2.4,0.1,5.2,0.1,8.5,0.2c0.3-5.4,1-11.1,1.4-16.7c-1.8-1.2-3.1-1.2-4.1,1c-0.3,0.5-0.6,0.9-1,1.3
		c-0.3,0.4-0.5,0.7-0.8,1c-0.2,0.2-0.3,0.4-0.5,0.7c-2.1,2.4-4.1,4.8-6.3,7.1c-1.7,1.8-3.7,3.3-5.5,4.9c0,0,0.1,0.1,0.3,0.1
		C150.7,21.8,153.4,21.9,157.8,22.1z"/>
	<path class="st0" d="M203.6,175.4c-0.4,1.9-1.2,3.8-1.9,5.7c-0.4,2.3-1.1,4.6-1.8,7.7c0.5,0.4,1.5,1.2,2.8,2.5
		c0.3-0.5,0.6-0.9,0.9-1.4C203.6,185.1,203.6,180.2,203.6,175.4z"/>
	<path class="st0" d="M222,22.9c-1.6,0.9-2.8,2.2-3.2,3.6c4.1-0.5,7.8-1.5,11.1-3.5C227.2,22.9,224.6,22.9,222,22.9z"/>
	<path class="st0" d="M416.3,24.6c-0.7,0.8-1.3,1.6-2.3,2.8c0,0.1,0,0.2,0.1,0.3c1-1.3,1.7-2.1,2.4-3c1.8,5,1.7,5.1-3.4,5.8
		c-0.6,0.1-1,1-2.2,2.3c4.6,0,8.6-0.1,12.4,0c0.1-3.3,0.3-6.2,0.4-8.6c-2.5,0-4.9,0-7.3,0C416.4,24.3,416.3,24.4,416.3,24.6z"/>
	<path class="st0" d="M317.7,27.6c-0.1,0-0.1,0.1-0.2,0.1c-0.8,3-1.7,5.9-2.5,8.9c18.5,0,36.8,0,55-0.1c0.3,0,0.5,0,0.8,0
		c2.5-0.4,5-0.7,7.5-1.1c2.7-0.4,5.4-0.8,8.1-1.3c0-3.4,0-6.8,0-10.2c-23.9,0-46.3-0.2-67.2-0.3C318.7,24.9,318.2,26.3,317.7,27.6z"
		/>
	<path class="st0" d="M197.8,223.7c-0.1,0-0.2,0-0.4,0c0,20.8,0,45,0,71.9c0.7,0.5,1.3,1,1.8,1.7c0.9,1.1,1.5,2.4,2.1,3.4
		c0.8-1.1,1.5-2.3,2.3-3.4c0-0.6,0-1.1,0-1.7c-1.9,0-3.9,0-5.8,0C197.8,272.3,197.8,248.3,197.8,223.7z"/>
	<path class="st0" d="M226.8,38.6c-0.1-0.2-0.3-0.4-0.4-0.5c-0.4,0.1-0.7,0.3-1.1,0.5C225.8,38.6,226.3,38.6,226.8,38.6z"/>
	<path class="st0" d="M167.7,36.8c0.1,0,0.2,0,0.2,0c0.3-1.3,0.5-2.6,0.8-3.8c0.1-0.6,0.3-1.5,0.7-1.7c3.3-1.6,2.2-3.9,1.2-6.3"/>
	<path class="st0" d="M168,36.8c-0.1,0.6-0.2,1.2-0.4,1.8c5,0,9.9,0,14.7,0c-0.6-0.5-1-1-1.5-1.7c0.9,0,1.8,0,2.7,0
		c-1.4-1.4-2.5-3.5-3.3-6.2c-1-3.5-1.2-8.1-6.4-8.3c-0.1,0-0.2,0-0.3-0.1c-0.8,0-1.6,0-2.4,0c-0.2,0.8-0.4,1.6-0.7,2.5"/>
	<path class="st0" d="M447.2,24.3c-0.3,3.8-0.6,7.6-0.8,11.4c0.4,0,0.8,0,1.2,0V24.3C447.5,24.3,447.3,24.3,447.2,24.3z"/>
	<path class="st0" d="M425.5,24.2c0.1,2.4,0.2,5.3,0.4,8.6c0.2,0,0.4,0,0.6,0c1.8,0.1,3.5,0.7,5.2,1.1c-0.5,1.2-1.2,1.7-2,1.9
		c1.1,0,2.2,0,3.3,0c0.1-1.7,0.3-3.4,0.4-5.1c0.3-2.1,0.6-4.3,0.9-6.4c-1.1,0-2.2,0-3.3,0C429.1,24.2,427.3,24.2,425.5,24.2z"/>
	<path class="st0" d="M197.4,38.6c-0.1,0.2-0.1,0.4-0.2,0.6c-1.1,3.3-2,6.3-3,9.3c0.4,1.6,0.5,2.9,2.5,2.3c4-1.1,6.2-4.3,6.4-8.9
		c-1.1-0.9-2.4-1.8-3.7-2.7c-0.3-0.2-0.6-0.4-0.9-0.6c-0.3-0.2-0.6-0.4-0.9-0.6C197.5,38.2,197.5,38.4,197.4,38.6z"/>
</g>
</svg>
