<?xml version="1.0" encoding="utf-8"?>
<!-- Generator: Adobe Illustrator 22.0.0, SVG Export Plug-In . SVG Version: 6.00 Build 0)  -->
<svg version="1.1" id="Layer_1" xmlns="http://www.w3.org/2000/svg" xmlns:xlink="http://www.w3.org/1999/xlink" x="0px" y="0px"
	 viewBox="0 0 449.8 305.4" style="enable-background:new 0 0 449.8 305.4;" xml:space="preserve">
<style type="text/css">
	.st0{fill:none;stroke:#000000;stroke-miterlimit:10;}
</style>
<path class="st0" d="M435.7,155.8c-0.3-1.4-0.6-2.9-1.3-4.2c-0.7-1.5-0.6-2.4,0.5-3.8c0.9-1.1,1.6-2.3,2.3-3.5
	c-0.1-2.4-0.4-4.9-1-7.3c-1.5-0.9-2.9-1.9-4-3.2c-0.6-0.1-1.1-0.3-1.7-0.4c-1.9-0.5-2.6-1.9-2.6-3.8c0-2,0-4,0-5.4
	c0-0.6-0.1-1.2-0.1-1.7c-1.2-1.5-2.5-2.9-3.9-4.2c-0.4,0.6-1.1,1.1-2.2,1.2c-0.8,0.1-1.6,0.4-2.4,0.6c-0.1,0-0.2,0.1-0.3,0.1
	c-0.6,2-3,3.2-5,3.1c-0.4,0.9-1,1.7-1.2,2.6c-0.6,2.2-2,1.9-3.8,2c-5.2,0.2-9.8,1.6-11.9,7.2c-0.4,1-1.7,1.8-2.8,2.2
	c-4.2,1.4-6.8,4.7-6.3,9c0.3,3,1.5,5.9,2.1,8.9c0.2,0.9-0.1,2-0.4,2.8c-0.8,1.9-1.8,3.8-2.8,5.7c-0.4,0.7-0.9,1.4-1.5,1.8
	c-2.9,2.1-5.9,4.2-9,6.1c-0.5,0.3-1.6-0.1-2.2-0.4c-1.2-0.6-2.4-1.4-3.4-2.3c-1-1-2.3-2.1-2.6-3.3c0-0.2-0.1-0.3-0.1-0.5
	c-3.1,3.1-7.1,5.1-11.7,6.3c-2.2,0.6-4.9,0.9-7.4,1.5c-0.3,0.4-0.8,1-1.4,1.4c-1.5,1-3.2,1.7-4.7,2.7c-0.7,0.4-1.2,0.7-1.7,0.8
	c-1.1,1.5-2.7,2-4.2,1.9c0.3,1.3,0.3,2.7,0,4.2c-0.4,2.1-1.4,4-2.4,5.8c-0.1,0.1-0.1,0.3-0.2,0.4c-0.2,1.7-0.4,3.5-0.6,5.2
	c-0.1,0.5-0.4,1-0.7,1.6c-0.5,1.5-1.8,2.8-3.3,3.3c-0.1,0.5-0.7,0.8-1.5,1c-0.9,0.2-1.8,0.2-2.7,0.3c-7.7,1.4-12.3,9.6-9.6,17
	c0.6,1.6,0.4,2.6-0.8,3.7c-0.7,0.7-1.1,1.7-1.7,2.4c-0.5,0.5-1.3,1-1.9,0.8c-0.5-0.1-1-0.9-1.4-1.5c-0.6-1.1-1.2-2.2-1.5-3.3
	c-0.4-1.3-0.8-2.7-0.7-4c0.4-3.6,0.2-7-1.7-10.1c-1.6-2.7-3.9-4.2-7.2-4.2c-1.2,0-2.4-0.1-3.4-0.4c-2.5-0.8-2.8-1.8-2-4.4
	c0.5-1.7,0.6-3.6,0.7-4.8c0-0.8,0-1,0-1.1c-0.8-3.1-0.3-5,3-7c4-2.4,6.1-6.7,5.8-12c-0.2-3.4,0.6-6.9,1-10.3
	c0.1-0.6,0.7-1.1,1.2-1.5c1-0.9,2.2-1.6,3-2.7c0.6-0.9,1.3-1.5,2-1.8c1.2-3,2.8-6.1,3.7-9.2c-0.9-0.4-1.1-1.2-0.9-2.9
	c0.4-5.6-1.9-9.9-5.7-13.8c-0.7-0.8-1.3-1.8-1.7-2.8c-1.7-2.2-3.3-4.5-4.9-6.8c-0.1-0.1-0.2-0.3-0.2-0.4c-0.7-0.4-1.4-0.7-2.2-1
	c-1-0.3-1.6-0.7-1.9-1.2c-1.4,0.6-3.1,0.3-4.4-0.5l0,0c-0.3,0-0.7,0-1,0c-0.1-0.4-0.2-0.8-0.3-1.1c-0.9-1-1.4-2.4-1.2-3.9
	c-0.3-0.9-0.5-1.7-0.8-2.6c0-0.2,0.2-0.5,0.3-0.6c2.7-2.5,3.4-6,4.6-9.3c0.2-0.5,0.4-1.2,0.8-1.5c0.4-0.4,1.1-0.5,1.7-0.7
	c0.1,0.4,0.2,0.7,0.3,1.1c1-0.7,2.1-1.2,3.4-1.7c0.1,0,0.2,0,0.2-0.1s0-0.2,0-0.2c0-0.7,0-1.7,0.4-2.2c1.5-1.8,3-3.5,4.6-5.2
	c0.8-3,1.1-6.2,1-9.3c-0.3-5.9-3.1-9.8-6.3-14.5c-2.2-3.1-5.3-7.2-7.6-11.5c-0.3,0-0.6,0-0.9,0.1c-1.2,0.2-2.4,0.6-3.7,0.6
	c-0.6,0-1.6-0.3-1.9-0.7c-0.2-0.4,0.1-1.3,0.4-1.9c0.7-1.4,1.7-2.7,2.4-4.1c0.8-1.7,0.5-3.1-0.8-4.6c-0.6-0.7-1.2-2.6-0.9-2.9
	c0.4-0.4,1-0.7,1.5-0.9c-1.4-7.5,2.7-16.6-2.5-22.8c-3.7-4.4-9.4-10.2-15-11.9C260,2.1,245.6,11.5,246.6,23c0.1,0,0.2,0.1,0.4,0.1
	c1.6,0.4,1.6,1.1,1.4,2.5c-1,5.3-2,10.7,1.7,15.6c0.4,0.6-0.1,2.1-0.5,3c-0.8,1.7-2.1,3.3-2.9,5.1c-0.8,1.7-2.1,2.5-3.7,2.9
	c-0.5,1-1,2.1-1.6,3.1c-0.1,0.5-0.2,0.8-0.3,1.1c-1.4,2.5-1.8,4.8,0.2,7.2c0.3,0.3,0.5,0.8,0.4,1.1c-1.2,3-1.8,6.3-3.7,8.7
	c-2.4,3.1-3.2,6.4-3.5,10c-0.1,0.9-0.5,2-1.1,2.4c-0.5,0.4-1.8,0.2-2.5-0.2c-5.9-3.4-11.6-4.3-17.8-0.5c-5.6,3.4-10.2,7.6-13.1,13.5
	c-3.7,7.4-4.2,15.3-3,23.3c0.2,1.4,1.7,2.5,2.5,3.9c0.7,1.2,1.5,2.6,1.5,3.9c-0.1,3.3-0.3,6.5,2.8,8.9c0.4,0.3,0.1,1.4,0.1,2.1
	c-0.7-0.2-1.4-0.3-2.1-0.6c-0.1,0-0.2-0.1-0.2-0.1c0,0.1,0.1,0.2,0.1,0.3c0.7,1.9,0.3,3.6-0.6,5.4c-0.6,1.1-1.3,2.1-2.2,3
	c0.1,0,0.2,0,0.3,0.1c0.7,0.2,1.3,0.8,1.7,1.1c0.1,2.2-2.4,4.8-4.8,5.1c-0.5,0.1-1.2-0.3-1.8-0.7c-0.4,1-1.1,1.9-2.1,2.4
	c-0.2,0.1-0.4,0.2-0.5,0.3c0.1,1.2-0.7,2.1-2.3,2.4c-0.3,0.5-0.6,1-0.8,1.6c-0.3,0.7-0.4,1.5-0.4,2.2c0.3,0.4,0.6,1,1,1.5
	c-0.7,1.2-1.1,2.3-1.9,3c-0.1,0.1-0.5,0-0.9-0.3c-0.8,0.7-1.7,1.2-2.7,1.6c-0.1,0-0.1,0-0.2,0.1c0.3,0.5,0.4,1.1-0.3,1.8
	c-1.2,1.3-2.2,1-3.6,0.1c-2.1-1.4-4.4-2.4-6.7-3.5c-0.7-0.4-1.4-0.8-2.2-1.2c-1.4-0.6-2.8-1.6-4.3-1.7c-1.3-0.2-2.4-0.5-3.2-1.3
	c-0.7,0.5-1.7,0.8-2.8,0.8c-0.4,0-0.7,0-1-0.1c-0.2,0.5-0.6,0.9-1.3,1c-0.5,0.1-1.8-1.2-2.1-2c-2.1-6.2-4.1-7.7-10.6-7.9
	c-0.6,0-1.3-0.4-1.8-0.8c-0.4,0.1-0.7,0.2-1.2,0.4c-0.8,0.3-1.5,0.3-2.3,0.1c0,0.1,0,0.2,0.1,0.4c-0.3,0.3-0.7,1.3-1.4,1.5
	c-0.5,0.2-1.4-0.5-2-0.9c-3.5-2.4-2.3-5.8-1.7-8.9c0.2-0.8,1.5-1.4,2.4-2.1c0.2,0.4,0.5,0.7,0.8,1.1c0.5-0.3,1-0.6,1.5-0.8
	c0.1,0,0.1,0,0.2-0.1c0.4-1.2,1.3-2.2,2.4-2.8c0.3-1,0.8-2.1,1.4-3.1c0.5-0.8,1-1.3,1.6-1.4c-0.8-2.3,0-5.2,2.4-6.3
	c-0.3-4.5-0.7-9-0.5-13.5c0.2-6.6-3.4-10.3-8.5-13.3c-0.7-0.4-1.5-0.8-2.1-1.3c-2.7-2.5-5.9-1.9-9-1.3c-3.1,0.6-5.9,2-8.3,4.1
	c-1,0.9-2.1,1.1-2.9,0.4c-0.2,0.2-0.4,0.3-0.6,0.4c0,0-0.2,0.2-0.4,0.3c-0.1,0.1-0.3,0.2-0.3,0.3c-0.4,0.3-0.7,0.7-1,1l0,0
	c-0.1,0.2-0.3,0.4-0.4,0.6c-0.1,0.1-0.1,0.2-0.2,0.3c-0.1,0.2-0.1,0.4-0.1,0.5c-0.5,1.6-1.6,2.8-3.1,3.3c-1.3,2.6-2.3,5.3-3.5,7.9
	c-0.9,2.2-0.8,4.4,0,6.8c1.1,3.6-1,6.4-3,9.1c-0.2,0.3-1.3,0.1-2,0c-2.2-0.4-4.4-0.8-6.6-1.3c-0.9-0.2-2.1-0.5-2.5-1.1
	s-0.3-2,0.1-2.7c0.9-1.5,2.4-2.7,3.4-4.2c0.9-1.3,1.8-2.7,2-4.1c1-6.3-3.3-15.1-10-17.2c-0.2-0.1-0.4-0.3-0.7-0.5
	c0.2-0.5,0.3-0.9,0.5-1.2c5.3-6.2,3.7-12.7,0.3-19c-0.1-0.1-0.1-0.2-0.2-0.3c-1.4-0.9-2.9-1.8-4.4-2.7c-4-2.5-7.4-5.6-9.8-9.6
	c-1-0.7-2.2-1.3-3.6-1.5c-1-0.2-1.6-0.7-1.9-1.4c-0.9,0-1.9-0.1-2.9-0.1c-0.6,0.4-1.5,0.5-2.8,0.7c-1.3,0.1-2.5,0.6-3.8,1
	c-1,0.2-1.8,0.3-2.3-0.2c-0.7,0.3-1.2,0.7-1.7,1.2c-0.3,0.3-0.5,0.5-0.8,0.7c-0.4,2.9-1.9,5.5-4.3,7.9c-4.1,4.3-6.8,9.2-5.4,15.5
	c0.3,1.5-0.2,2.5-1.8,3.3c-3.1,1.5-4.8,4.4-6.3,7.5c-1.8,3.6-1.9,3.5-5.5,1.8c-0.9-0.4-2.2-0.8-3-0.4c-1.3,0.5-2.1,0.3-2.9-0.3
	c-0.3,0.3-0.6,0.6-1,0.8c-0.2,0.1-0.4,0.2-0.5,0.3c-0.2,0.2-0.4,0.3-0.6,0.5c0.4,0.8,0.6,1.6,0.3,2c-0.9,1.4-2.7,2.9-4.3,3.2
	c-5.7,0.9-7.3,2-8.9,7.4c-0.9,3.3-1.8,6.6-2.4,9.9c-0.6,3.6,0.5,6.5,3.6,8.7c1.6,1.1,2.4,2,2.4,3c0.6,0.5,1,1.2,1.4,2.1
	c0.1,0.3,0.2,0.5,0.3,0.8c0.5-0.2,1.1-0.4,1.6-0.6c0.2,0.9,0.4,1.7,0.5,2.6c0.1,0.9-0.2,2,0.3,2.7c2.2,3.1,4.6,6.1,7,9.1
	c1.2,1.5,2.7,2.7,3.6,4.3c2.2,3.9,6.1,5.8,10.5,4.9c0.7-0.1,1.5,0.2,2.2,0.3c-0.4,0.6-0.6,1.3-1.1,1.8c-1.4,1.7-3.1,3.3-4.3,5.1
	c-0.9,1.4-1.9,1.6-3.4,1.2c-3.9-1.1-7.7-2.2-12-1.6c-0.3,0-0.5,0-0.7,0c-0.2,0.1-0.5,0.1-0.7,0.2c-1.3,0.3-2.7,0.3-4,0.4
	c-0.1,0.8-0.4,1.6-0.9,2c-3.1,2.3-5.2,5.1-5.9,8.9c-0.2,0.8-0.6,1.5-1,2.3c-0.1,0.2-0.2,0.3-0.2,0.5c-0.1,0.3-0.3,0.7-0.5,1
	c0,0.1,0.1,0.1,0.1,0.2c0.9,1.6,1,3.8,0.4,5.5c2.4,1.9,2.6,3.7,0.9,6.3c-4.1,6.4-3.5,14.9,1.6,20.6c2.1,2.4,4.8,4.3,8.3,3.7
	c2.5-0.4,3.5,0.9,4.3,2.8c1.6,3.9,3.3,5.1,7.5,5.1c1.4,0,3.3-0.3,4.1,0.4c1.5,1.5,2.3,3.6,3.3,5.5c0.2,0.3-0.3,1.2-0.8,1.5
	c-0.2,0.2-0.5,0.3-0.8,0.3c8.1,1.8,19-5.7,26.2-6.2c6.3-0.4,9.6,4.5,15.4,5.4c6.6,1,11.7,1.6,17,6c4.9,4,9.3,5.2,14.4,3.2
	c-0.1-0.3-0.2-0.6-0.2-0.9c-1.3-0.1-1.8-1-1.4-2.7c0.8-3,0.3-5.1-2.3-6.8c-0.6-0.4-0.7-2.1-0.6-3.2c0.1-1.1,0.9-2.1,1.3-3.2
	c0.2-0.6,0.6-1.7,0.3-2c-0.4-0.4-1.6-0.7-2-0.4c-2.1,1.5-4.1,1.2-5.6-0.6c-1.6-1.9-2.7-4.3-1.8-7c2.4-7.6,9.5-13.1,18.3-11.4
	c2.2,0.4,4.2,2.5,6.2,3.9c0.9,0.7,1.6,2.2,2.8,1c0.6-0.6,0.5-2.4,0-3.2c-2.6-3.8-6.1-6.1-11-5.8c-6.1,0.4-11.6,2.2-15.9,6.7
	c-3.4,3.6-4.8,8.1-4,13.1c0.4,2.8,2.1,4.9,4.6,6.2c1.8,1,2.7,2.2,2.5,4.4s1,3.7,2.9,4.8c0.6,0.3,1,1.1,1.4,1.7
	c-0.8,0.2-1.6,0.5-2.5,0.7c-0.3,0.1-0.7-0.1-0.9-0.3c-2.1-1.8-4.6-2.4-7.3-2.8c-3.1-0.4-6.2-2.1-9.3-2.2c-4.8-0.1-8.4-2.3-11.2-5.6
	c-3.3-4-7.2-3.6-11.5-2.3c-3.1,0.9-6.3,1.7-9.4,2.7c-1.9,0.6-3.7,1.3-5.5,2.3c-3.6,2-8.4-0.2-8.8-4.4c-0.4-3.6-1.3-7.2,1.3-10.5
	c0.5-0.7,0.3-2.3-0.2-3.3c-1.3-2.7-1.5-5.2,0.5-7.7c2.6-3.2,4.4-7.1,9.3-7.5c0.7,0,1.5-0.5,2-1c0.4-0.4,0.7-1.1,0.6-1.6
	c-0.1-0.3-0.9-0.8-1.4-0.8c-3.2,0.4-6.2,0.7-8.9,3.2c-3.3,3.2-5.9,6.7-7,11.2c-0.3,1.1,0,2.5,0.5,3.5c0.9,1.5,0.8,2.7,0,4.2
	c-0.7,1.3-1.2,2.8-1.4,4.2c-0.5,2.9-3.1,4.2-5.4,2.4c-1.4-1.1-2.5-2.8-3.3-4.5c-1.3-2.7-2.2-3.7-4.9-2.7c-4.1,1.6-6.4-1.1-7.8-3.4
	c-2-3.4-3.7-7.3-2.2-11.6c0.4-1.1,0.8-2.3,1.6-3.1c2.1-2.2,1.8-4.6,1.2-7.2c-1.5-6.5-0.4-12.4,4.8-16.8c3.5-3,7.9-3.2,12.3-1.8
	c1.1,0.3,2.1,1,3.2,1.4c2.5,1,3.8,0.1,5.3-2.1c1.3-2.1,3.1-4.1,5-5.7c0.7-0.6,2.6-0.7,3.3-0.2c0.8,0.5,1.5,2.4,1.2,3.1
	c-1.3,3-0.1,5.7,0.2,8.6c0.3,2.8,2.6,3.9,5,4.7c3,0.9,3.1,1,2.4,4.2c-0.6,2.6-0.1,4.9,1.7,6.7c0.7,0.7,2,1,3.1,1.2
	c0.4,0.1,1.3-0.5,1.5-1s-0.1-1.4-0.6-1.7c-2.7-1.7-2.4-4.2-1.6-6.7c0.8-2.3,0-3.7-1.9-4.7c-0.1,0-0.2-0.1-0.2-0.1
	c-1.8-1.6-5-1.3-5.4-4.5c-0.6-4.9,0.1-9.5,3.5-13.3c3.1-3.4,3.3-4.6,1.3-8.9c-1.1-2.4-1.1-4.9,0-7.3c3.1-6.4,6.9-11.8,15.1-11.9
	c0.6,0,1.1-0.7,1.6-1.1c-0.5-0.3-1-0.9-1.5-1c-5.5-0.8-10.5-0.1-13.8,5.1c-1.5,2.3-3.2,4.4-4.5,6.8c-2.1,3.9-1.7,8,0,12
	c0.6,1.5-2.2,7-3.5,6.6c-1.5-0.4-3.2-1.7-3.8-3.1c-1-2.3-2.2-2.5-4.3-1.9c-5.1,1.6-6.9,0.8-10-3.6c-0.7-0.9-1.3-2-2.3-2.6
	c-5.4-3.1-3.5-6.9-1.2-10.5c0.4-0.7,1.2-1.3,1.3-2c0.1-0.7-0.3-1.6-0.8-2.1c-0.2-0.2-1.5,0.2-1.8,0.6c-1.1,1.3-2,2.9-3.1,4.2
	c-0.4,0.5-1,0.8-1.5,1.1c-0.4-0.6-0.8-1.2-1-1.8c-0.2-0.4,0-1,0-1.5c0.1-2.7-0.9-4.6-3.4-5.8c-3.7-1.7-6.6-4.7-6.8-8.7
	c-0.2-3.8,0.3-7.9,2.6-11.5c1.3-2.1,2.7-3.4,5.5-3.6s5.4-1.2,6.9-4.2c0.6-1.2,3-2.9,3.3-2.7c1.9,1.4,5.3,0.6,5.5,4.5
	c0.1,2,0.3,3.5-1.1,5.2c-1.2,1.4-2.1,3.3-2.6,5.1c-0.2,0.9,0.9,2.1,1.5,3.2c0.7-0.7,1.7-1.3,1.9-2.1c2-7,9.2-9.8,15.1-5.7
	c2.6,1.8,3.2,1.4,5.3-0.9c1.3-1.4,3.2-2,4.8-3.1c0.7-0.5,1.2-1.2,1.9-1.9c-0.8-0.6-1.7-1.7-2.3-1.5c-2,0.5-4,1.2-5.6,2.4
	c-1.4,1-2.3,1.4-3.8,0.4c-2.7-1.9-5.4-2.1-8.5-0.8c-2.8,1.2-3.9,0.3-3.8-2.7c0.1-4.2,3.7-8.8,7.9-10c1.2-0.3,2.4-0.7,3.6-1.1
	c2.5-0.7,2.9-2.4,1.1-4.2c-3.6-3.7-3.8-5.8-1.1-10.3c0.9-1.6,2-3.1,3.4-4.3c1.9-1.7,3-3.8,4.2-6c1-1.7,3.4-3.2,5.5-3.7
	c4-0.9,8.1-0.4,11.3,2.5c2,1.9,3.7,4.1,5.6,6.2c0.6,0.6,1.3,1.4,2.1,1.7c5.4,2,8.7,8.1,7.1,13.6c-0.5,1.6-1.1,3.2-1.9,4.5
	c-0.8,1.2-1.9,1.6-2.9-0.1c-2-3.5-5.7-4.7-9.3-5.8c-2.5-0.8-8.7,2.7-9.8,5.3c-0.2,0.4,0.9,1.8,1.1,1.7c1.1-0.3,2.2-0.7,3-1.5
	c1.8-1.9,3.8-2.4,6-1.2c2.2,1.2,5,1.7,5.5,5.1c0.2,1.1,2.3,2.5,3.7,2.7c3.6,0.5,7,1.3,8.8,4.7c1.4,2.6,2.5,5.5,2.9,8.3
	c0.5,3.8-2.7,5.9-5.4,7.8c-2.6,1.9-2.7,2.4-1.1,5.1c0.7,1.2,0.4,2.8,0.7,4.3c0.2,0.9,0.4,2.1,1,2.5c0.5,0.3,1.8,0,2.4-0.5
	c2.4-2,4.9-2.3,7.6-0.8c1.8,1,3.3,0.5,4.9-0.5c2.6-1.7,5.3-3,8.6-1.6c0.7,0.3,2-0.6,3-0.9c-0.6-0.8-1.2-1.6-1.8-2.4
	c-0.1-0.2-0.4-0.2-0.7-0.3c-2.6-0.5-4.5-1.5-3.2-4.7c0.2-0.5-0.1-1.4-0.4-1.9c-1.5-2.3-1-4.7,0-6.9c1.3-2.9,1.4-6.4,4.3-8.5
	c0.5-0.4,1.1-0.8,1.6-1.1c2.6-1.3,5.3-2.4,7.9-3.8c4.9-2.6,10.4-1.9,14.3,2.2c2.5,2.7,5.1,5.5,3.7,9.9c-0.4,1.3,0.6,3.2,1.1,4.8
	c2.3,6.5-1.8,15.2-8.4,17.2c-1,0.3-2.3-0.3-3.3-0.8c-1.2-0.6-2.1-1.6-3.2-2.3c-0.5-0.3-1.6-0.3-1.7-0.1c-0.3,0.6-0.5,1.5-0.3,2
	c0.5,0.9,1.3,1.7,2.1,2.4c2.6,2.6,3.2,5.1,1.9,8.4c-0.8,2-0.6,3.3,1.5,4.6c1.4,0.9,2.4,2.6,3.2,4.2c1.3,2.3,2.8,2.9,4.5,1.1
	c1.9-2.1,4.4-2.2,6.7-2.9c0.6-0.2,1.8,0.1,2.2,0.6c1.4,1.9,2.9,3.9,3.9,6c1,2-0.7,3.4-2.7,4.3c-4.2,1.8-8.5,3.8-12.2,6.5
	c-2.6,1.9-4.6,5-6.3,7.8s-1.2,5.9,0.1,8.9c0.3,0.7,0.8,1.4,0.7,2.1c-0.2,3.9,0.6,7.4,3.3,10.4c0.3,0.3,0.2,1.3,0,1.8
	c-0.9,2.6-2.1,5-2.9,7.7c-0.3,0.9,0.5,2.1,0.8,3.2c0.8-0.7,1.7-1.4,2.3-2.2c0.6-1,1-2.3,1.3-3.5c0.9-3.2,3-4.7,6.2-5.4
	c1.3-0.3,2.5-1.5,3.7-2.4s2.2-2.2,3.5-2.8c4.6-2.1,9,0.1,11.9,4.3c1.7,2.4,2.4,5.3,4.3,7.6c0.4,0.4,1,0.7,1.6,1
	c0.3-0.5,1-1.2,0.9-1.6c-0.3-1.3-0.8-2.5-1.3-3.8c-0.5-1.1-1.4-2.2-1.5-3.4c-0.5-3.9-4.3-7.9-8.2-7.8c-3.7,0-7.4,0.6-11,1.2
	c-1.2,0.2-2.4,1.2-3.3,2c-1.3,1.2-2.8,2.4-4.4,1.3c-1.3-0.9-2.5-2.5-2.9-4s0.1-3.3,0.6-4.8c0.4-1.5,0.2-2.7-1.1-3.4
	c-1.6-0.8-1.4-1.9-1.2-3.5c1-8,7.3-11,13.4-13.2c3.3-1.2,6.7-1.8,9.7-4.1c3.4-2.6,7.5-2.7,11.2,0.4c0.9,0.8,2.2,1.2,3.4,1.5
	c3.9,1,9,6.5,9.7,10.5c0.5,3,0.4,5.8-0.9,8.7c-1.1,2.3,0.2,3.7,3,3.4c4.1-0.5,6.5,1.5,6.9,5.7c0.1,1.2,0.3,2.5,0.7,3.6
	c0.2,0.5,1.1,1.2,1.6,1.1c0.5-0.1,1.2-0.9,1.4-1.5c1.5-5.6,0.4-8.4-4.6-11.5c-0.8-0.5-1.8-1-2.5-1.6c-0.5-0.4-0.9-1.3-0.8-1.8
	c0.9-3.8-0.7-7.2-1.9-10.6c-1.2-3.2-0.8-4.1,2.4-4.5c3-0.4,4.5-1.8,4.6-4.9c0.3-6.4,4.5-9.8,9.9-11.1c0.8-0.2,1.6-0.3,2.4-0.7
	c3.4-1.5,6.4-0.8,8.6,2.3c1.2,1.7,2.5,2.6,4.7,2.5c2.9-0.1,4,1.4,3.6,4.3c-0.5,3.5,0,4.2,3.3,4.7c2,0.3,2.7,1.5,2.8,3.5
	c0,0.8,0.8,1.5,1.3,2.3c0.8-0.7,2.1-1.2,2.4-2.1c0.9-2.4-0.3-5.4-2.6-6.4c-2.8-1.1-2.4-3.3-2.3-5.4c0.1-2.1,1.5-3,3.3-3.6
	c3.2-1.1,3.5-1.4,3-4.8c-0.5-3.1,2.5-8.1,5.4-9.4c1.6-0.7,3.2-1.7,4.7-2.7c2.4-1.7,5.2-1.6,7.9-1.4c0.8,0.1,1.6,0.6,2.4,0.5
	c0.7,0,1.4-0.5,2.1-0.8c-0.3-0.7-0.5-1.6-1.1-1.9c-3.7-2.6-9.1-2.2-13.4,0.7c-1.6,1-3.4,1.7-4.9,2.9c-3.7,3.1-6.6,6.7-7.2,11.8
	c-0.4,3.1-4.4,5.5-7.4,4.7c-2.4-0.6-4.2-1.7-6.1-3.4c-1.7-1.6-4.4-2.2-6.6-3.2c-1-0.4-2.8-0.7-2.8-1c0-1.8,0.2-3.7,0.9-5.4
	c0.3-0.8,1.6-1.3,2.6-1.9c2.5-1.5,2.6-2.5,0.4-4.5c-0.6-0.5-1.3-1.1-1.9-1.7c-2.1-2-2.6-4.4-1.7-7.1c0.8-2.5,0.2-4.2-1.8-5.9
	c-2.3-2-2.8-4.9-2.9-7.7c-0.2-7.5,1.6-14.7,6.5-20.4c2.8-3.3,7.1-5.3,10.9-7.7c1-0.6,2.6-0.7,3.8-0.4c3.1,0.8,6.1,2,9.2,2.9
	c1,0.3,2.3,0.2,3.4-0.1c1.9-0.5,3.7-1.1,5.5-1.9c0.9-0.4,1.6-1.2,2.4-1.8c-0.7-0.6-1.3-1.4-2.1-1.8c-2.1-1-2.8-2.4-1.7-4.4
	c1.1-1.8,2.6-3.4,3.8-5.1c0.7-1.1,1.3-2.3,1.5-3.5c0.6-4.3,5-7.7,9.3-7.1c1.1,0.1,2.4,0.3,3.5,0.1c0.7-0.2,1.3-1.1,1.9-1.7
	c-0.5-0.6-1-1.5-1.6-1.6c-3.2-0.7-6.4-1-9.5,0.5c-0.8,0.4-2.3,0.6-2.5,0.2c-0.5-0.8-0.8-2.2-0.4-2.9c1.1-1.9,2.7-3.5,4-5.2
	c0.5-0.6,1.1-1.1,1.3-1.7c2.7-8.1,9.2-8.5,16.3-5.4c0.8,0.4,2.4,0.3,2.9-0.2c1.1-1.2-0.1-2.1-1.1-2.7c-2.8-1.9-6-2.2-9.3-2.3
	c-3.4-0.1-5.9-1.8-6.9-5c-0.9-3-1.2-5.9,0.5-8.9c0.8-1.5,1.2-3.9,0.6-5.5c-1.5-4,0-7.1,2.2-10.1c3.3-4.4,10.9-6.5,15.7-4.1
	c3,1.5,5.5,3.6,6.2,7.3c0.4,2.1,1.4,3.7,3.7,4.7c2.6,1.1,4.6,3.1,4.4,6.1c-0.2,3.9-0.4,7.9-1.2,11.8c-0.4,1.9-2.1,3.5-3.3,5.1
	c-1.4,1.9-1.3,2.3,1,2.9c0.8,0.2,2,0.9,2.2,1.5c0.2,0.9-0.1,2.3-0.7,2.9c-0.4,0.4-1.8,0.2-2.7-0.1c-5-2-11.3-0.3-14.4,4.1
	c-0.3,0.5,0.1,1.4,0.1,2.2c0.8-0.2,1.9,0,2.3-0.5c1.5-1.6,2.9-2.9,5.4-3.1c3.5-0.2,5.9,1.5,7.7,3.8c1.6,2.1,3.3,2.8,5.8,2.4
	c2.7-0.4,5.3-0.2,6.8,2.4c0.6,1,1.1,2.3,1,3.4c-0.2,2.2,0.7,3.7,2.5,4.7c3.1,1.7,4.4,4.3,4.5,7.8c0.1,2.5,0.7,4.9,0,7.5
	c-1.4,5.3-4.3,9-9.5,10.5c-2.2,0.6-2.7,1.6-2.7,3.7c0,3.2-0.7,6.4-3.9,8c-1,0.5-2.7,0.4-3.7-0.1c-0.6-0.3-0.5-2-0.6-3.1
	c-0.3-2.4,1.1-3.9,2.2-5.8c1.9-3.3,2.3-7.1,1.1-10.8c-1.9-6-5.1-10.9-10.9-13.8s-10.9-1.2-15.9,1.9c-0.7,0.4-1.1,1.1-1.7,1.7
	c0.1,0.4,0.3,0.7,0.4,1.1c1.3-0.3,2.9-0.3,3.9-0.9c4.1-2.6,8.4-2.6,12-0.1c3.8,2.6,7.1,6.2,8.1,11c0.5,2.5,1.7,4.9,0.2,7.5
	c-1.2,2.1-1.9,2.3-3.9,1.1c-0.7-0.4-1.7-0.3-2.6-0.5c0.1,1-0.2,2.3,0.3,2.8c2.3,2.3,3.7,4.6,2.4,8c-0.2,0.5,1,2.2,1.9,2.6
	c6.8,2.5,9.5,8.8,6.6,15.5c-0.2,0.5-0.7,0.9-0.6,1.3c0.2,0.9,0.6,1.7,1,2.6c0.6-0.5,1.3-0.9,1.8-1.4c0.5-0.6,0.7-1.3,1-2
	c1.7-3.5,4.7-4.3,7.9-2c2.4,1.7,4.6,3.7,5.3,7c0.2,1.1,1.2,2.2,2.1,2.9c2.2,1.9,3.8,3.9,3.7,7c0,0.9,0.3,1.8,0.5,2.7
	c1.6,5.7-0.4,11.9-5.3,15.2c-2.2,1.5-3.4,3.4-3,5.8c0.6,3.5-1.6,5.8-2.9,8.5c-0.9,1.7-2.2,3.3-3.7,4.6c-1,0.9-2.6,1.3-3.9,1.5
	c-2,0.2-3,1.3-3.5,3c-0.2,0.7-0.1,1.5-0.2,2.2c-0.8,4-3.8,6.2-7.6,3.7c-1.8-1.2-3.2-2.5-3.7-4.9c-1-4.9-5-6.8-9.3-7.6
	c-3.2-0.6-6.6-0.2-9.9-0.1c-0.6,0-1.2,0.6-1.9,1c0,0.3,0,0.5,0,0.8c1.1,0.3,2.2,0.7,3.3,0.9c2.7,0.5,5.4,0.8,8,1.3
	c3.4,0.7,5.6,2.5,6.1,6.3c0.1,1,1.2,2.2,2.2,2.8c2.1,1.3,3.5,3,3.5,5.4c0,2.8,0,5.7-0.5,8.4c-0.7,3.2-3.1,4.6-6.4,4.9
	c-1.4,0.1-3.1,0.6-3.9,1.5c-1.8,2.1-3.3,2.1-5.6,0.9c-1.5-0.8-3.4-0.9-5.1-1c-0.5,0-1.1,0.8-1.6,1.3c0.5,0.4,1,1,1.5,1.3
	c1.4,0.7,2.9,1.2,4.3,2c2.7,1.6,3,3.1,2.2,6.1c-0.2,0.9,0,1.9,0.1,2.8c0.8-0.1,1.7,0.1,2.5-0.2c3.5-1.3,7.4,1.1,7.8,5.4
	c0.3,3.8,1.1,7.8-2.3,11c-0.2,0.2-0.4,0.6-0.5,0.9c0.1,0.8,0.1,1.6-0.3,2.4c1.2-0.4,2.6-0.5,3.4-1.3c5.3-4.8,5.5-13.7,0.6-19
	c-1.6-1.7-1.4-2.3,0.6-3.2c0.9-0.4,1.8-1.1,2.3-2c1.5-2.5,3.7-3.8,6.5-3.9c1.4-0.1,2.8,0,4.2-0.2c4.1-0.4,6.5,2.2,8.6,5
	c0.6,0.8,0.8,2.2,0.8,3.3c-0.1,2.1,0.4,3.6,2.7,4.1c0.7,0.2,1.5,0.8,2,1.4c2.8,3.5,1.7,10.5-1.9,13.2c-0.5,0.4-0.6,1.4-0.9,2.1
	c1,0.2,1.9,0.7,2.9,0.7c1.2-0.1,2.3-0.6,3.5-0.9c0.1,1.5,0.5,3,0.3,4.5c-0.2,1.3-0.4,2.4,1.1,2.8c1.5,0.4,2.3-0.5,2.6-2
	c0.8-3.3,0.8-6.4-1.6-9.2c-1.4-1.6-1.3-3.7-0.1-5.4c1.1-1.5,2.7-2.8,5-1.8c2.1,0.9,3.5-0.2,4.7-1.8c0.9-1.2,1.8-2.4,2.9-3.4
	c2.3-2,4.8-2.1,7.2-0.3c1.3,1,2.6,0.8,3.1-0.5c0.3-0.7-0.2-2.5-0.8-2.8c-2.1-0.9-4.4-1.6-6.6-1.7c-2.5-0.2-3.9-1.3-3.6-3.8
	c0.6-5,4.8-11.4,10.9-10.9c1.3,0.1,3.1-1,3.9-2.1c1.7-2.6,3.9-3.3,6.7-3.5c1.2-0.1,2.4-0.8,3.6-1.3c-1.2-0.5-2.3-1.5-3.5-1.6
	c-2.3-0.2-3.2-1.2-2.9-3.4c0.6-5.1,3-9,7.3-11.8c3.3-2.2,6.8-3.2,10.7-3.6c0.6-0.1,1.5-0.2,1.9-0.6c2.8-3.8,7.8-2.5,11.2-4.7
	c0.4-0.3,1.2-0.1,1.7,0c4.1,0.8,7,5.4,5.9,9.5c-2.1,8-0.7,11.6,6.2,16c0.7,0.4,1.5,0.8,2.3,0.8c0.7,0,1.4-0.6,2.2-0.9
	c-0.5-0.6-0.9-1.4-1.5-1.7c-6-3.1-7.4-6.6-4.8-13.6c0.4-1,0.3-2.3-0.1-3.3c-1.2-3.2-0.5-5.9,2.5-7.6c1.8-1,3.8-1.8,5.7-2.4
	c1.9-0.5,3-1.5,2.8-3.5c-0.3-4.3,2.7-6.3,5.8-8.1c1.5-0.9,3.3-2.1,4.7-1.9c2.5,0.3,4.9,1.7,7.4,2.6c1,0.3,2,0.5,2.9,0.8
	c-0.2-1.2-0.1-2.8-0.8-3.5c-1.1-1.1-2.8-2.1-4.3-2.1c-3.4,0-6.8,0.2-10,1.1c-2.8,0.8-3.7,0.5-4.6-2.7c-1.5-5.5,0.6-9.1,5.8-11.6
	c1.5-0.7,2.2-2.8,3.5-4c1.6-1.6,3.2-3.4,5.1-4.4c2.4-1.3,5.9,0.4,7.8,3.3c0.4,0.6,0.7,1.4,1.2,1.9s1.2,0.9,1.8,1.3
	c0.4-0.8,1.3-1.8,1.1-2.5c-0.4-1.3-1.2-2.5-2.1-3.6c-1.8-2.1-1.9-2.9,0-4.9c1.3-1.4,2.5-2.9,4.1-3.9c2-1.3,4-0.1,4.2,2.2
	c0.1,1.7,0.1,3.5,0.2,5.2c0.2,3.7,1.8,5.6,5.2,6.7c1.4,0.5,2.9,1,4.1,1.8c0.6,0.4,1.3,1.7,1.1,2.3c-0.6,2.4-1.7,4.5-4.1,5.6
	c-3.1,1.4-3.3,2.6-1,5c3.5,3.6,1.6,7.7-0.7,10.2c-0.4,0.5-1.6,0.4-2.5,0.4c-0.7,0-1.5-0.5-2.1-0.3c-0.6,0.1-1.4,0.8-1.5,1.3
	c-0.1,0.4,0.6,1.4,1.1,1.5c6.5,2,8.4,13.9,4.1,17.8c-1.4,1.3-2.8,2.6-4.3,3.7c-0.5,0.4-1.3,0.5-1.9,0.4c-3.8-0.5-5.4,0.4-6.4,4
	c-1.3,4.3-4.8,6.9-9.3,6.9c-0.8,0-1.7-0.2-2.3-0.7c-1.8-1.3-3.3-0.6-3.8,1c-1.5,4.3-5.3,5.7-8.8,7.6c-1,0.5-2.2,0.4-3.4,0.6
	c-1,0.1-2,0-2.9,0.4c-1.4,0.6-1.5,1.7,0,2.3c1.3,0.5,2.7,0.8,4.1,0.7c2-0.2,4-1,6-1.4c0.7-0.1,1.8,0.2,2.3,0.7
	c2.8,3.3,2.2,6.9-1.4,9.4c-1.6,1.1-3.3,2.2-4.9,3.4c-0.5,0.4-1.1,1.1-1.1,1.6c0.8,4.6-2,7.3-5.2,9.4c-3.4,2.3-6.9,5.1-11.6,4.2
	c-1.5-0.3-3.1-0.6-4.6-1.2c-1.7-0.7-2.8-0.1-3.9,1.2c-1.1,1.2-2.4,2.2-3.5,3.5c-0.5,0.6-1,1.4-1.1,2.1c-1.1,8.7-6,14.1-14.1,17
	c-0.2,0.1-0.5,0.2-0.7,0.2c-2.9,1.1-3.1,1.9-0.6,4.3c-1.1,0.2-2.2,0.7-2.6,0.4c-0.5-0.4-0.7-1.6-0.6-2.4c0.8-6.8-3.7-13.4-10.6-14.6
	c-1.9-0.3-4,0.6-6,1.2c-0.4,0.1-0.5,1.1-0.7,1.6c0.8,0.3,1.8,1,2.3,0.8c3.2-1.2,5.2,0.7,7.4,2.3c3.8,2.8,4,6.7,2.7,10.5
	c-1.8,5.5,1.2,5.8,5.1,5.2c4-0.6,7.5,1.2,8.3,5.2c0.4,2.2,0.2,4.7-0.4,6.9c-0.9,3.2-2.2,3.8-5.5,3.9c-0.2,0-0.4,0-0.5,0
	c-0.9,0.4-1.9,0.7-2.8,1.1c0.7,0.7,1.4,1.5,2.2,1.9c1.1,0.6,2.4,0.8,3.5,1.4c3.6,1.8,4.6,5.5,2.4,8.9c-0.4,0.7-0.4,1.7-0.6,2.5
	c0.9,0,2,0.3,2.7-0.1c1.8-1,3.3-2.4,3.2-4.7c-0.1-2.4,1.2-3.4,3.2-2.9c1.9,0.5,3.7,1.7,5.5,2.5c0.8,0.3,1.6,0.5,2.4,0.7
	c0.1-1,0.7-2.4,0.2-2.9c-1.2-1.3-2.8-2.2-4.2-3.3c-0.7-0.6-1.4-1.2-2.1-1.9c0.7-0.6,1.3-1.4,2.1-1.9c3.6-2.3,7.4-1.9,11.3-0.7
	c2.3,0.8,4.1,1.9,4.9,4.5c0.3,1.1,1.6,2.7,2.6,2.7c2.6,0.2,3.7,1.9,5.1,3.5c0.5,0.6,1.4,0.8,2,1.2c0.3-0.7,0.9-1.4,0.9-2.1
	c0-1.7,0.7-2.4,2-2.5c-1-0.2-2-0.5-2.9-0.8c-4.8-1.6-8.8-4.4-13.1-7.1c-5.2-3.2-9.3-4.5-14.3-0.1c-3.8,3.3-9.4,0.1-8.4-4.9
	c0.5-2.2,3.8-10.6,0.2-11c-6.3-0.7-6.4-10.7,0-10c0.5,0.1,1,0.1,1.5,0.1c2.1-1.7,4.4-3,7-3.9c0.1-1.2,0.5-2.5,1.3-3.8
	c1.1-1.6,1.1-3.9,1.7-5.9c0.3-0.8,0.5-1.8,1-2.4c0.7-3.1,4-5.2,7.3-3.3c4.7,2.6,10.2-0.9,14.3-3.3c0.1-0.1,0.2-0.1,0.2-0.1
	c0.5-0.7,1.3-1.5,2.7-2.7c2.3-2,3.7-4.4,4.5-7.2c0.7-2.5,2.3-4.1,4.6-5.3c5-2.6,6.2-7.3,3.3-12.1c-0.8-1.3-2.4-2.5-1.1-4.4
	c1.5-2.2,2.6-4.4,6.1-3.9c5.6,0.9,10.7-2.8,12.2-8.2c0.4-1.5,1.1-2.7,3.1-2.5c1.3,0.1,2.7-0.1,4-0.6c2.3-4.2,5-8.1,7.7-12
	c0-0.1,0-0.2,0-0.4c0.1,0,0.2-0.1,0.3-0.1c0.1-0.1,0.2-0.2,0.2-0.4c-0.8-2.9-1.7-5.8-2.3-8.8c-0.2-1.1-0.1-2.5,0.5-3.4
	C434.2,161.4,436.3,159.1,435.7,155.8z"/>
<path class="st0" d="M298.4,177.6c-0.2,3.3-4.8,7.1-7.5,5.6C293.5,181.2,296,179.4,298.4,177.6z"/>
<path class="st0" d="M300.4,220.8c-0.2-0.4-0.5-0.9-0.5-1.3c0-8.2-11.1-13.6-17.7-11.8c-3.2,0.9-6.1,3.2-8.9,5.1
	c-2.4,1.5-4.6,3.4-6.9,5.1c-1.6-4.2,0.6-7.7,4.8-8.1c4.6-0.4,9.6-5.7,9.9-10.3c0.1-1.7,0.4-3.5,0.2-5.2c-0.1-1.7,0.7-2.3,2.2-2.8
	c1.3-0.5,2.4-1.3,3.7-2c0.8-0.4,1.8-1.1,2.3-0.8c0.8,0.4,1.5,1.4,1.6,2.3c0.4,2.9,0.1,5.7-1.7,8.1c-1.2,1.6-1.2,2.6,0.9,3.7
	c1.2,0.6,2.1,2,2.7,3.3c1.1,2.1,2.1,2.2,3.7,0.5c0.6-0.6,2-1,2.8-0.8c3.6,1,4.5,4.2,5.1,7.3C305.1,215.7,302.9,219.5,300.4,220.8z"
	/>
<path class="st0" d="M305.6,226.4c-0.7-1.3-1.2-2.1-1.5-2.9c-0.1-0.2,0.5-0.7,0.8-1c0.6,0.7,1.3,1.3,1.8,2
	C306.8,224.8,306.2,225.4,305.6,226.4z"/>
<path class="st0" d="M352,284.8c0.2-0.4,0.7-0.6,1-0.9l0.5,0.3c-0.1,0.5-0.1,0.9-0.3,1.3c-0.3,0.8-0.8,1.5-1.2,2.2
	c-0.3-0.2-0.8-0.4-0.7-0.5C351.4,286.5,351.6,285.6,352,284.8z"/>
</svg>
