<?xml version="1.0" encoding="utf-8"?>
<!-- Generator: Adobe Illustrator 22.0.0, SVG Export Plug-In . SVG Version: 6.00 Build 0)  -->
<svg version="1.1" id="Layer_1" xmlns="http://www.w3.org/2000/svg" xmlns:xlink="http://www.w3.org/1999/xlink" x="0px" y="0px"
	 viewBox="0 0 158.9 175.6" style="enable-background:new 0 0 158.9 175.6;" xml:space="preserve">
<style type="text/css">
	.st0{fill:none;stroke:#000000;stroke-miterlimit:10;}
</style>
<path class="st0" d="M151.6,47.7c-0.6-0.2-1.1-0.4-1.6-0.7c-1,0.1-2-0.1-3.1-0.7c-0.9-0.6-1.9-1.2-2.8-1.8c-0.1,0-0.2,0-0.4,0
	c-1.6,0-2.9-0.6-3.7-1.6c-0.2,0-0.4,0-0.7-0.1c-3.7-0.6-7-2.2-9.7-4.8c-0.1-0.1-0.1-0.2-0.2-0.2c-2.9-1.7-5.9-3.5-8.7-5.3
	c-0.4-0.2-0.7-0.5-0.9-0.8c-2.1-1-4-2.2-5.5-3.9c0,0-0.1,0-0.1-0.1c-6.3-4.5-12.5-9.1-18.7-13.7c-1.9-1.4-3.8-2.9-5.8-4.3
	c-4.5-3.2-9.9-3.8-15-5.2c-3.3-0.9-6.4,0.2-9.2,2.2c-0.7,0.5-1.3,0.9-1.8,1.1c-0.2,0.2-0.4,0.4-0.6,0.6c-1.8,1.5-3.7,2.7-5.9,3.7
	c-1.7,0.8-3.6,1.6-5.1,2.8c-0.5,0.4-1.1,0.8-1.7,1c-2.4,3.4-4.8,6.8-7.2,10.2c-0.3,0.4-0.7,0.8-1,1.2c-0.6,2.8-2.6,5.3-5.2,6.8
	c-0.3,1.2-0.8,2.2-1.7,3.2c-2.1,2.4-4.2,5-6.2,7.5c-0.3,0.4-0.6,0.7-1,0.8c-0.4,1.4-1.5,2.4-2.8,2.7c0.1,0.8-0.4,1.6-1.5,2.7
	c-3.9,3.9-8,7.6-11.5,11.7C9.5,66.4,6.3,70,5,74.1c-1.1,3.8,0.1,8.3,0.5,12.4c0.5,5.6,1.3,11.2,1.9,16.8c0,0.2,0,0.5-0.1,0.7
	c0.3,2.2,0.4,4.3,0.1,6.5c0.3,0.7,0.5,1.2,0.5,1.7c-0.1,4.2-0.3,8.3-0.4,12.5c-0.1,4.4-0.3,8.8-0.1,13.2c0.1,3.5,3.3,6.8,6.9,7.4
	c3.2,0.5,6.5,0.5,9.6,1.4s6.1,2.5,9,4c7.6,4.1,15.1,8.4,22.6,12.7c0.4,0.2,0.9,0.7,1.2,1.2c1,0.1,2,0.6,2.6,1.4l0,0
	c0.5-0.3,1.3-0.3,2.2,0.2c1.1,0.5,2.5,0.8,3.3,1.7c0.2,0.2,0.3,0.4,0.4,0.6c1.3,0.4,2.6,0.8,3.9,1.2c1.4,0.4,2.3,1.3,2.9,2.4h0.1
	c4.9,1.8,9,0.2,12.4-3.8c3-3.5,6.6-6.5,10.1-9.5c0.6-1.5,1.8-2.7,3.4-3.1c0.3-0.1,0.5-0.2,0.8-0.2c0.4-0.2,0.8-0.4,1.2-0.6
	c0.2-0.1,0.8-0.4,1.1-0.7c-0.1,0-0.1,0,0.2-0.2c0.2-0.2,0.3-0.3,0.5-0.5c0.7-0.7,1.6-1.1,2.4-1.3c3.8-3.5,7.6-6.9,11.5-10.3
	c0.3-0.3,1-0.4,1.5-0.4c1-1.2,1.9-2.5,2.9-3.7c3.4-4,7.4-7.4,10.4-11.8c2.9-4.2,5.1-8.8,7.2-13.5c0.5-2.1,1.1-4.2,1.6-6.2
	c0.2-0.7,0.5-1.3,1-1.4c0.2-3.9,1.2-7.7,2.7-11.3c0.6-1.7,1.1-3.5,1.7-5.2c0-0.5,0-1.1,0.2-1.6c1.7-7,3.5-14.5,7.8-20.5
	c0.1-2.4,0.9-4.6,1.9-6.9c0.6-1.5,1.2-3.1,1.5-4.7C156.6,51.1,154.7,48.7,151.6,47.7z"/>
<path class="st0" d="M10.2,71.5c0.8-1.1,1.7-2.1,2.6-3c5.2-5.7,10.5-11.3,15.6-17c1.9-2.1,3.2-4.9,5.3-6.6c4-3.2,6.1-7.8,9.2-11.6
	c2.5-3,4.5-6.5,6.7-9.9c2.7-4.2,7-6.6,10.9-9.4c2.6-1.8,5.4-3.3,8.1-5c2-1.2,5-1.4,7.5-0.6c1.3-0.9,3-1,4.7,0.3
	c7.6,5.8,17,7.3,22.3,15.6c6.6,4.6,13.1,9.1,19.7,13.7c0.7,0.5,1.4,0.9,2,1.5c2.2,2.1,4.6,3.6,7.7,4.2c2.4,0.5,4.4,2.1,6.7,3
	c3,1.1,6.1,1.9,9.2,2.9c0.4,0.1,0.8,0.5,1.2,0.7c0.1,0.3,0.1,0.6,0.2,0.9c-3.3,1.7-6.7,3.1-9.8,5c-3.7,2.4-7.3,5-10.6,7.9
	c-1.9,1.7-3.4,3.6-6.1,4.4c-5.3,1.7-9.9,4.5-13.3,9.1c-2,2.7-4.7,5-7.2,7.3c-0.7,0.7-2,1.2-2.9,1.1c-4-0.4-6.5,2.1-9.3,4.2
	c-1.3,0.9-2.2,2.3-3.4,3.3c-2.6,2.2-3.3,5-3.2,8.3c0,1-0.3,2.2-1,2.8c-2.2,2.2-4.5,4.1-6.8,6.1c-0.8,0.7-1.8,1.4-2.2,2.3
	c-1,2.3-2.8,2.9-5,3c-6.1,0.4-12.3,0.4-18.3,1.4c-5.3,0.9-10.5,2.9-15.7,4.7c-3.2,1.1-3,1.2-4.1-1.9c-1.1-3-2.6-6-3.8-9
	c-1.4-3.4-2.6-6.9-3.8-10.4c-0.9-2.5-1.5-5-2.3-7.5c-0.1-0.5-0.3-0.9-0.6-1.4c-2.7-4.3-5.5-8.6-8.3-13c-0.5-0.8-1-1.5-1.7-2.2
	C8.5,75,8.4,74.1,10.2,71.5z"/>
<path class="st0" d="M12.1,135.3c-1.5,0.5-3.1-1.1-2.4-2.7c2.5-5.8,1.2-11.9,1.5-17.9c0.2-4.7,0.4-9.5,0-14.2
	C10.7,95.2,9.6,90,8.8,84.8c-0.1-0.8-0.4-1.6-0.6-2.5L8.9,82c0.4,0.8,0.8,1.7,1.2,2.5c1.4,2.8,2.9,5.5,4.2,8.3
	c1.7,3.9,3.4,7.8,5,11.7c1.2,3.1,2.1,6.4,3.4,9.5c1.4,3.1,3.2,6,4.6,9.1c0.4,0.8,0.1,2.3-0.5,3C23.2,131.1,17.7,133.3,12.1,135.3z"
	/>
<path class="st0" d="M20.1,140c-1,0.5-2.6-0.4-3.9-0.6c0-0.2,0-0.4,0-0.6c2.7-1.3,5.4-2.4,8-3.8c1.3-0.7,2.5-1.9,3.6-3
	c2-2.2,4.2-4,7.2-4.5c1.6-0.3,2.9-1.5,4.5-2c4.4-1.3,8.8-2.9,13.4-3.6c4.9-0.8,9.9-0.7,14.8-0.8c0.5,0,1.5,1.6,1.3,1.9
	c-2.5,4.8-4.3,10.3-8,14.1c-3.4,3.5-8.9,4.6-14,2.8c-5.4-1.9-10.9-2-16.4-1.6C27.1,138.6,23.5,138.3,20.1,140z"/>
<path class="st0" d="M71.9,166.8c-0.8-0.2-1.6-0.2-2.2-0.5c-5.4-2.7-10.8-5.4-16-8.4c-4.6-2.6-9-5.6-13.5-8.3
	c-2.3-1.3-4.8-2.2-7.1-3.3c-1.5-0.7-3-1.6-4.5-2.5c0-0.3,0-0.5,0-0.8c1.9-0.3,3.8-0.9,5.6-0.8c4.3,0.1,8.6,0.2,12.6,2.4
	c3.5,1.9,7.1,0.6,10.4-0.6c3.3-1.2,5.5-0.3,6.8,3.3c0.6,1.7,1.8,3.2,2.5,4.9c2,4.1,3.9,8.2,5.7,12.4C72.5,165.1,72.1,166,71.9,166.8
	z"/>
<path class="st0" d="M152.4,56.4c-1.6,4.6-3.4,9.1-5,13.8c-2.6,7.6-5,15.3-7.4,22.9c-1.7,5.4-3.2,10.8-4.8,16.2
	c-3.2,10.1-8.4,18.8-17.1,25.4c-3.7,2.8-6.3,6.8-9.7,10c-3.2,3-6.7,5.7-10.2,8.4c-4.1,3.2-8.5,6.1-12.5,9.4
	c-1.8,1.5-3.1,3.6-4.7,5.5c-0.5,0.6-1.2,1.1-2.3,2c-1.3-3.2-2.2-6.1-3.5-8.8c-2.3-4.7-3.8-9.7-7.3-13.8c-1.7-1.9-2.9-4.2-4.2-6.4
	c-0.3-0.6-0.1-1.9,0.4-2.4c3.7-3.9,5.7-8.7,7.5-13.7c1.9-5.4,5.1-9.9,9.4-13.5c1.6-1.3,3-2.9,4.5-4.3c1.8-1.6,3.2-3.3,2.8-6
	c-0.1-0.8,0.3-1.8,0.8-2.5c2.4-3.4,5.1-6.6,9.1-8.3c0.9-0.4,2-0.6,2.9-0.4c4.9,1,9.7,2.4,14.6,3.2c1.8,0.3,3.8-0.1,5.5-0.8
	c2.4-1,4.6-1.3,6.9-0.1c0.6,0.3,1.3,0.3,1.9,0.4c1.9,0.2,3.9,0.4,6.1,0.6c0.7-1.4-0.6-2.1-1.7-2.4c-3-0.9-6.1-1.9-9.2-2.1
	c-2-0.2-4.1,1-6.2,1.4c-3.9,0.8-7.6-0.3-11-1.8c-1.7-0.7-0.9-2,0.1-3c5-5.3,10.2-10.3,17.2-13.4c4-1.8,7.4-4.9,10.8-7.9
	c2.8-2.5,5.7-4.7,9.2-6.2c2.3-1,4.5-2.4,7.3-3.9C152.6,54.9,152.6,55.7,152.4,56.4z"/>
</svg>
