<?xml version="1.0" encoding="utf-8"?>
<!-- Generator: Adobe Illustrator 22.0.0, SVG Export Plug-In . SVG Version: 6.00 Build 0)  -->
<svg version="1.1" id="Layer_1" xmlns="http://www.w3.org/2000/svg" xmlns:xlink="http://www.w3.org/1999/xlink" x="0px" y="0px"
	 viewBox="0 0 121.3 109.3" style="enable-background:new 0 0 121.3 109.3;" xml:space="preserve">
<style type="text/css">
	.st0{fill:none;stroke:#000000;stroke-miterlimit:10;}
</style>
<path class="st0" d="M106.4,27.4c-0.2,0.2-0.3,0.4-0.5,0.6c-0.3,0-0.5,0.1-0.8,0.1c0-5-2.3-7.7-7.6-7.1c0-0.2,0-0.4,0-0.6
	c-1.1,0.3-2.2,0.6-3,0.8c-1.1,0.3-2.2,0.6-3.3,0.9c-0.6,0.5-1.2,0.9-1.9,1.4c-0.9,0.6-2.2,0.7-3.2,0.5c-0.1,0-0.2-0.1-0.3-0.2
	c-7.7,2.4-15.3,5.2-22.7,8c-7.5,2.9-14.1,6.7-19.8,11.8c0.2,0.2,0.5,0.3,0.8,0.5c-0.9,0.6-1.5,1.4-1.8,1.3c-0.2-0.1-0.4-0.2-0.6-0.3
	c-1,1-2.1,2-3.1,3c-0.2,0.7-0.4,1.5-0.6,2.1c-0.3,0.9-1.1,1.2-1.8,0.5c-0.5,0.6-1.1,1.3-1.6,1.9c-0.2,0.2-0.4,0.4-0.5,0.6
	c-0.1,0.4-0.2,0.8-0.4,1c-4.5,3.4-7,8.3-9.9,13c-0.6,1-1.6,2-2.6,2.7c-0.3,0.4-0.7,0.8-1.1,1.2c0.1-0.1,0,0-0.1,0.1
	c0,0.1-0.1,0.2-0.2,0.4c-0.3,1-0.7,1.9-1.1,2.8l-0.1,0.1c-0.1,0.8-0.2,1.6-0.4,2.3c-0.6,1.6-1.4,3-1.9,4.6c-0.9,3.1,0.6,5.1,3.7,5.8
	c4.5,1,8.9,2.1,13.3,3.2c0.6,0.1,1.1,0.6,1.7,0.8c2.7,0,5.4,0,7.8,0.1c4.2-0.9,8.4-1.2,12.6-1.3c1.7,0,3.5,0,5.2-0.1
	c6.4-0.3,10.9-3.6,14.4-8.6c0.9-1.4,2-2.6,3.2-3.8c0.2-0.2,0.5-0.4,0.7-0.6c0.4-1.7,1.6-3.3,3.4-4c0.4-0.2,0.8-0.3,1.2-0.5
	c0.9-1.6,2.5-3.5,3.7-3.7c0.4-0.7,0.7-1.4,1-2.2c0.6-1.8,1.8-2.8,3.3-3.2C92,61.8,93,60.5,94,60l4-2c0.2-0.1,0.3-0.1,0.5-0.2
	c0-0.1,0-0.1,0-0.2c0.1,0,0.3,0,0.4,0c0.6-0.2,1.2-0.3,1.8-0.3c1.9-3.7,2.9-8.3,3.7-12.7c-1.4,0.4-2.1-0.2-2-2.2c0-1,0.1-2,0-3
	c-0.3-2.3,0.7-3.7,2.3-5.2c0.6-0.5,1-1.2,1.5-1.8C106.3,30.9,106.4,29.1,106.4,27.4z"/>
<path class="st0" d="M68.9,77.3c-0.9,2.6-2,5.1-3.4,7.4c-0.6,1.1-2.1,1.8-3.3,2.3c-0.8,0.3-1.8,0.1-2.7,0.1
	c-5.3,0.4-10.6,0.8-15.8,1.3c-2.9,0.3-4-0.3-3.3-3.2c1.2-5.5,3.1-10.6,7.9-14.4c4.6-3.7,9.7-6.2,15.1-8.4c4.6-1.9,8.8-5,13.2-7.4
	c1.5-0.8,3.3-1.1,4.9-1.7c0.2,0.3,0.3,0.6,0.5,0.9c-1,1.3-1.8,2.7-2.9,3.9C74.5,64,71.3,70.4,68.9,77.3z"/>
<path class="st0" d="M97.9,49.3c-0.5,3.5-2.5,6.4-5.2,8.8c-1.5,1.3-2.9,2.7-4.3,4c-3.9,3.8-7.8,7.5-11.7,11.3c-1.1,1.1-2,2.3-3,3.4
	c-0.3-0.2-0.5-0.4-0.8-0.6c0.3-0.9,0.4-1.9,0.8-2.7c2.4-4.2,4.8-8.5,7.3-12.6c1.2-2,2.7-3.9,3.9-6c0.9-1.7,1.7-3.6,2.2-5.5
	c2-6.5,6.6-11.1,11.4-16.4c0.3,1.1,0.4,1.4,0.4,1.7C98.6,39.8,98.5,44.6,97.9,49.3z"/>
<path class="st0" d="M99.2,26.4c-3,4.1-5.9,8.2-9.3,12c-2.8,3.2-4.4,6.8-5.7,10.6c-0.3,0.8-1.1,1.7-1.8,2c-3.5,1.5-7.4,2.3-10.4,4.5
	c-5.6,4-12.1,5.9-18,9c-3.7,2-7.2,4.5-10.2,7.4c-2.6,2.4-4.9,4.7-8.6,5.1c-0.3,0-0.6,0.3-0.8,0.9c1.1,0.1,2.2,0.2,3.2,0.3
	c1.6,0.2,2.5,0.9,2,2.6c-0.6,1.9-1,3.9-1.7,5.7c-0.5,1.3-1.4,2-2.9,1.5c-4.1-1.4-8.2-2.7-12.6-4.7c3.3-1.4,6.7-2.8,10-4.2l-0.2-0.9
	c-1.1,0.2-2.3,0.2-3.4,0.6c-2.4,0.7-4.7,1.6-7.1,2.3c-0.6,0.2-1.5-0.1-2-0.5c-0.3-0.3-0.2-1.4,0.1-1.8C25,72,28.1,63.7,34.5,57.6
	c5.8-5.5,10.8-11.7,16.5-17.3c2.2-2.2,5-4.4,7.9-5.4c12.5-4.1,25.2-7.8,37.9-11.5c0.8-0.2,1.9,0.2,2.8,0.3
	C99.5,24.6,99.7,25.8,99.2,26.4z"/>
</svg>
