<?xml version="1.0" encoding="utf-8"?>
<!-- Generator: Adobe Illustrator 22.0.0, SVG Export Plug-In . SVG Version: 6.00 Build 0)  -->
<svg version="1.1" id="Layer_1" xmlns="http://www.w3.org/2000/svg" xmlns:xlink="http://www.w3.org/1999/xlink" x="0px" y="0px"
	 viewBox="0 0 439 409" style="enable-background:new 0 0 439 409;" xml:space="preserve">
<style type="text/css">
	.st0{fill:none;stroke:#000000;stroke-miterlimit:10;}
</style>
<g>
	<path class="st0" d="M277,8c4.2,6.8,8.4,16.5,29,20.4C299.9,17.2,291.2,9.2,277,8z"/>
	<path class="st0" d="M306,28.4c7.9,14.4,11.4,33.9,17,50.6c8.6,25.9,13.7,51.2,22,71c1.3-3.3,2.6-6.7,3.9-10.3
		C336.4,102.4,321.7,67.2,310,29C308.6,28.8,307.3,28.6,306,28.4z"/>
	<path class="st0" d="M349,202c3.5-2.9-2.5-0.7-2-2c3.7-11.2,7.2-22.5,10.3-34c2.8,9.4,5.4,19.1,7.7,29c7.7-12.4,10.7-27.2,15-41
		c-7.6-43,9-83.8,22-126c3.2-1.7,5.8-8.3,8.6-14c2.6,1.5,4.4,3.8,5.4,5c4.5,5.6,10.5,14.4,11,19c2.7-0.1,2,1.7,4,0
		c-0.6-0.9-1.2-1.8,0-2c0.1-0.6,0.1-1.2,1-1c-1.6-3.2-2.7-3.2-3-6c-0.8-0.9-2.8-1.5-1-2c0-4.7-5.1-7.8-8-11c-1-1.1-0.5-3.3-1-4
		c-0.4-0.5-2.5,0.5-3,0c0.2,0.2-1-1.5-2.6-3.1c0.2-0.3,0.4-0.6,0.6-0.9c-0.5,0-0.9,0.1-1.4,0.1c-1.2-1.1-2.5-2-3.6-2.1
		c-26.9-3.7-31.9,50.5-40,67c0.1,0.8,0.1,1.6,0.2,2.5c-6.9,22.3-13.4,45.3-20.2,64.2c1.7,4.9,3.3,9.8,4.8,14.8
		c-3.6,11.3-7.7,22.5-12.7,33.6c1.4,4.5,2.7,8.8,4,12.8C348.1,199.4,348.2,207.2,349,202z"/>
	<path class="st0" d="M226,28.6c15.4-1,17.7-0.8,16-1.6c3.1-4.4,5.3-9.1,8-13C235.7,10.6,229.9,19.8,226,28.6z"/>
	<path class="st0" d="M217,35c0.6,0.1,1.2,0.1,1,1c1.5,0.4-0.1,0.9,0,2c1.3,0,2.7,0,4,0c1.3-2.5,2.5-5.9,4-9.4
		c-1.8,0.1-3.8,0.2-6,0.4C219.7,31.8,218.6,31.8,217,35z"/>
	<path class="st0" d="M181,95c2.4-5.5,1.1,0.4,4,2c1.7-4.3-1.4-8.1-3.4-6.7C183.2,91.2,179.8,92.7,181,95z"/>
	<path class="st0" d="M82,291.1c1.8,4.2,3.5,8.5,5.3,12.9C290.9,300.8,289.2,296.4,82,291.1z"/>
	<path class="st0" d="M7,124c0.6,1.8-1.2,5.9,1,6c20.4,44.6,48.3,105,71,161c1,0,2,0.1,3,0.1c-15-36-29.8-67.5-47-109.1
		C23.3,161.9,17.4,141,7,124z"/>
	<path class="st0" d="M85,304c4.6,11.4,8.2,23.8,15,33c-4.3-11.7-8.6-22.6-12.8-33C86.5,304,85.8,304,85,304z"/>
	<path class="st0" d="M425,142c-12.3,21.8-24.4,58.7-35,85c-1.2,9.4-4.8,16.6-9,23c-4,11.5-8,22.2-11.9,33.1
		c13.5-2.4,28.9-40.3,44.9-76.1C418.7,184.2,440.2,162.9,425,142z"/>
	<path class="st0" d="M346,236c-6.8-8.4-2.5-21.8-9-30c0.2-4.3,3.5,2.8,4-3c0.2-6.1-5.8-0.3-6-2c0-0.1-0.1-0.2-0.1-0.3
		c2.2-4.1,4.2-8.3,6.1-12.5C327,143.6,305.7,82.6,290,39c-4.9-13.7-11.4-34.5-28-33c-5.7,0.5-9.1,3.7-12,8l0,0
		c3.5,4.7,6.4,10.8,9.1,17.4c0.1,14.1,0.2,26.9,0.3,38.3c-18.7-3.4-31.8-8.8-57.4-6.7c-5.1,1.8-8.4,8-8,16c0.9,20.2,23.9,46.8,21,63
		c-2.3-11.6-8.9-24.6-16-38c1.4,4.9-0.2,1.8-2,0c0.5,2.5,1.7,3.9-2,4c0.5-2.5,1.7-3.9-2-4c-0.2,1.2-1.1,0.6-2,0
		c-1.1,4.1,0.4,6.2-1,8c-5.5-6.1-6.2-10.6-8-17c-0.1,4.2-0.7,0.2-2,0c0.1-2.7,0.8-4.2,1.6-4.7c-0.2-0.1-0.3-0.2-0.6-0.3
		c-2.8,2.8-3.7-11.9-8-10c24.5,52.6,51,118.5,78,173c3.3,8.2,6.4,20.7,12,26c5.8,21.1,21.7,47.8,30,75c-205.6-0.9-205.6-6.2,8,8
		c-0.2,4,1.5-0.3,3,2c2-3.8-0.2,4.8,2,4c1.5-4.2,2.8-8.5,6-11c0.8-1.2,1.3-2.7,1-5c0-0.3,0-0.7,0-1c-1-1.7-3.5-7.1-2-8
		c-16.8-44.2-38.8-91.8-54-130c-5.4-2.6-5.5-15.5-11-23c-1.4-1-2-2.7-3-4c-0.1-2.3-9.2-4.8-2-5c0-0.3,0-0.7,0-1
		c-2.1-0.6-3.4-1.9-4-4c1.3,0.1,1.4,1.3,3,1c-7.6-19.3-14.4-32.2-23-53c-3.3-0.7-2.4-5.6-4-8c-1.9-2.1-3.2-4.8-4-8
		c-1.7-2.7-4.9-9-4-11c-4.1-9.3-8.9-25.6,1-30c19.9-1.7,13.9-0.3,22,1c13.6,1.1,23.6,2.8,31.4,4.4c0.4,75.6-0.3,95.1-0.8,99.6
		c0.6-0.6,1.3-1.1,1.4-2.1c5.6,11.3,10.7,24.3,16,37c-1.9-21.8-25-42.8-11-65c11.9,13.8,15,37.6,26,56c2.8,13,7.6,19.9,10,29
		c1.2,9.2,4.8,16.6,9,23c13.1,32.4,22.1,68.5,35,104c8.4-10.7,10.6-32,16-48c2.7-7.9,5.4-15.5,8.1-22.9
		C360.6,284.6,352.8,272,346,236z"/>
	<path class="st0" d="M342,241c-3.6-10.7-7.3-21.9-11-33.2c0.9-1.6,1.9-3.3,2.8-4.9c0.4,1.7,0.9,3.4,1.3,5.1c-0.5,4.8,0.7,7.9,3,10
		C338,225.9,346.5,233.1,342,241z"/>
	<path class="st0" d="M433,173c-0.6-1.4-1.6-2.4-3-3c-3.6,10-9.5,25.7-16,37c-20,54.7-56,98.8-58,161c0.9,4.9-1.4,6.6-2,10
		c-0.3,0-0.7,0-1,0c-1,8.9-5.8,13.2-7,24c10.1-7.2,10.1-25.3,14-38c9.7-32.1,24.5-63.8,34-92c0.5-4.1,0.9-8.4,4-10
		c11-29.6,26.2-80.6,34-83C429.2,177.7,432.8,174.6,433,173z"/>
	<path class="st0" d="M258.6,172.1c-0.2,0.3-0.5,0.6-0.6,0.9C258.1,173.3,258.3,173.8,258.6,172.1z"/>
	<path class="st0" d="M233,102c-0.6-1.8,1.2-5.9-1-6c-1.2,10.1-2.8,19.9-5,29c4.7,9,7.7,19.7,13,28c3.5-14.1-0.5-20.8,3-32
		C237.8,116.8,240.5,102.4,233,102z"/>
</g>
</svg>
