<?xml version="1.0" encoding="utf-8"?>
<!-- Generator: Adobe Illustrator 22.0.0, SVG Export Plug-In . SVG Version: 6.00 Build 0)  -->
<svg version="1.1" id="Layer_1" xmlns="http://www.w3.org/2000/svg" xmlns:xlink="http://www.w3.org/1999/xlink" x="0px" y="0px"
	 viewBox="0 0 123.8 243.3" style="enable-background:new 0 0 123.8 243.3;" xml:space="preserve">
<style type="text/css">
	.st0{fill:none;stroke:#000000;stroke-miterlimit:10;}
</style>
<path class="st0" d="M78.9,19.2c-1.3,5.3,4.9,3.1,4,8c1.7,0,3.3,0,5,0c1.5-3.8-4.5-0.2-3-4c5.1-0.1,6.2,1.7,8-2c1.9,3.8,7,4.3,9,8
	c2.3-0.3,3.8-1.6,7-1c-0.7-3.1,1-3.6,1-6c-4-2.3-5.7-7-7-12c-0.2,0.8,0,2-1,2c-0.3,0-0.7,0-1,0c0.7-4.7-3.5-4.5-2-10
	c4.4,1.9,5.5,7.1,9,10c1.3,10.7,10.6,1.9,13,10c1.7-0.4-0.1,3.7-1,4c0-0.7,0-1.3,0-2c-2.9-0.1-5,9.7-2,9c-1.4,0.6-0.1,3.9-2,4
	c0.1-1.4,0.2-2.8-1-3c-2.6,4.1-4.3,9-7,13c-0.7-2-3-2.3-4-4c0.2-1.6,3.1-0.9,2-4c-3.7-3.6-9.2-5.5-15-7c0-0.3,0-0.7,0-1
	c-2.7,0.7,0.7-4.7-2-4c-1.3,4-4.5,6.2-9,7c2.1-6.1-3-11.8-3-19c1.3-0.1,1.4-1.3,3-1c1.8,0.2,2.3,1.7,2,4c-2,0-1.3-2.7-4-2
	C77.9,17.6,78.4,18.4,78.9,19.2z"/>
<path class="st0" d="M108.9,49.2c0.8-0.2,1-1,2-1c-2.9,9.1-7.2,16.8-13,23c-0.3,0-0.7,0-1,0c-0.6-4.1-5.2-4.1-7-7
	c-2.3,3.4-9.9,1.4-10,7c-1.6,0.3-1.7-0.9-3-1c-1.3,0-2.7,0-4,0c-2,0-1.3-2.7-4-2c-0.7,0-1.3,0-2,0c0,1,1.2,0.8,2,1
	c-0.2,1.1-2,0.7-2,2c-1.4,0.5-2.4-3.9-3-1c-1.2,0.2-1.8-0.2-2-1c0.8-1.2,1.3-2.7,1-5c0-0.7,0-1.3,0-2c1.3,0,2.7,0,4,0
	c0.7,0,1.3,0,2,0c1,0,1.2-0.8,2-1c2.1,2.2,4.9,3.8,10,3c-1.9-7.2,11.1-4.9,8-10c-0.3,2.8-3.1,1.7-4,0c3.5,0.8,4.2-1.9,6,0
	c0.2-2.8-2.8-2.5-4-4c6.7-3.5,15.1,4.5,22,1C108.9,50.6,108.9,49.9,108.9,49.2z"/>
<path class="st0" d="M46.9,127.2c-4.7,6.6-7.5,15.1-11,23c0-3.6,2-13.1,1-16c-6.1,0.1-7.9,1.9-8,6c-1.3-1.3-3-0.6-4,1
	c-1.1,2.1-1.3,2,0,9c-1.3,0.1-1.4,1.3-3,1c-0.2-1.2,0.2-2.8-1-3c0.1,3.1-3.7,7.5-1,10c0.1-1.2,0.3-2.4,2-2c-1.4,4,1.8,3.5,3,5
	c1.1,4.3,1.1,8.1-2,12c4.8,7.5,3.1,20,4,26c-0.2-0.8-0.8-1.2-2-1c-0.3-5.4-5-6.3-9-8c0-0.3,0-0.7,0-1c-2-2.3,0.3-1.1,1-3
	c-3.2-0.8-5.1-2.9-7-5c1.5-2.5,4.9-3.1,8-4c1.1-9.2-10.3-6.3-10-15c1,0,2,0,3,0c0.3,0,0.7,0,1,0c1,0,2,0,3,0c3.8-2.7-0.1-9.9-4-11
	c-0.3-2.1-2.7-2-4-3c-0.2-2.8,3-2.3,3-5c-1.1-0.9-0.3-3.7-3-3c-0.2-1.5,0.4-3.7-1-4c-0.2,0.8,0,2-1,2c0.7-2.3,1.5-6.4-3-6
	c0.1-1.6-0.1-3.5,2-3c2.6,3,6.4,0.5,9,2c-0.9-7.2,9.8-2.8,8-11c0.3-6.5-4.9-12.9-2-16c1.2,0.1,2.4,0.3,2,2c3.8,9.1,4.7,14.9,8,24
	c1.5-0.2,3.7,0.4,4-1c-1.7,0.1-2.6-0.8-3-2c2.9,2.4,7.9-2.2,6-4c0-0.7,0-1.3,0-2c3.2-1.2,0.8,3.2,4,2c-1.2-5.9,7.8-6.8,4-12
	c0.2,2.2-0.8,3.2-3,3c-0.7-3.1,1-3.6,1-6c1.2-3,2.4-3.4,4,0c-2.8-1.2-2.8,3.2,0,2c-0.3,1.6,0.9,1.7,1,3c-0.4,1.9-2.2,2.5-2,5
	c1.3,4.4-4.4,6.9-1,10c-0.1-1.7,0.8-2.6,2-3C46.1,126,45.9,127.2,46.9,127.2z"/>
<path class="st0" d="M90.9,140.2c0,0.7,0,1.3,0,2c-0.3,0-0.7,0-1,0c-2.5,5.7-4.2,10.4-1,15c2.6,1.1,4.8-3,6,0
	c-6.3,2.4-4.7,8.4-10,13c-2.6,0-5.9-0.6-6,2c0,0.7,0,1.3,0,2c-2,1-2.2,3.8-2,7c2.7-0.7,2,2,4,2c0.9,0.2,0.9-0.4,1-1
	c2.2-0.6,1.4,1.9,3,2c1.8,2.7,4.3,4.8,0,6c-0.3,0-0.7,0-1,0c0-0.3,0-0.7,0-1c-3.8-0.8-3.9,2.1-5,4c1.6,3.1,5.9,3.5,7,7
	c0.1,3,5.7,5.6,2,9c-1,0-0.8,1.2-1,2c-3.2-1.5-4.4-0.4-8,0c-0.7,3.7,2.2,3.8,2,7c-4.1-11-28.4-4.1-15,6c0.3,0,0.7,0,1,0
	c-1,1.9,3,3.3,0,4c-0.3,0-0.7,0-1,0c-2.6-4.5-4.2-3.7-11-4c-0.4,5.3,2.8,3.1,1,8c-0.3,0-0.7,0-1,0s-0.7,0-1,0c-3.4-1.9-3.7,4.9-4,0
	c-1.3,3.7-6.3,3.7-7,8c-0.7,0-1.3,0-2,0c0.3-5.9,5.5-11.1,1-16c-2.3-1.4-3.8,2.6-4,0c1.5-2.5,3.4-4.6,7-5c3.3-2.7,6.8-5.2,9-9
	c1.7-2.6,2.3-6.4,4-9c1,0,0.8,1.2,1,2c3.5-0.8-0.2-3.9,3-6c0.5,6.5-3.2,8.8-4,14c1.8-0.9,1.3-4.1,5-3c-4.4-1,2.6-5.3,3-4
	c0.4,0.9,0.9,1.8,2,2c-0.7-1.9,1.2-4.4,1-7c0.1-3.7,1.1-2.9,0-6c0.8,0.3,1,1,2,1c0.1-3.1-2-7.8-2-1c-1.4-0.3-0.8-2.5-1-4
	c2-1.7,1.3,0.1,4,0c0.5-4.4,0.3-3.3,1-7c-4.1,2.6-5-6.1-4-11c-1.2-1.4-4.7-1.3-2-4c-4.4,3.5,0.8,12.7-1,20c-0.8,3.2-1.3-1.8-1-3
	c-1.5,1.5-2.1,3.9-2,7c-1.3,1.3-1.3,3.7,0,5c-1.5-1.2-2.5-1.2-4,0c-0.8-2.8,1.4-2.6,1-5c3.6-0.6-0.3-5.6,1-10c0.5-4.9-1-11.7,1-15
	c3.2,4.3,0.6-1.5,2-2c0.8,3.7,3.5,0.1,5,2c-1.3-3.8,0.9-4.8-1-8c5.2-0.5,8-3.4,8-9c0-0.3,0-0.7,0-1c2.6-0.7,2.1-4.6,5-5
	c0.5,1.2,1.1,2.3,2,3c2.5-2.1,4.6-4.8,7-7C90,139.8,90.1,140.5,90.9,140.2z"/>
<path class="st0" d="M76.9,170.2c-1.5-3.1-1.6-7.8-4-10C73.1,164.7,74.1,168.1,76.9,170.2z"/>
<path class="st0" d="M85.9,45.2c-1.1-0.1-1.6,1.5-2,0c1.7-1.6,0.4-6.3,4-6c-1.3-3.3-1.4-2.1-2-5c2.5-1.3,4.9,2.2,5,0
	c2.8,2.9,9.1,2.3,12,5c-2.1,0.8-2.3,3.7-2,7c2.6,0.1,5.1,0.3,5,3c-1.9-0.4-2.5-2.2-5-2c1.5,5-5.8,3-5,0c-0.9-3.2,1.6-3.1,2-5
	c-1.3,0.1-3-4.1-4-1c1.9,3.8-5.1-2.6-5,0c2.3,0.3,0.6,4.4,0,5C87.5,25.2,86.7,45.7,85.9,45.2z"/>
</svg>
