<?xml version="1.0" encoding="utf-8"?>
<!-- Generator: Adobe Illustrator 22.0.0, SVG Export Plug-In . SVG Version: 6.00 Build 0)  -->
<svg version="1.1" id="Layer_1" xmlns="http://www.w3.org/2000/svg" xmlns:xlink="http://www.w3.org/1999/xlink" x="0px" y="0px"
	 viewBox="0 0 847.8 1050.2" style="enable-background:new 0 0 847.8 1050.2;" xml:space="preserve">
<style type="text/css">
	.st0{fill:none;stroke:#000000;stroke-miterlimit:10;}
</style>
<path class="st0" d="M172.2,116.2c-0.1,0.8-0.2,1.6-0.3,2.7c1,0.3,2.1,0.3,2.8,0.8c1.9,1.5,3.9,3,5.3,4.9c0.7,1,0.7,3.2,0.1,4.3
	c-1.8,3.2,0.8,7.8-3.3,10.3c-2.9,1.8-4.9,5.1-9,4.8c-1.6-0.5-3.1-0.9-4.7-1.4c-0.6,3.4-1.6,6.1,0.5,8.8c0.4,0.5,0,1.6,0,2.4
	c-0.6,0.6-1.2,1.3-1.7,1.9v0.2c0.9,2.7,5,4.9,0.8,8.1c0.9,1.2,1.7,2,2.3,3c2.2,3.8,1.5,6.1-2.5,7.9c-1.3,0.6-2.9,0.9-4.2,1.5
	c-0.8,0.4-1.4,1.3-2.6,2.3c2.5,1.1,4.7,3.1,5.9,2.6c3.9-1.6,5.8,0.7,7.8,2.9c5.7-2.7,6.7-3.1,10.9,1.1c0.6,0.6,1.4,0.9,2.1,1.4
	c2.8,2.4,3,5.2,0.6,8.1c-0.4,0.5-0.7,1-1.1,1.6c7.9,2.5,8.7,11.4,1,15.3c1.7,1.2,4,2.2,5.1,3.9c1.1,1.8,1.1,4.4,1.5,6.6
	c2.3,0.3,4.9,0,6.7,1.1c1.7,1,2.5,3.3,3.9,5.3c4.2-0.9,5.8-1.1,6.9,4.8c0.8-0.2,1.6-0.4,2.4-0.5c5.4-0.7,8.4,2.3,8.1,7.7
	c-0.1,1.2,0.6,2.5,0.9,3.7c-0.2,1.5-0.4,3.1-0.6,4.5c3.2,1.5,5.9,2.7,8.9,1.1c0.5-0.3,1.3-0.1,1.9-0.1c0.1,0.7,0,1.4,0.4,1.9
	c1.7,2.5,3.1,5,2,8.3c-0.2,0.6,1.1,1.8,1.7,2.6c0.2,1,0.4,1.9,0.6,2.9h-0.2l0.2,0.1c-0.2,3-1.6,5.2-3.8,7.3c-2.5,2.5-2.5,6.8-5.8,9
	c-0.1,0.1,0.1,0.6,0,1c-0.6,2.8-2.2,4.2-4.9,3.4c-3.1-0.9-6.5-1.7-7.2-5.4c-2.4,0.4-4.6,1-6.9,1.2c-2,0.2-3.4-0.6-3.7-3
	c-0.5-3.8-0.8-3.7-4.8-4c-1.5-0.1-3.1,0-4.3-0.8c-1-0.6-1.3-2.3-2-3.4c-4.8,2.3-9.6,2-13.2-0.9c-1.1-0.9-1.7-2.7-2.9-3.2
	c-3.2-1.3-3.6-3.4-2.2-6.2c-7.4-1.5-7.4-1.5-7.9-7.6c-4.9-3.5-4.9-3.5-3.4-9.3c0.4-1.6,0.7-3.2,1-4.8c0-1-0.1-1.9-0.1-2.9
	c-0.2-1.5,0-3.4-0.8-4.5c-1.7-2.6-1.3-4.6,0.6-6.6c2.5-1.2,5-2.3,7.4-3.4c-0.4-1.7-0.8-3.1-1.1-4.5c9.1-0.9,9.1-0.9,8.8-5
	c-2.8,2.3-5.8,3-8.7,0.7c-2.4-2-2.9-4.5-0.9-7.7c-4.2,0.7-7.7,0.7-9.5-3.4c-0.2-0.5-1.1-1-1.6-1c-4.6-0.1-6.4-3-7.9-6.9
	c-0.9-2.5-0.5-4,1.2-5.7c1-0.9,1.7-2.1,2.5-3.2c-3.8-3.8-3.7-3.8-2.7-9c0.1-0.6,0.1-1.3,0.1-1.9c-0.2-2.3-0.5-4.5-0.7-6.8
	c0.2-0.3,0.5-0.5,0.7-0.8c5.7-0.3,7.5-2.5,6.9-8.7c0.1-0.3,0.2-0.7,0.3-1c0.5-0.2,0.9-0.4,1.4-0.6c1.2-1.6-0.4-2.3-1.1-3.2
	c-1.8-2-3.7-4-5.5-6c2.3-1.9,4.4-3.8,6.8-5.6c2.2-1.6,5.1-2.6,6.7-4.6c1.7-2.1,2.2-5.2,3.2-7.9c1.1-0.5,2.2-1,3.2-1.4
	c-3.6-2-7.2-3.4-10-5.8c-2.1-1.8-3.2-4.8-4.5-7.4c-0.3-0.5,0.3-1.6,0.6-2.3c1.9-3.9,1.7-4.2-2.4-6.4c-1.9-1-3-2.5-3.2-4.7
	c-0.4-4.6-0.5-4.6-5.4-4.8c-4-0.2-4-0.2-5.4-4.1c-5.1,2.1-9.5,1.9-13.1-0.8c-1.3-1-2-2.9-3.4-3.5c-3-1.3-3.5-3.2-2-5.9
	c-7.4-1.9-7.4-1.9-8.1-7.9c-4.7-3.2-4.6-3.2-2.9-8.8c0.4-1.5,0.1-3.2,0.1-4.8c0-1,0-2,0-3c1-1.7,1.2-3.2-0.2-4.9
	c-2-2.3-1.4-4.5,0.6-6.5c2.5-1.2,5-2.3,7.4-3.5c-0.4-1.7-0.8-3.1-1.1-4.5c9.1-0.9,9.1-0.9,8.8-4.7c-1,0.5-1.7,1.1-2.6,1.4
	c-2.4,0.8-5,0.9-6.3-1.4c-1.7-2.9-4.1-2.8-6.8-2.9c-4.7-0.1-6.5-2.5-6.1-7.5c14.3,0,28.7,0,43,0c-0.9,1.2-1.8,2.4-2.8,3.8
	c3.7,2.1,4.4,5.2,3.7,8.9c-0.8,0.4-1.6,0.9-3.6,2c6.1,1,9.9,3.1,9.4,9.2c1.8-0.2,3.1-0.6,4.4-0.6c8,0.1,10,2.1,9.2,8.7
	c-0.3,2.8-1.7,5.9,0.3,8.7c-0.1,1.6-0.2,3.2-0.3,4.8c2.9,0.7,4.9,3.2,7.9,1.5c0.5-0.3,1.9,0.5,2.6,1c2.5,2.1,3.2,4.9,3,8
	c-0.1,1.1,0.3,2.3,0.4,3.5c0.6,1.3,1.1,2.7,1.7,4c-0.1,0.4-0.1,0.7-0.2,1.1c-0.2,1-0.4,2-0.5,3c-0.2,0.3-0.4,0.7-0.6,1
	c-0.4,0.3-0.7,0.7-1.1,1c-1,0.6-2.1,1.3-3.1,1.9c-0.5,0.3-1,0.6-1.5,1c0.1,0.7,0.2,1.4,0.3,2.1c0.2,1,0.4,2,0.5,3l0,0
	c-0.5,1.3-1.1,2.6-1.6,3.9c-1.8,0.7-3.9,1.2-3.6,3.8c-0.2,0.1-0.5,0.2-0.7,0.2c-0.3-0.1-0.5,0.1-0.5,0.4l-0.2,0.3h-0.4
	c-0.9,0.2-1.9,0.4-3.2,0.6c1,1.3,1.8,2.3,2.5,3.3C170.5,113.9,171.4,115.1,172.2,116.2z"/>
<path class="st0" d="M377.2,55.7c-0.1-1.5,0.2-3.4-0.5-4.5c-1.7-2.5-1.3-4.5,0.3-6.6c1.1-0.3,2.2-0.5,3.2-1
	c3.6-2.2,7.1-4.6,10.8-6.6c4.8-2.5,4.8-2.4,4.6-7.7l0.2-0.2c0.3-0.4,0.7-0.8,1-1.3c0.1-0.3,0.3-0.5,0.5-0.7c0.8-0.5,1.5-0.9,2.5-1.5
	c-2.5-2.9-4.7-5.4-6.8-7.8c1.3-2.1,2.2-3.6,3.2-5.2c2.7,0,5.3,0,8,0c0.3,3.7-0.4,7.4,1,11c0.1,0.3,0,0.6,0,1c-2,2.2-2,2.2,1,6.9
	c-0.6,1.2-1.1,2.5-1.7,3.7c0.7,0.8,1.4,1.4,1.8,2.1c2.7,4.3,1.8,7-2.9,8.9c-1.2,0.5-2.6,0.5-3.8,1.1c-0.7,0.3-1.2,1.2-2.1,2.2
	c2.2,1.1,4.3,3.1,5.5,2.6c3.8-1.4,6,0.2,8,3c0.8-0.4,1.4-0.7,2-1c4.6-2.1,12.8,2.3,13.4,7.3c0.1,1.2-0.4,2.5-1,3.6
	c-0.4,0.8-1.1,1.3-1.4,1.6c2,1.9,4.6,3.3,5.2,5.3c0.7,2.5-0.2,5.4-0.5,8.2c-0.1,1.1-0.6,2.2-0.5,3.2c0.7,5.2,0.4,5.7-4.6,7.7
	c-1.5,0.6-3.8,0.1-4.7,2.7c2.1,1.8,4,3.3,7.3,2.7c3.8-0.7,7.2,1.7,7.4,5c0.2,3.5,0.1,7,0.1,10.4c3.6,1.5,3.6,1.4,8.1,1.5
	c1,0,2.3,0.6,3.1,1.4c1.9,1.8,3.1,4,2.6,6.7c-0.4,1.7-0.3,2.9,0.8,4.5c2.4,3.7,1.2,7.1-2.8,9.5c-1.2,0.8-2.3,1.7-3.6,2.8
	c2.3,4.1,1.6,7.3-1.9,10c-0.3,0.1-0.6,0.2-0.9,0.3c-0.3,0.7-0.5,1.3-0.8,2c-0.5,0.2-1.1,0.5-1.6,0.7c-1.1,0.4-2.1,0.8-3.4,1.2
	c1.9,2.8,3.3,4.9,4.7,7c-0.7,2.1,0.5,2.3,2.2,2.8c5.2,1.6,7,5.2,5.6,10.4c-0.3,0.9-1,2-0.7,2.8c1.4,3.5-1.1,5.2-3.1,7.1
	c-1.5,1.3-3.2,2.4-4.8,3.5c-2.8-0.5-5.6-0.9-8.6-1.4c0,3.4-1.4,6.2,0.6,9c0.5,0.6,0,1.9-0.1,2.9c-1.3,1-2.3,2.3-0.8,3.7
	c2.4,2.1,2.4,4.2,0.2,6.4c0.6,0.7,1,1.2,1.4,1.7c3.6,4.9,2.9,7.6-2.7,9.8c-1.7,0.7-3.5,1.3-6,2.2c2.3,1.7,3.8,2.8,5.2,3.9
	c4.9-1.1,4.9-1.1,8.4,1.8c3.1-0.3,5.9-1.2,8.1-0.5c2.5,0.8,4.7,3.1,6.7,5c0.7,0.7,1,2.3,0.8,3.3c-0.5,1.8-1.5,3.4-2.4,5.3
	c3.2,1.2,6.1,2.7,6,7.2c-0.1,4-2.1,6.3-6.3,8.3c6,0.7,6.8,4.6,7.4,8.5c0.4,2.5-1.5,4.3-3.4,3.4c-3.7-1.8-7.4-3.4-11.4-4.7
	c-4.5-1.5-8.3-4.7-9.4-10.3c0.5-1.1,1.1-2.4,1.9-4.1c-3.4,1-6.7,1.5-8.8-1.7c-1.1-1.8-2.4-2.5-4.4-2.6c-4.8-0.3-5-4.8-6.5-7.9
	c-1.2-2.4,0.9-3.9,2.6-5.3c1.3-1.1,1.8-2.7,0.2-3.8c-2.8-2.1-3-4.5-1.5-7.5c0.3-0.5,0.5-1.5,0.2-1.9c-1.7-2.4-0.4-4.8-0.3-7.2
	c0.3-0.2,0.6-0.4,1-0.6c2.1-0.9,4.3-1.8,6.1-2.6c0-2.3,0-3.7,0-5.2c0.2-0.5,0.4-1,0.5-1.5c0.8-0.5,1.5-0.9,2.2-1.3
	c-0.1-0.5-0.1-0.7-0.2-0.8c-1.4-1.4-2.7-2.8-4.1-4.3c-3-3.2-3.1-4.8,0.4-7.2c2.8-1.8,4.9-4.8,8.6-5.6c1.1-0.2,2.1-2.3,2.7-3.7
	c0.5-1.3,0.5-2.9,0.7-4.3c1.4-0.7,2.8-1.4,4.1-2.1c-3.7-2.2-7.2-3.7-10.1-6.1c-2-1.7-3-4.5-4.4-6.9c-0.3-0.5,0-1.3,0.3-1.9
	c0.5-1,1.2-1.9,1.8-2.9c-0.6-2.5-1-4.8-4.1-5.7c-1.9-0.5-3.3-2.1-2.8-4.6c0.5-2.4-1.2-3.2-3.2-3.6c-1-0.2-2,0-3-0.1
	c-1.1-0.1-2.5-0.1-3.3-0.7c-0.9-0.7-1.3-2-1.9-3.2c-4.7,2.7-9.1,1.7-13.1-1.1c-1.2-0.8-1.9-2.3-3-3.3c-0.9-0.9-2.6-1.4-2.9-2.4
	c-0.3-1.2,0.5-2.7,0.9-4c-7.4-0.7-7.5-0.8-8.2-7.1c-4.5-3.4-4.4-3.4-2.9-9c0.4-1.6,0.3-3.3,0.4-4.9c-0.1-1-0.1-2-0.2-3
	c-0.1-1.5,0.4-3.5-0.3-4.5c-2-2.6-1.3-4.7,0.2-7c1.6-0.9,3.2-1.8,4.9-2.6c0.9-0.4,1.8-0.8,2.5-1.1c-0.3-1.5-0.5-2.7-0.7-4.2
	c3.5-0.5,7.8,1.6,9.4-4c-1.2,0.3-2,0.4-2.7,0.6c-3.1,1.1-5.7,1.1-7.9-2c-0.8-1.1-2.9-1.7-4.3-1.6c-4.5,0.3-6.8-1.9-8.1-5.8
	c0.2-2.2,1.6-3.3,3.4-4.4C375.9,61,377.5,58.8,377.2,55.7z"/>
<path class="st0" d="M548,337.3c-0.2,1.1-0.5,2,1.2,2.6c6.8,2.3,8,4.7,6.2,11.4c-0.1,0.3-0.4,0.7-0.3,0.9c1.5,5.6-2.8,7.8-6.2,10.5
	c-0.5,0.4-1.1,0.7-1.6,1.1c-2.8-0.3-5.6-0.7-8.7-1c0.2,1.1,0.7,2.3,0.4,2.9c-1.1,2.1-0.6,3.9,0.4,5.8c0.3,0.7,0.1,1.6,0.2,2.4
	c-1.7,1-2.5,2.5-1,4.1c2.2,2.2,2.2,4.2,0.2,6.4c0.6,0.7,1,1.2,1.4,1.7c3.6,4.9,2.9,7.5-2.6,9.8c-1.7,0.7-3.5,1.3-6,2.2
	c2.2,1.7,3.7,2.8,5.4,4.1c3.5-2,6.3-0.9,8.4,2.3c3.4-1.5,6.3-3.6,9.7-0.1c2.4,2.6,6.6,3.7,6,8.8c-0.7,0.9-1.8,2.1-2.8,3.3
	c7.8,2.9,8.3,11,0.7,15.6c3,1,5.3,2.5,6,5.9c0.3,1.3,2,2.4,3.3,3.3c3.2,2.2,5.6,4.9,4.8,9c-0.4,2.4-1.1,4.8-2.2,6.9
	c-0.4,0.9-2.3,1.7-3.3,1.5c-2.1-0.4-4.2-1.2-6-2.3c-2.1-1.3-2.5-3.4-1.6-5.7c0.4-0.9,1-1.6,1.4-2.1c-1.5-1.9-2.5-3.8-4-5.2
	c-3-2.9-5.4-6.7-9.8-8c-1.7-0.5-3.5-1.2-5.1-2.1c-2.6-1.4-3.2-3.7-2-6.3c0.4-0.8,0.9-1.6,1.4-2.3c-3.3-2.9-6.4-5.5-5.1-9.5
	c-2-3.2-3.8-5.9-5.5-8.6c1.1-2.6,0.7-5-1.5-6.7c-3.3-2.6-2.9-6.5-3.7-9.9c-0.2-1,1-3,2.1-3.6c3.9-2.1,3.9-5.3,3.4-8.9
	c0.2-0.2,0.2-0.5,0.2-0.7c1.4-0.4,2.7-1.1,1.3-2.7c-1-1.2-2.5-2.2-3.5-3.4c-2.4-2.7-2.4-4.5,0.3-6.7c2.6-2.1,5.7-3.7,8.4-5.7
	c0.8-0.6,1.1-1.7,1.7-2.6v0.1c0.6-0.6,1.5-1.2,1.7-1.9c0.4-1.2,0.4-2.5,0.6-3.8c1.4-0.7,2.8-1.4,4.5-2.2c-5.2-2.9-11-3.9-12.7-10.1
	c-3.3-2.4-2.7-4.9,0-7.1c-1.1-3.9-1.2-3.8-4.5-6c-1.1-0.7-2.3-2.1-2.5-3.4c-0.9-4.8-0.8-5-5.2-4.7c-3.2,0.2-5.2-1-5.8-4.2
	c-6.2,2.8-11.1,1.7-15.1-2.9c-0.4-0.5-0.8-1.3-1.3-1.4c-4-1.1-3.1-3.8-1.8-6.5c-1.2-0.1-2.1,0-2.9-0.2c-4.1-0.6-4.3-0.9-5.2-5.2
	c-0.2-1.1-1.2-2.2-2-3.1c-2.5-2.4-2.7-3.3-1.5-6.5c0.7-1.9,1.1-3.8,1.7-5.7c18.3,0,36.7,0,55,0c0.4,3,0.7,6,1.1,9.4
	c2.2,0.3,4.3,3,7.5,1.2c0.6-0.4,2.3,0.4,3,1.1c2,1.9,3.4,4.3,2.6,7.1c-0.4,1.6-0.2,2.6,0.7,4.1c2.3,3.5,1.4,7.1-2,9.5
	c-1.3,0.9-2.6,1.9-4,2.9c2,4.3,1.3,7.6-2.7,10.1c-0.6,0.4-0.7,1.7-1.1,2.6c-0.7,0.2-1.4,0.3-2.1,0.5c-0.9,0.4-1.7,0.8-2.6,1.2
	C545.2,333.1,546.6,335.2,548,337.3z"/>
<path class="st0" d="M449.7,687.5c-0.4,1.7-0.7,3.3-1.1,5c-0.7,1-1.5,2-2.4,3.3c-0.9-0.9-1.7-1.7-2.5-2.4c-0.1-0.8-0.2-1.6-0.2-2.5
	c0.3-2.2,0.7-4.3,1.1-6.9c-1.9,0-3.5,0.2-5.1-0.1c-1.2-0.2-2.5-0.7-3.4-1.4c-1.5-1.1-2.8-2.5-4.6-4.2c-0.2-0.8-0.6-2.3-1-3.7
	c0-0.6,0.1-1.2,0.1-1.7c0.4-0.3,0.8-0.6,1.7-1.2c-4.4-0.6-3.4-4.3-4.3-6.6c-3.4,0-6.6-0.5-9.6,0.1c-3.7,0.8-6.3,0-9.5-2.1
	c-2.8-1.9-4-3.6-3-6.9c-2.5-1-4.2-2.7-3.7-5.3c0.5-2.4,2.4-4.5,1.2-7.3c-0.2-0.3,0.8-1.6,1.4-1.8c3.3-1,3.8-3.9,5.6-6.8
	c-4.2,0.3-6.2-1.8-7-5c-0.9-3.5-1.6-7.1,1.2-10.3c0.8-0.7,1.7-1.4,2.3-2.2c0.9-1.1,1.6-2.4,2.2-3.6c1.6-3.2,5.1-1.6,7.8-2.8
	c-1.3-1.1-2.3-2-3.5-2.9c0.5-1.4,0.9-2.7,1.5-4.5c-3.3,0.7-5.9,0.8-6.5-2.5c-2,0.3-3.7,0.7-5.3,0.7c-4.5,0-6.3-1.8-7.1-6.3
	c-0.2-1.1-1-2-1.4-3s-0.9-2.1-1.1-3.2c-0.4-2.4-0.7-4.8-1-7.3c-0.1-0.9,0-1.8,0-2.8c0.3-0.1,0.7-0.2,1-0.3c0.7,1.7,1.4,3.4,2,5.1
	c5.9,1.8,6.2,2.2,6.6,9.1c3.6,1.4,3.6,1.4,6.8,0.1c1-0.4,2.3-0.7,3.3-0.4c2,0.6,3.4,0.1,5.1-0.9c2.9-1.6,5.1-0.7,7.3,2.1
	c2.8,3.5,5,7,3.3,11.7c-0.6,1.7,0.9,1.8,2.2,1.8c0.4,0.6,1.2,1.2,1.3,1.8c0.1,4.4,1.8,9.2-3.3,12.2c-0.5,2.6-1.9,4.5-4.2,5.8
	c-2-0.3-4.1-0.6-6.7-1c0.6,2.1,1.6,3.9,1.2,4.4c-2.3,2.7-0.6,6.1-1.8,9l0.1-0.1c-1.6,0.6-4-1.3-4.8,1.7c-0.8,0.5-1.7,1-2.5,1.6
	c-1.5,1.3-0.8,2.2,0.6,2.9c0.4,2,2.2,3.5,1.7,6c-0.2,0.9,1.9,2.3,3,3.3c0.1,0.1,1.2-1.1,1.8-1.7l-0.1,0.1c3-0.9,5.6,0.6,7.7,2.3
	c1.8,1.5,2.7,4.2,4.6,5.4c2.7,1.7,1,4.7,2.7,6.4c0.6,0.3,1.3,0.7,1.9,1c1.3,1.2,2.6,2.5,3.9,3.7c0.7,0.7,1.8,1.9,2.2,1.7
	c5-2.3,6.9,0.7,8.3,4.7c0.1,0.4,0.9,0.6,1.1,1c0.3,0.9,0.4,1.9,0.6,2.8v-0.1C447.6,684.3,450,685.9,449.7,687.5z"/>
<path class="st0" d="M804.3,996.8c0.6-0.4,1.3-0.8,1.9-1.1c3.3,1.1,5.9,2.4,7.8,5.9c1.4,2.7,5,4.4,5.4,8.1c1.8,1.5,3.7,3,5.4,4.7
	c1.5,1.6,3,2.4,5.3,1.6c1.9-0.7,3.5,0.4,4,2c0.9,3,3.6,5.5,2.8,9.2c-0.3,1.1,0.6,2.5,0.9,3.8c-0.4,1.3-0.8,2.6-1.2,3.9
	c-2.4,3.5-2.4,3.5-5,0.9c0-0.8,0-1.5,0-2.3c0.3-2.3,0.6-4.6,0.9-7.4c-1.8,0.1-3,0.2-4.3,0.2c-1,0-2.5,0.4-2.8-0.1
	c-2.2-3.1-7.2-4.2-6.8-9.2c0-0.4,0.1-0.9,0.1-1.3c0.4-0.5,0.8-0.9,1.7-1.9c-5.2,0-2.8-4.7-5.1-6.9c-1.8,0.2-3.7,0.4-5.7,0.6
	c-2.8,0.3-6.2,1.7-8.2,0.6c-3.3-1.9-8.8-2.5-8.1-8.5c0.1-0.6-0.8-1.3-1.4-1.8c-2.3-2-2.3-4.2-1-6.7c0.4-0.8,1-1.9,0.7-2.5
	c-1.2-2.7,0.2-4,2.1-5.3c3.4-0.2,2.5-3.7,4.7-5.1c-0.9-0.5-1.3-0.8-1.7-0.9c-5.7-1.5-8-9.2-4.1-13.6c0.9-1,2.1-2,2.3-3.1
	c0.5-3.7,3.2-5.1,6-6.6c1.1-0.2,2.2-0.5,3.3-0.7l0,0c-3.5-1.5-2.4-4.3-1.2-7c-1.9,0.2-3.4,0.8-4.4,0.4c-1.1-0.5-1.7-1.9-2.5-2.9
	c-1.6,0.2-3.4,0.6-5.2,0.6c-4.6,0-6.3-1.6-7.1-6.3c-0.1-0.6-0.1-1.4-0.5-1.9c-2.9-4-1.9-8.8-2.8-13.2c0-0.2,0.6-0.6,1-0.9
	c1.3,1.8,2.1,4.1,3.7,4.9c4,1.8,6.3,4.1,4.6,8.8c2.4,1.1,4.4,2.1,6.8,0.6c0.8-0.5,1.9-0.8,2.8-0.7c2.4,0.5,4.5,0.2,6.6-1.1
	c1.9-1.1,4.2-0.8,5.5,0.9c2.8,3.6,6.1,7.1,4.7,12.3c-1.7,0.9-0.8,2.1-0.5,3.4c0.8,2.7,2.4,5.7,1.7,8c-1.1,3.3-3.7,6.1-6,8.9
	c-0.7,0.8-2.4,0.8-3.6,1c-0.9,0.1-1.8,0-2.2,0c-0.3,4.4-0.5,8.4-0.8,11.8c-1.6,2.1-4.9,0.4-4.9,3.6c-3.4,1.7-3.5,1.9-1.8,4.3
	c0.6,1.9,1.3,3.9,1.7,5.9C800.2,997.2,801.8,998.1,804.3,996.8z"/>
<path class="st0" d="M542.3,906.8c0.6-0.4,1.3-0.8,1.9-1.2c2.1,1.1,5.6,1.8,6.2,3.5c1.4,4.1,7.5,5.1,6.5,10.5c0,0.1,0.8,0.4,1.2,0.7
	c1.3,1,2.8,1.8,3.8,3c1.9,2.2,3.7,3.5,6.9,2.5c0.9-0.3,2.9,1.1,3.4,2.1c1.4,3.4,3.9,6.8,1.4,10.8c-0.2,0.2-0.1,0.7-0.1,1l0.1-0.1
	c-1,0.6-2,1.3-3.6,2.3c0.2-2.3,0.3-3.9,0.4-5.6c-1.1-0.1-1.9-0.5-2.7-0.3c-2.7,0.7-5.3,1.2-6.4-2.4c-0.1-0.3-0.4-0.6-0.7-0.7
	c-5.2-1.6-3.3-5.5-3-8.8c-1-0.9-2.3-1.6-2.8-2.7c-0.6-1.2-0.5-2.8-0.8-4.7c-2.4,0.2-4.5,0.4-6.6,0.7c-4.8,0.7-9.1,0.6-13.5-2.4
	c-3.5-2.4-1-7.4-5.2-8.9c-0.5-0.2-0.6-1.9-0.5-2.8c0.1-0.9,0.8-1.8,1.2-2.7c0.2-0.7,0.6-1.7,0.3-2.2c-1.3-2.6,0.2-4,2.1-5.3
	c3.4-0.2,2.5-3.7,4.3-4.9c-2.1-1.4-4.8-2.2-5.6-3.8c-1.7-4-3.8-8.4,1.2-12c0.6-0.4,1.1-1.3,1.3-2c0.7-3.5,3.1-5.3,6.1-6.5
	c1-0.1,1.9-0.2,2.9-0.3c0.2,0.1,0.4,0.2,0.7,0.2c-0.1-0.2-0.2-0.4-0.3-0.6c-3.3-1.6-3.1-4.1-1.3-7.1c-1.9,0.1-3.4,0.7-4.4,0.2
	c-1.1-0.5-1.9-1.9-2.5-2.7c-2.4,0.2-4.5,0.5-6.6,0.4c-3.7-0.3-5-1.8-5.7-5.5c-0.3-1.4-0.9-2.8-1.8-3.9c-1.4-1.6-1.9-2.9-0.4-4.7
	c0.6-0.7,0.7-1.7,0.9-2.5c6.2-0.1,7.1,0.9,7.5,8.4c2.2,0.6,4.4,2.1,6.8,0c0.6-0.5,2-0.7,2.8-0.4c2.3,0.8,4.1,0.1,6-1
	c1.6-1,3.7-1.2,5.1,0.5c3,3.6,6.7,7.1,5.3,12.6c-1.7,0.9-0.9,2.1-0.4,3.3c1.6,4,3.5,8-0.7,11.7c-0.2,0.2-0.3,0.6-0.5,0.9
	c-1.7,4.2-4.5,6.5-9.1,5c-0.3,4.5-0.5,8.6-0.7,12.1c-1.7,2.1-4.9,0.4-4.9,3.6c-3.4,1.7-3.5,1.9-1.9,4.3c0.6,1.9,1.3,3.8,1.7,5.8
	C538.2,907.2,539.8,908.1,542.3,906.8z"/>
<path class="st0" d="M347.6,422.1c0.6,0.8,1.1,2,1.9,2.3c6.5,2.2,7.8,4.7,6,11.5c-0.2,0.6-0.5,1.4-0.3,1.9c1.4,3.2-0.8,5.1-2.8,6.7
	c-2.5,2-4.7,4.9-8.5,4.5c-1.6-0.4-3.2-0.9-4.9-1.4c-0.2,3.2-1.4,5.8,0.5,8.2c0.5,0.6,0,1.9,0,2.9c-1.8,0.7-2.3,1.9-1.3,3.5
	c0.7,1.1,1.6,2.1,2.5,3.3c-0.7,1.2-1.3,2.4-1.9,3.7c0.7,0.8,1.3,1.5,1.9,2.3c2.7,4.3,1.8,6.9-2.8,9c-1.8,0.8-4.5-0.1-5.6,2.9
	c2.4,1.4,4.1,3.8,7.8,2.6c1.4-0.5,3.6,1.5,6.3,2.7c0.1-0.1,1.3-0.6,2.5-1.1c2-0.8,3.9-0.6,5.6,0.9c0.9,0.8,1.8,1.5,2.7,2.2
	c4.9,3.6,5.2,5.8,0.9,10.6c3.1,1.5,6.3,2.8,6.2,7.3c-0.1,4.1-1.7,6.7-5.9,8c3.6,1.3,6.4,3,6.8,7c0.1,0.8,1.5,1.6,2.3,2.3
	c1.3,1,2.6,2,3.9,3c2.2,1.8,2.3,4.4,1.2,6.4c-1.4,2.6-3.8,4.5-4.5,7.7c-0.2,1-3.4,1.4-5.5,2.2c0.4,2.8-0.4,5.9,2.9,8.1
	c2,1.3,1.6,2.3-0.6,6.1c3.4,4.7,5.4,6.5,10.6,9.2c0.8-0.4,1.7-0.8,2.5-1.2c4.7-2.6,5.4-2.5,8.8,2c0.4,0.5,0.9,1.2,1.4,1.3
	c4.1,0.8,4.4,3.5,3.6,7c-2.2,0.8-4,1.4-5.7-1.5c-1.3-2.3-3.7-3.3-6.4-1.9c-2.3,1.2-4.1,0.7-5.5-1.5c-1-1.7-2.6-2.1-4.6-2.6
	c-3.5-0.8-6.9-2.2-10.3-3.5c-5.3-2.2-5.9-4.2-3-8.9c-1.4-2-2.9-3.9-4.2-6c-2-3.3-1.9-3.6,0.8-6.3c0.8-0.8,1.8-1.4,2.9-2.3
	c-1.7-4.7,1.1-7.2,4.8-8.5c-0.8-2.5-1.3-4.4-2.1-6.3c-0.8-1.9-1.8-3.3-4.4-3.2c-4.2,0.3-11.6-4.8-12.5-9.6c-0.3-1.5,0.4-3.1,0.7-5
	c-1.1,0-2.3,0.1-3.6,0c-1-0.1-2.4-0.1-2.8-0.7c-2.1-3.1-5.3-4-8.6-5.2c-3.2-1.1-2.8-5-4-7.5c-0.9-1.8,0.7-3.3,2.4-4.5
	c0.8-0.6,1.3-1.7,2.1-2.9c-3.7-2.1-4.8-4.8-2.9-8.4c0.3-0.6,0.2-1.6,0.2-2.4c-0.1-2.3-0.3-4.5-0.5-6.8l-0.1-0.4
	c5.2-0.2,7.1-2,7.9-6.7c0.3-1.7,1.2-3.3,1.9-5.2c-1.5-1.6-3.2-3.1-4.7-4.9c-1.8-2.2-1.9-4,0.2-5.7c2.7-2.2,5.4-4.4,8.5-6
	c2.5-1.3,4.2-2.5,4.1-5.5c-0.1-1.8,0.6-3.2,2.5-3.9c0.8-0.3,1.4-1,2.4-1.8c-8-2-12.7-6.9-15.2-14c0.5-0.7,0.9-1.3,1.4-2
	c1.3-4.3,0-6.3-4.4-6.5c-0.6-1.5-1.4-2.9-1.6-4.5c-0.5-3.3-0.9-3.8-4.3-4c-0.8,0-1.7,0.1-2.5,0c-2.6-0.2-4.5-1-3.7-4.6
	c-4.8,2.9-9.2,2.4-13.4-0.3c-1.3-0.9-2-3-3.4-3.5c-3.4-1.2-3.8-3.3-2.2-6.1c-7.3-1.4-7.3-1.4-8.1-7.9c-5.8-3.9-4.6-4.6-3.2-9.3
	c0.4-1.3,0.2-2.8,0.4-4.2c0-1,0-2,0-3c1-1.7,1.2-3.2-0.2-4.9c-2-2.3-1.4-4.5,0.6-6.4c2.5-1.2,4.9-2.5,7.2-3.7c-0.4-1.7-0.7-3-1-4.4
	c8.6-0.4,8.6-0.4,9.2-4.5c-1,0.5-1.8,0.9-2.7,1.3c-2.7,1.1-5.3,0.9-6.7-1.3c-1.6-2.6-3.8-2.9-6.4-2.8c-2.5,0.1-4.6-0.7-5.9-2.9
	c-2.1-3.6-0.3-9.8,3.6-12.1c-2.5-1.2-4.8-2.2-7-3.5c-2.4-1.3-2.5-2.2-0.9-5.1c3.1-0.4,6.5,0.8,9.1-1.8c2.2-1.2,4.4-2.5,6.2-3.5
	c-0.7-2.4-1.1-4.3-1.7-6.1c-0.6-1.8-1.7-3.7-3.7-3.4c-3.5,0.6-5.5-1.8-8.1-3.1c-2.9-1.3-4.2-3.9-5.1-6.5c-0.5-1.6,0.3-3.6,0.6-5.4
	c-2.2-0.2-4.9,1.1-6.5-1.1c0.8-3,1.4-5.6,2.1-8.3c0.3-0.1,0.7-0.2,1-0.3c3.7,0.4,8.1-1.3,10.5,3.2c1.4-0.7,2.3-1.4,3.4-1.7
	c6.5-2.2,11.2,1.2,11.2,8c0,1,0,2,0,3h0.1c-1.7,1.2-3.5,2.5-5.4,3.8c1.4,0.8,3.1,1.2,4.1,2.3c1,1.1,1.4,2.9,2.1,4.4
	c0.4,0.7,0.9,1.7,1.5,1.9c3.7,0.9,4.5,3.5,3.9,7.1c5.2-0.2,10,0.8,14.6-2.2c2.8-1.8,6.3-2.7,9.6-3.9c2.8-1,6.4,0.9,7.6,3.8
	c0.5,1.2,1.1,2.4,1.6,3.6c1.3,3.4,0.3,6.5-2.8,8.6c-1.2,0.8-2.5,1.7-3.9,2.6c2,3.6,0.9,6.6-2,9.2c-1.7,1.6-3.1,3.5-4.5,5.3
	c-0.5,0.6-1.3,1.6-1.1,2c1.4,2.6-0.9,3.5-2.4,4.9c0.9,0.7,1.5,1.1,2.2,1.6l-0.1-0.1c0.1,0.5,0.1,1,0.4,1.4c1,1.5,2.6,2.8,3,4.5
	c0.3,1.4-0.9,3-1.6,4.8c5.5,0.3,8.3,3.1,7.9,8.6c2.3-0.2,4.3-0.6,6.3-0.5c5,0.2,7.2,2.9,7,8c-0.1,1.2,0.6,2.4,0.9,3.7
	c-0.2,1.4-0.4,2.9-0.6,4.6c3,0.3,4.9,3.3,8,1c0.4-0.3,1.8,0.1,2.2,0.7c1.8,2.3,4.5,4.2,3.2,7.8c-0.5,1.4-0.7,3,1.2,3.8
	c0.3,1.1,0.7,2.3,1,3.4c-0.1,0-0.2,0.1-0.4,0.1c0.1,0.2,0.2,0.4,0.3,0.6c-0.2,1.3-0.4,2.6-0.5,3.9l0,0c-0.6,0.4-1.1,0.9-1.7,1.3
	c-1.6,0.9-3.2,1.7-4.7,2.8c-0.3,0.2,0.2,1.5,0.3,2.2c0.2,1,0.4,2,0.5,3l0,0c-0.2,1-0.5,1.9-0.7,2.9v-0.1c-0.3,0.3-0.6,0.7-0.9,1
	c-2.4,0.7-3.9,2.3-4.8,4.6l-0.2,0.3h-0.4c-0.9,0.2-1.8,0.5-2.7,0.7C345,417.3,346.3,419.7,347.6,422.1z"/>
<path class="st0" d="M76.4,224.5c0.4-0.3,0.8-0.6,1.2-0.9c5.5,0.8,10.6,2,10.6,9c7.4,0,8.9,1.1,9.8,6.7c0.5,0.1,1,0.3,1.4,0.1
	c5.6-1.8,8.6,2.4,12.1,5.2c2.2,1.7,1.8,4.7-0.2,7c-0.4,0.5-0.8,0.9-1.6,1.7c3.8,1.3,6.3,2.9,6.5,7.3c0.2,4.5-2.7,6.2-6.1,8.2
	c5.5,1.7,7.5,4.4,7.4,9.2c-0.1,2.5-1.2,3.9-3.3,4.2c-3.1,0.3-4.4-0.5-4.5-3.6c-0.1-2.9-1.7-3.8-4-4.2c-1.3-0.2-2.7-0.1-4-0.2
	c-3.2-0.1-5.4-1.5-7.1-4.6c-1.4-2.6-1.2-4.9,0.2-7.8c-4.2,0.8-7.6,0.7-9.5-3.3c-0.3-0.6-1.4-1.1-2.1-1.1c-4.1-0.2-5.9-2.5-7.1-6.3
	c-1.2-4-1.6-3.9,1.4-6.8c2.2-2.1,2.3-2.5,0-4.7c-2.1-1.9-2.4-3.7-1.3-6.2c0.5-1,0.6-2.2,0.5-3.3C76.8,228.3,76.5,226.4,76.4,224.5z"
	/>
<path class="st0" d="M193.1,352.4c1.8,0.4,1.9,1.6,1.3,2.9c-0.1,0.3-1.2,0.2-1.8,0.2C192.8,354.5,192.9,353.5,193.1,352.4z"/>
<path class="st0" d="M14.4,40.9c1.2-1.3,2.4-2.6,3.3-3.5c-0.9-3.4-1.6-6.5-2.4-9.5c4.6-1.9,7.4-1.2,11,2.3c-0.4,0.6-0.8,1.3-1.2,2
	c-0.3,0.5-0.7,1.1-1.3,2.1c2.6,2.2,5.2,4.4,7.8,6.6c0,0.8,0,1.6,0,2.4C30.8,43.6,30,44,28.2,45c6,0.9,10.4,2.3,9.8,8.2
	c2.6,0.5,4.9,0.7,7,1.5c2.5,0.9,2.8,3.3,2.7,5.8c1,0,1.7,0.1,2.3,0c5.6-1.6,8.4,3,11.9,5.8c0.9,0.8,1.1,3.2,0.8,4.7
	c-0.3,1-1.7,2-2.7,3.2c7.8,2.6,8.8,11.2,0,15.9c5.6,0.3,6.8,4.1,7.4,8.2c0.4,2.7-0.8,4.6-3,5c-3.1,0.5-4.7-0.5-4.9-3.8
	c-0.1-2.6-1.6-3.5-3.6-4c-0.9-0.2-2-0.2-3-0.2c-4.7,0.3-7.8-1.7-8.9-6.2c-0.4-1.8,0-3.9,0-6.1c-3.6,0.7-6.9,0.4-8.7-3.5
	c-0.3-0.6-1.4-0.9-2.2-1c-3.8-0.4-5.7-2.1-6.8-6c-1.1-4.2-1.6-4.1,1.5-7.1c2.1-2.1,2-2.6-0.4-4.6c-2.2-1.9-4.4-2.6-7.3-2.1
	c-2.7,0.5-3.9-0.6-3.9-2.5c0-2,1.8-3.8,3.9-3.8c0.6,0,1.3,0.5,1.9,0.5c1-0.1,2-0.4,2.9-0.7c-2.3-1.4-4.3-2.4-4.6-5.2
	c0-0.5-0.8-1.3-1.2-1.4c-2.7-0.3-3.1-2.8-4.5-4.3l-0.2-0.2L14.4,40.9z"/>
<path class="st0" d="M17.1,48c1.5,0.2,1.8,1.2,1.3,2.4c-0.1,0.3-1.2,0.2-1.8,0.2C16.8,49.8,16.9,48.9,17.1,48z"/>
<path class="st0" d="M497.6,819.6c2.7,0.9,5.2,0.7,7.8-0.9c3.4-2,4.8-1.4,6.9,1.9c0.5,0.8,1.1,2,1.8,2.2c4.3,1.1,4.2,4,3.5,7.6
	c-2.4,0.3-4.6,1.1-6.2-2.1c-0.6-1.2-3.7-2.4-4.9-1.9c-3.5,1.5-5.6-0.2-8-2C498.2,822.8,497.9,821.2,497.6,819.6z"/>
<path class="st0" d="M519.9,831.9c0.3,1.5,0.7,2.9,1,4.4c-0.5,0.1-0.9,0.2-1.4,0.4c-0.5-1.4-0.9-2.8-1.4-4.3
	C518.7,832.3,519.3,832.1,519.9,831.9z"/>
<path class="st0" d="M191.6,345.6c0.5-1.3,1.1-2.7,1.8-4.6c-0.5-1.8-1.5-4.4-2-7.1c-0.1-0.7,1.1-2.4,1.6-2.4
	c3.4,0.1,7.1-0.3,9.5,3.4c-0.8,1.2-1.6,2.4-2.5,3.7c2.4,2.6,4.7,5.2,7.3,7.9c-0.8,1.1-1.5,2.1-2.4,3.5c5,0.8,9.5,1.9,8.9,8.3
	c4.5,0.7,10.1-0.4,9.9,6.8c0.5,0.1,1,0.4,1.4,0.3c5.7-1.7,9,2.3,12.5,5.4c2.3,2,1.6,4.8-1.7,8.4c3.2,1.7,6.4,3.1,6.2,7.7
	c-0.2,4.2-2.2,6.3-6.1,7.8c5.5,0.7,6.7,4.5,7.3,8.6c0.4,2.7-0.9,4.6-3,4.9c-3.1,0.5-4.7-0.5-4.9-3.8c-0.1-2.6-1.6-3.5-3.6-4
	c-1.3-0.3-2.6-0.1-4-0.2c-4.8-0.3-8-3-8.5-7.5c-0.2-1.3,0.6-2.8,1-4.4c-1.9-0.2-4.5,0.4-5.6-0.6c-3.1-2.8-6.7-4.3-10.3-6.1
	c-1.6-0.8-2.2-3.8-3.1-5.9c-1.1-2.7,0.5-4.2,2.6-5.7c1.7-1.2,1.6-2.7-0.2-4c-2.3-1.6-4.5-3-7.8-2.3c-2.6,0.6-3.9-0.6-3.9-2.5
	c0-2.2,1.9-3.9,4.3-3.8c1.1,0.1,2.3,0.3,3.4,0.3c0.3,0,0.5-0.4,1.2-0.8c-2.3-1.3-4.8-2.2-4.9-5.3c0-0.5-1.2-1-1.9-1.3
	c-2.3-0.9-2.8-2.6-2.6-4.8C191.6,345.5,191.6,345.6,191.6,345.6z"/>
<path class="st0" d="M741.6,900.7c0.3-0.3,0.7-0.7,1-1s0.7-0.7,1-1c1.4-0.6,2.7-1.7,4.1-1.7c1.5,0,3.7,0.4,4.3,1.5
	c1.4,2.5,4.2,4.3,4,7.7c0,0.8,1.4,2,2.5,2.5c1.6,0.8,3.4,1.2,5.3,1.8c1-0.6,2.3-1.4,3.6-2c3.5-1.6,5.3-1.3,6.9,2.1
	c1.1,2.4,3.1,2.1,4.9,2.6c0.5,2.3,1,4.7,1.6,7.5c-3.3-0.1-5.8,0.8-7.4-2.7c-0.5-1.1-3.5-2.2-4.6-1.6c-3.4,1.5-5.7-0.2-8.2-1.6
	c-0.5-0.6-0.8-1.6-1.4-1.8c-3.4-1.2-6.8-2.4-10.3-3.3C744.2,908.4,742.3,905,741.6,900.7z"/>
</svg>
