<?xml version="1.0" encoding="utf-8"?>
<!-- Generator: Adobe Illustrator 22.0.0, SVG Export Plug-In . SVG Version: 6.00 Build 0)  -->
<svg version="1.1" id="Layer_1" xmlns="http://www.w3.org/2000/svg" xmlns:xlink="http://www.w3.org/1999/xlink" x="0px" y="0px"
	 viewBox="0 0 684.5 539.9" style="enable-background:new 0 0 684.5 539.9;" xml:space="preserve">
<style type="text/css">
	.st0{fill:none;stroke:#000000;stroke-miterlimit:10;}
</style>
<path class="st0" d="M135.3,490.6c-5.1,0-10.2,0.3-15.2-0.1c-4.5-0.3-8.2-2.4-8.9-7.6c-1-1-1.9-2-2.9-3.1l0,0
	c-0.3-2.7-0.6-5.4-1-8.1c0.4-0.6,0.9-1.3,1.3-1.9c0.6-0.7,1.1-1.4,1.7-2l0.1-0.1c1.7-0.1,3.5-0.1,5.2-0.2c2.6,0.4,5.2,0.8,7.8,1.2
	c1.5,2.1,3,4.1,4.9,6.7c5.1-6.9,10.9-6.9,17.3-4c1.1,0.5,2.8,0.5,3.9,0.1c1.4-0.6,2.4-1.9,3.5-3c-1.1-1.2-2.1-2.8-3.5-3.6
	c-1.3-0.7-3.1-0.5-4.7-0.8c7.8-3.8,15.6-6.3,22.7-10.1c4.5-2.4,7.7-4.1,13.3-2.8c8,1.8,10.7,4.8,11.5,12.3c0.2,1.7,0.8,3.3,1.2,4.9
	c0.7-0.1,1.4-0.2,2.1-0.3c0-4.9,0-9.8,0-14.6c3.5,6.9,3.4,6.9,2.7,13.6c-0.3,2.7,0.4,5.5,0.7,8.2c0.7,0.1,1.3,0.2,2,0.3
	c1.1-2,2.1-4.2,3.4-6.1c1.1-1.6,2.7-2.9,4.1-4.3c0.6,0.1,1.2,0.3,1.8,0.4c-0.6,2-1.6,4-1.7,6.1c0,1.7,1,3.5,1.6,5.3
	c1.4-0.6,2.9-1,4-2c6.1-5.3,8.7-11,2.3-18.1c-1.1-1.3-1.8-3.2-2-5c-0.1-1.3,0.4-3.3,1.3-4.1c4.2-3.4,9.1-3.9,14.3-2.8
	c2,0.4,4.3-0.3,6.7-0.5c-2.8-6.8-1.6-8.8,5.1-7.8c4,0.6,8.6,2,11.5,4.6c2.6,2.3,3.1,6.8,4.9,10.2c3.1,6,6,12.1,14.3,12.6
	c2.5,0.1,4.8,2.1,7.3,2.9c1.7,0.5,3.6,0.4,5.4,0.6c-0.6-1.9-0.8-4.1-1.9-5.5c-3.7-4.7-9.1-4.9-14.5-4.5c-2.7,0.2-5.2,0-4.7-3.8
	c0.4-1,0.7-2,1.1-3c0.8-1.6,1.6-3.2,2.4-4.8c-1.6-0.8-3.2-1.5-4.8-2.3c-0.3,0-0.5-0.1-0.8-0.2c0.6-1.3,1.2-2.6,1.8-3.9
	c3.3,4.6,5.4-0.8,8.1-1.1c1.4,0.5,2.7,1.4,4.1,1.5c2.1,0.2,4.4,0.3,6.2-0.5c3.6-1.6,2.3-4.9,1.9-7.7c0.4-0.7,0.8-1.5,1.1-2.2
	c1.6,1.6,3.2,3.3,5,4.7c0.9,0.7,2.4,0.7,3.6,1c0.5-4.9,4.5-6.6,8-8.8c0.4-0.2,0.1-1.3,0.3-1.9c0.4-0.9,1-1.7,2-3.5
	c0.6,2.7,0.9,4.2,1.3,5.8c1.7-0.6,3.2-1.2,4.8-1.7c1.5,1,3.6,1.6,4.4,2.9c2.6,4.7,5,9.5,6.8,14.5c1.7,4.6,6,8.6,10.5,8.7
	c1.6,3.7,4,5.6,8.6,5.6c4.1,0,6,3.4,6.4,7.6c0.3,2.5-2.2,7.2,3,6.8c5.1-0.4,2.8-5.1,2.9-8.1c0-1.7-1.1-3.4-1.7-5.1
	c-0.7-1.8-1.4-3.7-2.1-5.5c1.4,0.3,3.1,0.3,4.2,1.1c4.5,3.1,8.7,1.8,13-0.6c0.8-0.5,1.8-0.6,2.8-0.9c0.7,0.6,1.4,1.1,2.1,1.7
	c1.3,0.7,2.6,1.4,3.9,2.1c1.7,0.8,3.7,2.6,4.9,2.1c6.3-2.2,9.5,2.7,14,5c-0.9,3.4-6.7,5.6-2.3,9.1c5.5,4.4,5.8-3.6,10.8-5.3
	c-1.1,2.9-1.4,5.3-2.7,6.6c-2.7,2.7-4.2,5.3-1,9.8c-10.2,1.1-13,10.9-21,14.9c-5.4,2.7-10.7,4.6-15.3,2.7c-7.1-3-12,0.7-17.5,3
	c-0.4,0.3-0.8,0.7-1.2,1c-2.4,0.2-4.9,0.9-7.3,0.7c-6-0.6-12-1.6-18-2.5c-0.8-0.2-1.7-0.4-2.5-0.6c-4.4-3.5-8.5-7.7-15-5.4
	c-0.7,0.2-1.6-0.1-2.4-0.2c-1.9-0.5-3.7-1.1-5.6-1.6c-2.1-0.9-4.1-2.5-6.3-2.7c-4.2-0.3-8.7-3.3-12.6,1.8c-2.1,2.8-5.2,5.1-8.3,6.8
	c-7.8,4.1-14.4,10.3-23.5,12.2c-4.1,0.9-4.3,5.8-0.9,8.6c1.4,1.2,2.3,2.9,3.4,4.3c-0.7,2.7-2.5,2.2-4.3,1.4c-1.5-2.4-3-4.9-4.6-7.3
	c-1.3-2-2.5-4.5-5.6-2.8c-0.4-0.3-0.8-0.6-1.1-0.9c-0.2-0.1-0.5-0.3-0.8-0.4c-0.6-2.8-2.1-7,2.7-6.4c4.9,0.7,5.5-1.8,6.8-4.9
	c-1.6-1.1-3-2.1-4.6-3.2c6.7-3.8,7.6-6.5,4.1-10.6c-3.3,2.8-6.7,5.6-10,8.5c-2.3,0.1-4.6,0.3-6.9,0.4c-1,0.8-2.1,1.6-3.1,2.4
	c-1.7,0.3-3.4,0.6-5,0.9c-1.2-0.4-3.2-1.3-3.4-1c-3.4,5-6.3,3-9.8,0c-0.9-0.8-3.1-0.4-4.6-0.1c-0.4,0.1-1.1,2.1-0.8,2.4
	c1.1,1.1,2.4,2.1,3.8,2.6c1.3,0.5,2.9,0.4,5.4,0.6c-4.5,3.6-8,4.3-12.2,2.4c-2.1-0.9-5-2.3-6.6-1.5c-6.4,3.2-11.4-0.7-16.9-2.4
	c-0.1-0.3-0.2-0.6-0.3-0.9c-0.5-5.6-4.8-2-7.2-3c-1.8-0.7-4.6-0.8-5.3-2.1c-1.2-2.3-0.3-4.5,2.6-5.9c2.8-1.3,2.4-4.2,0.5-5.7
	c-1.6-1.2-4.6-2.1-6.3-1.4c-2.7,1.2-4.8,3.7-7.1,5.7c-1.4-0.2-2.8-0.4-4.2-0.7C138.5,492.1,136.9,491.3,135.3,490.6z"/>
<path class="st0" d="M323.5,480.3c4.1,2.7,7,0.9,9.4-1.8c3-3.4,5.7-7.2,3.9-12.1c-0.3-0.7-1.5-1.5-2.3-1.5c-3.8-0.1-4-2.5-4.2-5.4
	c-0.1-1.6-1.3-3.6-2.7-4.5c-3.1-2-6.6-3.4-9.9-5.3c-0.5-0.3-0.7-1.7-0.7-2.5c0-2,0.4-4,0.3-6c-0.1-4.6-2.8-7.3-7.6-7.6
	c-0.1,0.3-0.4,0.7-0.3,0.9c2.8,5.1,3,9.6-1.5,14.2c-0.8,0.9,1,4.4,1.7,6.7c4.5-1.7,6.7,0.9,9.9,3.8
	C327.2,466.4,328.8,471.1,323.5,480.3z"/>
<path class="st0" d="M375.8,463.8c-2.1-2-4.6-5.9-6.4-5.6c-3.5,0.6-6.8,3.3-9.8,5.6c-0.6,0.5,0.5,3.1,0.6,3.7
	C365.8,466.1,370.2,465.1,375.8,463.8z"/>
<path class="st0" d="M112.2,397.7c-1,0.3-2,0.5-2.9,0.8c0.3-3,0.9-6,0.9-8.9c0-1.3-1.5-2.6-2.2-3.8c-1.5,1.1-4,2-4.2,3.3
	c-0.5,4-1.6,8.3,1.9,11.8l-0.2,0.1c-2.8,2.2-5.5,4.3-8.3,6.5c-4,5.3-12,7.9-17.7,5.8c-3.4-5.7-7.2-10.2-15.1-9.6
	c-7.9,0.7-15.9,0.2-23.9-0.1c-2.1-0.1-4.3-0.6-6.1-1.6c-2.8-1.7-4.9-1.4-7.2,0.6c-1.3,0-2.6,0-3.9,0c-3.4-1.9-4.7-0.5-5.2,3
	c-0.3,2-1.5,3.8-2.2,5.8c-0.5-0.2-0.9-0.4-1.4-0.6c0.8-1.8,1.6-3.5,2.4-5.3c-1-2.6-1.9-5.1-2.9-7.7c-0.3-1.5-0.1-3.7-1.1-4.5
	c-3.2-2.6-3-5.7-1-8.4c2.1-3,4.2-6.4,9.3-4.7c2.2,0.8,5-0.1,7.5-0.3c0-0.5,0-1,0-1.5c-1.3-0.8-2.6-1.7-4.1-2.6
	c3.4-4.2,6.7-8.3,9.8-12.4c2.1-2.7,4.5-4.2,8.2-3.3c1.4,0.3,3.1-0.5,4.5-1.1c3.3-1.3,6.4-2.9,9.7-4.3c1.8-0.8,3.7-1.3,5.5-2
	c3.6-1.1,7.3-2.2,10.9-3.3c2.3,1.9,4.5,4.1,7.1,5.6c2.8,1.6,5.9,2.4,8.9,3.6c2.1,4,1.7,7.8-1,11.3c-0.5,1-1.1,2-1.6,3
	c0,0.5,0,1,0,1.5c1.4,1.1,2.8,2.9,4.3,3c3,0.3,5.1,0.3,6.1,4c0.8,2.8,3.3,3.7,5.1,0.2c2.2-5.3,1.3-7.2-3.8-8.2
	c-1.2-1.3-2.4-2.6-3.6-3.8c2.6-7,1.4-11-4.5-13.9c-1.7-3.5-3-7.3-8.3-6.6c-1.4,0.2-3.1-1.7-4.7-2.6c1.3-0.2,2.5-0.6,3.8-0.7
	c6.4-0.4,6.4-0.4,5.8-6.8c2.1-4.4,6-1.4,9-2.2c-0.2,0.4-0.3,1.1-0.6,1.3c-7,3.7-7.1,6.6-1.1,11.8c2.1,1.8,4.4,4.7,4.6,7.3
	c0.9,11.4,7.7,19.4,14.7,27.4C113,389.1,112.6,393.4,112.2,397.7z"/>
<path class="st0" d="M41.6,383.2c2.1-0.6,3.6-0.7,4.6-1.5c4.1-3.4,8.2-6.8,12-10.5c2.1-2,4.6-4.4,1.5-7.6s-5.8-2.1-8.5,0.7
	c-3.6,3.8-7.3,7.5-10.9,11.4c-1.1,1.2-2.8,3.1-2.5,4C38.4,381.3,40.4,382.2,41.6,383.2z"/>
<path class="st0" d="M38.9,369.7c-1.3-1.2-2.1-2-3-2.7c-0.8,1-2.3,1.9-2.4,3c-0.1,1.1,1.2,2.3,1.8,3.5
	C36.4,372.4,37.4,371.3,38.9,369.7z"/>
<path class="st0" d="M246.7,92.5c-0.2-0.3-0.3-0.7-0.5-1c-0.1-3.7-1.5-6-5.7-5.7c-0.3-0.4-0.7-0.8-1-1.2c-1.2-2.6-2.4-5.3-3.7-7.9
	c2.5-0.8,4.9-1.7,7.4-2.3c3.2-0.7,5-2.2,4.8-5.7c-0.3-5,2.3-7.7,7.1-8.7c-0.8,4,2.2,3.8,4.2,3c3.3-1.2,5.8-0.5,8.9,0.7
	c7.3,2.9,10.1,0.7,9.8-7.2v-0.1c4.5,0.5,8.8,1.8,11.5-4.2c4.3-9.4,10.6-10.7,19.6-5.5c1.5,0.9,4.3-0.2,6.4-0.8
	c0.2,0-0.2-2.5-0.4-3.9c-0.1-1.4-0.6-4-0.4-4c2.5-0.6,5.2-1.1,7.8-1c0.6,0,1.6,3.2,1.2,4.5c-0.9,3.2-0.2,4.8,3.1,5.1
	c1.9,0.2,3.8,0.5,7.1,0.8c-1-2.7-1.6-4.6-2.5-6.3c-2.1-3.7,0.3-9.4,4.4-9.6c4.2-0.2,5.6-2.3,5.2-6.2c0.6-0.1,1.2-0.3,1.9-0.4
	c3,1.2,6.1,3.6,8.8,3.3c6.6-0.8,9.7,2.3,11.6,7.8c0.3,0.9,0.6,2,1.2,2.7c1.9,2.3,4.1,2.5,5.4-0.3c0.8-1.7,1.2-3.9,1-5.7
	c-0.9-7.1-6.4-11.9-13.5-12.1c-1.2,0-2.4-0.4-3.7-0.6c1.3-1.5,2.2-2.6,3.2-3.8c0.3-1.3,0.6-2.5,1-3.8c3.4,1.9,7,5.5,9.4-1.2
	c0.2-0.4,1.1-0.6,1.7-0.8c9.5-2.9,9.5-2.9,13.1,6.3c0.3,0.8,0.7,1.5,1,2.3c1.5,3.6,3.9,5.2,8.1,4.9c3.2-0.2,6.6,0.5,9.7,1.5
	c3.4,1.1,6.1,6.2,4.6,8.1c-3.1,4-4,10.1-10.4,11.2c-1.3,0.2-2.9,2-3.4,3.4c-0.6,1.8-0.9,4.5,0.1,5.7s3.7,1.4,5.6,1.3
	c1.6,0,3.1-1.2,4.7-1.7c4-1.2,5.2-0.2,4.5,3.9c-0.3,2.1-1,4.2-1.1,6.4c-0.2,4.2,3.3,3.5,5.7,3.8c0.7,0.1,1.6-2.2,2.4-3.4
	c0.9-1.5,1.8-3,2.5-4.6c0.9-1.8,2.9-4.7,2.3-5.4c-2.2-2.7-5.2-4.7-8-6.9c-1-0.8-3-1.4-3-2.2c-0.1-2.2-0.1-4.8,1-6.6
	c1-1.8,3.3-2.3,4.4,0.7c0.9,1.5,1.7,4.1,2.8,4.3c4.5,0.6,6.2,3.9,7.1,7.4c0.8,3.1,2.1,3.7,4.8,3.2c5.8,0.2,11.2,1.3,15.5,5.6
	c0.5,0.5,1.5,0.4,2.3,0.6c0,1.7,0,3.4,0,5.4c-4.9-2.1-8.9-3.4-12.6-5.4c-5.4-2.9-7.4-2.6-10.5,2.8c3.1,0.6,6.2,1.2,8.7,1.7
	c-0.2,2.2-0.3,3.9-0.6,5.4c-0.4,1.8-0.6,3.9-1.5,5.4c-0.8,1.2-2.7,1.7-4.3,2.6c1.8,2.9,3.2,5.7,7.2,5c4.1-0.8,5.9-3.2,5.5-7.5
	c-0.3-3.3,0.8-5.8,3.7-6.6c1.4,1.7,2.5,3.1,3.6,4.4c0.7-1.4,1.3-2.8,2.1-4.1c0.4-0.7,0.9-1.4,1.5-1.9c4.6-3.7,9.2-7.3,14.1-11.1
	c-1.1,0-2.6-0.3-4,0c-4,0.9-7.9,2-11.9,3c1.1-1.7,2.2-3.4,3.3-5.1c0.3-0.2,0.6-0.5,1-0.7c2.3-1,4.6-1.9,6.9-2.9
	c0.6-0.6,1.2-1.3,1.9-1.9c2.1-1.9,3.9-4.1,6.2-5.7c4.1-2.8,8.3-5.9,13.7-4.4c5.2,1.5,8.2-0.6,10.2-5.1c0.9-1.1,1.7-2.2,2.6-3.2
	c1.4-1.6,2.6-4.3,4.3-4.7c5.4-1.2,11.1-1.5,16.6-2.1c2.4-0.2,4.9-0.1,7.9-0.2c2.1-0.3,4.4-0.6,7.6-1.1c0.6,1.4,2.2,3.4,2.4,5.6
	c0.3,4.2-5,9.7,3.1,11.9c0.2,0.1,0.2,0.9,0.3,1.4c1.4,4.2,1.4,8.1-1.6,11.8c-0.8,0.9-0.9,2.4-1.5,4.2c3.2-1.1,5.6-1.9,7.9-2.7
	c3.4-1.3,6.2-7,5-10.4c-1.3-3.8,0.9-4.3,3.7-4.4c0.1,2.1,0.1,4.2,0.2,6.3c-1.3,3.1-3,6-3.8,9.2c-0.4,1.4,0.7,4.6,1.5,4.7
	c3.7,0.5,8.1,3.9,11.1-3.6c0.9,3.2,0.9,5.1,1.8,6.3c1.2,1.5,4.3,3.7,4.7,3.4c4.3-3.7,9.6-2.7,14.5-3.7c1.9-0.4,3.5-1.9,5.3-2.8
	c-1.3-1.3-2.6-2.7-4-4.2c0.7-0.4,1.7-0.9,2.7-1.4c0.3-0.1,0.5-0.1,0.8,0.1c2.7,1,3.5-0.3,3.3-2.8c2.7,0,5.5,0,8.2,0
	c2,2.1,4,4.3,5.9,6.4c-0.1,3.2-0.1,6.5-0.2,9.7c-0.7,0.7-1.3,1.3-2,2c-0.7,0.4-1.4,0.9-2,1.3c-6.2-0.4-9.6,2.9-9.6,9.3
	c-0.6,6.7-6.9,8.9-11,10.1c-6.2,1.8-7,5.3-8,10.2c-0.4,2.2-2.6,5.1-4.6,5.6c-6.8,1.8-13.7,2.8-20.7,3.9c-5.2,0.8-12.5-3.1-13.9-6.6
	c-0.8-1.9-2.4-3.5-3.7-5.2c-2,1.6-4,3.1-5.8,4.7c-1.2,1-1.9,3.1-3.1,3.4c-4.1,1-8.3,1.7-12.5,2c-4,0.2-10,4.1-11.8,8.5
	c-0.3,2-0.7,4.1-1,6.1c-7.5,1.2-15.1,2.5-22.6,3.7c-6.4-4.6-13.8-5.8-21.3-7.2c-0.9-0.2-1.7-0.9-2.6-1.4c-2.4-1.4-4.8-2.7-7.2-4.1
	l-0.2-0.2c-0.5-0.8-1.1-1.7-1.6-2.5c-0.7,1-1.5,2-2.2,3.1c-1.4,1-2.7,2-4.1,3c-1.5,0.5-3,1.2-4.6,1.4c-5.8,0.8-11.1,4.8-17.4,1.5
	c-4.4-2.2-9.3-3.5-14.1-4.8c-3.1-0.8-6.6-1-6.6,3.9c-0.1,0.3-0.2,0.6-0.4,0.9c-2.8,2.1-5.5,4.3-8.3,6.4c-1.4,0.8-2.8,1.6-4.2,2.4
	c-0.8,0.1-1.6,0.3-2.4,0.4c-5.3,0.2-10.7,0.5-16,0.7c-1.1,0.4-2.2,0.8-3.3,1.2c-1,0.9-2,1.8-3,2.6c-0.3,0.2-0.7,0.3-1,0.5
	c-6.1,0.2-12.1,0.7-18.2,0.4c-7.9-0.5-13.7-5.7-19.5-10.2c-1.1-0.8-0.8-3.2-1.4-4.8c-0.7-1.9-1.7-3.7-2.6-5.5
	c-0.2-0.2-0.4-0.5-0.5-0.7c0.1-1.1,0.3-2.2,0.4-3.3c1.6-1,3.3-2.1,4.9-3.1c1.1-0.1,2.2-0.2,3.3-0.3c-0.3-0.9-0.4-2.4-0.8-2.5
	c-1.7-0.5-3.6-0.5-5.4-0.6c-0.9,0-1.8,0-2.7,0c-1.8-0.5-3.6-0.9-5.4-1.4l-0.2-0.2c-2.7-2.5-5.3-5-8.1-7.3c-0.6-0.5-2.2-0.8-2.8-0.4
	c-4.2,3.2-9.2,2.4-13.9,2.7c-0.7,0-1.3,0-2,0c-2.4,0.5-4.8,1-7.2,1.6c-0.9,0-1.9,0-2.8,0.1c-3.1-0.7-6.3-1.4-9.4-2.1
	C250.9,95,248.8,93.7,246.7,92.5z"/>
<path class="st0" d="M467,48.5c6.6-1.4,11.8-1.5,16.2,3c1.4,1.5,3.6,2.4,5.5,3.2c8.6,3.9,12.6,10.4,12.4,19.7c0,1,1.5,2.8,2.6,3
	c2.4,0.5,5,0.5,5.7-3.1c0.7-3.8,3.1-7.7-1.7-10.5c-1.2-0.7-2.7-1.1-4.2-1.8c0.6-1.5,1.1-2.7,1.4-4c1.5-5.9-3.2-10.8-9.2-10.1
	c-2.7,0.3-6-0.2-8.4-1.5c-3.4-1.8-15.8-3-18.8-0.9C467.9,45.9,467.8,46.9,467,48.5z"/>
<path class="st0" d="M352.6,56.3c4.4,2.9,8.3,5.4,12.2,7.9c0.4,0.3,1.5-0.3,2.2-0.7c3.8-2.6,3.7-6.4-0.2-9.2
	C360.4,49.7,360.4,49.7,352.6,56.3z"/>
<path class="st0" d="M385,82.2c1.1-2.4,2.4-4.2,2-4.9c-1.6-2.6-3.8-4.9-5.8-7.3c-1.6,1.9-3.2,3.7-4.8,5.6
	C379,77.5,381.6,79.5,385,82.2z"/>
<path class="st0" d="M561.6,100c3.5-3.5,5.1-10.6,3.5-13.4c-0.4-0.6-1.2-1.6-1.7-1.5c-0.8,0.1-2.1,0.7-2.3,1.4
	C559.9,90.8,559.8,95,561.6,100z"/>
<path class="st0" d="M598.1,62.5c-2.3-2.5-4.3-4.9-6.5-6.8c-0.8-0.7-2.4-0.5-3.6-0.8c0.4,1.4,0.4,3,1.2,4.1c1.2,1.8,2.8,3.4,4.3,5
	c0.6,0.6,1.7,1.6,2.1,1.4C596.4,65,596.9,64,598.1,62.5z"/>
<path class="st0" d="M411.6,114.8c0,0.3,0,0.6,0,0.9c2.9,0.3,5.8,0.8,8.6,0.9c0.9,0,1.8-1.2,2.7-1.9c-0.9-0.5-1.9-1.5-2.7-1.4
	C417.3,113.6,414.4,114.3,411.6,114.8z"/>
<path class="st0" d="M393.5,105.7c-0.5-0.8-1-1.6-1.5-2.4c-1.5,0.8-3.1,1.7-4.6,2.5c0.6,1,1.3,1.9,1.9,2.9
	C390.7,107.7,392.1,106.7,393.5,105.7z"/>
<path class="st0" d="M626.4,129.9c-0.7,0-1.4-0.1-2-0.1c-0.4-0.7-0.8-1.4-1.2-2c-0.3-0.2-0.6-0.5-0.9-0.7c-0.6-0.2-1.2-0.4-1.8-0.7
	c-1.2-1.6-2.5-3.2-3.7-4.8c-0.6-1-1.2-1.9-1.7-2.9c-0.3-2.9-0.1-6.4-4.8-5.2c-2.7-0.4-5.4-0.6-8.1-1.1c-3.9-0.7-7.8-1.5-11.7-2.3
	c-0.7-0.3-1.5-0.6-2.2-0.9c-0.9-1.2-1.8-2.3-2.6-3.5c3.4-6.7,7.8-11.2,15.6-12.6c3.8-0.7,6.8-4.7,10.5-6.6c1.6-0.8,4-0.2,6.1-0.2
	c0.6,0,1.2,0.8,1.8,0.7c8.6-1,10.2,5.5,12.4,11.4c-1.2-0.9-2.3-1.9-3.5-2.8c-2.5-1.9-5-3.9-7.7-5.5c-0.6-0.4-2.4,0.3-2.8,1
	c-0.4,0.6,0.2,2,0.6,3c1.6,3.8,3.2,7.7,4.8,11.5c1,2.4,2,4.7,3.2,7.6c1.9-2,2.8-3,3.2-3.5c0.6,3.6,1.1,7.3,1.7,11
	c-0.1,0.7-0.2,1.3-0.3,2c-3.2,0.8-4,3.1-3.8,6.1C627.1,129.2,626.7,129.5,626.4,129.9z"/>
<path class="st0" d="M590.4,110.1c3.9,0.8,7.8,1.6,11.7,2.3c2.7,0.5,5.4,0.7,8.1,1.1c-3.1,0.1-6.4,0.6-9.4,0.1
	C597.2,112.9,593.8,111.3,590.4,110.1z"/>
<path class="st0" d="M447,287.1c-1.3-0.1-2.5-0.3-3.8-0.4c-1-2.4-1.9-2.4-2.9,0c-0.4,0.3-0.8,0.7-1.2,1c-1.3-0.6-2.5-1.3-3.9-1.7
	c-1.4-0.4-3.9-0.9-4.2-0.3c-0.8,1.3-0.9,3.3-0.8,5c0,0.8,1,1.6,2.2,3.1c-2.1-0.3-3.5-0.1-4.3-0.6c-6.8-4.3-12.1,1.8-17,3.9
	c-5.8,2.5-9.8,9.1-14.6,14c-1.4,0-2.8-0.1-4.3-0.1c-0.6,0.2-1.3,0.4-1.9,0.6l-0.1,0.1c-1.2-0.5-2.3-0.9-3.5-1.4
	c-1.4-0.6-2.7-1.3-4.1-1.9c-0.5,2.1-2,5.2-1.2,6.1c2.2,2.3,1.3,3.8,0.4,6c-1.7,4.3,0.1,7.4,4.2,8.2c5.6,1.1,7.1,4.1,4.8,9.5
	c-0.6,1.4-0.7,3.1-1,4.7c-0.1,0.4-0.2,0.8-0.4,1.1c-3.8-0.4-7.5-1.1-10.6,2.4c-0.5,0.6-2.4-0.2-3.7-0.3c-2-0.2-4.5-1.2-5.7-0.4
	c-1.3,0.9-2.4,4-1.9,5.5c0.6,1.6,3.2,2.5,4.9,3.7c-0.8,2.4-1.5,4.8-2.3,7.2c-0.4,0.1-0.7,0.3-1.1,0.4c-2.5,0.9-5.2,1.2-7.3,2.7
	c-7.4,5-14.9,5.9-23.5,2.9c-6.8-2.3-14.3-2.8-21.3-4.6c-4.8-1.2-10.5-1.9-13.9-4.9c-8.3-7.4-19.5-7.2-28.3-12.7
	c-3.9-2.4-7.2-5.9-10.8-8.9c-0.2-2.4-0.5-4.7-0.7-7.1c0.7-2,1.4-4.1,2.2-6.1c0.5-0.2,1.1-0.3,1.6-0.5c1.1-0.7,2.1-1.4,3.2-2
	c-1-0.7-2.1-1.4-3.1-2.1c-1.1,0.1-2.2,0.1-3.3,0.2c-1.9-0.1-3.7-0.2-5.6-0.2c-1.9-1.2-3.8-2.4-5.6-3.6c-1.3-1.4-2.6-2.8-4-4.1
	c-2.2-2.1-4-2-5.2,1.1c-0.7,0.4-1.4,0.8-2,1.2c-1.3,0.1-2.6,0.2-3.9,0.3c-1.6-0.4-3.2-0.7-4.9-1.1c-1.8,0.1-3.5,0.2-5.3,0.2
	c-3.6,0.4-7.1,0.7-10.7,1.1c-1.4-0.4-2.8-0.8-4.3-1.2c-3-2.4-6-4.7-9-7.1c-1.1-0.9-1.8-2.9-2.8-3.1c-7.2-0.8-10.3-7.3-15.5-10.8
	c0.1-4.6-2.5-9.6,1.7-14.4c0.8,3,1.5,5.3,2.2,7.8c8-2.9,3.4-11,7.5-14.7c-2.6-0.9-6-1-6.8-2.5c-2.5-4.4-4.8-3.5-7.9-0.2
	c-0.5-1.7-1.1-3.6-1-3.6c4.8-1.9,4.7-10.4,12.1-8.9c0.9,0.2,3.1-1.3,3.2-2.2c0.1-1.3-0.7-3.2-1.8-4c-1.6-1.1-3.8-1.5-5.4-2
	c9.2-4.3,18.6-8.9,28.2-13.2c1.2-0.5,3-0.2,4.3,0.2c4.9,1.6,9.6,3.5,13.3,4.9c0.6,5.2,1.2,9.2,1.7,13.2c1-0.1,2-0.1,2.9-0.2
	c-0.2-3.5,0.5-7.3-0.7-10.5c-1.1-3.1-0.2-3.8,2.3-4.4l0.2,0.3c2.1,5.3,2.2,10.6,0.7,16.2c-0.4,1.3,1.4,3.2,2.2,4.8
	c1.2-1.4,2.4-2.8,3.6-4.2c1.5-1.7,3-3.4,4.4-5.1c0.6,0.1,1.2,0.3,1.8,0.4c-0.6,2.2-1.7,4.4-1.8,6.6c-0.1,1.7,1,3.5,1.6,5.2
	c1.6-0.8,3.4-1.4,4.8-2.6c1.1-0.9,1.5-2.6,2.5-3.5c3.3-3.1,3.8-7,1.5-11c-1.5-2.5-3.1-5.1-4.1-7.8c-0.4-1.2,0-3.4,0.9-4.2
	c3.7-3.4,8.1-4.4,13.2-3.2c2.5,0.6,5.2,0.1,8.1,0.1c-2.8-7.5-1.5-9.2,5.7-8.3c3.5,0.5,7,1.6,10.4,2.6c0.6,0.2,1.2,1.1,1.6,1.7
	c2.5,5.3,4.9,10.6,7.4,15.8c0.4,0.8,1.3,1.3,2,1.9c0.8,1,1.4,2.3,2.4,2.8c4.9,2.2,9.9,4.3,15,6.2c0.9,0.3,2.8,0.2,3-0.2
	c0.5-1,0.7-3.1,0.1-3.6c-2.6-2-5.3-4.4-8.4-5.2c-3.8-0.9-7.9-0.2-11.9-0.2c0.3-1.9,0.5-3.9,1-5.8c1-3.9,2.5-7.8-2.8-9.9
	c-0.5-0.2-0.6-1.4-0.8-2.1c1-0.3,2-0.6,3-0.8c3.1,4.3,4.6-0.8,6.9-1.1c5.4,2.7,10.4,2.8,15-2c0.7-0.8,3.8-0.2,5.1,0.7
	c4.4,3,7.2,2.4,9.2-2.8c-1.2-1-2.3-2-4.4-3.7c2.3-0.7,3.7-0.9,4.9-1.5c3.4-1.5,6.8-3.1,10.2-4.7c0.3-0.1,0.8,0,1-0.2
	c3.7-4.3,7.4-8.5,11.1-12.8c0.3,0,0.6-0.1,0.9-0.2c5.3-0.9,10.6-1.9,15.9-2.8c1.7-1,3.3-2.1,5-3.1c0.7,0.4,1.3,0.8,2,1.2
	c0.3,2.7-3.7,6.5,2.1,7.7c2,1.1,3.9,2.3,5.9,3.4c0.9,5.2,3.3,10.4-0.5,15.5c-0.5,0.7,0.4,2.8,1.2,3.9c1.3,1.7,2.8,3.3,4.5,4.6
	c3.8,3,3.5,5.8-0.3,8.2c-3.7,2.3-5.8,4.9-2.5,9.5c-1.8,0.6-3.2,1-4.5,1.5c-2.9,0.5-5.8,1-8.7,1.5c-1,1-1.9,1.9-2.9,2.9
	c-0.1,0.3-0.2,0.7-0.2,1c-0.6,1.5-1.3,3-1.9,4.6c1.3,0,2.7,0,4,0c0.9,0,1.9-0.1,2.8-0.1c3.8-1,7.7-2,11.5-3c1.6,0,3.2,0.1,4.8,0.1
	c1.3,0.8,2.6,1.6,3.9,2.4c0.1,0.3,0.2,0.6,0.3,0.9c0.2,2.6,1.3,3.5,3.9,2.4c0.9-0.4,2.1-0.4,3.1-0.4c1-0.1,2,0,3,0.1
	c-0.3-1-0.5-2.1-0.9-3.1c-0.3-0.9-0.8-1.8-1.2-2.6c1.1-1,2-1.8,2.9-2.7c1-0.1,1.9-0.1,2.9-0.2c2.7,2.2,5.5,4.4,8.2,6.6
	c0.5-0.2,1-0.3,1.5-0.5c0-3.7,0.3-7.4-0.1-11c-0.6-5.9,3.3-11.5,9.3-12.3c5.7-0.8,11.4-1.4,17.2-1.7c1.2-0.1,3.5,1.6,3.6,2.7
	c0.7,4.5,3,4.5,6.4,3c1.2-0.5,2.5-0.6,3.8-0.9c0.6,1.6,1.2,3.3,1.8,4.9c2.6,4.9,2.3,9.7-0.5,14.5c-0.4,0.7,0.3,1.9,0.3,2.9
	c0.1,5.6,4.2,11.7-2.2,16.5c-0.4,0.3-0.1,1.6-0.2,2.4c-0.1,0.5-0.2,1.1-0.3,1.6c-3.2,1.2-7.1,1.6-9.5,3.7
	C458,285.4,453.1,287.5,447,287.1z"/>
<path class="st0" d="M159.5,309.4c1.6,2.1,4.5,4.3,4.4,6.3c-0.2,2.1-2.9,5-5.1,5.8c-9.5,3.4-19,7.3-28.9,8.8
	c-9.5,1.5-19.5,0.8-29.3,0c-3-0.2-5.7-3.8-9.4-1.8c-0.4,0-0.7,0-1.1-0.1c-0.7,0.1-1.3,0.1-2,0.2c-3-0.9-6-1.9-9.1-2.8
	c-0.4-0.7-0.8-1.3-1.2-2c-0.4-1.1-0.8-2.2-1.1-3.3c-0.9-1-1.7-2.1-2.6-3.1c0-1.8,0-3.6,0-5.4c2.1-2.5,4.1-4.9,6.2-7.3
	c5.4,1.2,10.7,3.8,16.8,0.3c-2.1-1.3-3.4-2.1-4.8-3c1.1-2.4,1.7-5,3.3-6.8c1.7-1.9,4.2-3.8,6.6-4.3c2.9-0.6,6.1,0.4,9.2,0.7
	c1.4,2.5,3.5,5.6,5.7,5.7c5.3,0.2,5.5,2.5,4.9,6.7c-0.3,2,0.6,4.3,1.1,7.3c7.4-6.1,2.2-13.1,4.4-18.7c2.1,0.9,4.2,1.9,6.3,2.8
	c0,2.3,0,4.5,0,7.2c1.7-1.2,2.8-2.6,3.8-2.6c2.5,0.1,6.6,0.2,7.2,1.5c1.3,3,2.3,5.1,5.8,5.6C153.7,307.8,156.6,308.7,159.5,309.4z"
	/>
<path class="st0" d="M121.2,108.7c-0.7-1.6-1-3.5-2-4.9c-4-5.2-1.5-13.3,4.9-15.5c5.6,3.3,12.3,3.5,15,0.9c-1.3-1.9-2.6-3.7-3.9-5.6
	l0,0c0.7-0.4,1.6-0.7,1.9-1.3c5.4-9.6,12-10.3,19.4-2.2c0.8,0.9,2.4,1.5,3.5,1.4c5.6-0.4,5.8,2.3,4.8,6.8c-0.4,1.7,1.4,3.8,2.2,5.8
	c1.3-1.5,2.9-2.9,3.9-4.6c0.5-1-0.2-2.6-0.2-3.9c-0.2-2.7-0.3-5.4-0.4-7.7c7.4-0.8,5.4,5.4,7,8.8c0.2-0.6,0.4-1.2,0.6-1.8
	c3.3-0.2,6.6-0.4,9.9-0.6c-0.2,3-0.5,6-0.7,8.6c2.3,0.1,6.1-0.9,8.7,0.5c3.1,1.6,5.2,5.2,8.2,8.5c-1.8,1.1-3.1,2.1-4.5,2.6
	c-6.7,2.3-13.4,4.4-20.1,6.7c-0.8,0.3-1.4,1.3-2.1,1.9c-0.6,0.2-1.3,0.4-1.9,0.5c-8.5,0.1-16.9,0.3-25.4,0.4
	c-0.8-0.1-1.6-0.1-2.4-0.2c-1.4-0.1-2.8-0.2-4.2-0.4c-0.3-0.1-0.6-0.2-0.8-0.4c-2.1-3.2-4.5-3.2-7.2-0.8c-1.7,0-3.4,0.1-5,0.1
	c-1.1,0.2-2.1,0.3-3.2,0.5c-0.2,0.1-0.3,0.3-0.4,0.5c-1.2,2.8-2.3,5.5-3.5,8.3c-0.5,0.3-1,0.7-1.5,1c0.8-2.4,1.5-4.8,2.3-7.3
	c-0.5-1.7-1-3.5-1.5-5.2C122,109.8,121.6,109.2,121.2,108.7z"/>
<path class="st0" d="M554,397.4c-1.3,0.4-2.5,0.8-3.8,1.2c-0.1-1.3-0.4-2.6-0.2-3.9c0.2-2.2,1-4.4,1-6.6c0-1-1.3-2.5-2.3-2.8
	c-1-0.2-2.6,0.5-3.4,1.3c-2.2,2.2-1.2,12,1.2,14.2l-0.2,0.1c-3,2.2-6,4.5-9,6.7c-3.4,5.4-12.2,8-17.2,5c-3.2-3-6.2-6.2-9.6-8.8
	c-1.1-0.8-3.5-0.5-5.1,0c-7.5,2.3-14.9,4.8-22.4,7.3c-0.9-0.1-1.8-0.2-2.6-0.3c-1.4-1.3-3.1-2.4-4.1-4c-2.1-3.5-4.1-2.2-6.9-0.8
	c1.6,1.4,2.7,2.3,3.7,3.1c-2.1,1.9-4,3.5-5.9,5.1c-1.3-0.1-2.7-0.3-4-0.4c-1.5-2.3-2.7-4.9-4.6-6.9c-1-1.1-3.5-1.9-4.7-1.3
	c-2.1,0.9-3.7,3-6,5.1c-0.9-1.5-1.7-2.9-2.5-4.2c0.5,0.1,1,0.3,1.5,0.4c1.4-1.7,2.9-3.5,4.3-5.2c-2.6-1.6-5.2-3.2-7.8-4.7
	c-0.1,2.3-0.3,4.7-0.5,8.4c-2-2.8-3.7-5.2-5.4-7.7c-6.6,4.3-12.7,8.8-20.9,6.1c-1-0.3-2.3,0.2-3.4,0.3l-0.3-0.2
	c0.9-0.8,2.2-1.4,2.8-2.4c0.7-1.4,0.7-3,1.1-4.5c-1.2,0.2-2.5,0.2-3.6,0.6c-2.1,0.6-4.2,1.4-6.3,2.1c-0.2-0.3-0.3-0.7-0.5-1
	c-1.4-1.3-2.7-3.7-4.1-3.8c-6.4-0.4-4.6-5-4.8-8.5c-0.3-4.4,2.8-5,6-4.7c5,0.4,10,1.3,15.2,2c0.2-0.4,0.5-1,0.7-1.6
	c1.4-3.4,2.3-7.1,4.1-10.3c2.2-4,6-4.8,10.3-3.3c0.4,0.1,0.9-0.2,1.4-0.4c2.8-0.6,5.6-1.3,8.1-1.8c1.4-1.3,2.9-2.7,4.4-4.2
	c1.6,0.1,3.1,0.2,4.7,0.2c4.4,1.1,8.7,2.9,13.1,3c4.3,0.1,7.1,1.9,10.2,4.2c1.7,1.2,3.7,2,6.4,3.4c0,0-0.6,1.3-0.9,2.6
	c-0.2,1-0.3,2.5,0.3,3c0.6,0.5,2.4,0.6,3,0.1c3.4-2.6,6.5-2.2,10.3-0.7c4,1.7,7.4-0.9,6.2-4.6c-1.5-4.2,0.3-7,3.5-8
	c5.5-1.8,11.4-2.6,17.1-3.8c0.7-0.1,1.6,0.4,2.2,0.9c6,4.9,12.2,9.8,14.2,18c0.9,3.8,3.8,4.1,5.9,1.7c3.2-3.6,5.2-3.3,7.6,0.5
	c0.4,0.6,1.8,0.7,2.7,1C556.5,388.4,556.7,392.9,554,397.4z"/>
<path class="st0" d="M577.2,214.9c7.4,1.7,13.7,4.7,17.3,12.3c1.8,3.7,7,3.5,12.8,0.9c-0.5,0.8-1.1,2.4-1.6,2.4
	c-6.5,0.1-12.5,2.4-18.6,3.5c-8.7,1.6-15.9,6-24,8.1c-5.3,1.4-8.3-3.1-11.7-6.2c-2.3-2.2-1-3.6,0.3-5.9c1.3-2.2,0.8-5.4,1-8.1
	c2.6,0.1,5.4,1,7.6,0.2C566,220.1,571.5,217.3,577.2,214.9z"/>
<path class="st0" d="M448.4,418.9c1.1,0.2,3.1,0.2,3.2,0.5c1,4.6,2.6,9.4,1.9,13.8c-0.3,2.1-5.1,4.2-8.1,5
	c-4.4,1.2-9.2,2.4-13.6,1.7c-6.2-1-12.2-3.3-18-5.9c-1-0.5-0.7-5.1-0.2-7.6c0.4-1.7,2.4-3,3.1-4c3.1,1.1,5.7,2.1,8.3,3
	c1.3-0.5,2.6-1,4-1.4c1.6-0.5,3.3-1.3,4.9-1.1c3.1,0.3,6,1.4,9.1,1.9C449.9,426.2,450.3,425.7,448.4,418.9z"/>
<path class="st0" d="M494.3,272.7c2.2,0.7,6.6-1.5,6.5,3.8c-0.1,3.8-5.8,8.7-9.7,8.4c-3.9-0.3-6.5-3-6.2-6.7
	C485,275,489.4,272.3,494.3,272.7z"/>
<path class="st0" d="M462.3,320.5c6.9,0.1,12.5-3.1,18-6.8C475.9,321.9,471,323.8,462.3,320.5z"/>
<path class="st0" d="M671.2,130.8c-1.1-1.1-2.1-2.3-3.3-3.4c-1.3-1.2-2.8-2.3-5.2-2.6c0.2,1.3,0.4,2.6,0.7,3.9
	c-4.4,1.1-8.7,2.3-13.7,3.5c-0.2-1.5-0.5-3.3-0.8-5.3c-3.5,0.3-7,0.5-10.6,0.8c5.4-2,10.6-4.3,16.1-5.7c2.8-0.7,6-0.1,8.9,0.4
	C668.1,123.1,670.2,126.5,671.2,130.8z"/>
<path class="st0" d="M643.3,142.8c4.6,2.6,9,1.8,13.4-0.7c2.1-1.2,4.6-1.8,7-2.3c6.5-1.3,7.3-2.1,7.6-9c0.3,2.3,1.6,5,0.8,6.8
	c-0.9,2-3.3,4-5.5,4.8c-4.3,1.6-8.8,2.6-13.3,3.5C649.5,146.8,645.2,148.3,643.3,142.8z"/>
</svg>
