<?xml version="1.0" encoding="utf-8"?>
<!-- Generator: Adobe Illustrator 22.0.0, SVG Export Plug-In . SVG Version: 6.00 Build 0)  -->
<svg version="1.1" id="Layer_1" xmlns="http://www.w3.org/2000/svg" xmlns:xlink="http://www.w3.org/1999/xlink" x="0px" y="0px"
	 viewBox="0 0 690.2 446.2" style="enable-background:new 0 0 690.2 446.2;" xml:space="preserve">
<style type="text/css">
	.st0{fill:none;stroke:#000000;stroke-miterlimit:10;}
</style>
<path class="st0" d="M303.9,318c2.5,1.5,3.2,1.2,7.5,1.4c-0.5,1.8-1.7,5.2,1.4,3.4c1.8,1.6-1.8,1.8,0,3.4c0.4,1.4,1.3,2.3,2.7,2.7
	c-3.2,7.9,8.2,7,8.2,13.6c-12.8,4.8-20.4,3.7-31.4-3.4c-2.3,6.1-13.6,2.8-17.7,0c-0.2,0-0.5,0-0.7,0c-3.5,1.2-13.2,2.2-18.4,4.1
	c-2.1-0.2-1.9-2.6-4.1-2.7c-2.4,0.4-3.3-0.8-4.8-1.4c0-0.2,0-0.5,0-0.7c-8.8,4.3-23.5,2.9-30,9.5c-2.9,16.2,31.9,3.7,38.9,10.2
	c9.1-4.5,16,2.5,25.4,1.4c1.5,1.7,2.3,4.1,4.8,4.8c-3,2.6-2.7,8.8-5.5,11.6c0.6,2.1,5.1,3.9,4.1,5.5c-1.1,1-6.3-1.1-8.2,0.7
	c-0.7,3,1.2,3.4,1.4,5.5c-3.5,2.2-9.3,2.1-8.2,8.3c1.5,2.5,6.5,4.2,8.3,2c0.2,0,0.5,0,0.7,0c2.1,2.2,3.4,5.2,7.5,5.5
	c1.1,0,2.3,0,3.4,0c3.7,0.1,2.4-4.9,5.5-5.5c0.8-0.6,1.8-0.9,3.4-0.7c0.6-0.5,1.5-0.7,2.7-0.7c0,0.7,0,1.4,0,2
	c-0.1,2.6,2.8,2.2,4.1,3.4c6.8,0.4,15.3,14.1,20.5,3.4c0-0.2,0-0.5,0-0.7c0.8,0.1,1.2-0.2,1.4-0.7c15.1,9.5,28.3-9.4,38.9,0.7
	c1-2.4,9-2,8.2-4.8c3.7-0.1,7.3-0.1,10.2,0.7c2.9-1.9,0-5.8-1.4-7.5c0-0.2,0-0.5,0-0.7c-1.5-2.8-4.6-4-7.5-5.5
	c-3.7-5.4-3.8-14.7-1.4-21.8c6.2,0.7,11.3-4.6,17.7-1.4c0.2,0,0.5,0,0.7,0c1.4,1.6,6.1,0.7,6.8-0.7c-2.4-8.4,3-10.2,2.7-15.7
	c4.1-2.3,7.6-5.2,9.5-9.6c12,2.5,25.7,1,27.3,15c0.2,1.1-0.6,1.2-0.7,2c-2.3,3-6.3,4.2-8.2,7.5c1.3,2.1,1-3,3.4-2
	c-0.8,1.5-2.3,2.3-2.7,4.1c-0.5,0.1-0.8,0.6-0.7,1.4c-2.1,1.7,2.4,2.6,3.4,3.4c6.8,0.8,15.9,14.5,21.1,2.7c8.1-0.7,18.2-3,21.8,4.8
	c7.8,1.8,13.9-1.3,19.1,1.4c0.2,0,0.5,0,0.7,0c0.2,1,1.5,0.8,2,1.4c6.7,10.1,26.6,13.5,37.5,8.2c0.2,0,0.5,0,0.7,0
	c5-0.1,10.2-5.4,14.3-2c3.2-4.6,18.4-7,18.4,2c4,3.3,10.8,1.3,17.1,1.4c0.8,1,0.8,2.8,2,3.4c2.1,0.3,2.8-0.9,3.4-2
	c9.1,0.2,16.4,4.7,24.6,6.1c9.7,1.7,19-5.8,28.6-0.7c-0.4,1.4-1.8,3-0.7,4.1c3.7,1,2.3-3.2,4.8-3.4c1.3,0.5,11.1-1.5,15.7-2
	c0.6,2.2-1.8,1.4-2,2.7c2.4,3.2,5.8-1.5,9.6,1.4c-0.1-2.1-1.3-4.7,1.4-5.5c-1.3,4.3,0.6,1.1,3.4,2.7c-2.7,2-0.2,6.5-4.8,7.5
	c1.1,3.1,3.4,1.3,4.1,4.1c-1.5,4.6-6.1,1.4-4.1,6.1c-0.2,1-2,0.2-2,1.4c-0.8-0.1-1.2,0.1-1.4,0.7c-0.5,0-0.9,0-1.4,0
	c0-0.4-4-2-4.6-1.8"/>
<path class="st0" d="M665.1,414.3c-9.1-2.2-19.6,0.6-25.2-5.5c-11.9,0.5-26.4,7.3-37.5,3.4c-1,0.3,0.3,0.9,0,2
	c-7.2,0.7-13.3-1.5-18.4,0.7c-0.5,0-0.9,0-1.4,0c-6,0.8-11.1,3.1-17.1,2.7c-10.1-0.6-18-4.6-27.3,0.7c-0.2,0-0.5,0-0.7,0
	c-15.3,3.5-32.8,2.7-51.8,4.1c-0.5,3.2-5.7,1.5-5.5,5.5c-9.1,0.7-16.1-0.7-23.9-1.4c-1,0.6-2.6,0.5-2,2.7
	c-18.6,0.2-33.4,0.7-47.7-2.7c-1.2,0.2-1.6,1.2-1.4,2.7c-5.5,0-10.9,0-16.4,0c0.5,1.5,3.8,0.3,5.5,0.7c-2.1,1.1-8.8,1.1-10.9,0
	c2.7-0.5-11.7-5.5-17.1-2.7c-1.4,0-2.7,0-4.1,0c-0.2,0-0.5,0-0.7,0c-14.5-7.1-26.5,2.7-42.3,0.7c-0.4-1.5,0.9-1,1.4-2
	c-4-0.2-19.4,0.7-27.3,0c-1.7-0.2-4.2,0.2-4.1-2c-7.3,6.1-24.2,1.3-25.2-7.5c-11.9,9.9-30.2,0-43.7,8.2c-0.5,0-0.9,0-1.4,0
	c-0.7-1.1-6.1-1.1-6.8,0c-0.7,0-1.4,0-2,0c-2.7-1.6-7.3-1.4-11.6-1.4c0-2.5,0.7-4.3,1.4-6.1c0-0.2,0-0.5,0-0.7c1.9-0.2,7.5-2.3,2-2
	c0.1-1.5,2.9-0.3,4.1-0.7c1.9-0.1,4.7,0.6,4.8-1.4c-1.2-1.8-4.8-1.2-6.8-2c-1-1.1-3.5-0.6-5.5-0.7c0-0.4-0.1-0.8-0.7-0.7
	c-2.7-1.8-7.8-0.1-10.9,0c-0.5,0-0.9,0-1.4,0c-7.4,0.3-18.6-3.2-25.4,0.7c-0.5,0-0.9,0-1.4,0c-2.2,0.6-2.6-0.6-3.4-1.4
	c-4.6,4.6-20.2,9.8-30,6.8c-0.2,0-0.5,0-0.7,0c-0.1-1.9-2.8-1.2-4.8-1.4c5.7-1.8-1.3-4.5-2,0c-0.8-0.3-1.4-0.9-1.4-2
	c-9.6,3.2-17.2,3.5-27.3,2c1.7-0.7,1.6-0.7,1.4-2c-1.3-3.1-8.3-0.6-5.5,2.7c-2.6-1-6.2,0.4-9.6,0.7c-1.5-0.5-1.2-2.9-2-4.1
	c-0.9-0.3-3.7,2.9-0.7,2.7c-3.7-0.4-11-3.1-17.1-3.4c-0.5-2.7-2.2-4.2-5.5-4.1c-2.7-1.3-1.8,4.9-3.4,2.7c-3,0,0.6-2.7-2-3.4
	c-3.3,0.4,0.9,3.7-0.7,4.1c-1.9,0.3-2.7-4.3-2.7,0c-1.5-0.8,0-4.5-2-4.8c-2.8,0.8-1,4.3-2,6.1c-2.1-0.1-1.6-4.5-0.7-5.5
	c-2.6-0.3-2.2,2.4-5.5,1.4c2.4-9-12.3-0.4-15.7-6.1c3.5,2.3,2.8-2.3,1.4-4.1c4.7,1.4,2.4-4,6.8-2.7c0.4-2.4-2-2.1-4.1-2
	c1-0.8,1.1-2.6,2-3.4c-2.5-4.7-5.7-8.9-10.2-11.6c0-70,0-140.1,0-210.1c2.2,5.4,13.6,7,19.8,4.1c4.4-0.3,6.1,2.1,8.3,3.4
	c3.7,3.5,8,9.1,15.7,10.2c10.6,1.5,21.2-4,30.7-4.8c1,1.9,2.3,3.6,4.1,4.8c4-1,9-1,8.3-6.1c0-0.2,0-0.5,0-0.7
	c4.7-0.4,12.8,4.4,19.1,0.7c-0.4-1,0.8-3.5-0.7-3.4c-0.8-2.4-2.7-3.7-2.7-6.8c-6.2-3.2-16.9-16.3-6.1-21.8c0.3-1.6-1.2-1.4-0.7-3.4
	c7.4-4,12.4-4.8,21.8-2.7c3.2-3.3-0.4-9.4,2-13c-0.6-1-1-2.2-2.7-2c-0.2,0-0.5,0-0.7,0c-6.1-1.7-5.2-10.2-8.2-15
	c-2-2.8-5.2-4.4-6.8-7.5c-3.4,4.6-9.9,6.1-10.9,13c-0.1,3,3.5,2.4,4.1,4.8c0.4,1.5-0.9,1-1.4,2c-3.1,0.5-4.7,2.2-8.3,2
	c-4.5,2.3-6.2,7.4-13,7.5c-0.5,0-0.9,0-1.4,0c-2.2,0.6-2.1-0.4-3.4-1.4c-8.2,6.8-23.6,10-35.5,5.5c5.6-1.3-1-5-1.4,0
	c-1.4,0.1-2.2-0.6-2-2c-9.5,3-17.2,3.5-27.3,2c2.3-1,1.3-4.6-1.4-2.7c0-10.5,0-20.9,0-31.4c2.3-0.4,6.4-2.6,5.5-4.1
	c0-0.5,0-0.9,0-1.4c1.7-18.2,2.3-18.5,2.4-19.2c5.2,1.7,12.5,4.3,18.4,1.4c0-2.9-1.3-4.4,0-6.8C33,67.4,23,66,17.8,68.5
	c-2.7-0.5-3.9,0.7-6.1,0.2c0-17.1,0-34.1,0-51.2c2.1,6,14.5,6.1,19.8,4.8c9,2.4,12.5,10.3,21.8,12.3c5.8,1.6,14.5,0.5,19.1-1.4
	c5.2-0.1,7-3.7,13-2.7c6.2,8.8,17.6,12.7,30,15c0.2,0,0.5,0,0.7,0c5.8,8.1,17.9,9.8,28,13.6c0.2,0,0.5,0,0.7,0
	c6,4.4,10,10.9,21.1,10.2c1.2,0.7,1.5,2.1,2,3.4c4.4,1.4,12.4,2.5,14.3-2c-1.8,0.6-3.9,1.1-4.8-0.7c1.3-2.4,5.7-1.6,8.2-2.7
	c2.6,3.8,6.9,5.8,13,6.1c-0.8,1.5-2.3,2.3-2.7,4.1c-0.2,0-0.5,0-0.7,0c-16,2-33.8,4.2-49.1,4.8c2.7,4.3-3.3,6.3-1.4,9.6
	c-0.5,2.5,2.9,1.2,3.4,2.7c-1.6,0.9-2.6-1.8-2.7,0c10.1,4.2,24.8,1.5,25.4,15.7c0.2,1.1-0.6,1.2-0.7,2c-1.7,3.1-8.3,4.9-7.5,8.2
	c0.8-1,0.6-3,2.7-2.7c-0.8,1.5-2.3,2.3-2.7,4.1c-0.5,0.2-0.8,0.6-0.7,1.4c-2.1,1.7,2.4,2.6,3.4,3.4c7.2,1.4,16.3,13.9,21.8,2.7
	c5.2,0.7,10.4-2.2,16.4-0.7c5,13.3,23.6,16.3,38.2,14.3c0.2,0,0.5,0,0.7,0c2.5,1.6,7.8,4,10.9,2.7c-0.5-0.2-1.3,0-1.4-0.7
	c2.9,0.6,5.5,1.3,8.3,1.4c0,0.7-0.8,0.5-1.4,0.7c4.5,1.2,10.3-1.4,15-0.7c0.5,0,0.9,0,1.4,0c14.2,4.6,26.5-5.2,38.2-3.4
	c1.9-4.2,15-6,16.4-1.4c-0.8,0.3-1.5,0.7-2,1.4c0.8,0.2,1.5-0.8,2.7-0.7c0.8,7.1,10.6,4.1,17.1,4.1c2,0.5,1.3,3.7,4.1,3.4
	c0.9-0.3,1.2-1.9,3.4-1.4c9,1,17.8,2.2,23.9,6.1c9.7-1.3,25.6-2.9,35.5-0.7c3.5-2.8,16.3-4.3,16.4,0.7c4.1-2.8,12.1,1.8,16.4-2.7
	c12.1,6.7,23.7,3.9,32.1-1.4c4.2,0.3,7.7,0,10.2-1.4c0.5,3.4-2.7,3.2-2,6.8c-0.1,2.6,2.8,2.2,4.1,3.4c6.8,0.4,15.2,14.1,20.5,3.4
	c0-0.4,0.1-0.8,0.7-0.7c7.8,0.8,21.7,5.5,25.2-4.1c1,1.1,3.6,0.5,3.4,2.7c-1.2,0-1.7,0.5-2,1.4c1.9,0.5,1.4-1.4,2.7-1.4
	c0.6,8,10.7,4.7,17.7,4.8c1.1,1,0.5,3.6,2.7,3.4c13.1-4.4,26.6,7,38.2,4.1c-0.7,2.1-1.4,4.1-2,6.1c2,1.8,3.9,3.8,5.5,6.1
	c2.2,1,2-3.8,3.4-1.4c-1.9,4.1-7.1,1.9-10.9,2.7c-8.4,1.8-19.1,6.1-29.3,3.4c0.1-0.8,2.3-0.5,2-2c-12.8,3.7-27-6.4-38.9,0
	c0.9,19,0.6,19,0.4,19c-4.5,0.4-7.8-0.4-11.6-0.7c-0.3-2.3,1.2-2.9,2-4.1c-2.2-2.3-3.4-7.9-7.5-6.1c3-2.6,0-3.3,2.7-6.1
	c-5.4-3.5-18.4-3.9-22.5,0.7c0.6,0.4,1.6,3.7,2,2c1.1,2.9-4.6,0-3.4-1.4c-3,1.4-0.2,4.7-2.7,6.8c-2-0.8-1.3-3.7-4.1-2
	c1.1-1,2.4-1.7,2.7-3.4c-1.4-1.7-2.7,1.7-4.1,0c-1.7-1.6,1-1.3,0.7-3.4c-0.9,3.6-8.4,0.4-6.1,6.8c-2.6-1.3-5.8-2.3-6.8-5.5
	c-2,0.2-2.5,2.1-3.4,3.4c-3.3,0.5-5.2,0.5-7.5-1.4c-0.9,0.2-0.7,1.4,0,1.4c-7.8,0.7-17.7,1.9-23.9,2c0-3.4,2.5-4.3,5.5-4.8
	c-0.2-0.9-1.7-0.6-2.7-0.7c0.1-1.5,2.9-0.3,4.1-0.7c1.9-0.1,4.7,0.6,4.8-1.4c-1.2-1.8-4.8-1.2-6.8-2c-1-1.1-3.5-0.6-5.5-0.7
	c0-0.4-0.1-0.8-0.7-0.7c-2.7-1.8-7.8-0.1-10.9,0c-0.5,0-0.9,0-1.4,0c-7.5,0.2-18.5-3.2-25.4,0.7c-0.5,0-0.9,0-1.4,0
	c-2.2,0.6-2.6-0.6-3.4-1.4c-1.1,3.9-6.9,3.1-9.5,5.5c-0.2,0-0.5,0-0.7,0c-8.2-0.7-12.2,2.7-17.1-1.4c1.1,4.8-14.5-0.3-18.4,2.7
	c-0.5,0-0.9,0-1.4,0c-7.1,1-13.5,4.3-21.8,2c-0.2,0-0.5,0-0.7,0c-12.1-4.5-23.3,2.4-34.8,4.1c-12.4,1.8-25.7-0.9-39.6,1.4
	c-4.3,7.9-12.6,6.4-20.5,7.5c-7.4,1.1-12.1,5.7-21.1,5.5c-2.9-0.1-6.1-0.9-10.2,0c-2.3-0.9-2.8-3.5-6.1-3.4c-0.2,0-0.5,0-0.7,0
	c-2.7-0.6-6.7,3.3-12.3,2c0-3-3.9-2-2.7-6.1c-1.8-1-6-2.2-8.2-0.7c-0.6,2.6,2.3,3.2,0.7,4.8c-7.6,3-17.5,5.3-24.6,0
	c-0.2,0-0.5,0-0.7,0c-3.5,0.4-10.6,3-15.7,4.1c-2.1-0.2-1.9-2.6-4.1-2.7c-2.4,0.4-3.3-0.8-4.8-1.4c-7.5,2.8-19.6,3.4-25.4,8.3
	c-2.1,16.4,28.7,3.5,34.8,10.2c8.2-4.3,13.6,2.9,23.2,1.4c1.8,2.6,2.5,5.7,2.7,8.2c-10.4,1.6-37.5,1.2-24.6,14.3
	c10.1-2,9.8,9.5,19.8,5.5c2,0,0.9-3.2,2-4.1c15.6-5.3,17.1,8.6,32.1,4.8c0.2,0,0.5,0,0.7,0c13.7-3.3,26.1-11.6,38.9-11.6
	c0.5,0,0.9,0,1.4,0c13.1,2,24,0.8,33.4-5.5c-0.1-3.1-3.2-3.2-5.5-4.1c10.3-6.5,28.9-3.1,45-2.7c6.9,0.2,12.2-2.1,17.1,2
	c1.9-0.4,5.4,0.9,6.1-0.7c3.9,3.7,10.7,2,17.1,2c0.3,2.8-1.9,5.3-4.1,3.4c-0.1,1.9,1.1,1.4,0,2.7c-3-0.5-4.2,0.8-5.5,2
	c0.4,1.4,1.1,2.6,3.4,2c-0.7,5,2.4,4.5,2.7,9.6c4.8-0.9,5.6,2.1,8.2,3.4c0.5-2-2.9-6.5,1.4-8.3c1.1,3.2-0.6,5,0,7.5
	c1,1.3,3.4,0.7,4.1,2c-1.6-2.9-0.5-2.1,0-5.5c4.6,0.3,9.9,0.7,12.3,4.8c0.9-0.5,6-4.8,6.1,0c2.4-2.7,4.3-2.8,8.2-4.8
	c-0.3,1.1-2.1,0.6-1.4,2.7c1.3-0.6,3.7-0.2,5.5,2c1.9-4.3-4.1-6.2-7.5-7.5c7.4-0.2,13.5,8.8,20.5,1.4c3.2-0.9,3.3,1.2,4.8,2
	c5.3-6,22.8,2.2,25.4-3.4c1.7,0.3,1.4,3.2,4.1,4.1c0.3-0.9-2.1-2.9,0.7-2.7c-0.1-2.4-2.3,1.4-2-0.7c3.9-2.9,9.7,1.8,13,2.7
	c-1.6,2.7-4.4,0.3-7.5,0.7c1.6,2,0.7,2.6,0,5.5c-3.7-1.4-9.1,5-13,1.4c-2,0.4,0.7,1.5,0,2.7c-4.1-0.9-7.8-0.1-8.2-2.7
	c-2.1-1.9-2.1,2.4-4.8,2c2-0.8,0.9-2.6-1.4-2.7c-3.3-0.4-3.4,2.5-4.8,4.1c-3.9,0.5-3.6-3.2-4.8-5.5c-2.8-0.3-0.8,4.3-1.4,6.1
	c-2.6,0.4-2.1,0.5-5.5,0.7c0.3-2.5,4.2-1.2,4.1-4.1c-0.1-1.5-2.9-0.3-4.1-0.7c-2.2,1.3,0.2,3.7-4.8,2.7c0,1.9-0.2,2.5,0,4.1
	c-0.8,2.7-3.3-0.3-5.5,1.4c-1.1-2.9,3.5-0.1,3.4-2c-2.1-0.3-5.8-0.5-9.6,0c-0.9-2.7,2-1.7,2-3.4c-0.1-1.3-2.3-0.4-2.7-1.4
	c-1,1.1,0.4,3.3-1.4,4.8c-2.7-0.7-4,1.5-5.5,0c0.4-1.9-0.1-4.6,2.7-4.1c-0.4-1.5-4.2-0.6-4.8,0c0.6,2.5,0.5,5.2,0.7,6.1
	c-2.6,0.6-4.4-1.1-2.7-2.7c-1.9-0.1-1.4,1.1-2.7,0c-1,0.3,0.3,0.9,0,2c-1.6-0.1-2.9-3.1-2.7,0.7c-0.8-0.1-0.6-1.2-0.7-2
	c-2.2,3.2-7.8,4-10.9,2.7c-1,0.3,0.3,0.9,0,2c-4.4,0.8-9.4,0.5-14.3,1.4c-2.8,0.5-5.3,2.5-8.2,2.7c-10.5,0.8-22.1-5.8-33.4-3.4
	c-0.2,0-0.5,0-0.7,0c-15.6-4.1-30.3,4.5-43.7,4.8c-0.2,0-0.5,0-0.7,0c-4.9,0.8-10.6,0.8-16.4,0.7c-4.3,8.4-19.9,5.5-22.5,15.7
	c0.7,7.4,12,4.4,16.4,8.2c12.1,0.1,24.8,7.6,33.4-1.4c2.1,0.4,2.9,2.1,4.8,2.7c6.8-0.7,10.4,1.9,15.7,2.7c5.2,6.5,15.9,5,25.4,7.5
	c1,2.9,3.2,1.8,6.8,2"/>
</svg>
