<?xml version="1.0" encoding="utf-8"?>
<!-- Generator: Adobe Illustrator 22.0.0, SVG Export Plug-In . SVG Version: 6.00 Build 0)  -->
<svg version="1.1" id="Layer_1" xmlns="http://www.w3.org/2000/svg" xmlns:xlink="http://www.w3.org/1999/xlink" x="0px" y="0px"
	 viewBox="0 0 77.6 272.9" style="enable-background:new 0 0 77.6 272.9;" xml:space="preserve">
<style type="text/css">
	.st0{fill:none;stroke:#000000;stroke-miterlimit:10;}
</style>
<path class="st0" d="M70.7,32.9c-0.7-0.1-1.7-0.3-1.9-0.7c-1.5-3.6-3.8-6.2-8.2-5.8c0-0.5,0-0.8,0.1-1.1c1.1-2.4,0.8-3.1-1.6-4.2
	c-3.4-1.5-7.7-0.1-9.6,3.1c-0.4,0.6-0.8,1.3-1.4,2.4c-0.2-0.9-0.4-1.2-0.4-1.6c0-2.7,2.7-5.2,5.8-5.6c1.9-0.3,5.7-3.9,5.6-5.8
	c0-1.8-0.3-3.6-2.7-4.2c-0.5-0.1-1.1-1.2-1.1-1.8c0.1-2.3-1.3-4.1-3.6-4.1c-2.8-0.1-4.9,1.4-6.4,3.6c-1.2,1.8-2.6,3-4.8,3.2
	c-1.1,0.1-1.9,0.2-1.9-1.4c0-2-1.5-3-3.1-2.8c-1.8,0.3-3.9,0.9-5.3,2.1c-2.1,1.9-3.6,4.4-6.8,5c-0.5,0.1-0.8,0.9-1.3,1.4
	c-2.1,2.3-3.7,4.9-7.4,5.4c-3,0.4-4.8,5.3-3.5,8.1c0.2,0.4,0.3,1.4,0.2,1.5c-3.5,1.6-5,4.9-7,7.8c-1.5,2-3.5,3.6-2.3,6.2
	c1,2.2,2.5,4.4,4.3,5.8c1.3,1,2.2,1.6,1.3,3.2c-0.8,1.4-0.1,2.2,1.1,2.7c1,0.4,2,1,3,1c2.6,0.1,4.5,0.7,6.2,3
	c1.3,1.7,2.1,2.6,0.4,4.5c-2.2,2.5-1.9,4.8,0.5,7.2c0.5,0.4,0.7,1.1,1.2,1.5c0.6,0.7,1.3,1.2,2.1,1.7c0.5,0.3,1.1,0.4,1.7,0.6
	C24,75,24,75.3,24,75.5c-0.7,0.3-1.7,1-2.2,0.8c-1.3-0.6-2.6-1.5-3.5-2.6c-0.7-1-1.1-1.6-2.3-0.9c-2.6,1.6-4,5.5-3.2,8.4
	c0.2,0.6,0.1,1.5-0.2,2.1c-1,2.7-0.7,3.5,1.9,4.5c0.9,0.4,1.7,1,2.6,1.4c1.5,0.7,1.6,1.9,1.1,3.3c-1.3,3.8-1.1,4,2.8,5.3
	c0.8,0.3,1.9,1.2,2,2c0.3,1.8,1.3,2.2,2.8,2c0.7-0.1,1.4-0.1,2.3-0.2c-1.7,2.5-4.5,2.6-6.2,0.7c-0.7-0.7-1.9-1.8-2.3-1.6
	c-1.3,0.8-2.4,1.9-3.4,3c-0.9,1-1.3,2.4-2.3,3.2c-3.1,2.5-3.6,7.6-0.8,10.2c1.4,1.3,1.3,2.7,0.8,4.3c-0.2,0.9-0.4,1.9-0.1,2.8
	c1.4,4.7,4.7,7.1,9.6,7.3c2.5,0.1,3.2,1,2.2,3.2c-0.9,1.7-2,3.3-3,4.8c-1.8,2.6-1.1,5,1.5,6c1.2,0.4,2.7,1.3,3,2.3
	c0.5,1.7,0.6,3.6-1.2,5c-0.6,0.5-0.5,2-0.6,3c-0.2,1.1,0.1,2.5-0.5,3.3c-2.2,3-1.6,5.3,1.9,6.7c0.5,0.2,0.9,0.7,1.4,1
	c-0.1,0.3-0.2,0.6-0.3,0.9c-1.3-0.2-2.5-0.5-3.8-0.6c-0.8-0.1-1.9-0.1-2.2,0.3c-0.8,1-1.3,2.3-1.9,3.5c-0.6,1.2-1.2,2.4-1.7,3.7
	c-0.5,1.5-1.4,3.2-1.1,4.5c0.6,2.3,2.5,4.3,2.1,7.1c0,0.4,0.6,0.8,0.9,1.2c2.2,2.5,4.8,3.8,8.2,3.1c0.5-0.1,1.1,0,1.8,0.1
	c0,1.9,0,3.8,0,5.6c-0.2,0-0.3,0.1-0.5,0.2c-0.7-0.9-1.4-1.8-2.4-3c-1.1,1.6-2,3.3-3.1,4.7c-1,1.2-1.2,2.3-0.4,3.8
	c0.4,0.7,0.6,1.7,0.4,2.5c-0.8,2.8,0.2,4.6,3.2,5c1.3,0.2,2.7,0.2,4.2,0.3c-2.4,3.3-5.8,2.5-11.1-2.6c-1.6,1.4-3.4,2.6-4.8,4.2
	c-2,2.3-0.8,6.7,2,7.9c1.1,0.5,1.8,1,1.1,2.2c-0.9,1.5,0,2.2,1.1,2.7c1.7,0.8,2,2.1,1,3.4c-1.2,1.6-0.4,2.7,0.6,3.7
	c1.6,1.6,3.6,1.5,5.6,1c2.6-0.6,5.1,0.9,4.6,3.4c-0.4,2.1,0.4,3.2,1.6,4.6c-0.7,0.3-1.2,0.4-1.6,0.6c-3.9,1.4-4.8,5.1-2.1,8.2
	c1.4,1.6,1.2,2.9-0.7,4c-1,0.5-2.1,1-3,1.7c-0.6,0.6-1.7,1.5-1.6,2c0.6,2.8,1.3,5.6,2.6,8.2c0.7,1.5,2.5,2.5,4.3,4.1
	c0.6-0.9,1.7-1.8,1.8-2.9c0.1-0.8-0.8-2-1.6-2.6c-1.7-1.4-1.8-3.1-0.8-4.6c0.5-0.9,2-1.4,3.1-1.7c4.3-1.2,4.7-1.7,4.8-5.9
	c0-0.5,0.4-0.9,0.4-1.4c0-0.7,0.2-1.5-0.1-2.1c-1.1-2.6-0.8-3.4,1.8-4.1c0.9-0.3,1.7-0.6,2.6-0.9c1.6-0.5,2.9-1.1,3-3.1
	c0.1-2-0.3-3.5-2.2-4.6c-2.5-1.3-2.5-1.8-0.3-3.7c1.6-1.4,1.9-2.9,0.8-4.8c-0.3-0.6-0.3-1.6,0-2.2c1-1.9,0.7-3.1-1.2-4.1
	c-0.9-0.5-1.6-1.4-2.8-2.6c1.4-0.5,2.3-0.7,3.1-1c1.5-0.7,3-1.3,4.4-2.1c0.4-0.3,0.7-1.3,0.5-1.9c-0.3-1.1-1-2-1.5-2.9
	c1.1-0.5,2.2-1,3.3-1.5c0.3-0.2,0.5-0.4,0.8-0.6c7-4.1,8.6-10.9,8.8-18.3c0.1-2.7-1.4-3.4-3.7-2.1c-1.5,0.8-3.1,1.5-4.7,2.1
	c-0.3,0.1-1-0.5-1.5-0.8c0.3-0.4,0.6-1,1-1.1c4.3-0.6,6.1-4.1,7.7-7.4c0.7-1.4,1.1-3.5-0.7-4.8s-1.6-3-0.7-4.6
	c1.2-2.3,0.5-4.1-1.5-5.3c-1.3-0.8-3-1-4.5-1.5c0.4-1.2,1.6-2.8,1.3-4c-0.7-2.7-2.1-5.2-3.4-7.8c-0.2-0.4-1.1-0.8-1.7-0.7
	c-2.4,0.3-2.8-1-2.6-3s0.3-4,3.1-3.8c3.1,0.2,5.8-0.7,7.4-3.2c1.6-2.3,2.4-5,3.5-7.6c0.1-0.2-0.3-0.7-0.4-1.1
	c-0.5-1.2-0.9-2.5-1.5-3.7c-0.4-0.8-0.9-1.8-1.6-2.3c-1.9-1.5-2-2.2,0-3.5c2.4-1.6,3.1-4.4,1.8-7c-0.6-1.1-0.9-2.4-1.6-3.3
	c-0.8-1-1.8-1.8-2.9-2.5c-0.6-0.5-1.5-0.6-2.7-1c1-1.1,1.7-1.9,2.5-2.7c1.2-1.4,1.3-2.7-0.1-4.1c-0.4-0.4-0.7-0.9-1-1.4
	c0.6-0.3,1.1-0.7,1.7-0.8c4.1-0.8,7.5-2.8,9.4-6.6c1.6-3.2,3.9-6.5,1.1-10.3c-0.3-0.4,0.1-1.6,0.5-2c1.7-1.4,3.8-2.3,5.3-3.9
	c1.3-1.3,2.3-3.2,2.7-5c0.3-1.6-0.5-3.4-0.7-5.2c-0.3-2.7-1.4-4.7-3.9-5.9c-1.8-0.9-1.7-1.9-0.1-3.3c1.6-1.3,3.1-2.7,4.6-4.1
	c1.5-1.5,1.7-3.4,1.2-5.3c-0.8-3.1-0.8-3.7,1.1-6.5c0.4-0.5,0.7-1.1,1-1.7C76.9,37.2,74.6,33.2,70.7,32.9z"/>
</svg>
