<?xml version="1.0" encoding="utf-8"?>
<!-- Generator: Adobe Illustrator 22.0.0, SVG Export Plug-In . SVG Version: 6.00 Build 0)  -->
<svg version="1.1" id="Layer_1" xmlns="http://www.w3.org/2000/svg" xmlns:xlink="http://www.w3.org/1999/xlink" x="0px" y="0px"
	 viewBox="0 0 124.7 71.9" style="enable-background:new 0 0 124.7 71.9;" xml:space="preserve">
<style type="text/css">
	.st0{fill:none;stroke:#000000;stroke-miterlimit:10;}
</style>
<path class="st0" d="M124,19.4c0-5,0-10,0-14.9c-3-0.7-6-1.1-9.1-1.5c-1-0.1-1.9-0.5-2.9-0.7c-1.6-0.4-3.6-2.1-4.1,1.4
	c-0.7-1-1.5-1.9-2.4-3c-3.2,0-6.5,0-9.9,0c-0.1,0.5-0.2,1-0.3,1.5c0.1,1.1,0.2,2.2,0.3,3.2l-0.1,0.1l-0.1,0.1
	c-0.1,0.1-0.1,0.1-0.1,0.2c0.1,0.3,0.2,0.5,0.3,0.7c0,0.1,0,0.2,0,0.3c0,1.3,0,2.6,0,3.9c-0.6-0.2-1.3-0.3-2-0.4
	c-0.6-0.1-1.2-0.2-1.8-0.4c-0.3-0.1-0.5-0.3-0.6-0.5c-0.3-0.9-0.7-1.7-1.1-2.6c-1-2.2-1.9-4.5-1.3-6.9c-5.7,0-11.4,0-17.2,0
	c-2.3,0-4.6,0-6.9,0c-1.8,0-3.6,0-5.4,0c0.3,0.5,0.6,0.9,0.9,1.4c0.6,2,1.2,4.2,1.8,6.4c0,0.1,0.1,0.2,0.1,0.4v0.1
	c0.5,1.8,1.1,3.7,1.7,5.4c0.1,0.3,0.2,0.6,0.3,0.9c-0.2,0.3-0.4,0.5-0.7,0.7C61.9,16.7,60,17.6,58,18c-2.3,0.4-4.9,0.2-7.6-0.6
	c-0.2,0-0.3-0.1-0.5-0.1c-1.1-1-2.2-2-3.1-2.8c-0.3-0.3-0.6-0.6-0.9-0.8c1.6-4.1,3.1-7.9,4.6-11.6c0.3-0.6,0.5-1.2,0.8-1.7
	c0.1-0.2,0.2-0.4,0.3-0.5c-9.7,0-19.5,0-29.6,0c-0.7,0-1.3,0-2,0c-1.1,0-2.1,0-3.1,0c-1.7,4.6-2.3,8.9-1.5,13
	c0.1,0.7,0.1,1.5,0.1,2.4c-0.1,1.1-0.4,2.3-0.9,3.2c-0.1,0.2-0.2,0.4-0.3,0.5c-0.3,0.4-0.6,0.8-0.9,1.1c-0.2,0.2-0.5,0.4-0.7,0.7
	c-0.4,0.4-0.9,0.8-1.4,1.2c0,0-0.1,0-0.1,0.1c-1.7,1.1-3.8,1.7-6.5,0.1c-1.1-0.7-3.2,0-5.1,0.7V23v2.9l-0.1,26.2v12.6h28.4
	c0,2.3,0,4.7,0,7c2.3,0,4.8,0,7.4,0c4.1,0,8.4,0,13.1,0c0.5,0,1.1,0,1.7,0c8.1,0,17,0,26.8,0c-0.9-4.6-2.2-9.3-2-13.9
	c0-0.8,0-1.6-0.1-2.5c0-0.5-0.1-1.1-0.2-1.6c-0.5-3.8-1.5-7.7,0-11.4c0.2-0.6,0.5-1.1,0.9-1.7l0.2,0.2l0.1-0.2
	c0.8-0.5,1.5-1.1,2.3-1.6c0.7-0.7,1.4-1.4,2-2.1c1.2-1.1,2.4-2.1,3.6-3.2c0.5-0.4,1-0.8,1.6-1.1c0.2-0.3,0.5-0.5,0.7-0.8
	c0.3-0.1,0.6-0.1,1-0.2c0.6-0.4,1.3-0.7,1.9-1.6c0.6-0.5,1.2-1.1,1.8-1.6c0.2-0.1,0.5-0.2,0.7-0.2c0-0.5,0.1-1.1,0.1-1.6
	c0.1-0.1,0.2-0.2,0.2-0.2c0.1-0.1,0.2-0.2,0.4-0.4c0.1-0.1,0.2-0.2,0.3-0.3c0.4-0.1,0.7-0.2,1.1-0.3c0.7-0.2,1.5-0.4,2.2-0.7
	c0.7-0.5,1.3-1.1,2-1.6c0.3-0.3,0.5-0.6,0.8-0.8c1.6-0.1,3.1-0.4,4.5-0.7c2.8-0.5,5.5-1.1,8.9-1.2c0.6,0,1.5,0.4,2.3,1.1
	c0.2,0.2,0.4,0.3,0.6,0.5c0.8,0.8,1.4,1.7,1.5,2.5c0.1,0.5,0.1,1.1,0.2,1.6c0,0.1,0,0.1,0,0.2v0.1c0.4,4.2,0.2,8.4,0.8,12.6
	c0.5,2.1,1,4.2,1.5,6.3c0,0.1,0.1,0.2,0.1,0.4c0.1,0.3,0.2,0.6,0.3,1c0.9,0,1.9,0,2.9,0c0,0.2,0,0.4,0,0.7c-0.8,0.4-1.6,0.9-2.4,1.4
	c0,0.1,0.1,0.3,0.1,0.4c0.2,1,0.4,2,0.6,3c0.2,0.4,0.4,0.9,0.5,1.4c0.4,0,0.8,0,1.2,0c0,0.6,0.1,1.1,0.1,1.6c0,0.3,0.1,0.5,0.2,0.8
	c-0.6,1.6-1.1,3.3-1.7,4.9c0,0.2-0.1,0.4-0.9,0.5c-0.4,0.5-0.8,1-1.2,1.5c-2.8,2.9-5.6,5.9-8.4,8.8c4.5,0,9.1,0,13.8,0
	c0-1.6,0-3.2,0-4.8c0-1.6,0-3.3,0-4.9c0-0.1,0-0.1,0-0.2c0-3.6,0-7.2,0-10.7c0-8.2,0-16.4,0-24.6c0-0.1,0-0.2,0-0.3c0-1,0-2,0-3
	c-0.3-0.4-0.7-0.8-1-1.2c0.2-0.1,0.4-0.1,0.6-0.2c-2.3-1.1-4.6-2.3-6.9-3.4c0.1-0.2,0.2-0.4,0.3-0.6C119.5,18,121.8,18.6,124,19.4z"
	/>
<path class="st0" d="M57.7,27c-1.9-0.3-3.8-0.4-5.8,0c-0.1,0-0.3,0-0.4,0.1c-0.6,0.1-1.6,0-2.1-0.2c-0.2-0.1-0.3-0.2-0.3-0.3
	c-0.9-3-3.6-6-4.9-9l-0.8-0.5v-0.2c0.1,0,0-1.6,0-1.5c0.1,0.7,0.4,1.5,0.8,2.2L57.7,27c2.3,0.4,4.6,1.3,6.9,2.4
	c3.5,1.7,7,5.1,9.4,8.9L57.7,27z"/>
</svg>
