<?xml version="1.0" encoding="utf-8"?>
<!-- Generator: Adobe Illustrator 22.0.0, SVG Export Plug-In . SVG Version: 6.00 Build 0)  -->
<svg version="1.1" id="Layer_1" xmlns="http://www.w3.org/2000/svg" xmlns:xlink="http://www.w3.org/1999/xlink" x="0px" y="0px"
	 viewBox="0 0 656.7 130.8" style="enable-background:new 0 0 656.7 130.8;" xml:space="preserve">
<style type="text/css">
	.st0{fill:none;stroke:#000000;stroke-miterlimit:10;}
</style>
<g>
	<path class="st0" d="M23.5,90.1l-0.3-0.2C22.1,89.9,23.5,90.1,23.5,90.1z"/>
	<path class="st0" d="M262.6,55.3C262.5,55,262.5,55.1,262.6,55.3L262.6,55.3z"/>
	<path class="st0" d="M251.6,28.9c-2-8.2-3.6-14.7-5.4-22c-6.6,1.9-12.9-1.4-18.1,4.6c-3.9,4.6-8.7,9.5-16.3,6.9
		c-0.7-0.2-1.7,0.8-2.6,1.2c-4.8,2.1-9.6,4.2-14.4,6.3c-0.4,0.2-0.6,0.9-1.2,1.8c2.6,1,5.1,1.9,8.5,3.2c-4.1,2.3-7.6,3.6-10.2,5.8
		c-12,9.9-23.6,9.5-34.2-1.6c-1.8-1.9-3.3-4.2-5.5-5.5c-6.1-3.3-12.6-6.7-18.9-10.1c-7.6,1.9-15.6,5.4-23.7,5.6
		c-9.8,0.3-19.7-2.2-29.6-3.4c-4-0.5-9.2-2.4-12.7-0.9C60,24.3,53.4,28.3,45.6,22c-1-0.8-3.8,0.8-5.8,0.9C38.9,23,37.9,22.4,37,22
		l-7-0.4l-5.1,1.5l-2.5,4.6l2,4.6c0,0,3.2,2,3.6,2.1c0.4,0.1,5.1,1.6,5.1,1.6l3.9-0.2c2.5,0.8,5.5,1,7.3,2.6
		c5.9,5.1,12.6,0.1,18.8,1.9c1.3,0.4,4.3-2.5,2.7-5.7c0-0.1-0.1-0.1-0.1-0.2c-1-1.9-1.5-4-3.1-8.4c9.9,4,17.8,7.1,26.8,10.7
		c-0.3,0.2-0.5,0.5-0.8,0.7c-3.1,2.7-5.8,4.9-8.6,7.1c-1,0.8-1.9,1.6-2.9,2.4c7.2,0.2,11.5,3.7,14.7,8.7c0.9,1.4,1.3,3,2.2,4.5
		c3.5,6,4.4,6.3,13.1,3.7c3,8.5,3.8,18.9,15.9,22.3c-2.5,2.1-4.5,4.1-4.6,4c-4.7-4.2-12.7-1.2-16.5-7.8c-1-1.7-4.6-2.5-7.1-2.8
		c-10.3-1.2-10.3-1.1-15.9-11c-0.4-0.8-1.5-1.3-2.4-1.8c-9.6-5.3-17.7-12.3-25-20.5c-3.2-3.5-9.4-4.4-14.3-6.4L26.3,40L19,41.1
		l-2.4,4.2l-3.4,5.9c0,0,0.6,6.2,1.6,7.5c1,1.3,0.5,5,0.5,5s-0.2-1.9-0.8,1.7c-0.5,3.6-1,7-0.4,7.1c0.6,0.1,1.9,2,2.6,3.5
		s0.6,0.2,1.5,2c0.9,1.8,2.5,5.2,2.5,5.2l2.8,1.4l-3.8,3l3.5,2.3c0.5,0,1.4,0.1,3.2,0.2c5.9,0.5,5.8-0.4,6.4,0
		c0.6,0.4,4.2-0.5,4.2-0.5c6.3,1.1,13,3.5,18.9,0.9c1.3-0.6,2.6-1.4,3.9-2.6c1.4-1.4,2.9-2.4,4.4-3.1c3.1-1.5,6.4-1.5,10.4-0.6
		c1,2,1.8,4.1,3,6c1.2,1.9,2.7,3.7,3.9,5.4c10.5-3.3,10.8-3.5,16.9,4.6c2.9,3.9,5.6,3.9,9.4,2.1h0.1c0.9-0.2,1.8-0.6,2.7-0.6h0.1
		c-1,1.2-2,2.3-3,3.5c0,0.1,0,0.2,0,0.3c0,0,0,0,0,0.1c1.3,2.4,2.5,4.7,3.8,7.2c0.1,0.3,0.3,0.5,0.4,0.8c2.9-1.8,4.8-3,7.3-4.6
		c4,7.7,10.8,2.7,16.9,3.9c0.2,2.2,0.3,4.2,0.5,6.2c-4.6,0.5-8.4,0.9-13,1.5c0.1,0.2,0.3,0.3,0.4,0.4c5,5.6,5.2,5.6,13.7,4.3
		c1.9-1.2,4-2.5,6-3.7c0.8-0.5,1.6-0.9,2.3-1.4c-0.8-0.2-2.4-0.6-3.9-1.1c0-0.4-0.1-0.8-0.1-1.3c4-0.9,7.9-1.7,11.9-2.6
		c1.4-1.2,2.8-2.4,4.2-3.6c2.5-0.2,4.6-0.5,7.4-0.7c3.2-3,5.6-7.2,10.7-7.5c-0.2-0.8-0.3-1.6-0.3-2.4c0-3.4,2.1-5.5,5.9-4.8
		c4.7,0.8,6.8-1.3,9.4-3.9c4.1-4.2,4.1-4.1,11.3-4.3c3.6,2.7,1.9,9.6,8.3,10c1.1-0.4,2.3-0.9,3.3-1.3c3.1-2.3,4.2-3.8,5.6-4.1
		c5.6-1.3,11.3-2.1,16.9-3.2c-1.5-0.8-3.1-2.4-4.5-2.2c-5.7,0.8-10.4-0.2-15.1-3.7c-4.3-3.1-8.9-4.6-14.9-2.7
		c-9.1,2.9-18,2.1-24-6.8c-0.1-1-0.3-2.1-0.4-3.1c0.3-3,0.6-6.1,0.8-9.1c-5.8-3.2-13.9-3.7-15.5-12.2c7.6-2.1,7.6-2.1,9.3,5.9
		c4.5,0.9,9.3,1.9,14.1,2.9c1.3,0,2.6,0.1,3.9,0.1c0.8,0.4,1.6,0.8,2.3,1.2c1.2,1.5,2.7,2.9,3.5,4.6c2.8,5.8,4.8,7.9,9.2,7.9
		c1.5,0,3.2-0.2,5.3-0.7c1.3-0.3,2.8-0.6,4.2-0.6c0.8,0,1.6,0.1,2.2,0.4c0.1,0.1,0.3,0.2,0.4,0.2c5.8,2.9,11.3,6.3,16.9,9.5
		c0.8,0.5,1.6,0.9,2.4,1.4c2.1,0,4.2,0,6.3,0c0.5-0.4,1-0.7,1.6-1c0.6-0.6,1.1-1.3,1.7-1.9c0.1-0.6,0.4-1.2,0.8-1.7
		c0.7-0.5,1.4-1,2.1-1.6c0,0.1,0,0.2,0,0.3c0,0.1,0,0.3,0,0.4c0.4-0.7,1.6-0.7,2.8-0.8c0,0,0.1,0,0.1,0.1c0.9,0.5,1.8,1,2.7,1.4
		c1.6,4.8,3.1,9.9,10.2,8.1c-0.1-0.2-0.1-0.5-0.1-0.6c0-0.1,0-0.2,0-0.3c2.2-6.5,3.5-10.1,3.4-13.5c-0.1-3.9-1.9-7.6-5.8-15.5
		c0,0,0,0.1-0.1,0.1c0-0.1,0-0.1,0-0.2c0,0,0,0.1,0,0.1c0-0.1,0-0.1,0.1-0.2c0-0.1-0.1-0.1-0.1-0.2c2.4-5.6,4.4-10.2,6.4-14.7
		C262.5,36.4,256.2,32.1,251.6,28.9z"/>
	<path class="st0" d="M107.5,37c-2.6-1-4.8-2.7-7.2-4.2c-0.5-0.2-1-0.3-1.6-0.5c0,0,0.1,0,0.1,0c0.5,0.1,1.1,0.3,1.6,0.4
		c-1.7-2.5-0.7-4.1,1.2-4.2c0.4,0,0.9,0,1.4,0.1c0.4,0.1,0.9,0.2,1.3,0.4c3.8,1.1,7.6,3,9.9,8.2c0.1,0.2,0.2,0.2,0.2,0.3
		C111.4,37.3,109.3,37.6,107.5,37z"/>
	<path class="st0" d="M120,40.1c1.7,0.4,2.9,0.8,4.3,1.2c0.8,0.8,1.5,1.5,2.3,2.3c-1.3-0.1-2.5-0.2-3.8-0.3c-1-0.6-2.1-1.2-3.2-1.9
		C119.7,41,119.9,40.6,120,40.1z"/>
	<path class="st0" d="M148.7,91.6c-3.1,1.1-6.2,2.3-9.4,3.4c-3.8,2.1-7.5,3.6-11.9,1.3c-1.1-0.6-3,0.3-4.6,0.5
		c-3.2,2.9-6.6,5.2-13.4,4.7c0.2-0.1,0.3-0.2,0.5-0.2c-0.2,0-0.3,0-0.5,0c5.2-2.7,8.6-4.5,12-6.2c2.4-4.3,6.3-3,10-2.6
		c2,0.2,4.1,0.4,6.1,0.6c3.5-1.2,7-2.5,10.5-4c0.2,0.7,0.5,1.5,0.7,2.2c0,0,0,0-0.1,0C148.6,91.4,148.7,91.5,148.7,91.6z"/>
	<path class="st0" d="M165.2,69.5c-0.1-0.1-0.3-0.2-0.5-0.3c0.1,0.1,0.1,0.2,0.2,0.3c-1.1-0.6-2.5-1.2-3.5-1.8
		c-3.8,5.2-7.6,10.4-11.5,15.7c0.1,0.3,0.2,0.5,0.4,0.7c1.9,3,5.1-1.5,8,1.4c-2.7,1.6-5.2,3-8.1,4.7c0-0.4,0-0.7-0.1-1
		c-0.1-2.2-0.2-3.9-0.4-5.6c-2.6,1.3-5.1,2.9-7.5,3.9c-2.8,1-5.9,1.6-8.8,2.4c0,0,0-0.1-0.1-0.1c-0.2,0-0.4,0.1-0.5,0.1
		c-0.3-0.6-0.6-1.2-0.9-1.7c1.3-1.7,2.8-3.3,4-5.1c2.6-3.9,8.6-6.1,6.1-12.6c-0.3-0.9,2.2-2.8,3.9-4.9c-1.3-1.5-2.4-2.8-2.9-3.5
		c-7.5,4.4-13.7,7.9-19.8,11.4c-0.9,0.1-1.9,0.3-2.9,0.6c-0.1-0.1-0.2,0-0.3,0c0.4-0.9,0.9-1.9,1.3-2.8c0.9-1,2.4-1.9,2.5-2.9
		c0.6-5.9,4.8-9.4,8.9-13.3c-2.2-3.5-4.2-6.6-6.7-10.3c0.1,0,0.2,0,0.3,0.1c0,0,0,0,0-0.1c15.3,2.7,17.5,4.1,21.6,13.4
		c0.6,0,1.2,0.1,1.8,0.1c1,0,2,0,2.9,0c2,0,3.9,0.1,5.2,1.1C161,61.8,162.8,66,165.2,69.5z"/>
	<path class="st0" d="M262.3,55.4C262.2,55.2,262.2,55.1,262.3,55.4L262.3,55.4z"/>
	<path class="st0" d="M177.8,70.9c0.1,1.1,0.3,2.1,0.4,3.1C178.1,73,177.9,71.9,177.8,70.9z"/>
	<path class="st0" d="M641.1,95.9c-4.9-0.4-8.3-1.9-10.8-5.9c-1.4-2.3-3.3-3.9-5.7-4c-0.8,0-1.7,0.1-2.7,0.5
		c-4.9,1.7-9.9,3.5-14.7,5.4c-0.2,0.1-0.4,0.2-0.7,0.2c-1.2,0.4-2.3,0.6-3.4,0.6c-2.7-0.1-4.9-1.7-5.8-4.4c-0.4-1-0.6-2.2-0.5-3.6
		c0-1.8,0.4-3.5,0.7-6.3c-4.5,3.7-8,6.6-11.4,9.4c-1.6-1.9-3.1-4-4.8-5.8c-6.2-6.2-9-14.1-11.1-22.3c-1.8-2.6-3.6-5.3-6.8-10.1
		c0.1,0,0.2,0,0.4,0.1c0,0,0-0.1-0.1-0.1c5.6,0.8,8.9,1.2,12.2,1.7c0.1,0,0.1,0,0.2,0c0.6-1,1.3-2.1,1.9-3.1l0.1-0.1
		c-8-3.3-16-6.6-20.8-14.3c-0.5-0.8-1.4-1.3-2.3-1.8c-6.3-3.3-12.7-6.7-19.4-10c-7,1.8-15,5.4-23,5.7c-10.1,0.3-20-1.6-29.7-3.4
		c-6.8-1.3-12.8-1.8-19.2,2c-2.6,1.6-7.6,1.8-10.2,0.4c-4.7-2.5-8.5-1.7-13.1-0.6c-6.3,1.5-12.9,2.4-19.4,2.3
		c-4.8-0.1-9.5-2.5-14.4-3.4c-6-1.1-11.5-2.4-16.4-6.7c-2-1.8-6.1-1.3-9.3-1.8c0,0,0,0,0,0.1c-0.1,0.7-0.1,1.4-0.2,2.1
		c0.5,1.1,0.9,2.3,1.6,3.9c2.8-0.4,4.5,0.4,5.5,2.9c1,0.1,1.9,0.2,2.8,0.3c3.9,0.7,7.3,2.4,10.2,5.8c1.7,2,4.7,2.9,8.6,5.2
		c-5.9,0.5-10.5,1.1-15,1.1c-1.7,0-4.4,0.1-4.4-2.4c0-0.6,0.1-1.3,0.4-2.2c0-0.1,0-0.1,0-0.2c-0.2-1.2-4-3.6-5.9-5.4
		c-1.2-1.3-2.3-2.6-4.1-4.7c0.1,0,0.2,0,0.3-0.1c-5.6,0.4-9.5-2.6-13.1-6.4c-0.4-0.9-0.9-1.7-1.3-2.6c0-2.4,0-4.9,0-7.1
		c-10.9-2.5-18.5,0.9-23.9,9.4c-0.1,0-0.2,0.1-0.3,0.1c0.1,0,0.2,0,0.3,0c-3.4,0.7-6.3,1.9-9.5,3.2c1.8,0.3,3.7,0.7,6.9,1.3
		c-2.6,0.8-5,0.9-5.6,1.9c-1.7,3-3.8,6.4-3.7,9.6c0.1,1.8,3.8,3.8,6.2,5.2c1.6,0.9,3.8,1,5.6,1.4c0.1,0.2,0.3,0.4,0.4,0.7
		c2.1,3.7,0.4,9.2,3,12.2c1.2,1.3,3.1,2.1,6.5,2.2c0,0-0.1,0-0.1,0.1h0.1c-2.8,1.5-4.4,2.4-6.1,3.3c5.2,0.1,9.5,1.4,11.9,6.8
		c3.3,7.6,6.1,9.4,13.4,7c4.6-1.5,7.2-0.3,10.7,2c5.2,3.4,10.9,6,16.4,9c3.2-1,6.4-1.9,9.5-2.9c0-0.1,0.1-0.2,0.1-0.3
		c0.1-0.5,0.4-1,0.7-1.4c0.4-0.4,1.5-0.9,2.2-1.3c0,0.1,0,0.2,0,0.3c0.4-0.7,1.6-0.6,2.7-0.7c0.9,0.5,1.9,1,2.8,1.5
		c3.7,8.8,5,10.6,10.6,8.8c8.3-2.7,13.2,0.5,16.8,7.2c3-0.4,5.9-1.5,8.1-0.8c4.4,1.4,7.6-0.5,9.8-3.1c4.1-4.8,8.9-4.8,14.6-3.7
		c1,2.1,1.9,4.2,3.1,6.2c1.1,1.9,2.6,3.7,3.9,5.4c10.6-3.3,10.9-3.5,16.8,4.5c2.8,3.8,5.5,4,9.3,2.5c0.8-0.4,1.5-0.7,2.3-1.1
		l-0.2,0.1c4.1-2,8.1-4,12.2-6c1.4-5.9,6.8-2.3,10-4c0.1-0.9,0.2-1.7,0.3-2.6c1.2-1.9,2.3-3.9,3.7-5.6c2.3-2.8,6.1-5,7-8.1
		c0.1-0.3,0.1-0.6,0.2-0.8c0.2-1.4,0-3,0.2-4.4c0.2-1.3,0.8-2.6,2.4-3.5c-1-1.6-2-3.2-3-4.7c-6.8,4-13.2,7.7-19.6,11.4
		c-1,0.3-2,0.6-2.9,0.8c0.4-0.9,0.9-1.9,1.3-2.8c0.9-1,2.4-1.9,2.5-2.9c0.6-5.8,4.7-9.4,8.9-13.2c-2.2-3.5-4.2-6.6-6.4-10.2
		c14.7,2.2,17.6,4.1,21.5,13.3c3.4,0.3,7.7-0.7,9.8,1c3.2,2.6,4.8,6.9,7.1,10.6c-0.3,0.6-0.5,1.1-0.8,1.7c0.1,2.6,0.2,5.2,0.3,7.8
		c0.4,0.4,0.8,0.8,1.1,1.1c0.4,0.4,0.7,0.7,1.1,1.1c0.1-0.1,0.2-0.2,0.3-0.3c1.1,0.8,2.6,1.3,3.2,2.3c1.2,1.9,1.4,4.7,3,6
		c8,7,18.6,6.5,28.2,9.2c0.8,0.2,1.9-0.6,2.8-0.9c4.2-1.6,8.3-3.2,12.5-4.8h0.1c2.8-4.6,5.7-2.9,8.4,0.2c2.2,2.6,4,5.6,5.2,7.2
		c4.7-0.3,7.7-0.5,10.7-0.7c0.7,0.7,1.4,1.4,2.1,2c2-0.5,4.1-1.1,6.1-1.6C648,98.7,644.6,96.1,641.1,95.9z"/>
	<path class="st0" d="M501.8,31.6c0.5-0.9,1.7-1.3,3.2-0.9c4.3,1.1,8.8,2.8,11.4,8.8c-3-0.2-5.1,0.1-6.9-0.6c-2.6-1-4.8-2.7-7.2-4.2
		c-0.5-0.1-1-0.3-1.5-0.4c0.5,0.1,1.1,0.2,1.6,0.4C501.6,33.4,501.5,32.3,501.8,31.6z"/>
	<path class="st0" d="M522.3,90.5c-0.2,0.3-1.4,1.7-1.5,1.6c-0.1-0.1-0.2-0.2-0.4-0.2c-4.1-2.5-9.6-1.7-13.8-4.5
		c-0.9-0.6-1.8-1.4-2.6-2.5c-1.3-1.8-4.9-2.9-7.8-3c-0.4,0-0.8,0-1.2,0s-0.8,0.1-1.1,0.1c-5.5,0.1-10.7-2.7-11.9-6
		c-3.7-10.8-14.8-12.2-21.3-19.2c-4.2-4.6-7.3-10.2-14.1-12.1c-2.1-0.6-3.9-1.3-6-1.3c-0.7,0-1.5,0.1-2.3,0.2
		c-1.2,0.3-2.2,0.4-3.2,0.3c-4-0.1-6.1-2.9-8-9.5v0.1c-1.5-0.3-2.9-0.6-4.4-0.8c0-0.6,0.3-1.1,0.5-1.7c1.3,0.3,2.7,0.6,4,0.9
		c-0.1,0.3-0.1,0.7-0.2,1c2.7,1.5,4.7,3.3,6.9,3.7c7.2,1.2,13.8,4.6,20.9,5.6c0.3,0,0.6,0.1,1,0.1c2,0,4.5-0.7,7-0.8
		c0.4,0,0.8,0,1.3,0c0.2,0,0.3,0,0.5,0c2.5-0.1,4.9-2.4,3-6.1c-1-1.9-1.4-4-2.8-7.9c0.5,0.2,1.1,0.5,1.6,0.7
		c1.3,0.5,2.6,0.9,3.9,1.3c0.4,0.1,0.9,0.2,1.3,0.4c0.3,0.1,0.6,0.2,0.9,0.2c0.6,0.2,1.2,0.3,1.7,0.4c6.3,1.6,12,2.8,15.7,8.6
		c-3.4,2.9-6.9,5.8-10.9,9.1c0.5,0,0.9,0,1.4,0c1.1,0,2,0.2,2.9,0.4c4.7,1.1,7.6,4.3,10.3,7.9c0.1,0.2,0.3,0.4,0.4,0.6
		c0.8,1.1,1.1,2.4,1.8,3.6c1.9,3.5,3,5.2,4.7,5.8c1.7,0.6,4.1,0,8.8-1.3c1.2,4.3,1.9,8.9,3.9,12.8c0.4,0.8,0.9,1.6,1.5,2.4
		c2,2.8,4.5,5.4,7.1,8.5C522,90.1,522.1,90.3,522.3,90.5z"/>
	<path class="st0" d="M524.7,45.3c-0.4-0.3-0.8-0.5-1.2-0.8c-0.6-0.3-1.3-0.7-2-1.1c0.1-0.4,0.3-0.8,0.4-1.3
		c1.7,0.4,2.9,0.8,4.3,1.2c0.8,0.8,1.5,1.5,2.3,2.3C527.2,45.5,526,45.4,524.7,45.3z"/>
	<path class="st0" d="M411.7,85.2c-0.6-0.6-1.2-1.3-1.9-1.9c-0.6,0.3-1.3,0.6-1.9,0.9c0,0-0.1,0-0.1,0.1c-0.8,0.6-1.6,1.3-2.4,1.9
		c-1.5,1.1-2.9,2.2-4,3.1c-3.1-0.7-5.8-2-8.4-1.7c-5.3,0.5-9.8-0.4-14.1-3.6c-4.6-3.5-9.6-4.8-15.9-2.7c-8.4,2.7-16.6,1.8-22.7-6
		c-1-1.2-2.6-2.8-3.9-2.8c-6.9,0.3-13.7,1-20.6,1.5c0,0,0,0.1-0.1,0.1c-2.3,8-7.6,11.9-16.1,11.4c-1.9,2.8-3.8,5.6-5.7,8.3
		c0,0,0,0.1-0.1,0.1c-1.6,2.4-3.2,4.9-4.7,7.3c3.8,0.2,7.4,0.6,11.1,1c1.2-0.2,2.4-0.5,3.6-0.7c0.9-0.1,1.8-0.1,2.8-0.2
		c-0.7,0.7-1.4,1.5-2.1,2.2c-0.4,0.6-0.7,1.2-1.1,1.9c0.4,4.3-0.6,9.2,5.2,11c2.4-0.3,4.7-0.6,7.1-1c1.4-1.2,2.8-2.4,4.2-3.6
		c0.3,0,0.5-0.1,0.8-0.1c1.9-0.2,3.7-0.4,5.7-0.5c0.3,0,0.5,0,0.8-0.1c3.2-3,5.6-7.2,10.7-7.5c-0.2-0.8-0.3-1.6-0.3-2.4
		c0-3.3,2.1-5.5,5.9-4.8c4.7,0.8,7.2-1.1,9.3-4c2.9-4,6.6-5.3,11.3-4.3c3.7,2.7,2,9.7,8.4,10.1c1.9-1.2,3.7-2.4,5.6-3.6
		c1.2-0.8,2.4-2,3.7-2.2c5.7-0.8,11.5-1.3,17.9-2c-0.3,0.8-0.7,1.5-1.1,2.1c-1.9,2.5-4.9,2.7-8,3c-3.4,0.3-7.6-0.6-9.9,2.7
		c-0.1,0.1-0.2,0.3-0.3,0.5c-0.1,0.1-0.1,0.2-0.2,0.3c-0.1,0.3-0.3,0.6-0.4,0.9c2.9,2.6,5.8,5.3,8.6,7.9c3.9-1.3,7.3-2.4,10.5-3.5
		c1.8,1.3,3.4,2.5,5.7,4.3c0.7-4.4,1.2-7.4,2.1-12.6c3.2,4.3,5.5,6.9,8.9,11.1c0.6-5.3,0.9-8.9,1.3-12.5c-2.7-0.9-4.7-1.6-7.1-2.4
		C410.5,89.5,411.1,87.4,411.7,85.2z"/>
</g>
</svg>
