<?xml version="1.0" encoding="utf-8"?>
<!-- Generator: Adobe Illustrator 22.0.0, SVG Export Plug-In . SVG Version: 6.00 Build 0)  -->
<svg version="1.1" id="Layer_1" xmlns="http://www.w3.org/2000/svg" xmlns:xlink="http://www.w3.org/1999/xlink" x="0px" y="0px"
	 viewBox="0 0 328.1 315.8" style="enable-background:new 0 0 328.1 315.8;" xml:space="preserve">
<style type="text/css">
	.st0{fill:none;stroke:#000000;stroke-miterlimit:10;}
</style>
<path class="st0" d="M270.2,227.6c0,1.5,0,2.9,0,4.4"/>
<path class="st0" d="M255.9,46.8c0.5-1.3,1.2-2.4,2.1-3.2c0.2-0.2,0.4-0.4,0.6-0.6c0.8-0.6,1.6-1.2,2.7-1.7c2.6-1.4,4.8-3.7,6.7-6.1
	c0.4-0.6,0.9-1.2,1.3-1.8c0.3-0.5,0.7-0.7,1-1.4l0,0l0,0c0-4.1,0-8.1,0-12.2c-0.4,0-0.9,0-1.3,0c-2.1,1.1-4.2,2.2-6.3,3.3
	c-1.3,0.7-2.6,1.4-4,2.2c-0.2,0.1-0.3,0.2-0.5,0.3c-0.1,0-0.1,0.1-0.2,0.1c-2.6,1.4-5.1,3.1-5.2,6.6c-0.1,4.8-0.3,9.5-0.3,14.4
	c0,0.8,0.9,1.6,1.4,2.4C254.6,48.2,255.8,47.7,255.9,46.8z"/>
<path class="st0" d="M258.5,33c2.1-1.9,4.4-3.6,6.6-5.4c0.4,4.2-1,6.9-4.3,8.2c-0.8,0.3-1.8-0.1-2.8-0.2
	C258.3,34.7,258,33.5,258.5,33z"/>
<path class="st0" d="M270.2,123.3C270.2,123.4,270.2,123.4,270.2,123.3c2.3,0.1,4.5,0.1,6.8,0.1"/>
<path class="st0" d="M270.3,258.5c0,1.5,0,3,0,4.5c0,7.3,0,14.6,0,22c0,0.1,0,0.2,0,0.2c0,0.4,0,0.7,0,1.1c2.3,0,4.5,0,6.8,0
	c0-4.7,0-9.3,0-14c0-2.7,0-5.5,0-8.2l0,0"/>
<path class="st0" d="M270.2,120.4c2.3,0,4.5,0,6.8,0c0-1.7,0-3.3,0-5c-2.3,0-4.6,0-6.8,0C270.2,117.1,270.2,118.8,270.2,120.4z"/>
<path class="st0" d="M203.2,7c0,3.4,0,6.8,0,10.2C206.6,14.5,206.6,10.9,203.2,7z"/>
<path class="st0" d="M270.2,65c0,2.6,0,5.2,0,7.9c0,5.2,0,10.3,0,15.5c0,0.1,0,0.1,0,0.2c0,4.6,0,9.2,0,13.9c0,0.5,0,1,0,1.5
	c2.3,0,4.5,0,6.8,0c0-2.3,0-4.7,0-7c0-3.3,0-6.7,0-10c0-0.4,0-0.8,0-1.2c0-4.3,0-8.6,0-12.9c0-2.6,0-5.1,0-7.7"/>
<path class="st0" d="M270.2,19.1C270.2,18.6,270.2,19.1,270.2,19.1L270.2,19.1L270.2,19.1z"/>
<path class="st0" d="M277.1,69.9c0-1.2,0-2.4,0-3.6c0-2.2,0-4.4,0-6.6c0-1.4,0-2.7,0-4.1c0-12,0-23.9,0-35.9c-0.3,0-0.5,0-0.8,0
	c-0.3,0.9-0.5,1.6-0.8,2.2c-1.7,3.3-3.2,6.8-5.2,10l0,0l0,0c0,2.8,0,5.5,0,8.3c0,6.5,0,13,0,19.5c0,2.2,0,4.4,0,6.6"/>
<path class="st0" d="M277.1,17.2c-0.3,0.8-0.4,1.4-0.6,1.9c0.2,0,0.4,0,0.6,0C277.1,18.5,277.1,17.9,277.1,17.2z"/>
<path class="st0" d="M277.1,204.7L277.1,204.7c0-1.9,0-3.7,0-5.6c-0.2-0.3-0.4-0.5-0.7-0.7c0.2-0.5,0.4-0.9,0.7-1.4
	c0-2.2,0-4.3,0-6.5"/>
<path class="st0" d="M270.3,197.1C270.2,197.1,270.2,197.1,270.3,197.1c0,2.4,0,4.9,0,7.3c0,0.1,0,0.2,0,0.3"/>
<path class="st0" d="M270.4,208.2c0-0.4-0.1-0.8-0.2-1.3c0,0.7,0,2.4,0,3.7v0.1c0,0.2,0,0.3,0,0.5c0.1-0.7,0.1-1.4,0.2-2
	C270.5,208.8,270.5,208.5,270.4,208.2z"/>
<path class="st0" d="M270.2,123.3c0,1,0,1.9,0,2.9c0,0.3,0,0.6,0,1c0,1.6,0,3.2,0,4.8l0,0c0,0.6,0,1.2,0,1.8c0,3.8,0,7.7,0,11.5
	c0,0.6,0,1.2,0,1.8c0,0.1,0,0.1,0,0.2c0,1.3,0,2.7,0,4c0,2.1,0,28.1,0,30.2"/>
<path class="st0" d="M277.1,174.7c0-0.4,0,2.8,0,2.4c0-3.1,0-9.8,0-12.8c0-0.1,0-0.1,0-0.2c0-0.6,0-1.2,0-1.8c0-4.8,0-9.6,0-14.3
	c0-1.9,0-3.7,0-5.5c0-0.7,0-18.3,0-19"/>
<path class="st0" d="M270.3,297c0,1.2,0,2.4,0,3.5c0,1.4,0,2.8,0,4.2c0,0.1,0,0.1,0,0.2c2.3,0,4.5,0.1,6.8,0.1c0-0.1,0-0.2,0-0.3
	c0-1.4,0-2.8,0-4.2c0-0.6,0-1.2,0-1.9c0-0.2,0-0.4,0-0.6c0-2.7,0-5.5,0-8.2c0-0.1,0-0.2,0-0.3c-2.3,0-4.6,0-6.8,0c0,1.1,0,2.1,0,3.2
	C270.3,294.2,270.3,295.6,270.3,297z"/>
<path class="st0" d="M24.4,257c3.2-13.6,6.3-26.7,9.5-39.2c-7.7,0-15.3,0-23,0c0,13.9,0,27.6,0,41.3c0.6-0.2,69.6-0.3,177.9-0.5
	c0-0.5,0-1,0-1.6C135.9,257,81.1,257,24.4,257z"/>
<path class="st0" d="M270.3,257c-26.6,0-53.8,0-81.4,0c0,0.5,0,1,0,1.6c25.1,0,52.4-0.1,81.4-0.1"/>
<path class="st0" d="M302.1,88.9c-0.1,0.2-0.2,0.4-0.3,0.6C302,89.3,302.3,89.1,302.1,88.9z"/>
<path class="st0" d="M270.2,232v0.1c0,0.3,0,0.6,0,0.9c0,1.9-0.1,3.7-0.1,5.6c0,1.7,0,3.3,0.1,5c0,0,0,0,0,0.1l0,0
	c0,0.4,0,13,0,13.4"/>
<path class="st0" d="M277.1,264L277.1,264c0.1,0.1,0.1,0.2,0.2,0.3c6.8,7.3,15.3,9.3,24.9,7.9c2.3-0.3,5-0.3,7,0.7
	c5.3,2.4,9.1,2.4,11.8,0.3V231c-2.8-0.6-2.9-2.2-1.3-6.2c0.7-1.6,0.6-4.1-0.2-5.6c-0.3-0.5-0.5-1-0.7-1.4c-16.4,0-32.8,0-49.3,0
	c-0.2,1.3-0.3,2.6-0.5,3.9c0.4,2,0.8,4,1.2,6"/>
<path class="st0" d="M270.2,204.8L270.2,204.8c-0.1,0.2-0.2,0.3-0.3,0.5c0.1,0.5,0.2,1.1,0.3,1.6l0,0c0.1,0.4,0.1,0.8,0.2,1.3
	c0,0.3,0,0.6,0,0.9c-0.1,0.7-0.1,1.3-0.2,2l0,0c0,0.3-0.1,0.6-0.1,0.8l0,0c0,0,0,0,0,0.1c15.9,0,31.7,0,47.6,0v-0.1l0,0
	c0.5-1.2,1.5-2.5,3.2-4.3V190c-0.9-1.3-1.9-2.4-3.2-3.5c-0.7-0.6-1.5-1.2-2.4-1.7c-0.5-0.4-1-0.8-1.6-1.2c-0.3-0.1-0.7-0.2-1.1-0.4
	c-1-1.3-2.1-2.7-3.1-4c-0.9-1.5-1.8-3-2.6-4.5"/>
<path class="st0" d="M277.1,190.5L277.1,190.5c0.2,0,0.5-0.1,0.8-0.1c0.7,0,1.4,0.1,2.2,0.3c2.7,0.9,5.5,1.6,8.3,2.5
	c0.6,0.2,1.1,0.4,1.7,0.6c1.8,0.7,3.6,1.7,4.9,3.1c0.4,0.5,0,3.1-0.8,3.6c-3.6,2.3-7.3,4.4-11.1,6c-0.3,0.1-0.7,0.2-1.1,0.2
	c-1.2,0-2.7-0.6-3.7-1.2c-0.4-0.3-0.8-0.5-1.2-0.8"/>
<path class="st0" d="M270.8,180.8c-0.2,0.2-0.4,0.5-0.6,0.7c-1.3,1.8-2.3,4-3.5,5.8c-1,1.5-2,3-3,4.5l0,0c0,0.5,0.1,1,0.2,1.5
	c0.3,1.9,1,3.5,2.4,4.7c0.6,0.5,1.2,0.9,2.1,1.2c0,0,0,0,0.1,0c0.6-0.7,1.2-1.4,1.9-2.2l0,0"/>
<path class="st0" d="M282,174.8c-0.5,0.3-1.1,0.6-1.6,0.9c-1.1,0.5-2.2,1-3.3,1.5l0,0H277"/>
<path class="st0" d="M307.1,174.7c-0.5-0.8-0.9-1.6-1.4-2.4c-0.9-0.2-1.8-0.3-2.6-0.5c-6.2-1.1-12.3-1.5-18.3,1.1l0,0l0,0l0,0
	c-0.8,0.7-1.7,1.3-2.6,1.8"/>
</svg>
