<?xml version="1.0" encoding="utf-8"?>
<!-- Generator: Adobe Illustrator 22.0.0, SVG Export Plug-In . SVG Version: 6.00 Build 0)  -->
<svg version="1.1" id="Layer_1" xmlns="http://www.w3.org/2000/svg" xmlns:xlink="http://www.w3.org/1999/xlink" x="0px" y="0px"
	 viewBox="0 0 66.7 48.2" style="enable-background:new 0 0 66.7 48.2;" xml:space="preserve">
<style type="text/css">
	.st0{fill:none;stroke:#000000;stroke-miterlimit:10;}
</style>
<g>
	<path class="st0" d="M54.2,1.7C54.1,1.1,54,0.5,53.8,0c-0.9,0-1.8,0-2.7,0c0.2,0.5,0.3,1.1,0.3,1.7C52.4,1.7,53.3,1.7,54.2,1.7z"/>
	<path class="st0" d="M21.3,23.3c0-0.3,0-0.6,0-0.9c-2.8,0-5.7,0-8.5,0c0,0.3,0.1,0.6,0.1,0.9C13.3,23.2,16.2,23.3,21.3,23.3z"/>
	<path class="st0" d="M51.5,22.4c-4.9,0-9.7,0-14.6,0c-1.5,0.4-2.6,0.7-3.6,0.9c-0.1,0-0.1,0-0.2,0c5.3,0,11.6,0,18.8,0
		C51.7,23,51.6,22.7,51.5,22.4z"/>
	<path class="st0" d="M36.9,14.9c0.4,0.5,0.8,1.1,1.2,1.6c4.8,0,9.6,0,14.3,0c-0.2-0.5-0.4-1.1-0.6-1.6c-0.7-1.8-2-3.2-3.7-4.4
		c-0.7,0-1.3,0-2,0c-0.6-0.6-1.3-1.2-2.1-1.6c-3.7,0-7.4,0-11.1,0C33,9,33,9,32.9,9c-0.4,0.7-0.7,1.8-1.1,2.6l0,0
		c0.8,1.1,1.6,2.2,2.4,3.3C35.1,14.9,36,14.9,36.9,14.9z"/>
	<path class="st0" d="M21.3,13.9c-2.1-0.8-3.5-0.1-4.7,1c1.6,0,3.1,0,4.7,0C21.3,14.6,21.3,14.3,21.3,13.9z"/>
	<path class="st0" d="M4.3,37.7c0.2-0.1,0.4-0.3,0.6-0.4c0.4,0.7,1.4,1.3,2.9,2.1C8.9,38.7,10,38,11,37.2c0-1.9,0-3.8-0.1-5.6
		c0-0.3,0-0.5-0.1-0.8c-0.5-0.3-0.9-0.6-1.4-0.6C9.5,30.1,9.6,30,9.6,30c-0.1-0.1-0.2-0.1-0.2-0.2c0.5-0.1,0.9-0.3,1.4-0.8
		c0,0.1,0,0.3,0,0.4l0,0l0.1-0.1c0.1-0.8,0.1-1.7,0.2-2.5c0-0.9,0-1.9,0.1-2.8c-0.8,0-1.7,0-2.5,0H8.6c-0.1,0-0.2,0.1-0.2,0.2
		c-0.3,0.2-0.6,0.5-0.9,0.8c0-0.9,0-1.7,0.1-2.6c-0.8,0-1.7,0-2.5,0c-0.9,0.1-0.4,0.1-0.6,0.2c-2.5,2.3-4.6,4.9-0.2,7.8
		C0.2,34.8,0.2,35.5,4.3,37.7z"/>
	<path class="st0" d="M7.3,32.5c0-0.3,0-0.6,0-0.8c0.2,0.1,0.3,0.2,0.5,0.3C7.6,32.2,7.5,32.3,7.3,32.5z"/>
	<path class="st0" d="M57.8,3.3c-0.1-0.6-0.2-1.1-0.4-1.7c-1,0-2,0-3,0c0.1,0.5,0.2,1.1,0.3,1.7C55.8,3.3,56.8,3.3,57.8,3.3z"/>
	<path class="st0" d="M21.3,28.9c0-0.5,0-1.1,0-1.6c-3,0-5.9,0-8.9,0l0,0c-0.1,0-0.1,0-0.2,0c0,0.2-0.1,0.4-0.1,0.5
		c0.4,1.4,1.1,4,1.3,6c0,0.3,0.1,0.6,0.1,0.9c0.1,1.4-0.9,2.9-1.4,4.3c-0.6,0.5-1.1,0.9-1.7,1.4c-0.5,0.1-1.1,0.2-1.6,0.4
		c-1.9,1.4-3.7,3.6-5.9,4.1c-0.1,0-0.2,0.1-0.3,0.1c-1.3,0.4-2.1,0.9-2.6,1.6c1.8,0,3.7,0,5.5,0c-0.3,0.1-0.5,0.2-0.7,0.3
		c-0.6,0.4-1,0.8-1.3,1.3c7.2,0,14.3,0,21.5,0c0-6.4,0-12.9,0-19.3C23.8,28.9,22.6,28.9,21.3,28.9z"/>
	<path class="st0" d="M25,16.5c0-0.4,0-0.8,0-1.2c-0.2-0.1-0.4-0.2-0.6-0.2c-1.9-0.5-3.2,0.3-4.3,1.4C21.7,16.5,23.3,16.5,25,16.5z"
		/>
	<path class="st0" d="M55.2,24c-5.2,0-10.5,0-15.8,0c-1,0.3-1.8,0.5-2.6,0.7c-0.7,0.2-1.6,0.2-2.3,0.3c5.7,0,12.8,0,21.1,0.1
		C55.5,24.7,55.4,24.4,55.2,24z"/>
	<path class="st0" d="M16.5,24.9c0.5,0,3.3,0,8.5,0.1c0-0.3,0-0.6,0-0.9c-2.8,0-5.7,0-8.5,0C16.5,24.3,16.5,24.6,16.5,24.9z"/>
	<path class="st0" d="M66.7,48.2c0-1.4,0-2.8,0-4.1c-1.6-3.1-3.4-5.9-5.3-8.7c-0.2-0.4-0.5-0.7-0.7-1.1c-0.2-0.2-0.3-0.5-0.5-0.7
		c-1.1-1.5-2-3.1-2.8-4.7c-1,0-2,0-2.9,0c-0.3-0.5-0.6-1.1-0.9-1.6c-8.1,0-16.3,0-24.5,0c0,6.5,0,13,0,19.3c1.2,0,2.4,0,3.7,0
		c0,0.5,0,1.1,0,1.6C44,48.2,55.4,48.2,66.7,48.2z"/>
</g>
</svg>
