<?xml version="1.0" encoding="utf-8"?>
<!-- Generator: Adobe Illustrator 22.0.0, SVG Export Plug-In . SVG Version: 6.00 Build 0)  -->
<svg version="1.1" id="Layer_1" xmlns="http://www.w3.org/2000/svg" xmlns:xlink="http://www.w3.org/1999/xlink" x="0px" y="0px"
	 viewBox="0 0 7.7 67.7" style="enable-background:new 0 0 7.7 67.7;" xml:space="preserve">
<style type="text/css">
	.st0{fill:none;stroke:#000000;stroke-miterlimit:10;}
</style>
<g>
	<path class="st0" d="M0,0.7c0,0.8,0,1.7,0,2.5c0.4,0,0.7,0,1.1,0C0.7,2.4,0.4,1.5,0,0.7z"/>
	<path class="st0" d="M1.1,3.2c-0.4,0-0.7,0-1.1,0c0,3,0,6,0,9c1.2,0,2.3,0,3.5,0c0-2.1,0.1-4.1,0.1-5.9C2.4,5.7,1.7,4.5,1.1,3.2z"
		/>
	<path class="st0" d="M0,30.9c1.1,0.7,2.2,1.3,3.3,2c0.1-6,0.1-11.4,0.2-16.3c-1.1,0-2.3,0-3.4,0C0,21.4,0,26.2,0,30.9z"/>
	<path class="st0" d="M0,66.3c0.9-0.6,2.1-1.2,3-1.6c0-6.3,0.1-12,0.1-17.3c-1,0-2.1-0.2-3.2-0.5C0,53.3,0,59.8,0,66.3z"/>
	<path class="st0" d="M0,42.3c0.2,0,0.3,0,0.5,0.1c0.9,0,1.8,0.1,2.7,0.1c0-1.7,0-3.4,0-5.1C2.1,36.7,1,36,0,35.2
		C0,37.5,0,39.9,0,42.3z"/>
	<path class="st0" d="M6.4,7.2C5.8,6.5,5.4,5.7,5,4.9c-0.4,0-0.7,0-1.1,0c0,0.5,0,1.1,0,1.6C3.8,6.4,3.7,6.3,3.6,6.2
		c0,0.1,0,0.1,0,0.2C3.7,6.5,3.9,6.5,4,6.6c0,2.4,0,4.9,0,7.3c1.1,0,2.1,0,3.2,0c0-2.2,0.1-4.2,0.1-6C6.9,7.7,6.7,7.4,6.4,7.2"/>
	<path class="st0" d="M3.9,2.4c0,0.8,0,1.7,0,2.5c0.4,0,0.7,0,1,0C4.6,4,4.3,3.1,3.9,2.4z"/>
	<path class="st0" d="M3.9,32.3c1,0.6,2,2,3,1.9C7,28.3,7,23,7.1,18.3c-1,0-2.1,0-3.2,0C3.9,23,3.9,27.6,3.9,32.3z"/>
	<path class="st0" d="M3.9,67.7c0.9-0.6,1.9-1.1,2.8-1.8c0-6,0.1-11.7,0.1-17c-1,0-1.9-0.1-2.9-0.4C3.9,55,3.9,61.4,3.9,67.7z"/>
	<path class="st0" d="M3.9,44c0.1,0,0.2,0,0.3,0c0.9,0,1.8,0,2.7,0c0-1.7,0-3.4,0-5.1c-1-0.7-2-1.3-3-2C3.9,39.3,3.9,41.6,3.9,44z"
		/>
</g>
</svg>
