<?xml version="1.0" encoding="utf-8"?>
<!-- Generator: Adobe Illustrator 22.0.0, SVG Export Plug-In . SVG Version: 6.00 Build 0)  -->
<svg version="1.1" id="Layer_1" xmlns="http://www.w3.org/2000/svg" xmlns:xlink="http://www.w3.org/1999/xlink" x="0px" y="0px"
	 viewBox="0 0 73.5 112.3" style="enable-background:new 0 0 73.5 112.3;" xml:space="preserve">
<style type="text/css">
	.st0{fill:none;stroke:#000000;stroke-miterlimit:10;}
</style>
<g>
	<path class="st0" d="M32.4,99.4c0.1,0.3,0.1,0.5,0.2,0.8c1.1,0.9,2.2,1.8,3.2,2.7l0.2,0.1c0.5,0.6,1,1.1,1.4,1.7
		c0.7,0.7,1.3,1.3,2,2c0.5,0.5,1.1,1,1.6,1.4c0,0,0.2,0.1,0.2,0.1c0.6,0.5,1.2,1,1.8,1.4c1.3,0.4,2.6,0.9,4,1.4
		c8.1,2.8,10.3,1.2,11.3-5.4c0.1-0.7,0-1.6,0.4-2.1c1.5-1.8,1.7-5.2,6-3.3c1.4,0.6,3,0.2,4.4-0.8C56.9,99.4,44.7,99.4,32.4,99.4z"/>
	<path class="st0" d="M71.1,62.4c2.2-3.4,2.9-6.4,2-9.5c-0.2-0.8-0.6-1.7-1.1-2.6c-0.3-0.6-0.7-1.2-1.2-1.9
		c-1.9-2.7-3.5-5.7-4.6-8.8c-0.7-2.1-1.1-4.4-1.1-6.6c0-4.2-0.2-8.3-1.1-12.6c-0.2-1.1-0.5-2.2-0.8-3.4c-0.4-1.4-0.9-2.9-1.5-4.2
		c-2.4-5.7-6-10.5-13.2-12.7c-0.3-0.1-0.6-0.2-1-0.2c-1.4,0-2.8,0-4.3,0c-1.3,0.4-2.3,1.2-3.4,2.3c-2.2,2.3-4.6,4.6-4,8.1
		c0.1,0.6,0.3,1.3,0.7,2.1c0.4,0.9,0.8,1.8,1,2.6c0.8,2.9,0.3,5-1.6,7c-0.1,0.1-0.2,0.2-0.3,0.3c-0.7,0.7-1.6,1.4-2.7,2.1
		c-0.6,0.4-1.1,0.9-1.6,1.4c-0.8,0.9-1.6,1.8-2.5,2.1c-1.1,0.9-2.7,2.5-3.5,2.2c-0.2-0.1-0.3-0.1-0.5-0.2c-1.2-0.7-2-2.2-3.1-3.2
		c-0.2-0.1-0.4-0.3-0.6-0.4c0,0.1,0,0.1,0,0.2c-0.4-0.3-1-0.6-1.1-0.9c0,0,0-0.1,0-0.1c0-2.4-0.8-3.7-2-4.3
		c-1.1-0.3-2.4-0.1-3.9,0.2c-0.3,0.1-0.7,0.3-1,0.4c-0.2,0.1-0.4,0.2-0.5,0.2c-1.3,0.6-2.6,1.2-3.9,1.7c-0.1,0-0.1,0.1-0.2,0.1
		c-0.1,0.1-0.2,0.1-0.4,0.2c-0.9,0.4-1.7,1-2.4,1.6c-2.8,2.6-3.9,6.6-2.4,10.5C5.2,41,4.1,44.5,0,47.3c0,5.1,0,10.3,0,15.4
		c23.6,0,47.2,0,70.9,0C71,62.6,71,62.5,71.1,62.4z"/>
	<path class="st0" d="M72.9,92.4c-0.1-1-0.3-1.9-0.5-2.8c-0.1-0.3-0.1-0.5-0.2-0.8c-1.2-4.6-3.8-8.6-8.7-11.7
		c0.1-0.2,0.2-0.4,0.3-0.6c0.5-0.9,0.9-1.8,1.3-2.7c-19.8,0-40.1,0-60.9-0.1c1.1,1.8,2.5,3.3,4,4.8c0.1,0.1,0.2,0.2,0.3,0.3
		c2.2,2,4.8,3.8,7.5,5.5c0.2,0,0.3,0.1,0.5,0.1c3.7,0.8,7.4,1.7,11.1,2.6c0.2,0.1,0.4,0.3,0.6,0.6c0.2,0.3,0.4,0.6,0.6,0.9
		c0,0,0,0,0,0l0.1,0.1c0.1,0.3,0.2,0.6,0.3,0.9c0.5,1.5,1,2.9,1.5,4.5c14.3,0,28.3,0,42,0C72.9,93.4,73,92.9,72.9,92.4z"/>
</g>
</svg>
