<?xml version="1.0" encoding="utf-8"?>
<!-- Generator: Adobe Illustrator 22.0.0, SVG Export Plug-In . SVG Version: 6.00 Build 0)  -->
<svg version="1.1" id="Layer_1" xmlns="http://www.w3.org/2000/svg" xmlns:xlink="http://www.w3.org/1999/xlink" x="0px" y="0px"
	 viewBox="0 0 111.1 157" style="enable-background:new 0 0 111.1 157;" xml:space="preserve">
<style type="text/css">
	.st0{fill:none;stroke:#000000;stroke-miterlimit:10;}
</style>
<title>08</title>
<g>
	<path class="st0" d="M2.6,65.4c1.2-3.8,2-7.7,3.6-11.2c1.4-3.2,4.1-6.1,6.5-10.4c1.4,10.2-0.4,18.1-6.5,24.7H97
		C83.4,45.8,69.6,22.9,55.7,0H0.9C0.8,21.2,0.6,44,0.5,68.4c0.7-0.9,1.6-1.8,2.4-2.7L2.6,65.4z"/>
	<path class="st0" d="M84.7,157h26.4"/>
	<path class="st0" d="M109.7,149.5c-10.6,0.9-21.2,1.6-31.9,2.8c-4.1,0.5-8,2.2-11.9,3.4c0.1,0.4,0.2,0.9,0.3,1.3H0
		c0.1-20.1,0.2-39.4,0.6-58.1c32.7-4.8,65.5-9.5,98.3-14.3h8.1c1.2,2.1,2.5,4.3,3.8,6.4v5.3l-29,34.9c0.1,0,0.1,0,0.2,0l-4.9,5.8
		c-0.1,0-0.1,0-0.2,0l-0.2,0.2L109.7,149.5z"/>
</g>
</svg>
