<?xml version="1.0" encoding="utf-8"?>
<!-- Generator: Adobe Illustrator 22.0.0, SVG Export Plug-In . SVG Version: 6.00 Build 0)  -->
<svg version="1.1" id="Layer_1" xmlns="http://www.w3.org/2000/svg" xmlns:xlink="http://www.w3.org/1999/xlink" x="0px" y="0px"
	 viewBox="0 0 298 358" style="enable-background:new 0 0 298 358;" xml:space="preserve">
<style type="text/css">
	.st0{fill:none;stroke:#000000;stroke-miterlimit:10;}
</style>
<path class="st0" d="M284.6,273.2c-13,0.1-26.3,0.3-39.9,0.4c0-8.8,0-17.7,0-26.6c0-6,0-11.9,0-17.9c0-1.2,0-2.4,0-3.6
	c-0.2,0-0.4,0-0.6,0c0,1.2,0,2.4,0,3.6c-2.8,0-5.6,0-8.3-0.1c-0.5,0-1.1,0-1.6,0c0-0.2,0-0.4,0-0.6c0-0.5-0.1-1-0.3-1.5
	s-0.4-1-0.7-1.4c-9,0-16.8,0.1-23.5,0.1c0,4.8,0,9.7-0.1,14.6c0,2.2,0,4.5,0,6.7c11.5,0,23,0,34.5,0l0,0c0,8.5,0,17.4,0,26.6
	c-22.7,0.2-46.1,0.5-70.2,0.7c0.1-5,0.2-10,0.4-14.9v-0.1c-0.8,0.4-1.6,0.8-2.4,1.1c-0.2,0.1-0.5,0.1-0.7,0.2
	c-0.4,0-0.8,0.1-1.1,0.1s-0.5,0-0.7,0c0,0.4,0,0.8,0,1.2c0,4.2,0,8.4-0.1,12.6c-9.6,0.1-19.2,0.2-29,0.3c1.2-75.1,2.3-75.1,3.5-0.1
	c5.6-2.7,11.1-5.5,16.7-8c0-0.1-0.1-0.3-0.1-0.4c-0.1-0.6-0.2-1.1-0.3-1.7c-0.3,0.2-0.7,0.3-1,0.5c-1.1-6.5-2.7-12.9-3-19.5
	c-0.3-6.3,0.6-12.6,1.1-19c0-0.6,0-1.3-0.2-2.1c-1.7-5.6-7.1-13.7-10.9-15.4c-0.2-0.1-0.5-0.2-0.7-0.3c-9.3-6.9-18.6-12.3-29.7-3.3
	c-0.4,0.3-1.9-0.4-2.7-0.7c0.1-0.3,0.3-0.6,0.4-0.9c-0.3-0.1-0.5-0.2-0.7-0.2c0.6-1.3,1.3-2.5,2.1-3.5c5.3-6.2,14.4-7.4,24.6-3.3
	c1.7,0.7,3.4,1.5,5.2,2.5l0,0c0.6,0.4,1.1,0.9,1.7,1.3c5.8,0.7,11.9,0.1,17.6,1.7c0.7,0.2,1.5,0.5,2.2,0.8c1.3,0.5,2.6,1.2,3.8,2
	c0,0.1,0,0.3,0,0.4c0.1,0.1,0.2,0.1,0.3,0.2c0.9,0.7,3.6-0.9,5.9-1.7c0-0.1,0-0.2,0-0.3c0.8-0.4,1.5-0.7,2.1-1c0-0.1,0-0.2,0-0.3
	c-0.1-0.1-0.2-0.2-0.3-0.3c0-0.9,0-1.8,0-2.6c0.1-1,0.2-2,0.3-3c1.1-1.9,2.2-3.9,3.3-5.8c-0.1-0.9-0.2-1.8-0.3-2.7
	c0.1,0.1,0.2,0.1,0.3,0.2c0-0.1,0.1-0.2,0.1-0.4l-0.1-0.1c-1.4-0.4-2.8-0.9-4.2-1.3c-0.2-0.1-0.5-0.2-0.8-0.3c0,0,0,0,0-0.1
	c-0.1,0-0.3-0.1-0.4-0.1c-1.8-0.7-3.6-1.5-4.8-2c-0.7-4.9-1.4-9.4-2-13.8c-1.7-0.3-3.4-0.5-5-0.8c0.2-0.1,0.4-0.1,0.6-0.2
	c0,0,0,0-0.1,0c-3.3,0.8-6.5,2.6-9.5,2.3c-1-0.1-1.9-0.5-2.9-0.9c-2.2-0.8-4.5-2.4-7.2-3.9c-5.3,1.6-12.2,3.8-19.3,5.5
	c-0.4,0.1-1.1-0.1-1.8-0.5c-1.4-0.3-3.8-2.2-3.6-2.6c1.5-5.1,3.5-10,5.4-15c0.9,0.2,1.7,0.5,2.6,0.7c0,0.1,0,0.1,0,0.2
	c0.4,0.1,0.8,0.2,1.2,0.4c0.4,2.4,0.9,4.7,1.6,8.4c3.7-1,7.7-1.3,10.3-3.4c3.3-2.6,6-3.3,8.7-1.8c1.2,0.3,2.4,1.1,3.7,2.3
	c1.1,1.1,2.2,1.8,3.3,2.4c2.5,0.8,5.1,0.2,8.2-1.6c5.1-2.9,12,0.5,10.9,5.5c-0.5,2.6-0.2,4.6,0.6,6.4c0.1-2.8,0.2-5.5,0.3-8.1
	c0.3,0.7,0.4,1.5,0.4,2.3c-1.5,6.9,3.5,10.1,6.4,13.9c3.6,4.9,5.3,8.4,2,14c-2,3.5-2.1,5.7-0.2,6.9c1,0.3,2.3,0.3,3.9,0.2
	c4.2-0.3,8.5-0.9,12.7-1.5c0-48.6-0.1-99.1-0.1-151.7c-2-2-1.3-6.6-2-11.3c4.6,5.2,7.7,8.7,11.2,12.6c-0.1,0-0.2,2.4-0.2,7
	c0.2,0.1,0.3,0.1,0.5,0.2c1.5,0.6,2.6,2.4,4.1,3c3.1,1.1,4.1,2.8,4.2,4.9c0,1.3-0.3,2.7-0.7,4.2c-0.8,2.6-0.8,5.4-1.9,7.8
	c-1.1,2.5-1.8,4.8-1.9,7.1c-0.1,2.9,0.9,5.8,3.4,9.1c0.8,1.1,0.6,3-0.1,5.3c-0.9,2.9-2.5,6.3-3.7,8.8c-1.1,2.2-2.7,4.1-4.5,5.9
	c0,4.3-0.1,8.8-0.1,13.5c0.3-0.6,0.5-1.2,0.4-1.7c-1.8-9.8,3.3-8.7,7.5-6.9c5.6-3,10.1-4.8,13.8-7.7c2.5-1.9,5.1-5.2,5.3-8.2
	c0.7-11.2,0.4-21.7,0.6-32.6c0-3,0.1-6,0.6-8.9c0.7-4,3-4.2,6.7-3.2c0.9,0.3,1.9,0.5,2.8,0.8c6,1.7,13.2,3,19.8,4.5
	c0.1,0.1,0.2,0.2,0.3,0.3c0.3,0.1,0.6,0.1,1,0.2c6.9,1.1,13.9,2.1,20.8,3.2c0-11.8,0-23.5,0-35c-9.8,2.3-18.3-2.6-27.5-4.2
	c-15.2-2.7-30.4-5.3-45.6-7.9c-1.5,0.1-2.6,0.4-3.4,1c-0.7,1-1,2.6-1.1,4.7c-0.1,2.4-1.2,4.8-1.9,7.2c-0.2-0.3-0.5-0.4-0.7-0.5
	c-0.1,0.3-0.2,0.6-0.2,0.8c-0.7-0.1-1.5,0.6-2.2-0.4c-0.1-3.9,0.1-7.9,0.3-12.5c-1.9,2-3.4,3.6-4.9,5.1c0-0.2,0-0.4,0-0.7
	c-0.3,0.3-0.6,0.7-0.9,1c0.1-6.3-2.1-11.2-4.9-15.8c-10.4,0-20.9,0-31.3,0c0.4,0.5,0.8,0.9,1.2,1.3c0.2,0.1,0.3,0.3,0.5,0.4
	c3.4,2.6,8.2,4.6,12.3,6.9c0,0.1,0,0.2-0.1,0.3c0.3,0.2,0.6,0.3,0.9,0.5c-0.2,1-0.4,2.1-0.6,3.1c-18.9,1.5-37.7,3.1-56.6,4.6h-0.1
	c-6.9,2.6-12.9,5.1-19.3,7.7c-0.4,0.2-0.8,0.3-1.2,0.3c-0.2,0.1-0.3,0.2-0.5,0.3c0,16.6,0,33.8,0.1,51.6c0.8,0.4,1.6,0.8,2.4,1.2
	c0.5,0.3,1,0.5,1.5,0.8c-1.3,0.5-2.6,1.3-3.9,2c0,34.7,0.1,71.7,0.1,111.1c0.4,0.2,0.7,0.4,1.1,0.7c1.2,0.9,2.4,1.9,3.5,3.3
	c-1.6,0-3.1,0-4.6,0c0,22,0,44.8,0.1,68.4c-2.1,0-4.3,0-6.4,0.1c-0.1-23.5-0.2-46.4-0.2-68.4c-4.5,0-8.9,0-13.2,0c-1,0-2,0-3,0
	c-0.3,0.6-0.6,1.3-0.9,1.9c-0.1,7.1-0.2,30-0.4,66.7c-1.8,0-3.5,0-5.3,0c0-18.1,0-36.2,0-54.5c-1.3,3.2-2.6,6.3-3.9,9.4
	c0,15.2,0,30.2-0.1,45.1c-19.3,0.2-39,0.4-59,0.5v73.8c6.8,0,13.7,0,20.7,0c4-53.5,7.9-55.4,11.9-57.3l0,0l0,0
	c0.8-4.3,3.4-6.3,6.9-7c0.8-0.2,1.7-0.3,2.6-0.3l0,0c0.8-0.2,1.6-0.4,2.4-0.6c1.2-0.8,2.4-1.7,3.6-2.5c0.4,0,0.7-0.1,1-0.2
	c1.7-0.9,3.4-1.8,5.1-2.6c0.3,0,0.7,0,1-0.2c0.3-0.1,0.5-0.3,0.8,6.3c1,0,2,0,3.1,0c0,2.4,0,4.8,0,7.2c-0.9,0-1.9,0-2.8,0
	c0,1.3,0.1,2.8,0.1,4.4c0.1,0,0.1-0.1,0.2-0.1c0.3-0.3,0.7-0.5,1.1-0.7c0.5-0.2,1-0.5,1.5-0.7c0,1.3,0,2.7,0,4
	c0.2,0.8,0.5,1.6,0.7,2.4c-1.1-0.3-2.2-0.7-3.3-1.1c0.2,10.5,0.4,26.1,0.5,49.1c6.1,0,12.3,0,18.5,0c0.1-18.4,0.1-33.8,0.1-46.3
	c1.3-0.7,2.5-1.5,3.6-2.4c2.3-1.8,4.6-3.4,7-4.9c0-3.6,0-7.2,0-10.7c2.1,0,4.2,0,6.4,0c0,2.3,0,4.7,0,7c4.8-2.6,9.9-4.9,14.9-7
	c31.9,0.1,74.7,0.2,127.3,0.3c0,3.3,0,6.6,0,10c0,3.2,0,6.5,0,9.8c0,0,0,0,0,0.1c0,9.8,0,19.9,0,30.3c0.2,0,0.4,0,0.6,0
	c0-10.1,0-20.1,0-30.3v-0.1c0-3.3,0-6.7,0-10s0-6.5,0-9.8c12.7,0,26,0,39.9,0.1C284.6,281.5,284.6,277.3,284.6,273.2z"/>
<path class="st0" d="M236.9,35.5c0.2,0,0.3,0.1,0.5,0.1v-0.1c16.6,3.9,32.6,7.6,48.5,11.2c-2.1,4.3-10.5,9.1-14.4,8.9
	c-1.2,0.1-2-0.2-2.4-1c-3.4-7.2-10.2-6.8-16.1-8.5c-3.8-1.1-7.8-1.4-11.8-2C236.2,43.4,235.4,40.4,236.9,35.5z"/>
<path class="st0" d="M183.8,79c1.7,0,3.5-0.2,5.2,0c4.3,0.4,6.7,2.2,6.9,4.8c0.1,1.5-0.6,3.3-2.2,5.3c-3,3.8-7.2,6.6-10.9,9.8
	c-0.7-0.7-1.4-1.4-2.2-2.1v-0.1l0,0c3-3.7,6.1-7.4,9.2-11.3c-2.4-1.3-5-2-7.6-2.1l0,0c-4.1-0.2-7.8,1.2-9.6,4.1
	c-1,1.6-0.7,5.1,0.5,6.6c3.8,4.8,1.1,7-3.1,9.7C161.1,86.5,165.3,79.4,183.8,79z"/>
<path class="st0" d="M153.9,123.5c0,1,0,2,0,2.9c0,0.4,0,0.8,0,1.2c0,0.1,0,0.2,0,0.3c0,1.5-0.1,3-0.1,4.5c0,0.1,0,0.1,0,0.2
	c0,1,0,1.9,0,2.9l0,0l0,0c0.4,10.2-6.7,15.3-17.7,12.1l0,0l0,0c3.4-4.1,11.6-3.7,11.7-10.7c0-0.7-0.1-1.5-0.2-2.4
	c-0.4-2.1-0.5-4.3-0.5-6.6c0-3.8,0.3-7.7,0.3-11.9C151.2,115.4,153.8,118,153.9,123.5z"/>
<path class="st0" d="M140.1,98.8c3.6,3,7,5.9,11.5,9.7c-3.2,0.6-5.7,1-7.6,1C138.2,109.4,137.6,106.4,140.1,98.8z"/>
<path class="st0" d="M115.1,80c1.4-0.5,3-0.4,4.4-0.6c0,0.1,0,0.2,0,0.4c4.5,0,9.1-0.7,13.4,0.3c2.1,0.5,3.6,3.8,5.4,5.9
	c-2.1,0.1-4.2,0.5-6.5,0.4c-5.5-0.1-10.9-0.2-16.4-0.8c-2.4-0.3-4.8-1.7-7.1-2.7C110.7,81.9,112.8,80.8,115.1,80z"/>
<path class="st0" d="M73.7,302.5c-0.4,0-0.8-0.1-1.2-0.1c0-3,0-6,0-8.9c0.9-0.4,1.7-0.7,2.6-1.1c-0.9,0-1.7,0-2.6,0
	c0-2.4,0-4.8,0-7.1c1.7,0,3.4,0,5.3,0c0,5.5,0,11.3-0.1,17.3C76.6,302.7,75.2,302.7,73.7,302.5z"/>
</svg>
